<svg width="92" height="90" viewBox="0 0 92 90" fill="none" xmlns="http://www.w3.org/2000/svg">
<rect width="33" height="12" transform="translate(12 12)" fill="white"/>
<path d="M22.7028 22.5498C22.7068 22.5498 22.7108 22.5439 22.7108 22.5439C22.7428 22.5203 22.7748 22.4909 22.8028 22.4556C22.7988 22.4556 22.7948 22.4556 22.7908 22.4498C22.7628 22.4792 22.7308 22.5145 22.7028 22.5498Z" fill="#000091"/>
<path d="M27.1353 21.0629L27.0653 21.1229C27.1053 21.1129 27.1353 21.1029 27.1353 21.0629Z" fill="#000091"/>
<path fill-rule="evenodd" clip-rule="evenodd" d="M25.7023 22.5817C25.8306 22.4532 25.959 22.3168 26.0874 22.1765H26.0835C26.3247 21.9038 26.5582 21.6428 26.8383 21.4051C26.9239 21.3272 27.0056 21.261 27.0834 21.2064C27.0948 21.195 27.1006 21.1779 27.1064 21.1612C27.1123 21.1438 27.1182 21.1268 27.1301 21.1168C27.0746 21.1379 27.0304 21.1712 26.986 21.2047C26.94 21.2394 26.8937 21.2742 26.8344 21.296C26.8111 21.296 26.7877 21.2727 26.8111 21.2493C26.8928 21.1908 26.9745 21.1285 27.0523 21.0662H27.0367C27.0134 21.0662 27.0134 21.0428 27.0134 21.0194C26.7237 20.9736 26.5013 21.1708 26.3022 21.3473L26.2897 21.3584C26.2587 21.3739 26.2294 21.3585 26.2064 21.3464C26.1948 21.3403 26.1847 21.335 26.1769 21.335C26.0007 21.3938 25.8488 21.5022 25.6958 21.6114C25.555 21.7119 25.4133 21.813 25.251 21.8765V21.8298C25.1959 21.8487 25.1414 21.8734 25.0868 21.8981C25.0065 21.9345 24.9258 21.971 24.8425 21.9895C24.6902 22.0247 24.549 22.0202 24.4121 22.0158C24.3671 22.0143 24.3226 22.0129 24.2783 22.0129C24.0292 22.0375 23.7832 22.0906 23.5375 22.1437L23.4575 22.161C23.4536 22.1629 23.4497 22.1639 23.4458 22.1649C23.4419 22.1658 23.438 22.1668 23.4341 22.1688C23.2863 22.2077 23.1501 22.2623 23.0139 22.3402L22.9984 22.348C22.993 22.3551 22.9877 22.3614 22.9827 22.3673C22.9768 22.3743 22.9715 22.3806 22.9673 22.3869C22.9206 22.4415 22.8778 22.4882 22.8116 22.5233C22.714 22.5722 22.6295 22.6476 22.5465 22.7219C22.5105 22.754 22.4746 22.7861 22.4382 22.8155C22.4304 22.8233 22.4148 22.8272 22.4031 22.8272C22.2825 22.9441 22.1619 23.061 22.0374 23.1739C22.0297 23.1817 21.9946 23.1856 21.9674 23.1817C21.9674 23.1817 21.9713 23.1817 21.9713 23.1778L21.983 23.1545L22.0413 23.061C22.053 23.0434 22.0637 23.0259 22.0744 23.0084C22.0851 22.9908 22.0958 22.9733 22.1075 22.9558C22.1386 22.909 22.1697 22.8622 22.2047 22.8194C22.2125 22.8077 22.2125 22.796 22.2047 22.7882C22.1969 22.7804 22.1853 22.7765 22.1736 22.7765C22.2864 22.6675 22.4187 22.5739 22.5549 22.4921V22.4882C22.5393 22.4921 22.516 22.4804 22.5276 22.4649C22.539 22.4506 22.5484 22.4342 22.5571 22.4188L22.5665 22.4025C22.5685 22.3986 22.5695 22.3957 22.5704 22.3928C22.5714 22.3899 22.5724 22.3869 22.5743 22.383C22.5724 22.3791 22.5695 22.3762 22.5665 22.3733C22.5636 22.3704 22.5607 22.3675 22.5588 22.3636L22.5352 22.3791C22.507 22.3974 22.478 22.4163 22.4537 22.4376C22.4365 22.4523 22.4205 22.4725 22.4041 22.4932C22.3684 22.5382 22.3307 22.5856 22.2748 22.5856C22.2709 22.5856 22.2514 22.5856 22.2397 22.5817C22.2281 22.5817 22.2203 22.5778 22.2164 22.5739C22.2164 22.572 22.2164 22.571 22.2169 22.5705C22.2174 22.57 22.2183 22.57 22.2203 22.57C22.2203 22.57 22.2242 22.5662 22.2242 22.5623C22.2242 22.5623 22.2242 22.5584 22.2281 22.5584C22.23 22.5545 22.232 22.5515 22.2339 22.5486C22.2358 22.5457 22.2378 22.5428 22.2397 22.5389C22.2417 22.535 22.2436 22.5321 22.2456 22.5291C22.2475 22.5262 22.2495 22.5233 22.2514 22.5194C22.2534 22.5175 22.2543 22.5145 22.2553 22.5116C22.2563 22.5087 22.2572 22.5058 22.2592 22.5038L22.2636 22.4958C22.2674 22.4889 22.272 22.4808 22.2748 22.4726C22.2767 22.4688 22.2786 22.4658 22.2806 22.4629C22.2825 22.46 22.2845 22.4571 22.2864 22.4532C22.2923 22.4454 22.2971 22.4366 22.302 22.4278C22.3068 22.4191 22.3117 22.4103 22.3175 22.4025C22.3214 22.3947 22.3253 22.3869 22.3331 22.3791C22.337 22.3713 22.3409 22.3645 22.3448 22.3577C22.3487 22.3509 22.3526 22.3441 22.3565 22.3363C22.3681 22.3168 22.3565 22.3012 22.3409 22.2973C22.3837 22.2428 22.4343 22.196 22.4965 22.161H22.4887C22.5424 22.1341 22.5977 22.1026 22.6525 22.0713C22.6849 22.0528 22.7177 22.0341 22.7494 22.0168C22.7611 22.0051 22.7727 21.9934 22.7883 21.9856C22.6599 22.0285 22.5432 22.0869 22.4304 22.1649C22.4304 22.1649 22.3992 22.1765 22.3915 22.1843C22.3915 22.1843 22.3681 22.1921 22.337 22.1649C22.3331 22.161 22.3331 22.1571 22.3331 22.1493C22.3466 22.1222 22.3745 22.1043 22.4047 22.0849C22.4266 22.0708 22.4496 22.056 22.4693 22.0363C22.4926 22.0363 22.5121 22.0363 22.5121 22.0597C22.9601 21.7099 23.5126 21.6289 24.067 21.5477C24.4079 21.4978 24.7496 21.4478 25.0681 21.335C25.1012 21.3116 25.1352 21.2892 25.1693 21.2668C25.2033 21.2444 25.2374 21.222 25.2704 21.1986C25.3272 21.1751 25.378 21.1348 25.4318 21.0922C25.4851 21.0501 25.5412 21.0056 25.6089 20.9727C25.7879 20.8363 25.924 20.6805 25.994 20.4506C25.994 20.4272 25.9707 20.4038 25.9707 20.4038C25.675 20.7194 25.3366 20.9688 24.9747 21.1519C24.6297 21.3331 24.2601 21.36 23.8941 21.3866C23.7566 21.3966 23.6196 21.4065 23.4847 21.4246C23.508 21.3778 23.5547 21.3779 23.5975 21.3779C23.5975 21.3225 23.6241 21.2987 23.6583 21.2682C23.6674 21.26 23.6771 21.2514 23.687 21.2415H23.7531C23.7648 21.2415 23.7706 21.2298 23.7765 21.2181C23.7823 21.2064 23.7881 21.1947 23.7998 21.1947C23.8465 21.1947 23.9126 21.1714 23.8893 21.1714C23.8536 21.1257 23.8018 21.1438 23.7445 21.1637C23.6895 21.1829 23.6295 21.2038 23.5742 21.1714C23.5947 21.1489 23.6009 21.1219 23.6066 21.0974C23.6126 21.0708 23.6181 21.0471 23.6403 21.035H23.7298C23.7298 20.9882 23.7765 20.9454 23.7765 20.9454C23.9794 20.8239 24.1753 20.7179 24.3676 20.6138C24.496 20.5443 24.6229 20.4756 24.7491 20.4038C24.7236 20.4038 24.7009 20.4143 24.679 20.4244C24.644 20.4406 24.6107 20.4559 24.5701 20.4272C24.5935 20.4272 24.5935 20.4107 24.5935 20.3941C24.5935 20.3775 24.5935 20.361 24.6168 20.361C24.7628 20.3222 24.8927 20.2592 25.0254 20.195C25.119 20.1496 25.2141 20.1036 25.3171 20.0649C25.2865 20.0649 25.2582 20.0731 25.2306 20.0811C25.1775 20.0964 25.127 20.111 25.0681 20.0649C25.0836 20.0571 25.0961 20.0473 25.1084 20.0375C25.1332 20.0178 25.1574 19.9986 25.2043 19.9986V19.9324C25.2043 19.909 25.2276 19.909 25.251 19.909C25.2276 19.909 25.2043 19.8857 25.2043 19.8857C25.2166 19.8609 25.241 19.8558 25.2681 19.8501C25.2922 19.8451 25.3185 19.8396 25.3405 19.8194C25.3171 19.8194 25.2743 19.8194 25.2743 19.796C25.3404 19.7064 25.4533 19.6831 25.5661 19.6597C25.5544 19.6363 25.5321 19.6363 25.5126 19.6363C25.4932 19.6363 25.4766 19.6363 25.4766 19.6129C25.4766 19.5896 25.5 19.5896 25.5233 19.5896H25.4766C25.44 19.5712 25.4465 19.5385 25.451 19.5158C25.4522 19.5096 25.4533 19.5041 25.4533 19.4999C25.5447 19.3927 25.5747 19.2662 25.6046 19.1404C25.6192 19.0788 25.6338 19.0173 25.6556 18.9584C25.6322 18.9584 25.6089 18.9584 25.6089 18.935C25.3901 19.1767 25.0434 19.2683 24.714 19.3554L24.683 19.3636H24.5701C24.4573 19.4103 24.2978 19.4103 24.185 19.3402C24.1313 19.3122 24.0931 19.2771 24.0517 19.2393C24.0241 19.214 23.9952 19.1875 23.9593 19.161C23.7765 19.048 23.5975 18.9584 23.3952 18.8883C22.8311 18.709 22.2436 18.6155 21.6562 18.6389C21.8202 18.5491 21.9944 18.5133 22.1709 18.4771C22.2623 18.4584 22.3544 18.4395 22.4459 18.4129C22.5037 18.396 22.5609 18.3785 22.6179 18.3611C22.9406 18.2626 23.2536 18.1671 23.5975 18.187C23.5525 18.1711 23.4949 18.1768 23.4418 18.1821C23.4169 18.1846 23.393 18.187 23.3719 18.187C23.1118 18.1677 22.8491 18.2253 22.575 18.2855C22.517 18.2982 22.4584 18.3111 22.3992 18.3233C22.2919 18.3456 22.1898 18.3775 22.0876 18.4095C21.9749 18.4448 21.8621 18.4801 21.7418 18.5025C21.6896 18.5205 21.6477 18.551 21.6068 18.5807C21.5412 18.6285 21.4783 18.6743 21.3799 18.6623V18.5922C21.6056 18.3194 21.8779 18.0506 22.2397 18.0272C22.5895 17.9705 22.9193 18.0109 23.2633 18.053C23.3211 18.0601 23.3792 18.0673 23.438 18.074C23.72 18.0966 23.9839 18.1592 24.2682 18.2267L24.2978 18.2337C24.36 18.2337 24.3951 18.2883 24.429 18.3411C24.4565 18.384 24.4833 18.4258 24.5234 18.4363C24.5788 18.4553 24.6342 18.4589 24.6896 18.4624C24.7704 18.4676 24.8512 18.4728 24.9319 18.5259C24.9319 18.5102 24.9293 18.4949 24.9267 18.4798C24.9215 18.4499 24.9165 18.4206 24.9319 18.3896C24.9821 18.3393 25.0397 18.3528 25.0963 18.3661C25.1407 18.3764 25.1845 18.3867 25.2237 18.3662C25.3471 18.29 25.2314 18.1729 25.1156 18.0558C25.0597 17.9993 25.0039 17.9428 24.9747 17.8909C24.9747 17.8675 24.9981 17.8441 24.9981 17.8441C25.0492 17.8897 25.0968 17.9369 25.144 17.9837C25.2621 18.1008 25.3776 18.2153 25.5389 18.2961C25.6517 18.3428 25.924 18.409 25.8773 18.2727C25.7974 18.0961 25.6609 17.9429 25.5231 17.7883C25.4663 17.7246 25.4094 17.6607 25.356 17.5948V17.5052C25.3205 17.5052 25.312 17.4917 25.3015 17.4749C25.2981 17.4696 25.2946 17.464 25.2899 17.4584V17.3688C25.2328 17.339 25.2201 17.2918 25.2072 17.2443C25.1999 17.2173 25.1926 17.1902 25.1771 17.1662C25.1381 17.1033 25.1352 17.0259 25.1324 16.946C25.1301 16.8825 25.1277 16.8175 25.107 16.7571C25.0603 16.6207 25.0409 16.5078 25.0175 16.3714C24.9922 16.2319 24.9643 16.0985 24.937 15.9679C24.8889 15.7374 24.8426 15.5157 24.8152 15.2844C24.7792 14.9538 24.9469 14.6743 25.1183 14.3885C25.1691 14.3037 25.2203 14.2185 25.2665 14.1312C25.426 13.8584 25.605 13.5896 25.9007 13.4065C25.9652 13.1405 26.1407 12.919 26.3154 12.6985L26.3286 12.6818C26.501 12.4679 26.7889 12.3371 27.0011 12.2408L27.025 12.2299C27.3402 12.0896 27.6242 12 27.6281 12H12V23.996H23.0879C23.3844 23.782 23.6791 23.6469 24.0299 23.4862C24.19 23.4129 24.3617 23.3342 24.5507 23.2402C24.5907 23.2201 24.6382 23.1968 24.691 23.171C25.0077 23.0159 25.5122 22.7687 25.7023 22.5817ZM22.184 20.9633C22.14 20.9677 22.0933 20.9723 22.1109 20.9372C22.1273 20.8583 22.2084 20.8347 22.2876 20.8116C22.3215 20.8017 22.355 20.7919 22.383 20.7779L22.3958 20.7714L22.4052 20.7664C22.449 20.7432 22.5027 20.7148 22.5424 20.7313C22.5691 20.7692 22.6022 20.779 22.6344 20.7884C22.6584 20.7955 22.6818 20.8024 22.7017 20.8207C22.6176 20.9047 22.5195 20.913 22.42 20.9214C22.3539 20.9269 22.2873 20.9326 22.2237 20.9605C22.2122 20.9605 22.1982 20.9619 22.184 20.9633ZM18.742 20.4154C18.742 20.4388 18.7653 20.4622 18.7653 20.4622C19.31 19.8505 19.8041 19.3284 20.5044 18.8959C20.5231 18.8881 20.5162 18.8979 20.5069 18.9109C20.4931 18.9302 20.4742 18.9567 20.5277 18.9427C20.7596 18.8901 20.8637 18.6923 20.965 18.5C20.9912 18.4502 21.0172 18.4008 21.0452 18.3544C21.1514 18.1823 21.3023 18.0721 21.4543 17.9611C21.564 17.881 21.6742 17.8004 21.7688 17.696C21.7688 17.7193 21.7688 17.7427 21.7454 17.7661C21.7688 17.7895 21.7921 17.7895 21.8155 17.7895C21.8565 17.7586 21.9013 17.7459 21.9443 17.7336C21.999 17.718 22.0507 17.7033 22.0878 17.6531C21.9088 17.583 21.6793 17.5596 21.5003 17.6297C21.0257 17.8557 20.6211 18.218 20.2359 18.6271C20.0025 18.8726 19.7613 19.1024 19.4656 19.2622C19.2633 19.6674 19.0377 20.0297 18.742 20.4154ZM20.6413 18.9664C20.6291 18.9908 20.6169 19.0035 20.6053 19.0156C20.5947 19.0266 20.5845 19.0372 20.5752 19.0557C20.5519 19.1023 20.5286 19.1217 20.4858 19.145C20.4625 19.145 20.4392 19.145 20.4392 19.1217C20.4625 19.0324 20.5286 18.9431 20.618 18.9198C20.6413 18.9237 20.6413 18.947 20.6413 18.9664ZM21.6362 22.4264C21.6556 22.4069 21.6789 22.3835 21.6906 22.3601C21.71 22.3134 21.5895 22.3251 21.5701 22.3368C21.5525 22.3509 21.5412 22.365 21.5277 22.3821L21.5235 22.3874C21.5073 22.406 21.4883 22.4232 21.469 22.4406C21.4559 22.4525 21.4427 22.4644 21.4302 22.477C21.3758 22.5316 21.3213 22.5861 21.263 22.6368C21.2242 22.6718 21.3486 22.6874 21.3758 22.664C21.4069 22.6407 21.4341 22.6134 21.4613 22.5861C21.4716 22.5861 21.482 22.5844 21.4889 22.5832L21.4937 22.5825L21.4963 22.5822C21.5607 22.5607 21.6086 22.516 21.6553 22.4726L21.6673 22.4614C21.6828 22.4459 21.6634 22.4303 21.6362 22.4264ZM21.2844 22.173C21.284 22.1731 21.2837 22.1732 21.2835 22.1734C21.283 22.1739 21.283 22.1749 21.283 22.1768C21.2591 22.1931 21.2356 22.2097 21.2121 22.2263C21.1512 22.2691 21.0907 22.3117 21.0262 22.3483C20.9645 22.3829 20.9012 22.4128 20.8374 22.4429C20.8006 22.4603 20.7636 22.4778 20.7266 22.4963C20.7266 22.4963 20.7266 22.4924 20.7228 22.4924C20.715 22.4807 20.6994 22.4768 20.6838 22.4846C20.5983 22.5314 20.5243 22.5937 20.4582 22.6599C20.4465 22.6677 20.4349 22.6794 20.4271 22.6911L20.3921 22.7262V22.7301C20.3765 22.7457 20.3609 22.7612 20.3415 22.7846C20.3374 22.7887 20.3343 22.7927 20.3313 22.7966C20.3257 22.8039 20.3205 22.8107 20.3104 22.8158C20.2948 22.8236 20.2559 22.8236 20.2598 22.8002V22.7963C20.2481 22.8041 20.2326 22.8119 20.2209 22.8158C20.215 22.8197 20.2092 22.8226 20.2034 22.8255C20.1975 22.8284 20.1917 22.8314 20.1859 22.8353C20.182 22.8314 20.1742 22.8314 20.1703 22.8314C20.1664 22.8314 20.1586 22.8314 20.1547 22.8353C20.1457 22.8431 20.1366 22.8504 20.1275 22.8578C20.1094 22.8725 20.0912 22.8872 20.073 22.9054C20.0264 22.9483 19.9836 22.995 19.9408 23.0457C19.9408 23.0457 19.9408 23.0495 19.9369 23.0495C19.9369 23.0515 19.9359 23.0525 19.9349 23.0534C19.934 23.0544 19.933 23.0554 19.933 23.0573L19.9252 23.0651C19.9237 23.0666 19.9228 23.0681 19.922 23.0694C19.9207 23.0714 19.9198 23.0729 19.9174 23.0729L19.9135 23.0768C19.9096 23.0846 19.9058 23.0924 19.898 23.1002C19.8941 23.1041 19.8863 23.108 19.8785 23.108C19.8746 23.1041 19.8707 23.1002 19.8707 23.0963C19.8688 23.0944 19.8678 23.0924 19.8668 23.0905C19.8659 23.0885 19.8649 23.0866 19.863 23.0846C19.8591 23.0788 19.8561 23.0729 19.8532 23.0671C19.8503 23.0612 19.8474 23.0554 19.8435 23.0495V23.0457C19.8435 23.0437 19.8425 23.0418 19.8416 23.0398C19.8406 23.0379 19.8396 23.0359 19.8396 23.034L19.9096 22.9521L19.9135 22.9483C19.9174 22.9444 19.9213 22.9395 19.9252 22.9346C19.9291 22.9298 19.933 22.9249 19.9369 22.921C19.9427 22.9132 19.9495 22.9054 19.9563 22.8976C19.9631 22.8898 19.9699 22.882 19.9758 22.8742C19.9777 22.8703 19.9797 22.8674 19.9816 22.8645C19.9836 22.8616 19.9855 22.8586 19.9875 22.8547C20.0108 22.8236 20.0341 22.7924 20.0575 22.7573V22.7534C20.0614 22.7496 20.0653 22.7457 20.0653 22.7379C20.0769 22.7223 20.0886 22.7067 20.0964 22.6911L20.1197 22.6444V22.6405L20.1236 22.6366C20.1236 22.6346 20.1246 22.6336 20.1256 22.6327C20.1265 22.6317 20.1275 22.6307 20.1275 22.6288C20.1314 22.619 20.1353 22.6103 20.1392 22.6015C20.1431 22.5928 20.147 22.584 20.1509 22.5742V22.5703L20.1547 22.5547C20.1567 22.5509 20.1577 22.547 20.1586 22.5431C20.1596 22.5392 20.1606 22.5353 20.1625 22.5314V22.5275C20.1645 22.5216 20.1654 22.5158 20.1664 22.5099C20.1674 22.5041 20.1684 22.4983 20.1703 22.4924C20.1703 22.4885 20.1703 22.4807 20.1664 22.4768C20.1898 22.434 20.2209 22.395 20.2559 22.356C20.254 22.356 20.252 22.357 20.2501 22.358C20.2489 22.3586 20.2478 22.3591 20.2467 22.3595C20.2459 22.3598 20.2451 22.3599 20.2442 22.3599C20.2269 22.3708 20.212 22.3852 20.1968 22.4C20.1847 22.4117 20.1724 22.4236 20.1586 22.434C20.1353 22.4535 20.0886 22.4223 20.1197 22.3989C20.1392 22.3833 20.1547 22.3677 20.1703 22.3522C20.1703 22.3522 20.1703 22.3483 20.1742 22.3483C20.1897 22.3343 20.2046 22.3184 20.2196 22.3025C20.2422 22.2784 20.2652 22.254 20.2909 22.2353C20.3181 22.2158 20.3376 22.2002 20.3609 22.1807C20.3648 22.1768 20.3687 22.1729 20.3726 22.1729C20.3882 22.1535 20.4037 22.134 20.4232 22.1145C20.4232 22.1145 20.4271 22.1145 20.4271 22.1106C20.5607 21.9816 20.7484 21.9361 20.94 21.8896C21.0609 21.8603 21.1833 21.8307 21.2947 21.7794C21.3575 21.7534 21.4277 21.7636 21.497 21.7738C21.552 21.7818 21.6065 21.7898 21.6565 21.7794C21.7226 21.7794 21.7926 21.7794 21.8588 21.8262C21.7049 21.9077 21.5581 22.001 21.4129 22.0933C21.3708 22.12 21.3288 22.1467 21.2869 22.1729C21.2858 22.1729 21.285 22.1729 21.2844 22.173ZM21.7706 20.5851C21.7524 20.5872 21.7406 20.5885 21.7507 20.5986C21.8168 20.6649 21.953 20.6415 22.0464 20.5909C22.1125 20.5441 22.1825 20.5441 22.272 20.5441C22.2954 20.5441 22.2954 20.5012 22.2954 20.4779C22.3615 20.5012 22.4082 20.5012 22.4743 20.5012C23.0151 20.3883 23.5364 20.2753 24.0344 20.0259C23.5305 19.6383 22.9093 19.4656 22.3009 19.2965C22.1999 19.2684 22.0993 19.2405 21.9997 19.2116C22.0216 19.2116 22.0435 19.2189 22.0655 19.2262C22.1101 19.241 22.1552 19.2559 22.202 19.2116C22.1403 19.1626 22.0715 19.1532 22.0035 19.144C21.9472 19.1363 21.8913 19.1286 21.8402 19.0987C21.8455 19.0987 21.8519 19.0999 21.8587 19.1012C21.882 19.1057 21.9116 19.1114 21.9297 19.0753C21.8115 19.0161 21.6933 18.996 21.574 18.9757C21.5127 18.9653 21.451 18.9548 21.3889 18.9389C21.5017 18.9155 21.5717 18.8259 21.5717 18.7129C21.5717 18.6896 21.5251 18.6896 21.5017 18.6896C21.2333 18.8259 21.0504 19.0753 20.9376 19.3675C21.0393 19.4271 21.1489 19.4202 21.2564 19.4134C21.3174 19.4096 21.3778 19.4058 21.4356 19.4142C21.3846 19.4625 21.3108 19.4756 21.24 19.4882C21.2136 19.4929 21.1875 19.4975 21.1632 19.5038C21.0932 19.5194 21.0271 19.5701 21.0504 19.6168C21.066 19.6363 21.0815 19.6441 21.101 19.648C21.0504 19.6636 21.0037 19.687 20.9609 19.7298C21.025 19.78 21.091 19.7703 21.1562 19.7608C21.1821 19.757 21.2078 19.7532 21.2333 19.7532C21.2333 19.7815 21.2519 19.7911 21.2713 19.8011C21.2813 19.8062 21.2915 19.8115 21.2994 19.8194C21.1866 19.8623 21.0971 19.9558 21.0738 20.022C21.0459 20.0895 20.9944 20.1334 20.9433 20.1768C20.9089 20.2062 20.8747 20.2353 20.8481 20.2714V20.3415C20.773 20.4078 20.6957 20.4671 20.6195 20.5255C20.463 20.6455 20.311 20.7621 20.1906 20.9298C20.214 20.9298 20.214 20.9532 20.214 20.9766C20.1924 21.0089 20.1618 21.0313 20.1328 21.0525C20.0988 21.0774 20.067 21.1006 20.0545 21.1363C20.0545 21.1597 20.0545 21.1831 20.0778 21.1831C20.2206 21.1361 20.3441 21.057 20.4652 20.9794C20.5751 20.9091 20.683 20.84 20.8014 20.7973C20.8982 20.7742 20.9825 20.7305 21.0648 20.6878C21.1345 20.6516 21.2028 20.6162 21.2761 20.5947C21.3325 20.5831 21.3947 20.5665 21.457 20.5499C21.5192 20.5334 21.5815 20.5168 21.6379 20.5051C21.6379 20.5285 21.6379 20.5519 21.6612 20.5519H21.8402C21.8292 20.5784 21.7944 20.5824 21.7706 20.5851Z" fill="#000091"/>
<path d="M45.0007 12H32.131C32.131 12 32.1544 12.0039 32.2516 12.0546C32.3567 12.1092 32.4928 12.1834 32.5745 12.2263C32.7418 12.3121 32.9013 12.4213 33.0064 12.5891C33.0531 12.6554 33.1192 12.7919 33.0764 12.8817C33.0297 12.9948 33.0064 13.1782 32.8935 13.2211C32.7574 13.2913 32.5784 13.2913 32.4189 13.2679C32.3294 13.2679 32.2399 13.2445 32.1466 13.2211C32.485 13.3576 32.8041 13.5176 33.0297 13.8336C33.0531 13.8804 33.1425 13.8999 33.232 13.8999C33.2554 13.8999 33.2554 13.9467 33.2554 13.9662C33.2087 14.013 33.1659 14.0364 33.1892 14.1027H33.2554C33.3682 14.0559 33.3448 13.8296 33.5043 13.8999C33.6172 13.9662 33.6639 14.1261 33.5938 14.2393C33.5043 14.329 33.4149 14.3992 33.3215 14.4655C33.2982 14.5124 33.2982 14.5787 33.3215 14.6255C33.3876 14.7152 33.411 14.8049 33.4343 14.8986C33.5043 15.0585 33.5238 15.238 33.5938 15.3979C33.6833 15.7373 33.7728 16.0767 33.7533 16.42C33.7533 16.5995 33.6639 16.7594 33.73 16.9428C33.7767 17.1222 33.8895 17.2588 33.979 17.4187C34.0685 17.5553 34.158 17.645 34.228 17.7815C34.3641 18.0078 34.6131 18.2341 34.5003 18.5072C34.4342 18.6671 34.1852 18.6437 34.0257 18.7334C33.8895 18.8466 34.0023 19.0299 34.0724 19.143C34.1852 19.3459 33.9362 19.4824 33.7767 19.5527C33.8234 19.6229 33.9128 19.5995 33.9362 19.6424C33.9595 19.7555 34.0724 19.8218 34.0023 19.9389C33.9128 20.0754 33.6405 20.1417 33.7767 20.3485C33.8662 20.5085 33.8078 20.684 33.7533 20.8479C33.6872 21.0507 33.5043 21.1404 33.3448 21.1873C33.2087 21.2341 33.0492 21.2341 32.9169 21.2107C32.8702 21.1873 32.8274 21.1638 32.7807 21.1638C32.3956 21.117 32.0104 21.0078 31.6291 21.0078C31.5163 21.0312 31.4035 21.0507 31.314 21.0975C31.2129 21.1717 31.1195 21.2536 31.0417 21.3394C31.0417 21.3394 31.0417 21.3394 31.0378 21.3433C31.0222 21.3628 31.0028 21.3784 30.9872 21.3979C30.9794 21.4096 30.9678 21.4213 30.96 21.433C30.9522 21.4408 30.9483 21.4486 30.9405 21.4564C30.8744 21.5384 30.816 21.6281 30.7616 21.7178C30.7577 21.7256 30.7538 21.7295 30.7499 21.7334C30.746 21.7451 30.7382 21.7529 30.7304 21.7646C30.6565 21.9012 30.6021 22.0416 30.5593 22.1821C30.4036 22.7009 30.4737 23.1456 30.5826 23.2549C30.6137 23.2861 31.3296 23.5085 31.8276 23.7308C32.061 23.8362 32.2244 23.9142 32.3605 24H44.9968V12H45.0007Z" fill="#E1000F"/>
<path d="M32.8968 16.383C32.9863 16.4064 33.1225 16.4064 33.1225 16.4531C33.0758 16.6323 32.8073 16.6791 32.6712 16.8622H32.6011C32.535 16.9089 32.5544 17.0219 32.4883 17.0219C32.4222 16.9986 32.3521 17.0219 32.286 17.0453C32.3755 17.1349 32.4883 17.205 32.6245 17.1817C32.6478 17.1817 32.6906 17.2284 32.6906 17.2713C32.6906 17.2713 32.714 17.2713 32.7373 17.2479C32.7606 17.2479 32.784 17.2479 32.784 17.2713V17.3609C32.7178 17.4505 32.6011 17.4076 32.5117 17.4271C32.6945 17.4739 32.8735 17.4739 33.033 17.4271C33.1691 17.3804 33.033 17.1544 33.1225 17.0414C33.0758 17.0414 33.1225 16.9713 33.0758 16.9713C33.1225 16.9245 33.1653 16.8583 33.2119 16.8349C33.2586 16.8349 33.3248 16.8115 33.3481 16.7648C33.3481 16.718 33.2586 16.6986 33.2781 16.6518C33.4142 16.5622 33.5271 16.4258 33.4804 16.2895C33.457 16.2193 33.2781 16.2193 33.1653 16.1765C33.0524 16.1336 32.9163 16.1765 32.7801 16.1999C32.6673 16.1999 32.5544 16.27 32.4416 16.2895C32.2821 16.3362 32.1459 16.4258 32.0137 16.5154C32.1732 16.4492 32.3288 16.4258 32.5117 16.3791C32.6478 16.383 32.7606 16.3518 32.8968 16.383" fill="#808080"/>
<path d="M13.236 39H14.94V35.604H15.816L18.06 39H20.064L17.436 35.28C18.3 34.884 18.792 34.128 18.792 33.108C18.792 31.548 17.652 30.6 15.804 30.6H13.236V39ZM15.9 32.016C16.62 32.016 17.04 32.448 17.04 33.084C17.04 33.768 16.62 34.188 15.9 34.188H14.94V32.016H15.9ZM24.5273 29.88L26.0873 28.26H24.3353L22.9793 29.88H24.5273ZM21.3233 39H26.2193V37.584H23.0273V35.424H25.7393V34.008H23.0273V32.016H26.2193V30.6H21.3233V39ZM28.3794 39H30.0834V35.604H31.1514C32.9994 35.604 34.1274 34.656 34.1274 33.108C34.1274 31.548 32.9994 30.6 31.1514 30.6H28.3794V39ZM31.2234 32.016C31.9434 32.016 32.3754 32.448 32.3754 33.084C32.3754 33.768 31.9434 34.188 31.2234 34.188H30.0834V32.016H31.2234ZM40.6705 35.856C40.6705 36.984 40.0225 37.644 38.9785 37.644C37.9105 37.644 37.2745 36.984 37.2745 35.856V30.6H35.5705V35.712C35.5705 37.92 36.8665 39.24 38.9665 39.24C41.0785 39.24 42.3745 37.92 42.3745 35.712V30.6H40.6705V35.856ZM44.6713 39H47.3233C49.2553 39 50.4433 38.064 50.4433 36.528C50.4433 35.652 49.9513 34.932 49.0633 34.536C49.6513 34.152 49.9633 33.564 49.9633 32.88C49.9633 31.464 48.8953 30.6 47.1433 30.6H44.6713V39ZM47.1793 32.016C47.8273 32.016 48.2113 32.364 48.2113 32.952C48.2113 33.564 47.8273 33.912 47.1793 33.912H46.3753V32.016H47.1793ZM47.4193 35.328C48.2113 35.328 48.6913 35.736 48.6913 36.456C48.6913 37.164 48.2113 37.584 47.4193 37.584H46.3753V35.328H47.4193ZM52.3719 39H57.2679V37.452H54.0759V30.6H52.3719V39ZM58.9476 39H60.6516V30.6H58.9476V39ZM70.2234 38.784L69.7194 38.304C70.7514 37.488 71.3754 36.204 71.3754 34.8C71.3754 32.4 69.5634 30.36 66.9234 30.36C64.2714 30.36 62.4594 32.4 62.4594 34.8C62.4594 37.2 64.2714 39.24 66.9234 39.24C67.3314 39.24 67.7154 39.192 68.0754 39.096L69.0714 39.984C69.8994 40.704 70.7634 41.088 71.6994 41.088C72.0714 41.088 72.3114 41.04 72.5874 40.932V39.492C72.4074 39.564 72.1674 39.588 71.9874 39.588C71.4474 39.588 70.8714 39.372 70.2234 38.784ZM66.9234 37.644C65.3394 37.644 64.2114 36.408 64.2114 34.8C64.2114 33.192 65.3394 31.956 66.9234 31.956C68.4954 31.956 69.6234 33.192 69.6234 34.8C69.6234 36.408 68.4954 37.644 66.9234 37.644ZM78.1424 35.856C78.1424 36.984 77.4944 37.644 76.4504 37.644C75.3824 37.644 74.7464 36.984 74.7464 35.856V30.6H73.0424V35.712C73.0424 37.92 74.3384 39.24 76.4384 39.24C78.5504 39.24 79.8464 37.92 79.8464 35.712V30.6H78.1424V35.856ZM82.1432 39H87.0392V37.584H83.8472V35.424H86.5592V34.008H83.8472V32.016H87.0392V30.6H82.1432V39ZM13.236 51H14.94V47.424H17.652V46.008H14.94V44.016H18.132V42.6H13.236V51ZM19.8116 51H21.5156V47.604H22.3916L24.6356 51H26.6396L24.0116 47.28C24.8756 46.884 25.3676 46.128 25.3676 45.108C25.3676 43.548 24.2276 42.6 22.3796 42.6H19.8116V51ZM22.4756 44.016C23.1956 44.016 23.6156 44.448 23.6156 45.084C23.6156 45.768 23.1956 46.188 22.4756 46.188H21.5156V44.016H22.4756ZM27.2062 51H29.0182L29.8223 48.816H33.1823L33.9863 51H35.7982L32.6183 42.6H30.3862L27.2062 51ZM30.3503 47.364L31.5023 44.208L32.6543 47.364H30.3503ZM37.2754 51H38.9794V44.928L42.7354 51H44.9194V42.6H43.2154V48.672L39.4594 42.6H37.2754V51ZM51.1927 49.644C49.6087 49.644 48.4807 48.408 48.4807 46.8C48.4807 45.192 49.6087 43.956 51.1927 43.956C52.1527 43.956 52.9087 44.424 53.3887 45.108L54.7327 44.064C53.9647 43.044 52.7167 42.36 51.1927 42.36C48.5407 42.36 46.7287 44.4 46.7287 46.8C46.7287 48.936 48.1687 50.784 50.3527 51.168L49.2967 52.932H50.8087L51.8527 51.192C53.0767 51.036 54.0847 50.412 54.7327 49.524L53.3887 48.492C52.9087 49.176 52.1527 49.644 51.1927 49.644ZM55.2769 51H57.0889L57.8929 48.816H61.2529L62.0569 51H63.8689L60.6889 42.6H58.4569L55.2769 51ZM58.4209 47.364L59.5729 44.208L60.7249 47.364H58.4209ZM65.346 51H67.05V42.6H65.346V51ZM68.8219 49.836C69.5659 50.724 70.5139 51.24 71.9299 51.24C73.4779 51.24 74.7019 50.292 74.7259 48.708C74.7259 45.828 70.9099 46.26 70.9099 44.736C70.9099 44.232 71.3059 43.848 71.9059 43.848C72.5419 43.848 73.0939 44.268 73.5859 44.904L74.8339 43.776C74.1139 42.924 73.1539 42.36 71.8939 42.36C70.2859 42.36 69.1819 43.464 69.1819 44.796C69.1819 47.64 72.9979 47.22 72.9979 48.768C72.9979 49.368 72.5899 49.728 71.9179 49.728C71.2339 49.728 70.5619 49.344 70.0579 48.696L68.8219 49.836ZM76.6926 51H81.5886V49.584H78.3966V47.424H81.1086V46.008H78.3966V44.016H81.5886V42.6H76.6926V51Z" fill="#1E1E1E"/>
<path fill-rule="evenodd" clip-rule="evenodd" d="M43.18 72.6137L42.0638 73.6337H41.7758L42.4359 72.4697H43.18V72.6137ZM42.3759 76.5611H42.1359C41.8358 76.9211 41.4998 77.2091 41.1757 77.2091C40.8397 77.2091 40.6717 77.0051 40.6717 76.5611C40.6717 76.3811 40.6957 76.1891 40.7317 76.0211L42.688 75.3732C43.072 74.4612 42.6159 74.0653 42.0759 74.0653C41.1517 74.0653 40.0956 75.6852 40.0956 76.9811C40.0956 77.5931 40.3836 77.929 40.8397 77.929C41.3678 77.917 41.9198 77.4011 42.3759 76.5611ZM41.7046 74.5935C41.9686 74.5935 42.1966 74.7975 42.0766 75.2655L40.8644 75.5895C41.0565 75.0135 41.4165 74.5935 41.7046 74.5935ZM37.8886 74.6172H38.5367L37.5045 77.4491C37.4085 77.6891 37.5405 77.9291 37.7925 77.9291C38.5247 77.9291 39.4008 77.3051 39.7368 76.4171H39.5568C39.2928 76.7891 38.7167 77.1971 38.2846 77.2691L39.2328 74.6172H40.2049L40.3249 74.2093H39.3768L39.7368 73.1893H39.3648L38.6927 74.2093L37.8886 74.3173V74.6172ZM36.9878 74.0779C37.1198 74.0779 37.2998 74.2219 37.2158 74.4859L36.0516 77.3058C36.3517 77.2578 36.6637 76.9698 36.8438 76.7058H37.0358C36.7597 77.4138 36.1356 77.9297 35.5956 77.9297C35.4636 77.9297 35.2715 77.7857 35.3675 77.5218L36.4477 74.7019C36.1477 74.7499 35.8356 75.0379 35.6556 75.3019H35.4756C35.7516 74.5819 36.4237 74.0779 36.9878 74.0779ZM37.3246 73.3577C37.5647 73.3577 37.7687 73.1657 37.7687 72.9137C37.7687 72.6737 37.5647 72.4697 37.3246 72.4697C37.0726 72.4697 36.8806 72.6737 36.8806 72.9137C36.8806 73.1537 37.0846 73.3577 37.3246 73.3577ZM32.0797 75.6979C32.3437 75.1219 32.2477 74.8579 32.0797 74.8579C31.9357 74.8579 31.7676 75.0139 31.5996 75.3019H31.4196C31.6956 74.6899 32.0557 74.0779 32.4517 74.0779C32.7878 74.0779 32.9078 74.4139 32.9078 74.7859V75.3139C32.9618 75.2511 33.0144 75.1894 33.0658 75.1291L33.0667 75.128L33.0675 75.1271C33.5745 74.5322 33.9617 74.0779 34.408 74.0779C34.7561 74.0779 34.9361 74.2939 34.9361 74.6179C34.9361 74.8099 34.8761 75.0499 34.7441 75.3019L33.7479 77.3058C34.048 77.2578 34.36 76.9698 34.54 76.7058H34.7201C34.444 77.4258 33.7719 77.9297 33.2079 77.9297C32.9558 77.9297 32.8118 77.6657 32.9198 77.4498L34.072 75.2299C34.204 74.9779 34.228 74.8099 34.024 74.8099C33.7479 74.8099 33.0998 75.2659 32.7518 75.6859L31.9957 77.6777C31.9117 77.8817 31.8277 77.9297 31.6356 77.9297C31.3236 77.9297 31.1676 77.7257 31.3116 77.4018L32.0797 75.6979ZM31.2987 74.9292C31.4307 74.4732 31.3587 74.0653 31.0106 74.0653C30.5766 74.0653 30.4407 74.3519 30.02 75.2389L29.9905 75.3012V74.7732C29.9905 74.4012 29.8705 74.0653 29.5344 74.0653C29.1384 74.0653 28.7783 74.6772 28.5023 75.2892H28.6823C28.8743 75.0132 29.0544 74.8452 29.1984 74.8452C29.3664 74.8452 29.4624 75.1092 29.1984 75.6852L28.4303 77.3891C28.2863 77.713 28.4423 77.917 28.7543 77.917C28.9464 77.917 29.0304 77.869 29.1144 77.665L29.8705 75.6732C30.0865 75.4092 30.2785 75.1812 30.5186 74.9292H31.2987ZM27.5064 75.2655C27.6264 74.7975 27.3984 74.5935 27.1344 74.5935C26.8463 74.5935 26.4863 75.0135 26.2942 75.5895L27.5064 75.2655ZM27.8057 76.5611H27.5657C27.2656 76.9211 26.9296 77.2091 26.6055 77.2091C26.2695 77.2091 26.1015 77.0051 26.1015 76.5611C26.1015 76.3811 26.1255 76.1891 26.1615 76.0211L28.1178 75.3732C28.5018 74.4612 28.0458 74.0653 27.5057 74.0653C26.5815 74.0653 25.5254 75.6852 25.5254 76.9811C25.5254 77.5931 25.8134 77.929 26.2695 77.929C26.7976 77.917 27.3497 77.4011 27.8057 76.5611ZM23.9665 74.6172H23.3184V74.3173L24.1225 74.2093L24.7946 73.1893H25.1666L24.8066 74.2093H25.7547L25.6347 74.6172H24.6626L23.7144 77.2691C24.1465 77.1971 24.7226 76.7891 24.9866 76.4171H25.1666C24.8306 77.3051 23.9545 77.9291 23.2224 77.9291C22.9703 77.9291 22.8383 77.6891 22.9343 77.4491L23.9665 74.6172ZM19.8865 76.8134C19.8865 75.9374 20.8586 74.7615 21.3987 74.7615C21.5187 74.7615 21.6387 74.7735 21.7347 74.8095L21.1707 76.3214C20.8466 76.7174 20.3425 77.1974 20.1025 77.1974C19.9705 77.1974 19.8865 77.0774 19.8865 76.8134ZM22.5632 73.8856L22.8632 73.9096L21.8191 76.3094C21.567 76.8854 21.675 77.1494 21.8191 77.1494C21.9631 77.1494 22.1431 76.9814 22.3351 76.7054H22.5152C22.2391 77.3174 21.8791 77.9293 21.483 77.9293C21.147 77.9293 20.9429 77.5694 21.0029 76.9214L21.0269 76.6934L20.9616 76.7847C20.5317 77.3856 20.1427 77.9293 19.7428 77.9293C19.3947 77.9293 19.2147 77.7134 19.2147 77.3894C19.2147 75.9975 20.7389 74.2216 22.1671 74.2216H22.2271L22.5632 73.8856ZM19.814 74.9292C19.946 74.4732 19.874 74.0653 19.526 74.0653C19.0919 74.0653 18.956 74.3519 18.5354 75.2389L18.5058 75.3012V74.7732C18.5058 74.4012 18.3858 74.0653 18.0498 74.0653C17.6537 74.0653 17.2937 74.6772 17.0176 75.2892H17.1976C17.3897 75.0132 17.5697 74.8452 17.7017 74.8452C17.8697 74.8452 17.9658 75.1092 17.7017 75.6852L16.9336 77.4011C16.7896 77.725 16.9456 77.929 17.2576 77.929C17.4497 77.929 17.5337 77.881 17.6177 77.677L18.3738 75.6852C18.5898 75.4212 18.7819 75.1932 19.0219 74.9412H19.814V74.9292ZM14.8684 77.5683L14.7964 77.7843H12L12.072 77.5563C12.9361 77.4003 13.0802 77.3283 13.4402 76.3564L14.2203 74.2685C14.5684 73.2966 14.4964 73.2246 13.7403 73.0686L13.8123 72.8526H17.4488L17.2328 74.0165H16.9687C16.9687 73.3206 16.8967 73.1406 16.2366 73.1406H16.0686C15.4205 73.1406 15.3365 73.2366 15.1565 73.7405L14.6404 75.1445H15.3965C15.9006 75.1445 16.0926 74.8325 16.3206 74.4245H16.5847L15.9606 76.1284H15.6965C15.7565 75.6124 15.7565 75.4084 15.2885 75.4084H14.5324L14.1843 76.3684C13.8081 77.3676 13.9156 77.3879 14.8115 77.5575C14.8301 77.5611 14.8491 77.5647 14.8684 77.5683Z" fill="black"/>
<path fill-rule="evenodd" clip-rule="evenodd" d="M17.2448 63.4341L16.1286 64.2385V64.2505H15.8405L16.5006 63.29H17.2448V63.4341ZM25.0472 69.0648L26.8355 64.3105L26.7755 64.2384L25.5393 64.3825V64.5266L25.7793 64.7066C25.9843 64.8661 25.93 65.0147 25.76 65.4805L25.7313 65.5591L24.3631 69.2089C24.2551 69.425 24.3991 69.6891 24.6511 69.6891C25.2152 69.6891 25.8153 69.1728 26.0914 68.4645H25.9114C25.7193 68.7286 25.3353 69.0168 25.0472 69.0648ZM33.2438 65.403L34.36 64.3825V64.2384H33.6159L32.9558 65.403H33.2438ZM33.315 68.3204H33.5551C33.111 69.1728 32.5589 69.6891 32.0308 69.6891C31.5747 69.6891 31.2867 69.3529 31.2867 68.7406C31.2867 67.444 32.3429 65.8232 33.267 65.8232C33.7951 65.8232 34.2632 66.2194 33.8791 67.1318L31.9108 67.7801C31.8748 67.9482 31.8508 68.1403 31.8508 68.3204C31.8508 68.7646 32.0188 68.9687 32.3549 68.9687C32.6789 68.9687 33.015 68.6806 33.315 68.3204ZM33.2544 67.0238C33.3745 66.5676 33.1464 66.3635 32.8824 66.3635C32.6063 66.3635 32.2463 66.7837 32.0422 67.348L33.2544 67.0238ZM29.7258 66.3872H29.0777V66.0871L29.8818 65.979L30.554 64.9585H30.926L30.566 65.979H31.5141L31.3941 66.3872H30.4219L29.4738 69.0405C29.9058 68.9685 30.4819 68.5603 30.746 68.1881H30.926C30.59 69.0765 29.7138 69.7008 28.9817 69.7008C28.7296 69.7008 28.5976 69.4607 28.6936 69.2206L29.7258 66.3872ZM28.4055 66.2431C28.4775 65.979 28.3095 65.8349 28.1655 65.8349C27.6014 65.8349 26.9292 66.3512 26.6532 67.0595H26.8332C27.0133 66.7954 27.3253 66.5072 27.6254 66.4592L26.5452 69.2806C26.4492 69.5447 26.6412 69.6888 26.7732 69.6888C27.3133 69.6888 27.9374 69.1726 28.2135 68.4642H28.0334C27.8534 68.7283 27.5413 69.0165 27.2413 69.0645L28.4055 66.2431ZM28.9585 64.6826C28.9585 64.9228 28.7544 65.1269 28.5144 65.1269C28.2744 65.1269 28.0703 64.9228 28.0703 64.6826C28.0703 64.4425 28.2624 64.2384 28.5144 64.2384C28.7544 64.2384 28.9585 64.4425 28.9585 64.6826ZM22.8987 66.5315C22.3586 66.5315 21.3864 67.7081 21.3864 68.5846C21.3864 68.8487 21.4704 68.9687 21.6145 68.9687C21.8425 68.9687 22.3466 68.4885 22.6706 68.0923L23.2347 66.5796C23.1267 66.5435 23.0187 66.5315 22.8987 66.5315ZM24.3632 65.6791L24.0632 65.6551L23.7271 65.9913H23.6671C22.2389 65.9913 20.7146 67.7682 20.7146 69.1609C20.7146 69.485 20.8946 69.7011 21.2427 69.7011C21.6426 69.7011 22.0316 69.1571 22.4616 68.5558L22.5269 68.4645L22.5029 68.6926C22.4429 69.3409 22.6469 69.7011 22.983 69.7011C23.3791 69.7011 23.7391 69.0888 24.0152 68.4765H23.8351C23.6431 68.7527 23.4631 68.9207 23.3191 68.9207C23.175 68.9207 23.067 68.6566 23.3191 68.0803L24.3632 65.6791ZM18.3135 69.5692C17.7974 69.7733 17.4373 70.0134 17.4373 70.3856C17.4373 70.7337 17.7614 70.8778 18.4335 70.8778C19.3337 70.8778 19.8258 70.6137 19.8258 70.2655C19.8258 70.1094 19.6217 70.0374 19.0816 69.8573C18.7336 69.7493 18.4815 69.6532 18.3135 69.5692ZM18.9128 68.0924C18.6728 68.0924 18.5888 67.8883 18.5888 67.6722C18.5888 66.9758 18.9248 66.1114 19.4649 66.1114C19.705 66.1114 19.789 66.3155 19.789 66.5316C19.777 67.24 19.4409 68.0924 18.9128 68.0924ZM19.3701 69.2209C20.0302 69.425 20.4383 69.581 20.4383 70.0373C20.4383 70.6255 19.3581 71.3219 18.0499 71.3099C17.2937 71.3099 16.6456 71.1058 16.6456 70.6135C16.6456 70.1453 17.0777 69.7611 18.1339 69.449C17.9899 69.3529 17.9299 69.2329 17.9299 69.0648C17.9299 68.7766 18.1939 68.5485 18.65 68.3324C18.2059 68.2724 17.9178 67.9362 17.9178 67.444C17.9178 66.6876 18.542 65.8232 19.5261 65.8232C19.7302 65.8232 19.9102 65.8712 20.0542 65.9673H21.1344L21.0144 66.3755H20.3783C20.4143 66.4835 20.4383 66.6036 20.4383 66.7356C20.4383 67.468 19.8502 68.3084 18.914 68.3564C18.674 68.4885 18.554 68.6686 18.554 68.8127C18.554 68.9822 18.7503 69.0395 19.1842 69.1662C19.2419 69.183 19.3039 69.2011 19.3701 69.2209ZM15.5646 67.1679C16.0327 67.1679 16.0447 67.372 15.9727 67.8883H16.2367L16.8609 66.1834H16.5968C16.3688 66.5916 16.1767 66.9038 15.6726 66.9038H14.6405L15.1446 65.4991C15.3246 64.9949 15.4086 64.8988 16.0567 64.8988H16.5128C17.1729 64.8988 17.2449 65.0789 17.2449 65.7752H17.509L17.725 64.6107H13.8123L13.7403 64.8268C14.4964 64.9829 14.5684 65.0549 14.2204 66.0274L13.4403 68.1284C13.0802 69.1009 12.9362 69.1729 12.06 69.329L12 69.5571H16.3448L17.1249 68.3205H16.8248C16.3208 68.8127 15.8167 69.269 14.8325 69.269C13.75 69.269 13.7693 69.216 14.0941 68.3234C14.115 68.266 14.1372 68.205 14.1604 68.1404L14.5204 67.1799H15.5646V67.1679Z" fill="black"/>
<path fill-rule="evenodd" clip-rule="evenodd" d="M19.1496 56.8876C19.3896 56.8876 19.5936 56.6837 19.5936 56.4438C19.5936 56.2039 19.3896 56 19.1496 56C18.8977 56 18.7057 56.2039 18.7057 56.4438C18.7057 56.6957 18.8977 56.8876 19.1496 56.8876ZM22.7022 58.3986C22.7022 57.8229 22.5583 57.607 22.1503 57.607C21.6464 57.607 21.1785 58.1467 20.7106 58.7944L21.7184 56.0956L21.6584 56.0117L20.4227 56.1556V56.2996L20.6626 56.4795C20.8716 56.6419 20.811 56.8044 20.633 57.2818L20.6146 57.3311L19.5229 60.1858C19.4269 60.4257 19.3189 60.7136 19.3189 60.7856C19.3189 61.1214 19.7748 61.4453 20.1947 61.4453C21.1305 61.4573 22.7022 59.73 22.7022 58.3986ZM33.1042 57.1752L34.22 56.1556V56.0117H33.4761L32.8163 57.1752H33.1042ZM33.1765 60.0899H33.4164C32.9605 60.9415 32.4086 61.4573 31.8807 61.4453C31.4248 61.4453 31.1369 61.1214 31.1369 60.5097C31.1369 59.2143 32.1927 57.595 33.1165 57.595C33.6444 57.595 34.1123 57.9908 33.7284 58.9024L31.7727 59.5501C31.7368 59.7181 31.7128 59.91 31.7128 60.0899C31.7128 60.5337 31.8807 60.7376 32.2167 60.7376C32.5406 60.7376 32.8765 60.4497 33.1765 60.0899ZM33.1153 58.7945C33.2353 58.3387 33.0073 58.1348 32.7434 58.1348C32.4555 58.1348 32.0955 58.5546 31.9036 59.1184L33.1153 58.7945ZM29.5747 58.1595H28.9268V57.8596L29.7306 57.7516L30.4025 56.7321H30.7744L30.4145 57.7516H31.3623L31.2423 58.1595H30.2705L29.3227 60.8103C29.7546 60.7383 30.3305 60.3305 30.5945 59.9587H30.7744C30.4385 60.8463 29.5627 61.47 28.8308 61.47C28.5789 61.47 28.4469 61.2301 28.5429 60.9902L29.5747 58.1595ZM28.5931 58.4713C28.7251 58.0155 28.6531 57.6077 28.3052 57.6077C27.8713 57.6077 27.7354 57.8942 27.3149 58.7809L27.2854 58.8431V58.3154C27.2854 57.9435 27.1654 57.6077 26.8295 57.6077C26.4336 57.6077 26.0736 58.2194 25.7977 58.8311H25.9776C26.1696 58.5553 26.3496 58.3873 26.4815 58.3873C26.6495 58.3873 26.7455 58.6512 26.4815 59.227L25.7137 60.9302C25.5697 61.2541 25.7257 61.458 26.0376 61.458C26.2296 61.458 26.3136 61.41 26.3976 61.2061L27.1534 59.215C27.3694 58.9511 27.5613 58.7232 27.8013 58.4713H28.5931ZM24.7902 58.7945C24.9101 58.3387 24.6822 58.1348 24.4182 58.1348C24.1303 58.1348 23.7823 58.5546 23.5784 59.1184L24.7902 58.7945ZM25.0893 60.0899H24.8494C24.5495 60.4497 24.2135 60.7376 23.8896 60.7376C23.5536 60.7376 23.3857 60.5337 23.3857 60.0899C23.3857 59.91 23.4097 59.7181 23.4457 59.5501L25.4013 58.9024C25.7852 57.9908 25.3293 57.595 24.7894 57.595C23.8656 57.595 22.8098 59.2143 22.8098 60.5097C22.8098 61.1214 23.0977 61.4453 23.5536 61.4453C24.0815 61.4573 24.6334 60.9415 25.0893 60.0899ZM20.0512 60.5461C20.0512 60.702 20.3272 60.882 20.5191 60.882C21.299 60.882 22.0308 59.4786 22.0188 58.6989C22.0188 58.435 21.8869 58.3271 21.7069 58.3271C21.419 58.3271 20.8911 58.7589 20.5551 59.1667L20.2432 60.0064C20.1352 60.2822 20.0512 60.4981 20.0512 60.5461ZM18.7917 57.6077C18.9357 57.6077 19.1036 57.7516 19.0316 58.0155L17.8799 60.8343C18.1798 60.7863 18.4917 60.4984 18.6717 60.2345H18.8517C18.5757 60.9422 17.9518 61.458 17.4119 61.458C17.268 61.458 17.076 61.314 17.172 61.0502L18.2518 58.2314C17.9518 58.2794 17.6399 58.5673 17.4599 58.8311H17.28C17.5559 58.1235 18.2278 57.6077 18.7917 57.6077ZM13.8116 56.3602H16.3911L16.3192 56.5881C15.4433 56.744 15.2994 56.816 14.9394 57.7876L14.1716 59.8986C13.7997 60.9062 13.8956 61.0261 14.5555 61.0261C15.3708 61.0261 15.9053 60.4337 16.3721 59.9164C16.4068 59.878 16.4411 59.84 16.4751 59.8027H16.7751L15.9232 61.314H12L12.072 61.0981C12.9358 60.9422 13.0798 60.8702 13.4397 59.8986L14.2196 57.7756C14.5675 56.804 14.4955 56.732 13.7397 56.5761L13.8116 56.3602Z" fill="black"/>
</svg>
