<svg width="16" height="16" viewBox="0 0 16 16" fill="none" xmlns="http://www.w3.org/2000/svg">
<g clip-path="url(#clip0_150_37037)">
<path d="M2 12.3333V3.33333C2 2.8029 2.21071 2.29419 2.58579 1.91911C2.96086 1.54404 3.46957 1.33333 4 1.33333H13.3333C13.5101 1.33333 13.6797 1.40357 13.8047 1.52859C13.9298 1.65361 14 1.82318 14 1.99999V14C14 14.1768 13.9298 14.3464 13.8047 14.4714C13.6797 14.5964 13.5101 14.6667 13.3333 14.6667H4.33333C3.71449 14.6667 3.121 14.4208 2.68342 13.9832C2.24583 13.5457 2 12.9522 2 12.3333ZM12.6667 13.3333V11.3333H4.33333C4.06812 11.3333 3.81376 11.4387 3.62623 11.6262C3.43869 11.8138 3.33333 12.0681 3.33333 12.3333C3.33333 12.5985 3.43869 12.8529 3.62623 13.0404C3.81376 13.228 4.06812 13.3333 4.33333 13.3333H12.6667ZM6.66667 2.66666H4C3.82319 2.66666 3.65362 2.7369 3.5286 2.86192C3.40357 2.98695 3.33333 3.15652 3.33333 3.33333V10.2247C3.64579 10.0763 3.98743 9.99953 4.33333 10H12.6667V2.66666H11.3333V8L9 6.66666L6.66667 8V2.66666Z" fill="#000091"/>
</g>
<defs>
<clipPath id="clip0_150_37037">
<rect width="16" height="16" fill="white"/>
</clipPath>
</defs>
</svg>
