<?xml version="1.0" encoding="UTF-8" standalone="no"?>
<svg
   xmlns:dc="http://purl.org/dc/elements/1.1/"
   xmlns:cc="http://creativecommons.org/ns#"
   xmlns:rdf="http://www.w3.org/1999/02/22-rdf-syntax-ns#"
   xmlns:svg="http://www.w3.org/2000/svg"
   xmlns="http://www.w3.org/2000/svg"
   xmlns:sodipodi="http://sodipodi.sourceforge.net/DTD/sodipodi-0.dtd"
   xmlns:inkscape="http://www.inkscape.org/namespaces/inkscape"
   height="20"
   id="Layer_1"
   version="1.1"
   viewBox="0 0 20 20"
   width="20"
   xml:space="preserve"
   sodipodi:docname="btnSearch.svg"
   inkscape:version="0.92.4 (5da689c313, 2019-01-14)"><metadata
     id="metadata9"><rdf:RDF><cc:Work
         rdf:about=""><dc:format>image/svg+xml</dc:format><dc:type
           rdf:resource="http://purl.org/dc/dcmitype/StillImage" /><dc:title></dc:title></cc:Work></rdf:RDF></metadata><defs
     id="defs7" /><sodipodi:namedview
     pagecolor="#ffffff"
     bordercolor="#666666"
     borderopacity="1"
     objecttolerance="10"
     gridtolerance="10"
     guidetolerance="10"
     inkscape:pageopacity="0"
     inkscape:pageshadow="2"
     inkscape:window-width="1920"
     inkscape:window-height="1017"
     id="namedview5"
     showgrid="false"
     fit-margin-top="0"
     fit-margin-left="0"
     fit-margin-right="0"
     fit-margin-bottom="0"
     inkscape:zoom="14.75"
     inkscape:cx="8"
     inkscape:cy="8"
     inkscape:window-x="3832"
     inkscape:window-y="515"
     inkscape:window-maximized="1"
     inkscape:current-layer="Layer_1" /><path
     d="M 19.625,17.875 15.74375,13.99375 C 16.84125,12.53 17.5,10.72 17.5,8.75 17.5,3.9175 13.5825,0 8.75,0 3.9175,0 0,3.9175 0,8.75 c 0,4.8325 3.9175,8.75 8.75,8.75 1.97,0 3.78,-0.65875 5.2425,-1.75625 L 17.875,19.625 C 18.105,19.855 18.35,20 18.75,20 19.44125,20 20,19.44125 20,18.75 20,18.47625 19.9325,18.1825 19.625,17.875 Z M 2.5,8.75 C 2.5,5.2975 5.2975,2.5 8.75,2.5 12.2025,2.5 15,5.2975 15,8.75 15,12.2025 12.2025,15 8.75,15 5.2975,15 2.5,12.2025 2.5,8.75 Z"
     id="path2"
     inkscape:connector-curvature="0"
     style="stroke-width:1.25;fill:#cccccc;fill-opacity:1" /></svg>