<svg width="24" height="25" viewBox="0 0 24 25" fill="none" xmlns="http://www.w3.org/2000/svg">
<path d="M3.06085 1.29431C1.95628 1.29431 1.06085 2.18974 1.06085 3.29431C1.06085 4.39888 1.95628 5.29431 3.06085 5.29431L20.9395 5.29431C22.0441 5.29431 22.9395 4.39888 22.9395 3.29431C22.9395 2.18974 22.0441 1.29431 20.9395 1.29431H3.06085Z" fill="black"/>
<path d="M1.06085 9.37378C1.06085 8.26921 1.95628 7.37378 3.06085 7.37378L20.9395 7.37378C22.0441 7.37378 22.9395 8.26921 22.9395 9.37378C22.9395 10.4784 22.0441 11.3738 20.9395 11.3738L3.06085 11.3738C1.95628 11.3738 1.06085 10.4783 1.06085 9.37378Z" fill="black"/>
<path d="M22.5536 14.1923C23.2055 15.084 23.011 16.3353 22.1193 16.9872L13.1802 23.5216C12.4772 24.0355 11.5226 24.0355 10.8196 23.5216L1.88054 16.9872C0.988813 16.3353 0.794351 15.084 1.4462 14.1923C2.09804 13.3006 3.34935 13.1061 4.24108 13.758L11.9999 19.4296L19.7587 13.758C20.6505 13.1061 21.9018 13.3006 22.5536 14.1923Z" fill="black"/>
</svg>
