<svg width="24" height="25" viewBox="0 0 24 25" fill="none" xmlns="http://www.w3.org/2000/svg">
<path d="M22.5534 11.0091C23.2052 10.1174 23.0108 8.86609 22.119 8.21425L13.1799 1.67982C12.477 1.16597 11.5223 1.16597 10.8194 1.67982L1.88029 8.21425C0.988569 8.86609 0.794107 10.1174 1.44595 11.0091C2.0978 11.9009 3.34911 12.0953 4.24083 11.4435L11.9997 5.77181L19.7585 11.4435C20.6502 12.0953 21.9015 11.9009 22.5534 11.0091Z" fill="black"/>
<path d="M1.06059 15.8276C1.06059 16.9322 1.95602 17.8276 3.06059 17.8276L20.9393 17.8276C22.0438 17.8276 22.9393 16.9322 22.9393 15.8276C22.9393 14.7231 22.0438 13.8276 20.9393 13.8276L3.06059 13.8276C1.95602 13.8276 1.06059 14.7231 1.06059 15.8276Z" fill="black"/>
<path d="M1.06059 21.9071C1.06059 23.0117 1.95602 23.9071 3.06059 23.9071L20.9393 23.9071C22.0438 23.9071 22.9393 23.0117 22.9393 21.9071C22.9393 20.8025 22.0438 19.9071 20.9393 19.9071L3.06059 19.9071C1.95602 19.9071 1.06059 20.8025 1.06059 21.9071Z" fill="black"/>
</svg>
