<svg xmlns="http://www.w3.org/2000/svg" width="18" height="143" viewBox="0 0 4.762 37.835"><g style="fill:#fff;fill-opacity:1"><path style="fill:#fff;fill-opacity:1" d="M17 8V1h-7v2h3.6l-4 4L11 8.4l4-4V8zM8 15H4.4l4-4L7 9.6l-4 4V10H1v7h7z" transform="matrix(.26458 0 0 .26458 0 28.575)"/></g><g style="fill:#fff;fill-opacity:1"><path style="fill:#fff;fill-opacity:1" d="M8 10H1v2h3.6l-4 4L2 17.4l4-4V17h2zM13.4 6l4-4L16 .6l-4 4V1h-2v7h7V6z" transform="matrix(.25198 0 0 .25198 .113 33.45)"/></g><g style="fill:#fff;fill-opacity:1"><path style="fill:#fff;fill-opacity:1" d="M11 6.9 13.1 9 11 11.1l1.4 1.4 2.1-2.1 2.1 2.1 1.4-1.4L15.9 9 18 6.9l-1.4-1.4-2.1 2.1-2.1-2.1zM3.786 6.008H.714C.286 6.008 0 6.31 0 6.76v4.512c0 .452.286.752.714.752h3.072l4.071 3.858c.5.3 1.143 0 1.143-.602V2.752c0-.601-.643-.977-1.143-.601Z" transform="matrix(.26458 0 0 .26458 0 19.05)"/></g><g style="fill:#fff;fill-opacity:1"><path d="M6 1H3c-.6 0-1 .4-1 1v14c0 .6.4 1 1 1h3c.6 0 1-.4 1-1V2c0-.6-.4-1-1-1ZM12 1c-.6 0-1 .4-1 1v14c0 .6.4 1 1 1h3c.6 0 1-.4 1-1V2c0-.6-.4-1-1-1Z" style="fill:#fff;fill-opacity:1" transform="matrix(.26458 0 0 .26458 0 4.762)"/></g><path d="M15.562 8.1 3.87.225C3.052-.337 2 .225 2 1.125v15.75c0 .9 1.052 1.462 1.87.9L15.563 9.9c.584-.45.584-1.35 0-1.8z" style="fill:#fff;fill-opacity:1" transform="scale(.26458)"/><path d="M16.135 7.784a2 2 0 0 1-1.23-2.969c.322-.536.225-.998-.094-1.316l-.31-.31c-.318-.318-.78-.415-1.316-.094a2 2 0 0 1-2.969-1.23C10.065 1.258 9.669 1 9.219 1h-.438c-.45 0-.845.258-.997.865a2 2 0 0 1-2.969 1.23c-.536-.322-.999-.225-1.317.093l-.31.31c-.318.318-.415.781-.093 1.317a2 2 0 0 1-1.23 2.969C1.26 7.935 1 8.33 1 8.781v.438c0 .45.258.845.865.997a2 2 0 0 1 1.23 2.969c-.322.536-.225.998.094 1.316l.31.31c.319.319.782.415 1.316.094a2 2 0 0 1 2.969 1.23c.151.607.547.865.997.865h.438c.45 0 .845-.258.997-.865a2 2 0 0 1 2.969-1.23c.535.321.997.225 1.316-.094l.31-.31c.318-.318.415-.781.094-1.316a2 2 0 0 1 1.23-2.969c.607-.151.865-.547.865-.997v-.438c0-.451-.26-.846-.865-.997ZM9 12a3 3 0 1 1 0-6 3 3 0 0 1 0 6z" style="fill:#fff;fill-opacity:1" transform="matrix(.26458 0 0 .26458 0 23.813)"/><g style="fill:#fff;fill-opacity:1"><path d="M15.6 3.3c-.4-.4-1-.4-1.4 0-.4.4-.4 1 0 1.4C15.4 5.9 16 7.4 16 9c0 1.6-.6 3.1-1.8 4.3-.4.4-.4 1 0 1.4.2.2.5.3.7.3.3 0 .5-.1.7-.3C17.1 13.2 18 11.2 18 9s-.9-4.2-2.4-5.7Z" style="fill:#fff;fill-opacity:1" transform="matrix(.26458 0 0 .26458 0 14.287)"/><path d="M11.282 5.282a.909.909 0 0 0 0 1.316c.735.735.995 1.458.995 2.402 0 .936-.425 1.917-.995 2.487a.909.909 0 0 0 0 1.316c.145.145.636.262 1.018.156a.725.725 0 0 0 .298-.156C13.773 11.733 14.13 10.16 14.13 9c0-.17-.002-.34-.011-.51-.053-.992-.319-2.005-1.522-3.208a.909.909 0 0 0-1.316 0zM3.786 6.008H.714C.286 6.008 0 6.31 0 6.76v4.512c0 .452.286.752.714.752h3.072l4.071 3.858c.5.3 1.143 0 1.143-.602V2.752c0-.601-.643-.977-1.143-.601Z" style="fill:#fff;fill-opacity:1" transform="matrix(.26458 0 0 .26458 0 14.287)"/></g><path style="color:#000;font-style:normal;font-variant:normal;font-weight:400;font-stretch:normal;font-size:medium;line-height:normal;font-family:sans-serif;font-variant-ligatures:normal;font-variant-position:normal;font-variant-caps:normal;font-variant-numeric:normal;font-variant-alternates:normal;font-feature-settings:normal;text-indent:0;text-align:start;text-decoration:none;text-decoration-line:none;text-decoration-style:solid;text-decoration-color:#000;letter-spacing:normal;word-spacing:normal;text-transform:none;writing-mode:lr-tb;direction:ltr;text-orientation:mixed;dominant-baseline:auto;baseline-shift:baseline;text-anchor:start;white-space:normal;shape-padding:0;clip-rule:nonzero;display:inline;overflow:visible;visibility:visible;opacity:1;isolation:auto;mix-blend-mode:normal;color-interpolation:sRGB;color-interpolation-filters:linearRGB;solid-color:#000;solid-opacity:1;vector-effect:none;fill:#fff;fill-opacity:1;fill-rule:nonzero;stroke:none;stroke-width:.70459372;stroke-linecap:butt;stroke-linejoin:round;stroke-miterlimit:4;stroke-dasharray:none;stroke-dashoffset:0;stroke-opacity:1;color-rendering:auto;image-rendering:auto;shape-rendering:auto;text-rendering:auto;enable-background:accumulate" d="M2.38 268.689a2.122 2.122 0 0 0-2.115 2.117c0 1.165.951 2.117 2.116 2.117a2.122 2.122 0 0 0 2.117-2.117h-.705c0 .784-.627 1.413-1.412 1.413a1.409 1.409 0 0 1-1.413-1.413c0-.784.629-1.411 1.413-1.412z" transform="translate(0 -258.9)"/></svg>