<svg width="20" height="20" viewBox="0 0 20 20" fill="none" xmlns="http://www.w3.org/2000/svg">
<g clip-path="url(#clip0_3146_21269)">
<path d="M18.359 8.77187C19.0169 8.17031 20.5903 5.17656 17.6637 2.49531C16.6794 1.59219 14.4528 0.625 11.9387 0.625C8.12467 0.625 3.26217 2.56406 1.37154 6.90625C-1.3519 13.1563 3.79029 19.375 10.0965 19.375C13.0012 19.375 16.1825 17.5844 17.4762 15.7687C17.5575 15.6547 17.6465 15.5469 17.7309 15.4359C18.0497 15.0219 18.67 13.8703 16.584 12.9922C15.6575 12.6016 15.5434 11.7016 15.6575 11.2531C15.9997 9.89844 17.1653 9.86406 18.359 8.77187ZM13.6919 15.55C12.6809 15.8937 11.634 15.5125 11.3528 14.6969C11.0715 13.8828 11.6622 12.9437 12.6731 12.6C13.684 12.2562 14.7309 12.6375 15.0122 13.4531C15.2934 14.2672 14.7028 15.2062 13.6919 15.55Z" fill="url(#paint0_radial_3146_21269)"/>
<mask id="mask0_3146_21269" style="mask-type:luminance" maskUnits="userSpaceOnUse" x="-4" y="-4" width="19" height="21">
<path d="M11.2118 1.3537C11.3386 0.471375 10.6556 -2.84098 6.69242 -3.05698C5.35856 -3.13061 3.02384 -2.46571 1.08047 -0.870789C-1.8678 1.54885 -4.39637 6.13252 -3.10314 10.6884C-1.24335 17.2474 6.67673 18.7923 11.5515 14.7916C13.7968 12.9489 15.1199 9.54657 14.9682 7.32234C14.9586 7.18262 14.9591 7.04278 14.9539 6.9035C14.9376 6.38122 14.6866 5.09753 12.517 5.74206C11.553 6.02792 10.8939 5.40458 10.6975 4.98558C10.1026 3.72132 10.9819 2.95527 11.2118 1.3537ZM11.9041 9.55405C11.3407 10.4611 10.2896 10.8305 9.55474 10.3785C8.82089 9.92764 8.68171 8.82706 9.24509 7.92C9.80846 7.01294 10.8596 6.64351 11.5944 7.09556C12.3283 7.54641 12.4674 8.647 11.9041 9.55405Z" fill="white"/>
</mask>
<g mask="url(#mask0_3146_21269)">
<path opacity="0.2" d="M4.81656 15.5364C5.88718 14.6577 6.57669 13.728 6.35662 13.4599C6.13654 13.1917 5.09022 13.6866 4.01959 14.5653C2.94897 15.444 2.25946 16.3736 2.47954 16.6418C2.69961 16.9099 3.74593 16.415 4.81656 15.5364Z" fill="#D4820B"/>
</g>
<mask id="mask1_3146_21269" style="mask-type:luminance" maskUnits="userSpaceOnUse" x="0" y="0" width="20" height="20">
<path d="M18.359 8.77187C19.0169 8.17031 20.5903 5.17656 17.6637 2.49531C16.6794 1.59219 14.4528 0.625 11.9387 0.625C8.12467 0.625 3.26217 2.56406 1.37154 6.90625C-1.3519 13.1563 3.79029 19.375 10.0965 19.375C13.0012 19.375 16.1825 17.5844 17.4762 15.7687C17.5575 15.6547 17.6465 15.5469 17.7309 15.4359C18.0497 15.0219 18.67 13.8703 16.584 12.9922C15.6575 12.6016 15.5434 11.7016 15.6575 11.2531C15.9997 9.89844 17.1653 9.86406 18.359 8.77187ZM13.6919 15.55C12.6809 15.8937 11.634 15.5125 11.3528 14.6969C11.0715 13.8828 11.6622 12.9437 12.6731 12.6C13.684 12.2562 14.7309 12.6375 15.0122 13.4531C15.2934 14.2672 14.7028 15.2062 13.6919 15.55Z" fill="white"/>
</mask>
<g mask="url(#mask1_3146_21269)">
<path opacity="0.2" d="M1.8125 15.9004C1.8125 15.9004 5.57031 12.1301 6.82344 12.7582C8.07656 13.3863 3.69219 17.1566 3.69219 17.1566H3.06563L3.69219 17.7848C3.69219 17.7848 9.32812 13.3863 8.70312 11.5004C8.07812 9.61446 1.74063 15.0488 1.32031 15.2941L1.8125 15.9004Z" fill="#D4820B"/>
</g>
<mask id="mask2_3146_21269" style="mask-type:luminance" maskUnits="userSpaceOnUse" x="0" y="0" width="20" height="20">
<path d="M18.359 8.77187C19.0169 8.17031 20.5903 5.17656 17.6637 2.49531C16.6794 1.59219 14.4528 0.625 11.9387 0.625C8.12467 0.625 3.26217 2.56406 1.37154 6.90625C-1.3519 13.1563 3.79029 19.375 10.0965 19.375C13.0012 19.375 16.1825 17.5844 17.4762 15.7687C17.5575 15.6547 17.6465 15.5469 17.7309 15.4359C18.0497 15.0219 18.67 13.8703 16.584 12.9922C15.6575 12.6016 15.5434 11.7016 15.6575 11.2531C15.9997 9.89844 17.1653 9.86406 18.359 8.77187ZM13.6919 15.55C12.6809 15.8937 11.634 15.5125 11.3528 14.6969C11.0715 13.8828 11.6622 12.9437 12.6731 12.6C13.684 12.2562 14.7309 12.6375 15.0122 13.4531C15.2934 14.2672 14.7028 15.2062 13.6919 15.55Z" fill="white"/>
</mask>
<g mask="url(#mask2_3146_21269)">
<path opacity="0.2" d="M0.235352 13.6754C0.235352 13.6754 5.47754 9.48785 10.64 8.99098C10.64 8.99098 12.2822 8.62535 11.9182 9.88004C11.5525 11.1363 9.67598 15.5847 5.00723 18.6457L4.46035 18.2535C4.46035 18.2535 12.44 12.68 9.85879 10.141C9.85879 10.141 9.57129 9.67067 7.87754 10.3504C6.18379 11.03 0.469727 14.8785 0.469727 14.8785L0.235352 13.6754Z" fill="#D4820B"/>
</g>
<mask id="mask3_3146_21269" style="mask-type:luminance" maskUnits="userSpaceOnUse" x="0" y="0" width="20" height="20">
<path d="M18.359 8.77187C19.0169 8.17031 20.5903 5.17656 17.6637 2.49531C16.6794 1.59219 14.4528 0.625 11.9387 0.625C8.12467 0.625 3.26217 2.56406 1.37154 6.90625C-1.3519 13.1563 3.79029 19.375 10.0965 19.375C13.0012 19.375 16.1825 17.5844 17.4762 15.7687C17.5575 15.6547 17.6465 15.5469 17.7309 15.4359C18.0497 15.0219 18.67 13.8703 16.584 12.9922C15.6575 12.6016 15.5434 11.7016 15.6575 11.2531C15.9997 9.89844 17.1653 9.86406 18.359 8.77187ZM13.6919 15.55C12.6809 15.8937 11.634 15.5125 11.3528 14.6969C11.0715 13.8828 11.6622 12.9437 12.6731 12.6C13.684 12.2562 14.7309 12.6375 15.0122 13.4531C15.2934 14.2672 14.7028 15.2062 13.6919 15.55Z" fill="white"/>
</mask>
<g mask="url(#mask3_3146_21269)">
<path opacity="0.2" d="M-0.519531 12.2687C-0.519531 12.2687 3.25703 9.60312 7.54609 8.19062C11.8352 6.77812 13.5633 4.01562 13.5633 4.01562C13.5633 4.01562 13.5945 6.52031 6.87422 9.15469C0.153906 11.7891 0.0570313 13.1047 0.0570313 13.1047L-0.519531 12.2687Z" fill="#D4820B"/>
</g>
<mask id="mask4_3146_21269" style="mask-type:luminance" maskUnits="userSpaceOnUse" x="0" y="0" width="20" height="20">
<path d="M18.359 8.77187C19.0169 8.17031 20.5903 5.17656 17.6637 2.49531C16.6794 1.59219 14.4528 0.625 11.9387 0.625C8.12467 0.625 3.26217 2.56406 1.37154 6.90625C-1.3519 13.1563 3.79029 19.375 10.0965 19.375C13.0012 19.375 16.1825 17.5844 17.4762 15.7687C17.5575 15.6547 17.6465 15.5469 17.7309 15.4359C18.0497 15.0219 18.67 13.8703 16.584 12.9922C15.6575 12.6016 15.5434 11.7016 15.6575 11.2531C15.9997 9.89844 17.1653 9.86406 18.359 8.77187ZM13.6919 15.55C12.6809 15.8937 11.634 15.5125 11.3528 14.6969C11.0715 13.8828 11.6622 12.9437 12.6731 12.6C13.684 12.2562 14.7309 12.6375 15.0122 13.4531C15.2934 14.2672 14.7028 15.2062 13.6919 15.55Z" fill="white"/>
</mask>
<g mask="url(#mask4_3146_21269)">
<path opacity="0.2" d="M10.2416 0.544141C10.2416 0.544141 4.16035 7.73789 0.991602 6.06758L0.415039 7.19102C0.415039 7.19102 5.76035 7.86602 11.04 0.478516L10.2416 0.544141Z" fill="#D4820B"/>
</g>
<mask id="mask5_3146_21269" style="mask-type:luminance" maskUnits="userSpaceOnUse" x="0" y="0" width="20" height="20">
<path d="M18.359 8.77187C19.0169 8.17031 20.5903 5.17656 17.6637 2.49531C16.6794 1.59219 14.4528 0.625 11.9387 0.625C8.12467 0.625 3.26217 2.56406 1.37154 6.90625C-1.3519 13.1563 3.79029 19.375 10.0965 19.375C13.0012 19.375 16.1825 17.5844 17.4762 15.7687C17.5575 15.6547 17.6465 15.5469 17.7309 15.4359C18.0497 15.0219 18.67 13.8703 16.584 12.9922C15.6575 12.6016 15.5434 11.7016 15.6575 11.2531C15.9997 9.89844 17.1653 9.86406 18.359 8.77187ZM13.6919 15.55C12.6809 15.8937 11.634 15.5125 11.3528 14.6969C11.0715 13.8828 11.6622 12.9437 12.6731 12.6C13.684 12.2562 14.7309 12.6375 15.0122 13.4531C15.2934 14.2672 14.7028 15.2062 13.6919 15.55Z" fill="white"/>
</mask>
<g mask="url(#mask5_3146_21269)">
<path opacity="0.2" d="M0.0666016 8.87553C0.0666016 8.87553 4.64316 8.23335 7.36348 6.4021C10.0838 4.57085 11.4588 1.29741 15.7166 1.45678L16.5807 1.80991C16.5807 1.80991 13.7963 1.19897 11.4916 3.93022C9.18691 6.66147 8.61191 6.88491 6.56348 7.62397C4.51504 8.36303 -0.381836 9.45366 -0.381836 9.45366L0.0666016 8.87553Z" fill="#D4820B"/>
</g>
<mask id="mask6_3146_21269" style="mask-type:luminance" maskUnits="userSpaceOnUse" x="0" y="0" width="20" height="20">
<path d="M18.359 8.77187C19.0169 8.17031 20.5903 5.17656 17.6637 2.49531C16.6794 1.59219 14.4528 0.625 11.9387 0.625C8.12467 0.625 3.26217 2.56406 1.37154 6.90625C-1.3519 13.1563 3.79029 19.375 10.0965 19.375C13.0012 19.375 16.1825 17.5844 17.4762 15.7687C17.5575 15.6547 17.6465 15.5469 17.7309 15.4359C18.0497 15.0219 18.67 13.8703 16.584 12.9922C15.6575 12.6016 15.5434 11.7016 15.6575 11.2531C15.9997 9.89844 17.1653 9.86406 18.359 8.77187ZM13.6919 15.55C12.6809 15.8937 11.634 15.5125 11.3528 14.6969C11.0715 13.8828 11.6622 12.9437 12.6731 12.6C13.684 12.2562 14.7309 12.6375 15.0122 13.4531C15.2934 14.2672 14.7028 15.2062 13.6919 15.55Z" fill="white"/>
</mask>
<g mask="url(#mask6_3146_21269)">
<path opacity="0.2" d="M18.551 3.16602C18.551 3.16602 15.2713 5.03477 14.2588 6.2957C14.2588 6.2957 18.2275 4.30508 19.4025 4.54883L18.551 3.16602Z" fill="#D4820B"/>
</g>
<mask id="mask7_3146_21269" style="mask-type:luminance" maskUnits="userSpaceOnUse" x="0" y="0" width="20" height="20">
<path d="M18.359 8.77187C19.0169 8.17031 20.5903 5.17656 17.6637 2.49531C16.6794 1.59219 14.4528 0.625 11.9387 0.625C8.12467 0.625 3.26217 2.56406 1.37154 6.90625C-1.3519 13.1563 3.79029 19.375 10.0965 19.375C13.0012 19.375 16.1825 17.5844 17.4762 15.7687C17.5575 15.6547 17.6465 15.5469 17.7309 15.4359C18.0497 15.0219 18.67 13.8703 16.584 12.9922C15.6575 12.6016 15.5434 11.7016 15.6575 11.2531C15.9997 9.89844 17.1653 9.86406 18.359 8.77187ZM13.6919 15.55C12.6809 15.8937 11.634 15.5125 11.3528 14.6969C11.0715 13.8828 11.6622 12.9437 12.6731 12.6C13.684 12.2562 14.7309 12.6375 15.0122 13.4531C15.2934 14.2672 14.7028 15.2062 13.6919 15.55Z" fill="white"/>
</mask>
<g mask="url(#mask7_3146_21269)">
<path opacity="0.2" d="M19.4109 5.49805C19.4109 5.49805 13.2766 7.72148 11.7969 11.7293C10.3172 15.7371 8.34219 16.9527 7.89219 17.1777C7.44375 17.4027 4.975 19.5637 4.92969 19.7449L6.77031 20.1059C6.77031 20.1059 10.8984 16.5934 11.3469 14.1621C11.7953 11.7309 14.1578 8.33867 20.0391 5.76836L19.4109 5.49805Z" fill="#D4820B"/>
</g>
<mask id="mask8_3146_21269" style="mask-type:luminance" maskUnits="userSpaceOnUse" x="0" y="0" width="20" height="20">
<path d="M18.359 8.77187C19.0169 8.17031 20.5903 5.17656 17.6637 2.49531C16.6794 1.59219 14.4528 0.625 11.9387 0.625C8.12467 0.625 3.26217 2.56406 1.37154 6.90625C-1.3519 13.1563 3.79029 19.375 10.0965 19.375C13.0012 19.375 16.1825 17.5844 17.4762 15.7687C17.5575 15.6547 17.6465 15.5469 17.7309 15.4359C18.0497 15.0219 18.67 13.8703 16.584 12.9922C15.6575 12.6016 15.5434 11.7016 15.6575 11.2531C15.9997 9.89844 17.1653 9.86406 18.359 8.77187ZM13.6919 15.55C12.6809 15.8937 11.634 15.5125 11.3528 14.6969C11.0715 13.8828 11.6622 12.9437 12.6731 12.6C13.684 12.2562 14.7309 12.6375 15.0122 13.4531C15.2934 14.2672 14.7028 15.2062 13.6919 15.55Z" fill="white"/>
</mask>
<g mask="url(#mask8_3146_21269)">
<path opacity="0.2" d="M12.8375 14.9883C12.8375 14.9883 11.1766 18.9508 8.125 21.4273C8.125 21.4273 11.625 19.8055 13.825 15.3477L12.8375 14.9883Z" fill="#D4820B"/>
</g>
<mask id="mask9_3146_21269" style="mask-type:luminance" maskUnits="userSpaceOnUse" x="0" y="0" width="20" height="20">
<path d="M18.359 8.77187C19.0169 8.17031 20.5903 5.17656 17.6637 2.49531C16.6794 1.59219 14.4528 0.625 11.9387 0.625C8.12467 0.625 3.26217 2.56406 1.37154 6.90625C-1.3519 13.1563 3.79029 19.375 10.0965 19.375C13.0012 19.375 16.1825 17.5844 17.4762 15.7687C17.5575 15.6547 17.6465 15.5469 17.7309 15.4359C18.0497 15.0219 18.67 13.8703 16.584 12.9922C15.6575 12.6016 15.5434 11.7016 15.6575 11.2531C15.9997 9.89844 17.1653 9.86406 18.359 8.77187ZM13.6919 15.55C12.6809 15.8937 11.634 15.5125 11.3528 14.6969C11.0715 13.8828 11.6622 12.9437 12.6731 12.6C13.684 12.2562 14.7309 12.6375 15.0122 13.4531C15.2934 14.2672 14.7028 15.2062 13.6919 15.55Z" fill="white"/>
</mask>
<g mask="url(#mask9_3146_21269)">
<path opacity="0.2" d="M16.7102 13.0273C16.7102 13.0273 15.4039 18.343 13.043 19.657C13.043 19.657 16.3086 19.3711 17.8148 12.8555L16.7102 13.0273Z" fill="#D4820B"/>
</g>
<path opacity="0.2" d="M11.9387 1.09375C14.2372 1.09375 16.3997 1.97344 17.3481 2.84219C18.3825 3.79063 18.9075 4.85781 18.9059 6.01562C18.9044 7.23125 18.3137 8.18125 18.0434 8.42656C17.6434 8.79219 17.2481 9.02813 16.8637 9.25625C16.1465 9.68438 15.4684 10.0891 15.2044 11.1391C15.0419 11.7859 15.2262 12.9281 16.4044 13.425C17.0856 13.7125 17.4934 14.0453 17.584 14.3906C17.6653 14.6969 17.4794 14.9984 17.3622 15.15C17.3356 15.1844 17.309 15.2172 17.2825 15.2516C17.2215 15.3297 17.1575 15.4094 17.0965 15.4969C15.9262 17.1359 12.9184 18.9062 10.0965 18.9062C7.03404 18.9062 4.09654 17.3281 2.43248 14.7875C0.912166 12.4656 0.682479 9.6625 1.80123 7.09375C2.62623 5.2 4.13092 3.62969 6.15435 2.55156C7.91842 1.61094 9.9731 1.09375 11.9387 1.09375ZM12.9419 16.1453C13.245 16.1453 13.5481 16.0938 13.8434 15.9938C14.5169 15.7656 15.0637 15.3016 15.3481 14.7234C15.5747 14.2609 15.6122 13.7547 15.4559 13.3C15.184 12.5141 14.3872 12.0047 13.4247 12.0047C13.1215 12.0047 12.8184 12.0563 12.5231 12.1563C11.8497 12.3844 11.3028 12.8484 11.0184 13.4266C10.7919 13.8891 10.7544 14.3953 10.9106 14.85C11.1825 15.6375 11.9794 16.1453 12.9419 16.1453ZM11.9387 0.625C8.12467 0.625 3.26217 2.56406 1.37154 6.90625C-1.3519 13.1563 3.79029 19.375 10.0965 19.375C13.0012 19.375 16.1825 17.5844 17.4762 15.7687C17.5575 15.6547 17.6465 15.5469 17.7309 15.4359C18.0497 15.0219 18.67 13.8703 16.584 12.9922C15.6575 12.6016 15.5434 11.7016 15.6575 11.2531C15.9981 9.89844 17.1637 9.8625 18.3575 8.77187C19.0153 8.17031 20.5887 5.17656 17.6622 2.49531C16.6794 1.59219 14.4528 0.625 11.9387 0.625ZM12.9419 15.6766C12.2075 15.6766 11.5653 15.3094 11.3528 14.6984C11.0715 13.8844 11.6622 12.9453 12.6731 12.6016C12.9247 12.5156 13.1794 12.475 13.4231 12.475C14.1575 12.475 14.7997 12.8422 15.0122 13.4547C15.2934 14.2688 14.7028 15.2078 13.6919 15.5516C13.4403 15.6359 13.1856 15.6766 12.9419 15.6766Z" fill="#424242"/>
<path d="M10.25 5.24922C11.3061 4.91965 11.948 3.96599 11.6837 3.11916C11.4195 2.27233 10.3491 1.853 9.29304 2.18257C8.23697 2.51213 7.59509 3.46579 7.85936 4.31262C8.12363 5.15946 9.19398 5.57878 10.25 5.24922Z" fill="#C62828"/>
<path d="M11.3845 2.92841C11.6361 3.75185 10.9986 4.67997 9.95797 5.00028C8.91735 5.3206 7.86891 4.91278 7.61735 4.08935C7.36579 3.26591 8.00329 2.33778 9.04391 2.01747C10.0845 1.69716 11.1314 2.10497 11.3845 2.92841Z" fill="url(#paint1_radial_3146_21269)"/>
<path d="M5.92978 8.63067C6.99574 8.29802 7.64438 7.33786 7.37857 6.48608C7.11276 5.6343 6.03315 5.21347 4.96719 5.54612C3.90124 5.87877 3.25259 6.83894 3.5184 7.69071C3.78422 8.54249 4.86383 8.96332 5.92978 8.63067Z" fill="#1565C0"/>
<path d="M7.11836 6.27357C7.37773 7.11888 6.72148 8.06888 5.65586 8.39857C4.59023 8.72826 3.51523 8.30951 3.25586 7.46419C2.99648 6.61888 3.65273 5.66888 4.71836 5.33919C5.78398 5.00951 6.85898 5.42826 7.11836 6.27357Z" fill="url(#paint2_radial_3146_21269)"/>
<path d="M4.78471 13.3549C5.88032 13.013 6.54612 12.0233 6.27183 11.1444C5.99753 10.2654 4.88701 9.83004 3.7914 10.1719C2.69579 10.5138 2.02998 11.5036 2.30427 12.3825C2.57857 13.2615 3.6891 13.6968 4.78471 13.3549Z" fill="#D3952F" fill-opacity="0.69"/>
<path d="M6.01832 11.0289C6.26989 11.8523 5.63239 12.7804 4.59176 13.1007C3.55114 13.421 2.5027 13.0132 2.25114 12.1898C1.99957 11.3664 2.63707 10.4382 3.6777 10.1179C4.71832 9.79604 5.76676 10.2039 6.01832 11.0289Z" fill="url(#paint3_radial_3146_21269)"/>
<path d="M8.02784 17.6553C9.07226 17.3289 9.70317 16.3739 9.437 15.5222C9.17083 14.6705 8.10838 14.2447 7.06395 14.5711C6.01953 14.8975 5.38862 15.8525 5.65479 16.7042C5.92096 17.5559 6.98341 17.9817 8.02784 17.6553Z" fill="#558B2F"/>
<path d="M9.17067 15.3757C9.42223 16.1991 8.78473 17.1272 7.74411 17.4475C6.70348 17.7679 5.65504 17.36 5.40348 16.5366C5.15192 15.7132 5.78942 14.785 6.83004 14.4647C7.87067 14.1444 8.91911 14.5522 9.17067 15.3757Z" fill="url(#paint4_radial_3146_21269)"/>
</g>
<defs>
<radialGradient id="paint0_radial_3146_21269" cx="0" cy="0" r="1" gradientUnits="userSpaceOnUse" gradientTransform="translate(9.47715 3.24516) rotate(90) scale(16.6312 10.9168)">
<stop stop-color="#F6C275"/>
<stop offset="0.2942" stop-color="#EFBA69"/>
<stop offset="0.4879" stop-color="#F4C072"/>
<stop offset="0.6526" stop-color="#F2B65E"/>
<stop offset="0.8012" stop-color="#F2AE4B"/>
<stop offset="0.9375" stop-color="#EBAA4B"/>
<stop offset="1" stop-color="#DD8B14"/>
</radialGradient>
<radialGradient id="paint1_radial_3146_21269" cx="0" cy="0" r="1" gradientUnits="userSpaceOnUse" gradientTransform="translate(9.24501 2.16185) rotate(90) scale(2.67172 2.08341)">
<stop stop-color="#EF5350"/>
<stop offset="0.3459" stop-color="#E94B49"/>
<stop offset="0.8869" stop-color="#D73534"/>
<stop offset="1" stop-color="#D32F2F"/>
</radialGradient>
<radialGradient id="paint2_radial_3146_21269" cx="0" cy="0" r="1" gradientUnits="userSpaceOnUse" gradientTransform="translate(4.92485 5.48696) rotate(90) scale(3.18547 2.48403)">
<stop stop-color="#42A5F5"/>
<stop offset="0.2859" stop-color="#3B9DEF"/>
<stop offset="0.7328" stop-color="#2787DE"/>
<stop offset="1" stop-color="#1976D2"/>
</radialGradient>
<radialGradient id="paint3_radial_3146_21269" cx="0" cy="0" r="1" gradientUnits="userSpaceOnUse" gradientTransform="translate(3.87971 10.261) rotate(90) scale(3.28219 2.55945)">
<stop stop-color="#FFEB3B"/>
<stop offset="0.436" stop-color="#FFEB3B"/>
<stop offset="0.6129" stop-color="#FEE238"/>
<stop offset="0.8995" stop-color="#FCCA30"/>
<stop offset="1" stop-color="#FBC02D"/>
</radialGradient>
<radialGradient id="paint4_radial_3146_21269" cx="0" cy="0" r="1" gradientUnits="userSpaceOnUse" gradientTransform="translate(7.0314 14.6085) rotate(90) scale(2.67172 2.08341)">
<stop stop-color="#8BC34A"/>
<stop offset="0.3459" stop-color="#83BB46"/>
<stop offset="0.8869" stop-color="#6DA53B"/>
<stop offset="1" stop-color="#689F38"/>
</radialGradient>
<clipPath id="clip0_3146_21269">
<rect width="20" height="20" fill="white"/>
</clipPath>
</defs>
</svg>
