<svg width="25" height="24" viewBox="0 0 25 24" fill="none" xmlns="http://www.w3.org/2000/svg">
<path d="M12.5 18V22" stroke="#161616" stroke-width="1.5" stroke-linecap="round" stroke-linejoin="round"/>
<path d="M9 22L9.32821 21.6717C9.90628 21.0936 10.1953 20.8045 10.5629 20.6523C10.9305 20.5 11.3392 20.5 12.1568 20.5H12.843C13.6605 20.5 14.0692 20.5 14.4368 20.6522C14.8043 20.8045 15.0933 21.0935 15.6714 21.6716L15.9998 22" stroke="#161616" stroke-width="1.5" stroke-linecap="round" stroke-linejoin="round"/>
<path d="M3 12C3 14.8284 3 16.2426 3.87868 17.1213C4.75736 18 6.17157 18 9 18H16C18.8284 18 20.2426 18 21.1213 17.1213C22 16.2426 22 14.8284 22 12V8C22 5.17157 22 3.75736 21.1213 2.87868C20.2426 2 18.8284 2 16 2H9C6.17157 2 4.75736 2 3.87868 2.87868C3 3.75736 3 5.17157 3 8V12Z" stroke="#161616" stroke-width="1.5"/>
<path d="M8.5 13V10M12.5 13V7M16.5 13V11" stroke="#161616" stroke-width="1.5" stroke-linecap="round"/>
</svg>
