<svg width="16" height="16" viewBox="0 0 16 16" fill="none" xmlns="http://www.w3.org/2000/svg">
<g clip-path="url(#clip0_1266_4894)">
<path d="M8.66667 7.99955H10.6667L8 10.6662L5.33333 7.99955H7.33333V5.33289H8.66667V7.99955ZM10 2.66622H3.33333V13.3329H12.6667V5.33289H10V2.66622ZM2 1.99422C2 1.62889 2.298 1.33289 2.666 1.33289H10.6667L14 4.66622V13.9949C14.0006 14.0824 13.984 14.1692 13.951 14.2504C13.9181 14.3315 13.8695 14.4053 13.808 14.4677C13.7466 14.53 13.6734 14.5796 13.5928 14.6137C13.5121 14.6478 13.4255 14.6656 13.338 14.6662H2.662C2.48692 14.665 2.31934 14.595 2.19548 14.4712C2.07161 14.3475 2.0014 14.18 2 14.0049V1.99422Z" fill="#000091"/>
</g>
<defs>
<clipPath id="clip0_1266_4894">
<rect width="16" height="16" fill="white" transform="translate(0 -0.000488281)"/>
</clipPath>
</defs>
</svg>
