<svg width="81" height="81" viewBox="0 0 81 81" fill="none" xmlns="http://www.w3.org/2000/svg">
<path fill-rule="evenodd" clip-rule="evenodd" d="M47.25 6.75V27C47.25 28.864 48.761 30.375 50.625 30.375H70.8751V70.8514C70.8813 71.7465 70.5317 72.6074 69.9032 73.2448C69.2747 73.8822 68.4187 74.2438 67.5236 74.25H13.4764C11.6268 74.25 10.1269 72.7516 10.125 70.902V10.098C10.125 8.28563 11.6336 6.75 13.4932 6.75H47.25ZM54 50.625H27V57.375H54V50.625ZM54 37.125H27V43.875H54V37.125ZM37.125 23.625H27V30.375H37.125V23.625ZM54 6.76013L70.875 23.625H54V6.76013Z" fill="#FFCC9F"/>
</svg>
