<svg width="82" height="81" viewBox="0 0 82 81" fill="none" xmlns="http://www.w3.org/2000/svg">
<path fill-rule="evenodd" clip-rule="evenodd" d="M41 6.75C59.6401 6.75 74.75 21.8599 74.75 40.5C74.75 59.1401 59.6401 74.25 41 74.25C22.3599 74.25 7.25 59.1401 7.25 40.5C7.25 21.8599 22.3599 6.75 41 6.75ZM37.9731 24.3763C32.3139 26.2244 28.2563 31.2086 27.5945 37.125H24.125V43.875H27.5911C28.2518 49.793 32.31 54.7789 37.9707 56.6272C43.6313 58.4756 49.8498 56.8453 53.8756 52.4576L48.1348 48.6304C45.8594 50.5549 42.7377 51.1364 39.922 50.1602C37.1064 49.184 35.0145 46.7949 34.4188 43.875L51.125 43.8784V37.1284H34.4188V37.125C35.0136 34.2045 37.1051 31.8145 39.9209 30.8376C42.7366 29.8606 45.859 30.4417 48.1348 32.3663L53.8756 28.5424C49.8495 24.1569 43.6323 22.5281 37.9731 24.3763Z" fill="#366EC1"/>
</svg>
