<svg width="25" height="24" viewBox="0 0 25 24" fill="none" xmlns="http://www.w3.org/2000/svg">
<path d="M21.5 21H10.5C7.20017 21 5.55025 21 4.52513 19.9749C3.5 18.9497 3.5 17.2998 3.5 14V3" stroke="#000091" stroke-width="1.5" stroke-linecap="round"/>
<path d="M8.5 10C9.60457 10 10.5 9.10457 10.5 8C10.5 6.89543 9.60457 6 8.5 6C7.39543 6 6.5 6.89543 6.5 8C6.5 9.10457 7.39543 10 8.5 10Z" stroke="#000091" stroke-width="1.5"/>
<path d="M12 18C13.3807 18 14.5 16.8807 14.5 15.5C14.5 14.1193 13.3807 13 12 13C10.6193 13 9.5 14.1193 9.5 15.5C9.5 16.8807 10.6193 18 12 18Z" stroke="#000091" stroke-width="1.5"/>
<path d="M18 11C19.933 11 21.5 9.433 21.5 7.5C21.5 5.567 19.933 4 18 4C16.067 4 14.5 5.567 14.5 7.5C14.5 9.433 16.067 11 18 11Z" stroke="#000091" stroke-width="1.5"/>
</svg>
