<svg width="14" height="13" viewBox="0 0 14 13" fill="none" xmlns="http://www.w3.org/2000/svg">
<g clip-path="url(#clip0_3212_86918)">
<path d="M12.3368 11.5324H11.4171L10.4266 8.41947L8.16263 1.62763C7.95039 0.990896 7.3844 0.566406 6.67692 0.566406C5.96943 0.566406 5.40345 0.990896 5.1912 1.62763L1.93678 11.5324H1.01705C0.592563 11.5324 0.30957 11.8154 0.30957 12.2399C0.30957 12.6644 0.592563 12.9474 1.01705 12.9474H12.3368C12.7613 12.9474 13.0443 12.6644 13.0443 12.2399C13.0443 11.8154 12.7613 11.5324 12.3368 11.5324ZM5.04971 6.58001H8.30413L8.79937 7.99498H4.55447L5.04971 6.58001ZM6.67692 1.98137C6.74766 1.98137 6.81841 2.05212 6.81841 2.05212L7.80889 5.16505H5.4742L6.46467 2.12287C6.53542 2.05212 6.60617 1.98137 6.67692 1.98137ZM3.4225 11.5324L4.12998 9.40994H9.2946L10.0021 11.5324H3.4225Z" fill="black"/>
</g>
<defs>
<clipPath id="clip0_3212_86918">
<rect width="13.619" height="13" fill="white"/>
</clipPath>
</defs>
</svg>
