<svg width="120" height="120" viewBox="0 0 120 120" fill="none" xmlns="http://www.w3.org/2000/svg">
<path fill-rule="evenodd" clip-rule="evenodd" d="M109.5 27C108.673 27 108 26.3271 108 25.5C108 24.6728 108.673 24 109.5 24C110.327 24 111 24.6728 111 25.5C111 26.3271 110.327 27 109.5 27Z" fill="#CACAFB"/>
<path fill-rule="evenodd" clip-rule="evenodd" d="M10.5 27C9.6729 27 9 26.3271 9 25.5C9 24.6728 9.6729 24 10.5 24C11.3271 24 12 24.6728 12 25.5C12 26.3271 11.3271 27 10.5 27Z" fill="#CACAFB"/>
<path fill-rule="evenodd" clip-rule="evenodd" d="M16.5 102C15.6729 102 15 101.327 15 100.5C15 99.6728 15.6729 99 16.5 99C17.3271 99 18 99.6728 18 100.5C18 101.327 17.3271 102 16.5 102Z" fill="#CACAFB"/>
<path fill-rule="evenodd" clip-rule="evenodd" d="M97.5 108C96.6729 108 96 107.327 96 106.5C96 105.673 96.6729 105 97.5 105C98.3271 105 99 105.673 99 106.5C99 107.327 98.3271 108 97.5 108Z" fill="#CACAFB"/>
<path fill-rule="evenodd" clip-rule="evenodd" d="M28.5 9C27.6729 9 27 8.3271 27 7.5C27 6.67283 27.6729 6 28.5 6C29.3271 6 30 6.67283 30 7.5C30 8.3271 29.3271 9 28.5 9Z" fill="#CACAFB"/>
<path fill-rule="evenodd" clip-rule="evenodd" d="M82.5 117C81.6729 117 81 116.327 81 115.5C81 114.673 81.6729 114 82.5 114C83.3271 114 84 114.673 84 115.5C84 116.327 83.3271 117 82.5 117Z" fill="#CACAFB"/>
<path fill-rule="evenodd" clip-rule="evenodd" d="M24 45C24 41.6901 26.6902 39 30 39C33.3098 39 36 41.6901 36 45C36 48.3097 33.3097 51 30 51C26.6903 51 24 48.3097 24 45ZM33 45C33 43.347 31.653 42 30 42C28.347 42 27 43.347 27 45C27 46.6529 28.3471 48 30 48C31.6529 48 33 46.6529 33 45Z" fill="#E4794A"/>
<path fill-rule="evenodd" clip-rule="evenodd" d="M39 39C39 35.6901 41.6902 33 45 33C48.3098 33 51 35.6901 51 39C51 42.3097 48.3097 45 45 45C41.6903 45 39 42.3097 39 39ZM48 39C48 37.347 46.653 36 45 36C43.347 36 42 37.347 42 39C42 40.6529 43.3471 42 45 42C46.6529 42 48 40.6529 48 39Z" fill="#E4794A"/>
<path d="M39.8292 39.1584C40.5701 38.7879 41.4712 39.0882 41.8416 39.8292C42.1857 40.5172 41.9513 41.3433 41.3228 41.7544L41.1708 41.8416L35.1708 44.8416C34.4299 45.2121 33.5288 44.9118 33.1584 44.1708C32.8143 43.4828 33.0487 42.6567 33.6772 42.2456L33.8292 42.1584L39.8292 39.1584Z" fill="#E4794A"/>
<path d="M48.4393 40.9393C48.9801 40.3986 49.8309 40.357 50.4194 40.8146L50.5607 40.9393L56.5607 46.9393C57.1465 47.5251 57.1465 48.4749 56.5607 49.0607C56.0199 49.6014 55.1691 49.643 54.5807 49.1854L54.4393 49.0607L48.4393 43.0607C47.8536 42.4749 47.8536 41.5251 48.4393 40.9393Z" fill="#E4794A"/>
<path fill-rule="evenodd" clip-rule="evenodd" d="M75 51C75 42.7272 81.7275 36 90 36C98.2725 36 105 42.7272 105 51C105 59.2723 98.2723 66 90 66C81.7277 66 75 59.2723 75 51ZM102 51C102 44.3841 96.6157 39 90 39C83.3843 39 78 44.3841 78 51C78 57.6155 83.3845 63 90 63C96.6155 63 102 57.6155 102 51Z" fill="#E4794A"/>
<path d="M90.055 43.0976C90.2772 42.2996 91.1043 41.8328 91.9024 42.055C95.4117 43.0322 98.1021 45.7846 98.8143 49.1974C98.9835 50.0083 98.4633 50.8029 97.6524 50.9722C96.8414 51.1414 96.0468 50.6212 95.8776 49.8102C95.3997 47.5206 93.5496 45.6278 91.0976 44.945C90.2996 44.7228 89.8328 43.8957 90.055 43.0976Z" fill="#E4794A"/>
<path d="M98.9462 60.201C99.6124 59.8163 100.451 60.0008 100.899 60.6035L100.995 60.75L109.995 76.3385C111.238 78.4908 110.5 81.2429 108.348 82.4856C106.273 83.6838 103.639 83.0409 102.34 81.0636L102.201 80.8385L93.201 65.25C92.7868 64.5326 93.0326 63.6152 93.75 63.201C94.4162 62.8163 95.2548 63.0008 95.7028 63.6035L95.799 63.75L104.799 79.3385C105.213 80.0559 106.131 80.3017 106.848 79.8875C107.514 79.5029 107.774 78.6844 107.476 77.995L107.397 77.8385L98.3971 62.25C97.9829 61.5326 98.2287 60.6152 98.9462 60.201Z" fill="#E4794A"/>
<path d="M66.8292 45.1584C67.5702 44.7879 68.4712 45.0882 68.8416 45.8292C69.1857 46.5172 68.9513 47.3433 68.3228 47.7544L68.1708 47.8416L65.1708 49.3416C64.4299 49.7121 63.5288 49.4118 63.1584 48.6708C62.8143 47.9828 63.0487 47.1567 63.6772 46.7456L63.8292 46.6584L66.8292 45.1584Z" fill="#E4794A"/>
<path fill-rule="evenodd" clip-rule="evenodd" d="M54 48C54 44.6901 56.6902 42 60 42C63.3098 42 66 44.6901 66 48C66 51.3097 63.3097 54 60 54C56.6903 54 54 51.3097 54 48ZM63 48C63 46.347 61.653 45 60 45C58.347 45 57 46.347 57 48C57 49.6529 58.3471 51 60 51C61.6529 51 63 49.6529 63 48Z" fill="#E4794A"/>
<path d="M88.5 24C89.2693 24 89.9033 24.5791 89.9899 25.3251L90 25.5V28.5C90 29.3284 89.3284 30 88.5 30C87.7307 30 87.0967 29.4209 87.0101 28.6749L87 28.5V27H18V81H87V73.5C87 72.7307 87.5791 72.0967 88.3251 72.0101L88.5 72C89.2693 72 89.9033 72.5791 89.9899 73.3251L90 73.5V82.5C90 83.2693 89.4209 83.9033 88.6749 83.9899L88.5 84H16.5C15.7307 84 15.0967 83.4209 15.0101 82.6749L15 82.5V25.5C15 24.7307 15.5791 24.0967 16.3251 24.0101L16.5 24H88.5Z" fill="#000091"/>
<path d="M58.5 27C59.2693 27 59.9033 26.4209 59.9899 25.6749L60 25.5V22.5C60 20.1035 58.1266 18.1445 55.7644 18.0076L55.5 18H49.5C47.1035 18 45.1445 19.8734 45.0076 22.2356L45 22.5V25.5C45 26.3284 45.6716 27 46.5 27C47.2693 27 47.9033 26.4209 47.9899 25.6749L48 25.5V22.5C48 21.7307 48.5791 21.0967 49.3251 21.0101L49.5 21H55.5C56.2693 21 56.9033 21.5791 56.9899 22.3251L57 22.5V25.5C57 26.3284 57.6716 27 58.5 27Z" fill="#000091"/>
<path d="M76.5 81C77.2693 81 77.9033 81.5791 77.9899 82.3251L78 82.5V85.5C78 87.8965 76.1266 89.8555 73.7644 89.9924L73.5 90H31.5C29.1035 90 27.1445 88.1266 27.0076 85.7644L27 85.5V82.5C27 81.6716 27.6716 81 28.5 81C29.2693 81 29.9033 81.5791 29.9899 82.3251L30 82.5V85.5C30 86.2693 30.5791 86.9033 31.3251 86.9899L31.5 87H73.5C74.2693 87 74.9033 86.4209 74.9899 85.6749L75 85.5V82.5C75 81.6716 75.6716 81 76.5 81Z" fill="#000091"/>
<path d="M56.7 87.6C56.2029 86.9373 55.2627 86.8029 54.6 87.3C53.9882 87.7588 53.8267 88.5952 54.1965 89.2425L54.3 89.4L63.3 101.4C63.7971 102.063 64.7373 102.197 65.4 101.7C66.0118 101.241 66.1733 100.405 65.8035 99.7575L65.7 99.6L56.7 87.6Z" fill="#000091"/>
<path d="M34.5 57C35.2693 57 35.9033 57.5791 35.9899 58.3251L36 58.5V61.5C36 62.3284 35.3284 63 34.5 63C33.7307 63 33.0967 62.4209 33.0101 61.6749L33 61.5V60H27V72H33V67.5C33 66.7307 33.5791 66.0967 34.3251 66.0101L34.5 66C35.2693 66 35.9033 66.5791 35.9899 67.3251L36 67.5V73.5C36 74.2693 35.4209 74.9033 34.6749 74.9899L34.5 75H25.5C24.7307 75 24.0967 74.4209 24.0101 73.6749L24 73.5V58.5C24 57.7307 24.5791 57.0967 25.3251 57.0101L25.5 57H34.5Z" fill="#000091"/>
<path d="M43.5 51C44.3284 51 45 51.6716 45 52.5C45 53.2693 44.4209 53.9033 43.6749 53.9899L43.5 54H42V72H48V55.5C48 54.7307 48.5791 54.0967 49.3251 54.0101L49.5 54C50.2693 54 50.9033 54.5791 50.9899 55.3251L51 55.5V73.5C51 74.2693 50.4209 74.9033 49.6749 74.9899L49.5 75H40.5C39.7307 75 39.0967 74.4209 39.0101 73.6749L39 73.5V52.5C39 51.7307 39.5791 51.0967 40.3251 51.0101L40.5 51H43.5Z" fill="#000091"/>
<path d="M58.5 63C59.3284 63 60 63.6716 60 64.5C60 65.2693 59.4209 65.9033 58.6749 65.9899L58.5 66H57V72H63V64.5C63 63.7307 63.5791 63.0967 64.3251 63.0101L64.5 63C65.2693 63 65.9033 63.5791 65.9899 64.3251L66 64.5V73.5C66 74.2693 65.4209 74.9033 64.6749 74.9899L64.5 75H55.5C54.7307 75 54.0967 74.4209 54.0101 73.6749L54 73.5V64.5C54 63.7307 54.5791 63.0967 55.3251 63.0101L55.5 63H58.5Z" fill="#000091"/>
<path d="M70.5 60C71.2693 60 71.9033 60.5791 71.9899 61.3251L72 61.5V72H78V70.5C78 69.7307 78.5791 69.0967 79.3251 69.0101L79.5 69C80.2693 69 80.9033 69.5791 80.9899 70.3251L81 70.5V73.5C81 74.2693 80.4209 74.9033 79.6749 74.9899L79.5 75H70.5C69.7307 75 69.0967 74.4209 69.0101 73.6749L69 73.5V61.5C69 60.6716 69.6716 60 70.5 60Z" fill="#000091"/>
<path d="M48.3 87.6C48.7971 86.9373 49.7373 86.8029 50.4 87.3C51.0118 87.7588 51.1733 88.5952 50.8035 89.2425L50.7 89.4L41.7 101.4C41.2029 102.063 40.2627 102.197 39.6 101.7C38.9882 101.241 38.8267 100.405 39.1965 99.7575L39.3 99.6L48.3 87.6Z" fill="#000091"/>
</svg>
