<svg width="120" height="120" viewBox="0 0 120 120" fill="none" xmlns="http://www.w3.org/2000/svg">
<path fill-rule="evenodd" clip-rule="evenodd" d="M105 103.5C104.173 103.5 103.5 102.827 103.5 102C103.5 101.173 104.173 100.5 105 100.5C105.827 100.5 106.5 101.173 106.5 102C106.5 102.827 105.827 103.5 105 103.5Z" fill="#CACAFB"/>
<path fill-rule="evenodd" clip-rule="evenodd" d="M102 19.5C101.173 19.5 100.5 18.8271 100.5 18C100.5 17.1728 101.173 16.5 102 16.5C102.827 16.5 103.5 17.1728 103.5 18C103.5 18.8271 102.827 19.5 102 19.5Z" fill="#CACAFB"/>
<path fill-rule="evenodd" clip-rule="evenodd" d="M21 103.5C20.1729 103.5 19.5 102.827 19.5 102C19.5 101.173 20.1729 100.5 21 100.5C21.8271 100.5 22.5 101.173 22.5 102C22.5 102.827 21.8271 103.5 21 103.5Z" fill="#CACAFB"/>
<path fill-rule="evenodd" clip-rule="evenodd" d="M15 25.5C14.1729 25.5 13.5 24.8271 13.5 24C13.5 23.1728 14.1729 22.5 15 22.5C15.8271 22.5 16.5 23.1728 16.5 24C16.5 24.8271 15.8271 25.5 15 25.5Z" fill="#CACAFB"/>
<path fill-rule="evenodd" clip-rule="evenodd" d="M24 49.5C24 47.0147 26.0147 45 28.5 45C30.9853 45 33 47.0147 33 49.5C33 51.9853 30.9853 54 28.5 54C26.0147 54 24 51.9853 24 49.5ZM30 49.5C30 48.6716 29.3284 48 28.5 48C27.6716 48 27 48.6716 27 49.5C27 50.3284 27.6716 51 28.5 51C29.3284 51 30 50.3284 30 49.5Z" fill="#E4794A"/>
<path d="M28.5 51C29.2693 51 29.9033 51.5791 29.9899 52.3251L30 52.5V58.5C30 59.3284 29.3284 60 28.5 60C27.7307 60 27.0967 59.4209 27.0101 58.6749L27 58.5V52.5C27 51.6716 27.6716 51 28.5 51Z" fill="#E4794A"/>
<path fill-rule="evenodd" clip-rule="evenodd" d="M57 43.5C57 41.0147 59.0147 39 61.5 39C63.9853 39 66 41.0147 66 43.5C66 45.9853 63.9853 48 61.5 48C59.0147 48 57 45.9853 57 43.5ZM63 43.5C63 42.6716 62.3284 42 61.5 42C60.6716 42 60 42.6716 60 43.5C60 44.3284 60.6716 45 61.5 45C62.3284 45 63 44.3284 63 43.5Z" fill="#E4794A"/>
<path d="M61.5 45C62.2693 45 62.9033 45.5791 62.9899 46.3251L63 46.5V52.5C63 53.3284 62.3284 54 61.5 54C60.7307 54 60.0967 53.4209 60.0101 52.6749L60 52.5V46.5C60 45.6716 60.6716 45 61.5 45Z" fill="#E4794A"/>
<path fill-rule="evenodd" clip-rule="evenodd" d="M84 25.5C84 23.0147 86.0147 21 88.5 21C90.9853 21 93 23.0147 93 25.5C93 27.9853 90.9853 30 88.5 30C86.0147 30 84 27.9853 84 25.5ZM90 25.5C90 24.6716 89.3284 24 88.5 24C87.6716 24 87 24.6716 87 25.5C87 26.3284 87.6716 27 88.5 27C89.3284 27 90 26.3284 90 25.5Z" fill="#E4794A"/>
<path d="M88.5 27C89.2693 27 89.9033 27.5791 89.9899 28.3251L90 28.5V34.5C90 35.3284 89.3284 36 88.5 36C87.7307 36 87.0967 35.4209 87.0101 34.6749L87 34.5V28.5C87 27.6716 87.6716 27 88.5 27Z" fill="#E4794A"/>
<path fill-rule="evenodd" clip-rule="evenodd" d="M72 58.5C72 56.0147 74.0147 54 76.5 54C78.9853 54 81 56.0147 81 58.5C81 60.9853 78.9853 63 76.5 63C74.0147 63 72 60.9853 72 58.5ZM78 58.5C78 57.6716 77.3284 57 76.5 57C75.6716 57 75 57.6716 75 58.5C75 59.3284 75.6716 60 76.5 60C77.3284 60 78 59.3284 78 58.5Z" fill="#E4794A"/>
<path d="M76.5 60C77.2693 60 77.9033 60.5791 77.9899 61.3251L78 61.5V67.5C78 68.3284 77.3284 69 76.5 69C75.7307 69 75.0967 68.4209 75.0101 67.6749L75 67.5V61.5C75 60.6716 75.6716 60 76.5 60Z" fill="#E4794A"/>
<path fill-rule="evenodd" clip-rule="evenodd" d="M51 73.5C51 71.0147 53.0147 69 55.5 69C57.9853 69 60 71.0147 60 73.5C60 75.9853 57.9853 78 55.5 78C53.0147 78 51 75.9853 51 73.5ZM57 73.5C57 72.6716 56.3284 72 55.5 72C54.6716 72 54 72.6716 54 73.5C54 74.3284 54.6716 75 55.5 75C56.3284 75 57 74.3284 57 73.5Z" fill="#E4794A"/>
<path d="M55.5 75C56.2693 75 56.9033 75.5791 56.9899 76.3251L57 76.5V82.5C57 83.3284 56.3284 84 55.5 84C54.7307 84 54.0967 83.4209 54.0101 82.6749L54 82.5V76.5C54 75.6716 54.6716 75 55.5 75Z" fill="#E4794A"/>
<path fill-rule="evenodd" clip-rule="evenodd" d="M75 88.5C75 86.0147 77.0147 84 79.5 84C81.9853 84 84 86.0147 84 88.5C84 90.9853 81.9853 93 79.5 93C77.0147 93 75 90.9853 75 88.5ZM81 88.5C81 87.6716 80.3284 87 79.5 87C78.6716 87 78 87.6716 78 88.5C78 89.3284 78.6716 90 79.5 90C80.3284 90 81 89.3284 81 88.5Z" fill="#E4794A"/>
<path d="M79.5 90C80.2693 90 80.9033 90.5791 80.9899 91.3251L81 91.5V97.5C81 98.3284 80.3284 99 79.5 99C78.7307 99 78.0967 98.4209 78.0101 97.6749L78 97.5V91.5C78 90.6716 78.6716 90 79.5 90Z" fill="#E4794A"/>
<path fill-rule="evenodd" clip-rule="evenodd" d="M94.5608 36.0013L98.562 36.1648C98.8185 36.1753 99.068 36.2514 99.2866 36.3859C101.217 37.5734 101.949 39.9916 101.009 41.9977L100.883 42.2462L99.7031 44.4015L99.6626 44.8351C99.6392 45.0705 99.5989 45.2974 99.5393 45.5238L99.4351 45.8643L98.5766 48.2505L98.6468 52.3606C98.6728 53.6227 98.1497 54.8194 97.2144 55.6765L96.9913 55.8682L95.2475 57.2694C94.9763 57.4866 94.6802 57.672 94.3659 57.8227L94.1876 57.9L92.5751 59.904L92.6807 59.9957C93.1751 60.4542 93.5654 61.0223 93.8104 61.6679L93.9064 61.9492L94.1456 62.739L94.4438 63.1061L95.4253 64.516C96.1995 65.6394 96.3927 67.0236 96.0127 68.2738L95.9261 68.5215L96.4152 69.0843C97.088 69.8685 97.4642 70.8439 97.4858 71.8633L97.4815 72.1703L97.3982 73.7089C97.3565 74.4138 97.1432 75.0898 96.79 75.686L96.7001 75.825L96.8203 76.0252C97.1879 76.6906 97.3776 77.4438 97.362 78.2172L97.3481 78.456L97.5732 78.4796C98.9659 78.6673 100.233 79.4793 100.946 80.7509L101.073 80.9947L101.577 82.0471C102.244 83.4522 102.112 85.0826 101.272 86.3258L101.248 86.358L101.247 86.5462C101.197 87.6935 100.689 88.785 99.8168 89.5876L99.5911 89.7821L96.5121 92.2443L96.3646 92.3484L95.6741 92.7735L95.6595 92.8727C95.6141 93.0995 95.5508 93.3224 95.47 93.5391L95.3357 93.8591C94.8795 94.8476 94.0527 95.64 93.0376 96.081L92.7563 96.1924L90.031 97.1615C89.7813 97.2446 89.5606 97.3038 89.3431 97.3444L89.1257 97.379L87.1074 97.6564C86.5366 97.7354 85.9437 97.7068 85.3827 97.5716C84.5773 97.3775 84.0818 96.5673 84.2758 95.762C84.456 95.0141 85.1675 94.5334 85.9131 94.6239L86.0855 94.6551C86.2155 94.6864 86.3545 94.7015 86.4925 94.6998L86.6976 94.6845L88.7256 94.4058C88.7902 94.3973 88.8558 94.3837 88.9318 94.3626L89.0549 94.3249L91.7471 93.3673C92.1375 93.2272 92.4552 92.9413 92.6151 92.5949C92.6852 92.4451 92.7272 92.2852 92.74 92.1234L92.743 91.9613C92.7227 91.4798 92.9347 91.0219 93.3059 90.7257L93.4524 90.6225L94.7156 89.8395L97.7122 87.4434C98.0695 87.155 98.2596 86.748 98.2504 86.3298L98.2342 86.1502C98.1819 85.8213 98.2408 85.4863 98.3983 85.1971L98.5045 85.0295L98.7037 84.7584C98.9883 84.3955 99.0706 83.9369 98.9385 83.516L98.8687 83.3383L98.3695 82.2948C98.0606 81.6559 97.3189 81.3165 96.5915 81.4763L96.4102 81.5268L96.0245 81.6588C95.6448 81.7888 95.2317 81.7605 94.8764 81.5857L94.704 81.4861L94.341 81.243C93.6458 80.7775 93.474 79.8437 93.9263 79.166L94.0328 79.025C94.2213 78.8033 94.3329 78.537 94.3575 78.2502C94.3894 77.8829 94.2751 77.5286 94.0342 77.2452L93.9033 77.1096L93.6869 76.9111C93.0385 76.3164 93.046 75.3076 93.6658 74.7196L93.808 74.6003C94.1097 74.3768 94.3137 74.0541 94.381 73.7116L94.403 73.5391L94.4855 72.0163C94.4997 71.7249 94.4187 71.4373 94.2535 71.1889L94.1444 71.0448L92.9898 69.7157C92.5677 69.2299 92.5067 68.536 92.819 67.989L92.9239 67.8296C93.242 67.4072 93.2877 66.8522 93.0582 66.3919L92.9592 66.2242L92.0556 64.9176L91.6393 64.4129C91.5551 64.3108 91.485 64.1984 91.4306 64.0785L91.3609 63.8934L91.0357 62.8203C90.9035 62.3854 90.5576 62.0346 90.1036 61.8696L89.9284 61.8167C88.9204 61.5709 88.4766 60.4141 89.0107 59.5653L89.1152 59.419L92.1061 55.7025C92.2565 55.5157 92.4489 55.3683 92.6665 55.2718L92.8342 55.2091C92.968 55.168 93.094 55.1115 93.2082 55.0424L93.3702 54.9294L95.1112 53.5304C95.4155 53.2855 95.5985 52.9564 95.639 52.5981L95.6473 52.4168L95.5731 48.0291C95.5711 47.9082 95.5837 47.7877 95.6104 47.6703L95.6612 47.4967L96.6069 44.8636L96.6511 44.7079L96.6764 44.5476L96.7445 43.8174C96.7572 43.6817 96.7882 43.5486 96.8366 43.4219L96.922 43.2369L98.252 40.8053C98.5185 40.3192 98.4509 39.7281 98.1116 39.2944L97.9736 39.1425L94.4383 38.9988C93.6697 38.9673 93.0599 38.3629 93.0038 37.614L93.0008 37.4388C93.0322 36.6701 93.6367 36.0603 94.3856 36.0042L94.5608 36.0013Z" fill="#000091"/>
<path fill-rule="evenodd" clip-rule="evenodd" d="M61.3899 18.1308C63.1392 17.7105 64.9823 18.323 66.0833 19.6823L66.2598 19.9157L66.7436 20.598L67.0076 20.6223C68.6799 20.823 70.1068 21.9044 70.7035 23.4632L70.7216 23.52C71.2132 23.7326 71.6515 24.0189 72.0308 24.3726L72.0866 24.429L72.1671 24.4531C72.2649 24.4855 72.3614 24.5212 72.4563 24.5599L72.7361 24.6854L73.972 25.2798C74.3614 25.4705 74.7175 25.7104 75.032 25.9923L75.1226 26.0805L75.2252 26.0572C76.4518 25.7605 77.7692 25.9954 78.8286 26.6869L79.0879 26.8693C79.8744 27.4668 80.4284 28.284 80.6854 29.1994L80.7626 29.526L81.8419 30.2589C82.0013 30.367 82.1378 30.5045 82.2446 30.6634L82.3412 30.8292L83.8412 33.8292C84.2117 34.5702 83.9113 35.4712 83.1704 35.8417C82.4823 36.1857 81.6563 35.9513 81.2452 35.3228L81.1579 35.1708L79.8326 32.52L78.505 31.6198C78.145 31.3755 77.9114 30.9891 77.8587 30.5633L77.835 30.1943C77.7859 29.8305 77.5914 29.5 77.2755 29.2599C76.9492 29.0131 76.5259 28.8984 76.1185 28.9416L75.9166 28.9764L74.9077 29.2103C74.345 29.3407 73.7637 29.136 73.406 28.6965L73.2953 28.5414C73.178 28.3529 73.0147 28.1899 72.8168 28.065L72.6621 27.9787L71.4257 27.3841C71.3373 27.3407 71.2476 27.3062 71.1558 27.2803L71.0165 27.2477C70.7244 27.1934 70.4563 27.0537 70.2451 26.8484L70.1255 26.7174C69.9491 26.4997 69.71 26.3328 69.437 26.2362L69.2264 26.1772C68.7554 26.0788 68.3641 25.7616 68.1678 25.3301L68.1036 25.1631L67.9338 24.6284C67.7584 24.0667 67.2551 23.6669 66.6321 23.5988L66.4419 23.5885H65.961C65.5354 23.5885 65.1329 23.408 64.8505 23.0969L64.7371 22.9558L63.8098 21.6472C63.4881 21.1907 62.8923 20.9408 62.3019 21.0093L62.1057 21.0441L57.1791 22.2813C56.7833 22.381 56.4571 22.6136 56.2523 22.9303L56.1604 23.0954L55.0816 25.374C55.0094 25.5299 54.9668 25.6994 54.9558 25.8688L54.9555 26.0378L55.1536 29.0191C55.1801 29.4171 55.0469 29.8064 54.7884 30.1033L54.6489 30.2437L53.2577 31.4702C53.1566 31.5594 53.044 31.6343 52.9233 31.6932L52.7366 31.7692L47.5469 33.4849C47.0254 33.6557 46.6529 34.063 46.5432 34.5461L46.5146 34.7304L46.4858 35.0644C46.4145 35.8909 45.6909 36.4907 44.8848 36.4319L44.711 36.4091L41.9784 35.8892C41.7349 35.8429 41.5077 35.7371 41.3163 35.5826L41.1798 35.4577L39.0774 33.2809C38.8038 32.999 38.4098 32.8213 38.0294 32.8013L37.841 32.8047L35.3944 32.9246C34.9129 32.9507 34.4868 33.1728 34.215 33.5315C33.9917 33.8235 33.8954 34.1753 33.9362 34.5242L33.968 34.6981L34.7471 37.7595L35.7841 40.1542C36.2354 41.197 35.4113 42.3199 34.3163 42.2477L34.1502 42.2277L33.3348 42.0857C33.1012 42.0428 32.8589 42.0519 32.6274 42.1113L32.4562 42.1652L32.2231 42.2535C31.7372 42.4377 31.1956 42.356 30.7879 42.0483L30.6417 41.9223L29.5324 40.8355C29.2615 40.5695 28.8806 40.41 28.4685 40.3886L28.2602 40.3895L22.2622 40.9093C22.1413 40.919 22.024 40.9419 21.9053 40.9795L21.7256 41.0471L17.3784 43.0025C16.7177 43.3002 16.3873 43.9612 16.5345 44.6009L16.5813 44.7602L17.2439 46.598C17.3258 46.824 17.4746 47.0346 17.6767 47.2063L17.838 47.3275C18.2999 47.6332 18.5515 48.165 18.5045 48.7074L18.4776 48.8882C18.4057 49.2288 18.4656 49.5849 18.667 49.9141L18.7797 50.1054L18.9856 50.425C19.0176 50.4715 19.0484 50.5149 19.0779 50.5551L19.2389 50.7603L19.3652 50.8982L19.4533 50.9757C19.4759 50.9923 19.4915 51 19.4996 51C20.328 51 20.9996 51.6716 20.9996 52.5C20.9996 53.3284 20.328 54 19.4996 54C18.1071 54 17.0056 53.0501 16.0872 51.4446C15.7375 50.8756 15.5287 50.2373 15.4671 49.5829L15.4481 49.227L15.4362 49.2158C15.062 48.8361 14.7582 48.3954 14.5417 47.9123L14.4225 47.6174L13.7588 45.7766C13.0075 43.6878 13.936 41.4165 15.8964 40.3888L16.1468 40.2669L20.5131 38.3031C20.9114 38.1302 21.308 38.0145 21.7103 37.9544L22.0132 37.9197L28.0387 37.3979C29.2935 37.3208 30.4978 37.7083 31.4108 38.4899L31.6329 38.6935L32.0651 39.1185L31.9478 38.8431L31.8708 38.6177L31.0595 35.4331C30.7343 34.1361 31.0171 32.7749 31.8278 31.7145C32.5717 30.7329 33.6894 30.1045 34.9279 29.9557L35.24 29.9286L37.6255 29.8133C38.8169 29.6999 40.0783 30.1441 41.0075 30.9776L41.2326 31.194L43.0061 33.03L43.8386 33.189L43.8857 33.074C44.3521 32.0259 45.2228 31.1804 46.328 30.7374L46.609 30.6352L51.5021 29.0175L52.1096 28.4805L51.9617 26.2298C51.9231 25.6057 52.0184 24.981 52.2422 24.3926L52.3649 24.1016L53.4492 21.8111C53.982 20.6871 54.9574 19.844 56.146 19.4586L56.4475 19.3719L61.3899 18.1308Z" fill="#000091"/>
<path fill-rule="evenodd" clip-rule="evenodd" d="M30.5874 63.3092C31.2451 62.8055 32.1866 62.9302 32.6903 63.5879L32.5467 63.3938L32.8375 63.5136L33.4345 63.7295L35.0385 64.2644L35.2984 64.3611C35.3354 64.376 35.3699 64.3905 35.4026 64.405L36.8982 65.1422C37.2752 65.3286 37.5541 65.6633 37.6718 66.0615L37.7121 66.2358C37.7288 66.3339 37.7567 66.4306 37.7956 66.5241L37.862 66.6619C38.1662 67.2137 38.0906 67.8898 37.6898 68.3593L37.5598 68.4937C37.2397 68.786 37.0657 69.1792 37.0716 69.5795C37.074 69.7511 37.111 69.9239 37.1797 70.0865L37.2589 70.2454C37.4266 70.5348 37.4918 70.8702 37.4475 71.198L37.3851 71.4908L37.3693 71.5933L36.4594 79.2493C36.4387 79.4189 36.4491 79.5855 36.4895 79.7453L36.5399 79.9027C36.6673 80.2295 36.6761 80.5906 36.5649 80.9233L36.535 81.0224L36.5139 81.1159L35.4142 86.9093C35.3778 87.1014 35.3042 87.2839 35.1984 87.4468L35.0819 87.6029L33.1004 89.9264C32.8207 90.2552 32.7104 90.6756 32.7906 91.0848C32.8627 91.4402 33.0736 91.7564 33.3855 91.9754L33.5498 92.0766L34.8231 92.7529C35.0183 92.8566 35.1876 93.0018 35.3195 93.1776L35.4111 93.315L36.0196 94.3455C36.1485 94.5646 36.3421 94.7534 36.5715 94.8854L36.7499 94.9733L39.7278 96.2073C39.8526 96.259 39.9696 96.3273 40.0757 96.41L40.2263 96.5447L41.1185 97.4576C41.3673 97.7127 41.7129 97.8784 42.0816 97.9205L42.2675 97.9311H43.588C43.7829 97.9311 43.9754 97.9691 44.1547 98.0423L44.3294 98.1271L45.2155 98.6309C45.3406 98.703 45.4712 98.757 45.6086 98.7933L45.8201 98.8344L51.0308 99.5117C51.4891 99.5755 51.9509 99.4423 52.2935 99.1521L52.3861 99.0671L52.4676 98.979C52.7837 98.6064 53.2584 98.4139 53.7379 98.4546L53.9176 98.4808L54.4221 98.586L54.6663 98.659L55.8715 99.1343C56.232 99.2764 56.521 99.5514 56.682 99.8985L56.7516 100.078C56.8547 100.404 57.0825 100.692 57.3883 100.881L57.5475 100.967L59.0054 101.65C59.2493 101.762 59.5332 101.811 59.8102 101.794L60.0159 101.768L61.2639 101.523C61.3835 101.499 61.5052 101.49 61.6264 101.496L61.8076 101.516L64.4176 101.971L64.7426 102C64.8389 102 64.935 101.992 65.025 101.977L65.1549 101.949L68.431 101.109C68.836 101.002 69.181 100.745 69.3743 100.413C69.5342 100.143 69.5958 99.8232 69.5518 99.5181L69.5127 99.3372L68.7167 96.6386C68.6261 96.3313 68.6367 96.0047 68.7441 95.7063L68.8201 95.531L69.6387 93.9311C70.0161 93.1936 70.9198 92.9016 71.6573 93.2789C72.3422 93.6293 72.6428 94.4336 72.3801 95.1372L72.3095 95.2975L71.7626 96.363L72.3915 98.4931C72.7009 99.5545 72.5931 100.696 72.1038 101.671L71.9609 101.933C71.4163 102.867 70.5253 103.576 69.4756 103.926L69.1855 104.013L65.9179 104.85C65.6246 104.929 65.3059 104.978 64.9267 104.992L64.6304 104.996L64.0514 104.946L61.5731 104.519L60.5855 104.714C59.7365 104.875 58.8525 104.8 58.0444 104.497L57.7451 104.372L56.2766 103.685C55.4201 103.285 54.717 102.631 54.2611 101.829L54.1916 101.697L54.0026 101.622C53.1151 102.28 52.021 102.596 50.9284 102.516L50.6306 102.485L45.4357 101.81C44.9492 101.747 44.4814 101.61 44.0459 101.403L43.7255 101.235L43.1921 100.931L42.2675 100.931C41.13 100.931 40.0288 100.512 39.193 99.765L38.9718 99.5533L38.2961 98.8605L35.6011 97.7446C34.7957 97.4106 34.0997 96.8492 33.6093 96.1413L33.4353 95.869L33.0416 95.2035L32.1367 94.7229C31.0415 94.1351 30.2447 93.1468 29.9199 91.9698L29.8486 91.6718C29.6103 90.4562 29.8933 89.2142 30.6243 88.2236L30.8163 87.9813L32.5391 85.959L33.5656 80.5615L33.5831 80.4825L33.5632 80.4078C33.4703 80.0117 33.4337 79.6043 33.4545 79.1966L33.4809 78.8909L34.3946 71.202L34.3836 71.1747C34.2258 70.7799 34.1258 70.3642 34.0883 69.9412L34.0719 69.6228C34.0605 68.843 34.2592 68.084 34.6345 67.4139L34.6541 67.3785L34.1672 67.1384L32.4561 66.5655L31.7221 66.3022C30.9655 66.0168 30.6189 65.817 30.3088 65.4122C29.805 64.7545 29.9298 63.813 30.5874 63.3092Z" fill="#000091"/>
<path fill-rule="evenodd" clip-rule="evenodd" d="M52.4996 54C53.328 54 53.9996 54.6716 53.9996 55.5C53.9996 56.2693 53.4205 56.9033 52.6745 56.9899L52.4996 57H49.4996C48.6711 57 47.9996 56.3284 47.9996 55.5C47.9996 54.7308 48.5786 54.0967 49.3246 54.0101L49.4996 54H52.4996Z" fill="#000091"/>
<path fill-rule="evenodd" clip-rule="evenodd" d="M82.4996 45C83.328 45 83.9996 45.6716 83.9996 46.5C83.9996 47.2693 83.4205 47.9033 82.6745 47.9899L82.4996 48H79.4996C78.6711 48 77.9996 47.3284 77.9996 46.5C77.9996 45.7308 78.5786 45.0968 79.3246 45.0101L79.4996 45H82.4996Z" fill="#000091"/>
<path fill-rule="evenodd" clip-rule="evenodd" d="M73.4996 75C74.328 75 74.9996 75.6716 74.9996 76.5C74.9996 77.2693 74.4205 77.9033 73.6745 77.9899L73.4996 78H70.4996C69.6711 78 68.9996 77.3284 68.9996 76.5C68.9996 75.7308 69.5786 75.0968 70.3246 75.0101L70.4996 75H73.4996Z" fill="#000091"/>
</svg>
