<svg width="160" height="160" viewBox="0 0 160 161" fill="none" xmlns="http://www.w3.org/2000/svg">
<path fill-rule="evenodd" clip-rule="evenodd" d="M146 36.8396C144.897 36.8396 144 35.9424 144 34.8396C144 33.7367 144.897 32.8396 146 32.8396C147.103 32.8396 148 33.7367 148 34.8396C148 35.9424 147.103 36.8396 146 36.8396Z" fill="#CACAFB"/>
<path fill-rule="evenodd" clip-rule="evenodd" d="M14 36.8396C12.8972 36.8396 12 35.9424 12 34.8396C12 33.7367 12.8972 32.8396 14 32.8396C15.1028 32.8396 16 33.7367 16 34.8396C16 35.9424 15.1028 36.8396 14 36.8396Z" fill="#CACAFB"/>
<path fill-rule="evenodd" clip-rule="evenodd" d="M22 136.84C20.8972 136.84 20 135.942 20 134.84C20 133.737 20.8972 132.84 22 132.84C23.1028 132.84 24 133.737 24 134.84C24 135.942 23.1028 136.84 22 136.84Z" fill="#CACAFB"/>
<path fill-rule="evenodd" clip-rule="evenodd" d="M38 12.8396C36.8972 12.8396 36 11.9424 36 10.8396C36 9.73671 36.8972 8.8396 38 8.8396C39.1028 8.8396 40 9.73671 40 10.8396C40 11.9424 39.1028 12.8396 38 12.8396Z" fill="#CACAFB"/>
<path fill-rule="evenodd" clip-rule="evenodd" d="M110 156.84C108.897 156.84 108 155.942 108 154.84C108 153.737 108.897 152.84 110 152.84C111.103 152.84 112 153.737 112 154.84C112 155.942 111.103 156.84 110 156.84Z" fill="#CACAFB"/>
<path d="M108.073 82.3031C108.37 81.239 109.472 80.6166 110.536 80.9129C115.216 82.2158 118.803 85.8857 119.752 90.4361C119.978 91.5174 119.284 92.5768 118.203 92.8025C117.122 93.0282 116.062 92.3345 115.837 91.2533C115.2 88.2004 112.733 85.6766 109.464 84.7663C108.399 84.47 107.777 83.3672 108.073 82.3031Z" fill="#7B7B7B"/>
<path fill-rule="evenodd" clip-rule="evenodd" d="M88 92.8396C88 81.8093 96.97 72.8396 108 72.8396C119.03 72.8396 128 81.8093 128 92.8396C128 97.9719 126.058 102.658 122.87 106.202L134.66 126.624C136.317 129.494 135.334 133.164 132.464 134.82C129.697 136.418 126.186 135.561 124.453 132.924L124.268 132.624L112.545 112.319C111.084 112.66 109.563 112.84 108 112.84C96.9702 112.84 88 103.869 88 92.8396ZM116.397 110.991L127.732 130.624C128.284 131.581 129.508 131.909 130.464 131.356C131.352 130.843 131.698 129.752 131.301 128.833L131.196 128.624L119.838 108.952C118.767 109.741 117.615 110.425 116.397 110.991ZM124 92.8396C124 84.0184 116.821 76.8396 108 76.8396C99.1791 76.8396 92 84.0184 92 92.8396C92 101.66 99.1794 108.84 108 108.84C116.821 108.84 124 101.66 124 92.8396Z" fill="#7B7B7B"/>
<path d="M137.987 36.6064C137.871 35.6117 137.026 34.8396 136 34.8396H28L27.7668 34.8531C26.7721 34.9686 26 35.8139 26 36.8396V128.84L26.0135 129.073C26.129 130.068 26.9743 130.84 28 130.84H112L112.233 130.826C113.228 130.711 114 129.865 114 128.84L113.987 128.606C113.871 127.612 113.026 126.84 112 126.84H30V54.8396H104L104.233 54.8261C105.228 54.7106 106 53.8653 106 52.8396C106 51.735 105.105 50.8396 104 50.8396H30V38.8396H134V50.8396H116L115.767 50.8531C114.772 50.9686 114 51.8139 114 52.8396C114 53.9442 114.895 54.8396 116 54.8396H134V112.84L134.013 113.073C134.129 114.068 134.974 114.84 136 114.84C137.105 114.84 138 113.944 138 112.84V36.8396L137.987 36.6064Z" fill="#BBBBBB"/>
<path d="M36 46.8396C34.8972 46.8396 34 45.9424 34 44.8396C34 43.7367 34.8972 42.8396 36 42.8396C37.1028 42.8396 38 43.7367 38 44.8396C38 45.9424 37.1028 46.8396 36 46.8396Z" fill="#BBBBBB"/>
<path d="M42 44.8396C42 45.9424 42.8972 46.8396 44 46.8396C45.1028 46.8396 46 45.9424 46 44.8396C46 43.7367 45.1028 42.8396 44 42.8396C42.8972 42.8396 42 43.7367 42 44.8396Z" fill="#BBBBBB"/>
<path d="M52 46.8396C50.8972 46.8396 50 45.9424 50 44.8396C50 43.7367 50.8972 42.8396 52 42.8396C53.1028 42.8396 54 43.7367 54 44.8396C54 45.9424 53.1028 46.8396 52 46.8396Z" fill="#BBBBBB"/>
<path d="M128 42.8396C129.105 42.8396 130 43.735 130 44.8396C130 45.8653 129.228 46.7106 128.233 46.8261L128 46.8396H68C66.8954 46.8396 66 45.9442 66 44.8396C66 43.8139 66.7721 42.9686 67.7668 42.8531L68 42.8396H128Z" fill="#BBBBBB"/>
<path d="M82 68.8396C82 67.735 81.1046 66.8396 80 66.8396H44L43.7668 66.8531C42.7721 66.9686 42 67.8139 42 68.8396C42 69.9442 42.8954 70.8396 44 70.8396H80L80.2332 70.8261C81.2279 70.7106 82 69.8653 82 68.8396Z" fill="#BBBBBB"/>
<path d="M72 78.8396C73.1046 78.8396 74 79.735 74 80.8396C74 81.8653 73.2279 82.7106 72.2332 82.8261L72 82.8396H44C42.8954 82.8396 42 81.9442 42 80.8396C42 79.8139 42.7721 78.9686 43.7668 78.8531L44 78.8396H72Z" fill="#BBBBBB"/>
<path d="M70 92.8396C70 91.735 69.1046 90.8396 68 90.8396H44L43.7668 90.8531C42.7721 90.9686 42 91.8139 42 92.8396C42 93.9442 42.8954 94.8396 44 94.8396H68L68.2332 94.8261C69.2279 94.7106 70 93.8653 70 92.8396Z" fill="#BBBBBB"/>
</svg>
