<svg width="386" height="150" viewBox="0 0 386 150" fill="none" xmlns="http://www.w3.org/2000/svg">
<path fill-rule="evenodd" clip-rule="evenodd" d="M178.609 14.4145C176.792 14.4387 175.023 14.6083 173.303 14.9233L178.948 46.9273L168.119 77.5746C171.704 78.8344 175.484 79.4643 179.287 79.4401C197.119 79.2463 211.631 64.4193 211.461 46.5881C211.267 28.757 196.44 14.2207 178.609 14.4145Z" fill="#6A6AF4"/>
<path fill-rule="evenodd" clip-rule="evenodd" d="M139.652 48.0902C139.797 61.6816 148.446 73.7951 161.238 78.3741L172.165 47.751L139.652 48.0902Z" fill="#FAA184"/>
<path fill-rule="evenodd" clip-rule="evenodd" d="M164.775 9.01172C157.192 10.3442 150.336 14.3417 145.418 20.2531C140.5 26.1888 137.835 33.6507 137.932 41.3549L170.445 41.0158L164.775 9.01172Z" fill="#FAA184"/>
<path fill-rule="evenodd" clip-rule="evenodd" d="M197.652 15.2139C199.311 15.2139 200.656 13.8689 200.656 12.2097C200.656 10.5506 199.311 9.20557 197.652 9.20557C195.992 9.20557 194.647 10.5506 194.647 12.2097C194.647 13.8689 195.992 15.2139 197.652 15.2139Z" fill="#6A6AF4"/>
<path fill-rule="evenodd" clip-rule="evenodd" d="M141.663 74.231C143.322 74.231 144.667 72.886 144.667 71.2268C144.667 69.5677 143.322 68.2227 141.663 68.2227C140.003 68.2227 138.658 69.5677 138.658 71.2268C138.658 72.886 140.003 74.231 141.663 74.231Z" fill="#FAA184"/>
<path fill-rule="evenodd" clip-rule="evenodd" d="M138.658 21.416C140.318 21.416 141.663 20.071 141.663 18.4119C141.663 16.7527 140.318 15.4077 138.658 15.4077C136.999 15.4077 135.654 16.7527 135.654 18.4119C135.654 20.071 136.999 21.416 138.658 21.416Z" fill="#FAA184"/>
<path fill-rule="evenodd" clip-rule="evenodd" d="M229.219 9.61719C229.621 9.61719 229.946 9.94259 229.946 10.344C229.946 10.7311 229.644 11.0475 229.262 11.0696L229.219 11.0708H203.321C202.919 11.0708 202.594 10.7454 202.594 10.344C202.594 9.95693 202.896 9.64053 203.278 9.61842L203.321 9.61719H229.219Z" fill="#6A6AF4"/>
<path fill-rule="evenodd" clip-rule="evenodd" d="M211.049 13.3242C211.45 13.3242 211.776 13.6496 211.776 14.051C211.776 14.4381 211.473 14.7545 211.092 14.7766L211.049 14.7778H203.321C202.919 14.7778 202.594 14.4524 202.594 14.051C202.594 13.664 202.896 13.3476 203.278 13.3255L203.321 13.3242H211.049Z" fill="#6A6AF4"/>
<path fill-rule="evenodd" clip-rule="evenodd" d="M346.915 82.1293C335.674 64.7342 323.415 57.0785 318.739 54.6315C318.69 49.9557 314.79 45.7644 303.427 43.7535C277.989 39.0535 271.544 45.9582 270.066 52.7418L251.169 52.3542L227.015 43.1479L215.58 55.2372C213.423 58.1444 213.641 66.6482 221.2 73.8921C226.482 78.9556 245.379 91.4325 256.33 98.5311L257.396 147.761L337.66 148.245L333.881 128.573C335.916 128.476 335.334 128.427 335.94 128.403C353.674 127.846 361.136 104.2 346.915 82.1293Z" fill="#FAA184"/>
<path fill-rule="evenodd" clip-rule="evenodd" d="M269.824 60.7124C269.751 58.7742 269.412 55.7701 270.066 52.7417L260.666 52.5479C260.763 56.0366 261.902 66.5027 271.811 68.6831C270.817 66.5996 269.969 64.0315 269.824 60.7124Z" fill="#6A6AF4"/>
<path fill-rule="evenodd" clip-rule="evenodd" d="M328.357 61.1C324.19 57.7324 320.749 55.6973 318.739 54.6313C318.811 61.4634 310.671 69.3857 305.559 73.2862C305.826 73.3347 306.092 73.3589 306.383 73.3831C312.924 73.8192 328.454 65.049 331.094 63.5469C330.247 62.8443 329.326 61.9964 328.357 61.1Z" fill="#6A6AF4"/>
<path fill-rule="evenodd" clip-rule="evenodd" d="M330.768 87.6559C333.484 87.2153 336.416 87.6962 339.536 89.2562C339.895 89.4358 340.04 89.8723 339.861 90.2314C339.681 90.5904 339.245 90.7359 338.886 90.5564C336.034 89.1304 333.41 88.7 331.001 89.0908C329.081 89.4021 327.372 90.2209 325.882 91.3945C325.199 91.9319 324.609 92.5079 324.113 93.0825C323.966 93.2536 323.837 93.4134 323.726 93.5589L323.624 93.6957C323.609 93.7155 323.597 93.7334 323.585 93.7492L323.537 93.8185C323.317 94.154 322.866 94.2471 322.531 94.0266C322.195 93.8061 322.102 93.3554 322.323 93.02L322.374 92.9441C322.505 92.7541 322.718 92.4749 323.012 92.1336C323.566 91.4914 324.222 90.8507 324.983 90.2523C326.656 88.9349 328.587 88.0097 330.768 87.6559Z" fill="#6A6AF4"/>
<path fill-rule="evenodd" clip-rule="evenodd" d="M313.11 82.4112C313.449 82.2265 313.871 82.3406 314.073 82.6642L314.215 82.9147C314.234 82.9471 314.254 82.9812 314.275 83.017C314.425 83.2746 314.6 83.5623 314.797 83.8726C315.361 84.7593 315.991 85.6458 316.667 86.4703C318.577 88.7969 320.463 90.1453 322.082 90.0843L322.158 90.0804L322.194 90.077L322.304 89.9262C322.404 89.7926 322.521 89.6419 322.656 89.4768L322.717 89.4024C323.3 88.7005 323.999 88.0003 324.818 87.3466C328.249 84.6057 332.606 83.5109 337.837 85.0162C338.223 85.1272 338.445 85.5299 338.334 85.9157C338.223 86.3014 337.821 86.5242 337.435 86.4132C332.685 85.0462 328.807 86.0208 325.725 88.4824C324.988 89.071 324.358 89.7017 323.836 90.3308C323.68 90.518 323.545 90.693 323.429 90.8522L323.373 90.9304C323.318 91.0083 323.278 91.0674 323.253 91.1055L323.233 91.1364C323.126 91.31 322.95 91.4305 322.749 91.4682C322.585 91.4992 322.419 91.52 322.252 91.5309C320.004 91.6778 317.757 90.0897 315.544 87.3925C314.827 86.5187 314.164 85.5857 313.571 84.6528L313.419 84.4124C313.297 84.2157 313.184 84.0288 313.08 83.8534L312.932 83.5994C312.881 83.5098 312.843 83.4416 312.819 83.397C312.627 83.0444 312.757 82.603 313.11 82.4112Z" fill="#6A6AF4"/>
<path fill-rule="evenodd" clip-rule="evenodd" d="M276.1 71.6152C276.605 71.499 277.109 71.801 277.249 72.2942L277.264 72.354L277.336 72.6815L277.429 73.1173C277.453 73.2338 277.478 73.3558 277.503 73.4831L277.529 73.6122C277.729 74.6072 277.927 75.7044 278.113 76.8726C278.524 79.4573 278.811 82.0116 278.918 84.4076C279.004 86.3089 278.972 88.0498 278.807 89.5974C278.75 90.1296 278.272 90.5149 277.74 90.458C277.208 90.4011 276.823 89.9236 276.88 89.3914C277.034 87.9505 277.063 86.3047 276.982 84.4945C276.878 82.1793 276.599 79.6948 276.199 77.1768C276.018 76.0354 275.823 74.9633 275.629 73.9925L275.555 73.6269C275.523 73.4716 275.492 73.326 275.463 73.1905L275.372 72.7767C275.253 72.2551 275.578 71.7351 276.1 71.6152Z" fill="#6A6AF4"/>
<path fill-rule="evenodd" clip-rule="evenodd" d="M302.563 72.2431C303.03 72.4675 303.235 73.0179 303.037 73.4907L302.777 74.048L302.598 74.4409C302.454 74.7586 302.299 75.1045 302.137 75.4758C301.473 76.9921 300.81 78.616 300.191 80.2805C299.551 82.0001 298.997 83.6659 298.551 85.2398C297.985 87.2434 297.611 89.0425 297.463 90.5808C297.411 91.1135 296.938 91.5037 296.405 91.4522C295.872 91.4008 295.482 90.9272 295.534 90.3945C295.695 88.7267 296.091 86.8188 296.686 84.7122C297.147 83.0845 297.718 81.3704 298.374 79.6051C299.007 77.9037 299.684 76.2466 300.361 74.6987L300.57 74.2251C300.706 73.919 300.836 73.6325 300.957 73.3675L301.169 72.9099L301.269 72.6974C301.501 72.2149 302.08 72.0115 302.563 72.2431Z" fill="#6A6AF4"/>
<path fill-rule="evenodd" clip-rule="evenodd" d="M307.231 52.6449L310.477 55.964C310.477 55.964 295.069 67.69 290.054 95.9146C286.807 114.254 287.898 116.314 287.898 116.314L278.352 115.805C278.352 115.805 283.682 85.3031 280.363 75.6365C277.044 65.9941 280.072 55.1403 282.325 53.3959C284.578 51.6516 307.231 52.6449 307.231 52.6449Z" fill="white"/>
<path fill-rule="evenodd" clip-rule="evenodd" d="M302.943 41.8638L303.839 49.3984L306.892 52.9113V52.9113C306.892 52.9113 297.855 58.5078 289.206 68.344C289.206 68.344 282.132 60.8821 280.896 49.1804L297.467 51.2397L298.776 44.771L302.943 41.8638Z" fill="white"/>
<path fill-rule="evenodd" clip-rule="evenodd" d="M298.36 44.1751L298.319 44.2056C298.188 44.3116 298.097 44.4605 298.063 44.6271L296.888 50.4352L280.985 48.4592C280.521 48.4015 280.124 48.7914 280.173 49.2568C280.679 54.0498 282.163 58.4886 284.319 62.4994C285.267 64.2615 286.282 65.8233 287.299 67.1689C287.62 67.5944 287.922 67.9712 288.198 68.2977L288.375 68.5059C288.513 68.6653 288.616 68.7785 288.678 68.8442C288.972 69.1544 289.469 69.145 289.752 68.8241C290.101 68.4271 290.454 68.0332 290.811 67.6422C294.416 63.6956 298.281 60.2 302.145 57.1948C303.496 56.1437 304.751 55.2293 305.875 54.4566L306.253 54.1992C306.454 54.0632 306.641 53.9386 306.813 53.8258L307.087 53.6479L307.274 53.5294L307.313 53.504C307.66 53.2578 307.724 52.7611 307.44 52.4347L304.534 49.0903L303.664 41.778C303.599 41.2329 302.977 40.9537 302.527 41.2678L298.36 44.1751ZM302.364 43.1535L303.117 49.4844L303.126 49.5382C303.15 49.6627 303.207 49.779 303.29 49.8752L305.794 52.7564L305.681 52.8321C305.486 52.9626 305.276 53.1048 305.052 53.2585C303.904 54.0471 302.627 54.9782 301.252 56.0474C297.327 59.1004 293.402 62.6503 289.738 66.6618L289.376 67.0605L289.211 67.244L289.132 67.1479C288.921 66.8922 288.696 66.6068 288.459 66.2925C287.485 65.0042 286.51 63.5046 285.6 61.8111L285.485 61.5966C283.627 58.0863 282.307 54.2418 281.742 50.1193L281.728 50.0163L297.378 51.961L297.421 51.9651C297.781 51.9884 298.107 51.742 298.18 51.3839L299.43 45.2004L302.364 43.1535Z" fill="#6A6AF4"/>
<path fill-rule="evenodd" clip-rule="evenodd" d="M305.632 31.543C305.632 31.543 311.398 31.6641 310.356 36.8003C309.314 41.9364 302.967 38.9807 302.967 38.9807L303.815 31.6399L305.632 31.543Z" fill="white"/>
<path fill-rule="evenodd" clip-rule="evenodd" d="M305.647 30.8164L305.593 30.8173L303.776 30.9142C303.422 30.9331 303.134 31.2045 303.093 31.5566L302.245 38.8974C302.209 39.2084 302.376 39.5075 302.66 39.6397L302.757 39.6837C303.018 39.7986 303.408 39.949 303.893 40.0984C304.854 40.3951 305.822 40.5684 306.746 40.5529C308.969 40.5158 310.575 39.3763 311.069 36.9448C311.629 34.1798 310.497 32.3519 308.345 31.424C307.753 31.1689 307.128 31.0017 306.503 30.9032L306.347 30.8799C306.045 30.8376 305.804 30.8197 305.647 30.8164ZM304.466 32.3329L305.639 32.2704L305.748 32.2771L305.783 32.2797C305.931 32.2915 306.097 32.3107 306.277 32.3391C306.789 32.4199 307.3 32.5564 307.769 32.7588C309.326 33.4301 310.059 34.612 309.644 36.6559C309.297 38.369 308.304 39.073 306.721 39.0995C305.972 39.1121 305.148 38.9646 304.321 38.7094L304.183 38.6656C304.046 38.6214 303.915 38.5759 303.79 38.53L303.752 38.5159L304.466 32.3329Z" fill="#6A6AF4"/>
<path fill-rule="evenodd" clip-rule="evenodd" d="M289.206 15.3107C287.68 15.1896 277.286 14.5354 276.148 23.2088C275.009 31.8821 276.245 41.476 277.189 45.8369C278.134 50.1978 298.073 48.1869 299.188 47.7993C300.302 47.4117 301.659 46.0792 301.659 46.0792L304.396 32.7542C304.396 32.7542 305.511 16.6674 289.206 15.3107Z" fill="white"/>
<path fill-rule="evenodd" clip-rule="evenodd" d="M286.647 14.5484C285.151 14.6192 283.687 14.8445 282.317 15.2678C278.5 16.4467 275.971 18.9719 275.427 23.1145C274.457 30.4985 275.104 39.6448 276.479 45.9912C277.002 48.4049 281.088 49.2981 287.717 49.3254L288.126 49.326C292.569 49.3209 298.484 48.814 299.426 48.4862C299.628 48.4159 299.836 48.3217 300.051 48.2059C300.365 48.036 300.69 47.822 301.021 47.5735C301.249 47.4032 301.469 47.2242 301.679 47.0434L301.834 46.9076C301.987 46.7709 302.102 46.663 302.168 46.5981C302.271 46.4969 302.342 46.3673 302.371 46.2258L305.108 32.9009C305.115 32.8692 305.119 32.8371 305.121 32.8049L305.128 32.698C305.135 32.5491 305.14 32.3335 305.139 32.0585C305.137 31.4831 305.107 30.8416 305.039 30.1488C304.844 28.1693 304.386 26.1668 303.586 24.2603C301.285 18.7792 296.679 15.2036 289.266 14.5868C288.492 14.5253 287.65 14.5009 286.647 14.5484ZM289.148 16.0356C296 16.6057 300.148 19.8258 302.245 24.823C302.985 26.5839 303.411 28.4471 303.592 30.291C303.656 30.9363 303.684 31.5321 303.686 32.063L303.685 32.2398C303.685 32.2962 303.684 32.3502 303.683 32.4016L303.677 32.5807C303.676 32.6117 303.675 32.6376 303.674 32.6594L300.993 45.7077L300.979 45.7205C300.944 45.7528 300.907 45.7866 300.867 45.8218C300.641 46.0229 300.398 46.224 300.15 46.4103C299.872 46.6188 299.605 46.7946 299.36 46.9268C299.21 47.0078 299.072 47.0704 298.949 47.1132L298.898 47.1289C297.979 47.3898 292.322 47.8675 288.124 47.8724L287.767 47.8718C281.979 47.8464 278.193 47.0356 277.9 45.6834C276.557 39.4891 275.923 30.5059 276.868 23.3038C277.331 19.7784 279.433 17.68 282.746 16.6567C283.988 16.2729 285.334 16.0658 286.716 16.0004C287.65 15.9562 288.433 15.9789 289.148 16.0356Z" fill="#6A6AF4"/>
<path fill-rule="evenodd" clip-rule="evenodd" d="M302.482 32.6333C301.513 33.5782 298.897 39.1019 298.267 41.67C298.267 41.67 291.822 39.5138 282.592 39.3684C282.592 39.3684 277.553 39.4654 275.542 40.071C275.542 40.071 275.978 49.1804 280.072 53.8805C284.167 58.5806 292.791 57.2723 296.837 54.4377C300.883 51.6031 301.562 50.2464 302.482 47.218C303.427 44.1896 305.898 32.8756 305.898 32.8756L302.482 32.6333Z" fill="#CACAFB"/>
<path fill-rule="evenodd" clip-rule="evenodd" d="M305.123 34.5957C305.123 34.5957 307.837 30.4044 308.878 26.0436C309.872 21.9492 307.958 17.661 304.178 15.8197C301.005 14.2934 298.654 15.4805 298.654 15.4805C298.654 15.4805 302.022 9.76294 296.959 4.69947C295.19 2.90666 292.719 1.93758 290.199 2.01026C284.021 2.17985 282.132 7.41291 282.132 7.41291C282.132 7.41291 275.542 -4.72488 261.999 2.47057C260.642 3.19739 259.092 5.20824 258.365 6.56496C253.883 14.8022 268.637 24.5657 276.293 25.341C284.724 26.1889 289.642 24.7838 292.355 22.7245C290.32 23.9358 292.598 36.5339 305.123 34.5957Z" fill="#000091"/>
<path fill-rule="evenodd" clip-rule="evenodd" d="M281.821 35.7982C281.866 35.3994 282.226 35.1125 282.625 35.1575C283.009 35.2009 283.29 35.537 283.269 35.9186L283.266 35.9612L282.488 42.8557L284.25 42.3961C284.624 42.2984 285.007 42.5113 285.124 42.8749L285.136 42.9159C285.234 43.2905 285.021 43.673 284.658 43.7907L284.617 43.8027L281.83 44.5295C281.35 44.6547 280.894 44.2739 280.921 43.7867L280.925 43.7447L281.821 35.7982Z" fill="#6A6AF4"/>
<path fill-rule="evenodd" clip-rule="evenodd" d="M279.467 37.2848C279.921 37.2848 280.29 36.7207 280.29 36.0249C280.29 35.3292 279.921 34.7651 279.467 34.7651C279.012 34.7651 278.643 35.3292 278.643 36.0249C278.643 36.7207 279.012 37.2848 279.467 37.2848Z" fill="#6A6AF4"/>
<path fill-rule="evenodd" clip-rule="evenodd" d="M287.292 37.1397C287.747 37.1397 288.116 36.5757 288.116 35.8799C288.116 35.1842 287.747 34.6201 287.292 34.6201C286.837 34.6201 286.468 35.1842 286.468 35.8799C286.468 36.5757 286.837 37.1397 287.292 37.1397Z" fill="#6A6AF4"/>
<path fill-rule="evenodd" clip-rule="evenodd" d="M287.325 27.9664C288.628 27.7628 289.753 28.0931 290.668 28.7639C290.922 28.9499 291.14 29.1493 291.325 29.3505C291.44 29.4764 291.523 29.5803 291.572 29.6508C291.8 29.9805 291.719 30.4334 291.389 30.6624C291.072 30.8829 290.64 30.8153 290.404 30.5156L290.358 30.4545C290.33 30.4193 290.295 30.3784 290.254 30.3332C290.131 30.1991 289.982 30.0632 289.809 29.9362C289.188 29.4814 288.444 29.2628 287.55 29.4026C287.153 29.4645 286.781 29.1933 286.719 28.7967C286.657 28.4001 286.929 28.0283 287.325 27.9664Z" fill="#6A6AF4"/>
<path fill-rule="evenodd" clip-rule="evenodd" d="M278.336 27.8475C278.847 27.7224 279.37 27.725 279.862 27.8016L279.966 27.819C280.047 27.8335 280.111 27.8478 280.157 27.8596C280.546 27.9599 280.779 28.3563 280.679 28.745C280.582 29.1198 280.21 29.3505 279.835 29.2766L279.75 29.2574C279.722 29.2519 279.685 29.2451 279.639 29.238C279.32 29.1884 278.979 29.1866 278.681 29.2595C278.28 29.3575 278.019 29.5696 277.879 29.9769L277.861 30.0337C277.744 30.4179 277.339 30.6351 276.954 30.5188C276.57 30.4025 276.353 29.9968 276.469 29.6126C276.762 28.6455 277.443 28.0659 278.336 27.8475Z" fill="#6A6AF4"/>
<path fill-rule="evenodd" clip-rule="evenodd" d="M287.946 45.7162C287.389 46.2492 286.517 46.9276 285.305 47.4848C285.305 47.4848 285.451 49.9075 288.237 49.108C289.957 48.6235 289.739 47.0972 289.327 46.0069C289.085 45.4497 288.382 45.3044 287.946 45.7162Z" fill="#6A6AF4"/>
<path fill-rule="evenodd" clip-rule="evenodd" d="M230.305 57.3603C232.907 51.4444 231.431 45.0721 227.01 43.1274C222.588 41.1828 216.895 44.4021 214.293 50.318C211.691 56.234 213.166 62.6063 217.588 64.5509C222.009 66.4956 227.703 63.2763 230.305 57.3603Z" fill="#6A6AF4"/>
<path fill-rule="evenodd" clip-rule="evenodd" d="M203.539 45.474C199.105 43.4632 198.475 45.7648 199.759 46.9277C201.383 48.3571 209.111 52.403 209.111 52.403C209.111 52.403 202.86 51.9427 201.261 55.4556C199.662 58.9685 201.334 59.2593 203.733 57.7087C206.107 56.1582 213.448 58.169 213.448 58.169L215.652 60.3495C215.652 60.3495 223.235 63.0872 225.513 54.6561C227.209 49.8349 224.132 46.3947 224.132 46.3947C223.26 45.3287 220.207 40.8467 209.741 38.1574C209.741 38.1574 204.823 37.4549 208.481 39.9745C209.426 40.6286 210.419 41.1616 211.364 41.6219" fill="white"/>
<path fill-rule="evenodd" clip-rule="evenodd" d="M208.431 37.3405C208.748 37.3389 209.082 37.3572 209.414 37.3887L209.59 37.4066C209.698 37.4183 209.784 37.4293 209.844 37.4378C209.87 37.4415 209.896 37.4467 209.922 37.4533C213.306 38.3228 216.136 39.4282 218.478 40.7227C220.281 41.719 221.722 42.7844 222.889 43.9029C223.278 44.276 223.62 44.6391 223.94 45.0095L224.059 45.1488C224.132 45.2346 224.239 45.366 224.345 45.4971L224.695 45.9349L224.745 45.994C224.8 46.0593 224.865 46.1434 224.941 46.2455L225.019 46.3537C225.261 46.6932 225.502 47.0857 225.726 47.5278C226.808 49.6647 227.133 52.1225 226.245 54.7605L226.207 54.8711L226.175 54.9878C225.275 58.1937 223.551 60.1474 221.248 61.0074L221.146 61.0447C219.544 61.6166 217.86 61.614 216.282 61.2719C215.881 61.185 215.581 61.0964 215.405 61.033C215.323 61.0031 215.246 60.9586 215.18 60.9017L215.141 60.8661L213.074 58.8221L212.831 58.7605L212.632 58.7116C212.135 58.5913 211.591 58.4708 211.018 58.3584C210.027 58.1638 209.059 58.0146 208.156 57.9287C206.246 57.7471 204.81 57.873 204.127 58.319C202.679 59.2549 201.45 59.6112 200.618 59.1002C199.621 58.4883 199.705 57.1194 200.6 55.1544C201.316 53.5808 202.814 52.601 204.819 52.0809C205.292 51.9582 205.77 51.8657 206.244 51.7987L206.401 51.7773L206.127 51.6283C205.501 51.2869 204.883 50.9452 204.285 50.6096L203.715 50.2876L203.045 49.9042C201.178 48.8273 199.878 48.0006 199.271 47.4662C198.319 46.6034 198.114 45.2404 199.034 44.4572C199.948 43.6789 201.611 43.8015 203.839 44.812C204.204 44.9778 204.366 45.4085 204.201 45.7741C204.035 46.1397 203.604 46.3016 203.238 46.1358C201.47 45.3336 200.344 45.2506 199.976 45.5639C199.823 45.6942 199.877 46.0536 200.24 46.382C200.763 46.8431 202.112 47.6943 204.02 48.7882L204.433 49.0237L204.644 49.1435C205.461 49.6054 206.324 50.0819 207.197 50.5557L207.947 50.9608C208.293 51.1462 208.616 51.3189 208.912 51.4757L209.448 51.7589C210.134 52.1181 209.855 53.1473 209.1 53.1298L208.892 53.1191C207.776 53.074 206.441 53.1619 205.184 53.488C203.562 53.9087 202.426 54.6522 201.923 55.7566C201.569 56.534 201.386 57.1408 201.361 57.5523C201.346 57.7918 201.371 57.8573 201.378 57.8615C201.555 57.9701 202.294 57.76 203.262 57.1468L203.335 57.1C204.378 56.419 206.072 56.2704 208.293 56.4816C209.249 56.5725 210.263 56.7288 211.298 56.932C211.818 57.0341 212.315 57.1426 212.778 57.2519L212.974 57.2988C213.119 57.3339 213.252 57.3671 213.372 57.3978L213.64 57.4679C213.743 57.4962 213.838 57.5468 213.919 57.616L213.959 57.6521L216.04 59.7107L216.066 59.7186C216.193 59.756 216.336 59.7936 216.493 59.8298L216.59 59.8512C217.926 60.1408 219.348 60.143 220.658 59.6756C222.555 58.9983 223.985 57.4061 224.774 54.6009L224.811 54.4664L224.827 54.4148C225.63 52.1329 225.363 50.0285 224.429 48.1847C224.239 47.8103 224.037 47.4796 223.835 47.1972L223.755 47.0875C223.73 47.0531 223.705 47.021 223.682 46.9911L223.63 46.9267L223.569 46.8547C223.542 46.8195 223.152 46.3299 222.968 46.1099L222.949 46.0866C222.626 45.705 222.282 45.335 221.883 44.9523C220.806 43.9202 219.467 42.93 217.775 41.995C215.601 40.7938 212.97 39.7567 209.817 38.928L209.601 38.8718L209.544 38.8647C209.464 38.8549 209.374 38.845 209.277 38.8358C208.989 38.8086 208.701 38.7928 208.438 38.7941C208.358 38.7945 208.283 38.7966 208.211 38.8002L208.149 38.8037L208.193 38.8422C208.352 38.982 208.56 39.1426 208.816 39.3223L208.895 39.3767C209.706 39.9384 210.597 40.4397 211.682 40.9684C212.043 41.1442 212.193 41.5792 212.017 41.9401C211.842 42.301 211.407 42.451 211.046 42.2752C209.899 41.7167 208.947 41.1812 208.069 40.5729L207.92 40.4688C206.655 39.5736 206.127 38.8673 206.507 38.1001C206.807 37.4944 207.443 37.3456 208.431 37.3405Z" fill="#6A6AF4"/>
<path fill-rule="evenodd" clip-rule="evenodd" d="M210.468 48.4298C208.917 47.6788 202.4 45.6437 200.874 43.8025C199.347 41.9612 201.31 40.871 206.882 43.439" fill="white"/>
<path fill-rule="evenodd" clip-rule="evenodd" d="M201.085 41.2518C202.37 41.0175 204.483 41.5327 207.186 42.7785C207.551 42.9465 207.71 43.3783 207.542 43.7428C207.374 44.1074 206.942 44.2667 206.578 44.0987C204.123 42.9674 202.265 42.5143 201.346 42.6818C201.239 42.7013 201.163 42.7268 201.117 42.7516L201.102 42.7598L201.103 42.7644C201.106 42.7846 201.114 42.8131 201.127 42.85L201.139 42.8792C201.191 43.0075 201.289 43.164 201.433 43.3382C201.581 43.516 201.814 43.719 202.126 43.9379C202.903 44.4821 204.082 45.0725 205.646 45.7307L206.045 45.8961C207.034 46.298 210.341 47.5605 210.784 47.7753C211.146 47.9503 211.297 48.385 211.122 48.7462C210.953 49.0941 210.544 49.247 210.191 49.1016L210.075 49.049C209.458 48.7802 206.473 47.6395 205.493 47.2409L205.399 47.2023C203.589 46.4545 202.229 45.7845 201.292 45.1284C200.882 44.8409 200.555 44.5564 200.314 44.2659C199.226 42.9537 199.474 41.5457 201.085 41.2518Z" fill="#6A6AF4"/>
<path fill-rule="evenodd" clip-rule="evenodd" d="M212.939 45.6679C212.769 45.4499 202.085 42.2761 202.812 40.7498C203.393 39.5142 204.944 39.1508 210.855 41.3797L215.58 43.4633" fill="white"/>
<path fill-rule="evenodd" clip-rule="evenodd" d="M202.154 40.44C203.051 38.5342 205.347 38.5593 210.776 40.5735L211.112 40.6993L211.149 40.7144L215.873 42.7979C216.24 42.9599 216.407 43.3889 216.245 43.7562C216.089 44.1104 215.684 44.2778 215.326 44.144L215.286 44.1279L210.584 42.0539L210.182 41.9036C205.851 40.3011 204.143 40.1693 203.579 40.8812L203.566 40.898L203.591 40.9223C203.639 40.9691 203.702 41.0227 203.778 41.0812L203.825 41.1169C204.224 41.4129 204.867 41.7625 205.713 42.1492C206.307 42.4203 206.99 42.7051 207.758 43.0043L208.329 43.2236C209.026 43.4883 209.695 43.7307 210.558 44.0337L212.64 44.761L212.871 44.8456C212.92 44.8639 212.964 44.8806 213.003 44.8961L213.076 44.9253C213.133 44.9485 213.18 44.9694 213.222 44.9904C213.346 45.0526 213.416 45.0976 213.513 45.2214C213.759 45.5382 213.702 45.9949 213.385 46.2413C213.141 46.4309 212.815 46.4408 212.565 46.2911L212.548 46.2798L212.467 46.247C212.414 46.2264 212.347 46.2012 212.265 46.1714L211.277 45.8238L210.204 45.4501C209.179 45.0908 208.425 44.817 207.599 44.5011L207.228 44.3579C206.437 44.0496 205.73 43.7548 205.109 43.4714C204.178 43.0461 203.457 42.6536 202.96 42.2846C202.205 41.7249 201.825 41.131 202.154 40.44Z" fill="#6A6AF4"/>
<path fill-rule="evenodd" clip-rule="evenodd" d="M323.124 148.415L228.832 148.367L228.154 82.2992L322.446 81.3301L323.124 148.415Z" fill="white"/>
<path fill-rule="evenodd" clip-rule="evenodd" d="M322.438 80.6031L228.146 81.5722C227.745 81.5763 227.423 81.905 227.427 82.3064L228.105 148.374C228.109 148.772 228.433 149.093 228.832 149.093L323.124 149.142C323.528 149.142 323.855 148.812 323.851 148.407L323.172 81.3225C323.168 80.9211 322.84 80.5989 322.438 80.6031ZM321.726 82.0639L322.39 147.687L229.551 147.64L228.888 83.018L321.726 82.0639Z" fill="#6A6AF4"/>
<path fill-rule="evenodd" clip-rule="evenodd" d="M316.607 129.978H237.723C237.312 129.978 236.997 129.663 236.997 129.251C236.997 128.839 237.312 128.524 237.723 128.524H316.607C317.019 128.524 317.334 128.839 317.334 129.251C317.334 129.663 317.019 129.978 316.607 129.978Z" fill="#CACAFB"/>
<path fill-rule="evenodd" clip-rule="evenodd" d="M316.607 120.554H237.723C237.312 120.554 236.997 120.239 236.997 119.827C236.997 119.415 237.312 119.1 237.723 119.1H316.607C317.019 119.1 317.334 119.415 317.334 119.827C317.334 120.239 317.019 120.554 316.607 120.554Z" fill="#CACAFB"/>
<path fill-rule="evenodd" clip-rule="evenodd" d="M316.607 111.129H237.723C237.312 111.129 236.997 110.814 236.997 110.403C236.997 109.991 237.312 109.676 237.723 109.676H316.607C317.019 109.676 317.334 109.991 317.334 110.403C317.334 110.814 317.019 111.129 316.607 111.129Z" fill="#CACAFB"/>
<path fill-rule="evenodd" clip-rule="evenodd" d="M316.607 101.705H237.723C237.312 101.705 236.997 101.39 236.997 100.978C236.997 100.566 237.312 100.251 237.723 100.251H316.607C317.019 100.251 317.334 100.566 317.334 100.978C317.334 101.39 317.019 101.705 316.607 101.705Z" fill="#CACAFB"/>
<rect x="281.194" y="95.0469" width="11.047" height="43.0253" transform="rotate(-0.58588 281.194 95.0469)" fill="#6A6AF4"/>
<rect x="300.024" y="110.479" width="11.1197" height="27.5934" transform="rotate(-0.585881 300.024 110.479)" fill="#FAA184"/>
<rect x="262.692" y="110.479" width="11.1197" height="27.5934" transform="rotate(-0.585881 262.692 110.479)" fill="#FAA184"/>
<path fill-rule="evenodd" clip-rule="evenodd" d="M255.579 137.924L244.531 138.045L244.362 124.817L255.409 124.696L255.579 137.924Z" fill="#FAA184"/>
<path fill-rule="evenodd" clip-rule="evenodd" d="M237.723 90.9722C238.11 90.9722 238.427 91.2747 238.449 91.6563L238.45 91.699L238.45 137.319H316.607C316.994 137.319 317.31 137.621 317.333 138.003L317.334 138.045C317.334 138.433 317.031 138.749 316.65 138.771L316.607 138.772H237.723C237.336 138.772 237.02 138.47 236.998 138.088L236.997 138.045V91.699C236.997 91.2976 237.322 90.9722 237.723 90.9722Z" fill="#6A6AF4"/>
<path fill-rule="evenodd" clip-rule="evenodd" d="M252.671 140.056C253.073 140.056 253.398 140.382 253.398 140.783C253.398 141.17 253.096 141.486 252.714 141.509L252.671 141.51H246.178C245.777 141.51 245.452 141.184 245.452 140.783C245.452 140.396 245.754 140.079 246.136 140.057L246.178 140.056H252.671Z" fill="#FAA184"/>
<path fill-rule="evenodd" clip-rule="evenodd" d="M271.69 140.056C272.091 140.056 272.416 140.382 272.416 140.783C272.416 141.17 272.114 141.486 271.732 141.509L271.69 141.51H265.197C264.795 141.51 264.47 141.184 264.47 140.783C264.47 140.396 264.773 140.079 265.154 140.057L265.197 140.056H271.69Z" fill="#FAA184"/>
<path fill-rule="evenodd" clip-rule="evenodd" d="M290.344 140.056C290.746 140.056 291.071 140.382 291.071 140.783C291.071 141.17 290.769 141.486 290.387 141.509L290.344 141.51H283.827C283.426 141.51 283.101 141.184 283.101 140.783C283.101 140.396 283.403 140.079 283.785 140.057L283.827 140.056H290.344Z" fill="#6A6AF4"/>
<path fill-rule="evenodd" clip-rule="evenodd" d="M309.024 140.056C309.425 140.056 309.75 140.382 309.75 140.783C309.75 141.17 309.448 141.486 309.066 141.509L309.024 141.51H302.531C302.129 141.51 301.804 141.184 301.804 140.783C301.804 140.396 302.107 140.079 302.488 140.057L302.531 140.056H309.024Z" fill="#FAA184"/>
<path fill-rule="evenodd" clip-rule="evenodd" d="M234.477 102.601C234.065 102.601 233.75 102.286 233.75 101.874V100.736C233.75 100.324 234.065 100.009 234.477 100.009C234.889 100.009 235.204 100.324 235.204 100.736V101.874C235.204 102.262 234.889 102.601 234.477 102.601Z" fill="#CACAFB"/>
<path fill-rule="evenodd" clip-rule="evenodd" d="M234.477 111.686C234.065 111.686 233.75 111.371 233.75 110.959V109.821C233.75 109.409 234.065 109.094 234.477 109.094C234.889 109.094 235.204 109.409 235.204 109.821V110.959C235.204 111.371 234.889 111.686 234.477 111.686Z" fill="#CACAFB"/>
<path fill-rule="evenodd" clip-rule="evenodd" d="M234.477 121.692C234.065 121.692 233.75 121.377 233.75 120.965V119.826C233.75 119.415 234.065 119.1 234.477 119.1C234.889 119.1 235.204 119.415 235.204 119.826V120.965C235.204 121.353 234.889 121.692 234.477 121.692Z" fill="#CACAFB"/>
<path fill-rule="evenodd" clip-rule="evenodd" d="M234.477 131.116C234.065 131.116 233.75 130.801 233.75 130.389V129.251C233.75 128.839 234.065 128.524 234.477 128.524C234.889 128.524 235.204 128.839 235.204 129.251V130.389C235.204 130.777 234.889 131.116 234.477 131.116Z" fill="#CACAFB"/>
<path fill-rule="evenodd" clip-rule="evenodd" d="M334.995 119.657C340.214 119.657 344.444 114.418 344.444 107.956C344.444 101.493 340.214 96.2539 334.995 96.2539C329.777 96.2539 325.547 101.493 325.547 107.956C325.547 114.418 329.777 119.657 334.995 119.657Z" fill="#6A6AF4"/>
<path fill-rule="evenodd" clip-rule="evenodd" d="M312.561 109.53C307.691 109.579 308.055 107.205 309.678 106.696C311.737 106.042 320.435 105.46 320.435 105.46C320.435 105.46 314.523 103.352 314.475 99.5003C314.426 95.6482 316.074 96.0601 317.624 98.4344C319.175 100.809 326.71 101.923 326.71 101.923L329.617 100.809C329.617 100.809 337.66 101.366 336.352 109.966C335.964 115.054 331.773 116.968 331.773 116.968C330.537 117.598 325.958 120.457 315.274 118.712C315.274 118.712 310.502 117.356 314.838 116.532C315.977 116.314 317.091 116.217 318.133 116.193" fill="white"/>
<path fill-rule="evenodd" clip-rule="evenodd" d="M331.397 116.345L331.537 116.274C331.561 116.262 331.59 116.247 331.624 116.228C331.763 116.152 331.921 116.058 332.092 115.945C332.587 115.618 333.083 115.208 333.546 114.712C334.693 113.483 335.443 111.944 335.616 110.047L335.63 109.884L335.633 109.857C336.196 106.159 335.021 103.86 332.697 102.538C332.01 102.147 331.268 101.873 330.525 101.698C330.265 101.637 330.025 101.592 329.811 101.562L329.715 101.549L326.97 102.602C326.87 102.64 326.763 102.656 326.656 102.648L326.603 102.642L326.317 102.596L326.185 102.574C325.858 102.518 325.495 102.451 325.104 102.373C323.985 102.148 322.865 101.876 321.816 101.554L321.543 101.469C319.347 100.77 317.786 99.9474 317.059 98.8963L317.016 98.8317C316.366 97.837 315.756 97.3242 315.548 97.3525L315.544 97.3553C315.529 97.3684 315.483 97.4304 315.41 97.6262C315.268 98.0119 315.191 98.6392 315.202 99.4911C315.219 100.881 316.196 102.174 317.864 103.312C318.481 103.732 319.145 104.099 319.81 104.408C320.004 104.499 320.186 104.578 320.352 104.647L320.593 104.743L320.679 104.776C321.422 105.04 321.27 106.133 320.483 106.185L319.712 106.24C319.411 106.262 319.086 106.287 318.743 106.313L317.873 106.383C316.86 106.466 315.86 106.556 314.912 106.652L314.505 106.693C312.231 106.93 310.584 107.17 309.895 107.389C309.44 107.532 309.253 107.827 309.339 108.005C309.55 108.443 310.613 108.823 312.554 108.803C312.955 108.8 313.284 109.122 313.288 109.523C313.292 109.924 312.97 110.253 312.568 110.257C310.124 110.281 308.553 109.719 308.03 108.638C307.504 107.549 308.244 106.384 309.458 106.003L309.56 105.972C310.461 105.709 312.265 105.457 314.767 105.205L315.479 105.136C316.079 105.078 316.694 105.023 317.317 104.971L317.71 104.938L317.617 104.882C317.488 104.803 317.36 104.722 317.234 104.639L317.045 104.513C315.025 103.134 313.773 101.478 313.748 99.5094C313.721 97.3551 314.195 96.07 315.352 95.9122C316.318 95.7805 317.296 96.6021 318.233 98.0368C318.719 98.7808 320.171 99.5296 322.242 100.164C323.24 100.47 324.315 100.732 325.39 100.948C325.767 101.023 326.116 101.088 326.43 101.141L326.631 101.175L329.357 100.13C329.439 100.098 329.526 100.082 329.614 100.082L329.667 100.083L329.763 100.091C330.018 100.116 330.395 100.174 330.859 100.283C331.728 100.488 332.598 100.809 333.416 101.274C336.224 102.872 337.695 105.71 337.09 109.943L337.074 110.047L337.065 110.168C336.867 112.359 336.007 114.167 334.696 115.609L334.608 115.705C334.063 116.288 333.479 116.77 332.894 117.157L332.755 117.247C332.508 117.405 332.302 117.519 332.151 117.593L332.095 117.62L331.505 117.928L331.209 118.077C330.721 118.317 330.215 118.535 329.65 118.742C326.069 120.051 321.386 120.447 315.157 119.43C315.13 119.425 315.103 119.419 315.076 119.411L314.895 119.357C314.851 119.343 314.801 119.327 314.747 119.309L314.692 119.291C314.409 119.197 314.126 119.091 313.858 118.975C313.456 118.802 313.123 118.62 312.867 118.419C312.421 118.069 312.171 117.632 312.337 117.098C312.545 116.43 313.299 116.084 314.702 115.818C315.81 115.606 316.948 115.493 318.116 115.466C318.518 115.457 318.85 115.775 318.86 116.176C318.869 116.577 318.551 116.91 318.15 116.919C317.059 116.945 316 117.049 314.974 117.246C314.638 117.31 314.361 117.377 314.142 117.445L314.071 117.468L314.099 117.482C314.178 117.524 314.267 117.566 314.362 117.609L314.435 117.641C314.66 117.738 314.906 117.83 315.152 117.912L315.276 117.953L315.434 118.002L315.605 118.029C321.414 118.952 325.744 118.593 329.031 117.42L329.151 117.376C329.601 117.212 330.009 117.039 330.402 116.853L330.57 116.772C330.777 116.67 331.245 116.425 331.397 116.345Z" fill="#6A6AF4"/>
<path fill-rule="evenodd" clip-rule="evenodd" d="M320.12 109.627C318.4 109.676 311.616 108.949 309.484 109.99C307.352 111.032 308.709 112.849 314.838 112.728" fill="white"/>
<path fill-rule="evenodd" clip-rule="evenodd" d="M309.165 109.337C310.211 108.826 312.038 108.663 314.691 108.704L315.082 108.712C315.651 108.725 316.241 108.746 316.942 108.778L319.534 108.899C319.854 108.911 319.903 108.906 320.099 108.901C320.501 108.889 320.835 109.205 320.846 109.607C320.858 110.008 320.541 110.342 320.14 110.354L319.814 110.361C319.644 110.36 319.381 110.349 318.654 110.315L317.04 110.237C316.277 110.202 315.651 110.179 315.051 110.165L314.668 110.158C312.257 110.12 310.564 110.272 309.803 110.643C309.603 110.741 309.452 110.842 309.355 110.936C309.332 110.958 309.314 110.977 309.3 110.994L309.278 111.023L309.288 111.036C309.316 111.072 309.364 111.117 309.434 111.168L309.471 111.194C310.247 111.721 312.13 112.055 314.824 112.001C315.225 111.994 315.557 112.312 315.565 112.714C315.573 113.115 315.254 113.447 314.853 113.455C311.883 113.513 309.74 113.133 308.655 112.397C307.299 111.476 307.639 110.083 309.165 109.337Z" fill="#6A6AF4"/>
<path fill-rule="evenodd" clip-rule="evenodd" d="M321.258 113.14C321.016 113.285 309.969 111.88 310.017 113.552C310.065 114.933 311.325 115.878 317.624 116.193H322.809" fill="white"/>
<path fill-rule="evenodd" clip-rule="evenodd" d="M311.689 112.075C312.692 111.977 314.028 111.976 315.673 112.053L316.075 112.072C316.616 112.101 317.18 112.136 317.788 112.179L318.904 112.263L320.384 112.379C320.625 112.398 320.806 112.41 320.94 112.417L321.052 112.422L321.133 112.424L321.167 112.419C321.43 112.385 321.7 112.499 321.858 112.729L321.882 112.766C322.088 113.11 321.977 113.557 321.632 113.763C321.514 113.834 321.426 113.855 321.316 113.869C321.275 113.874 321.234 113.876 321.188 113.877C321.15 113.878 321.107 113.878 321.058 113.876L320.952 113.873C320.865 113.869 320.762 113.863 320.637 113.855L318.145 113.663L317.515 113.617C316.969 113.579 316.459 113.548 315.97 113.522L315.606 113.505C314.081 113.434 312.84 113.432 311.931 113.513L311.831 113.522C311.374 113.567 311.023 113.634 310.801 113.714L310.771 113.725L310.774 113.74C311.014 114.647 312.674 115.207 317.502 115.459L317.646 115.466H322.809C323.196 115.466 323.512 115.768 323.535 116.15L323.536 116.193C323.536 116.58 323.233 116.896 322.852 116.918L322.809 116.919H317.624L317.588 116.919L317.23 116.9C311.456 116.58 309.365 115.693 309.291 113.573C309.274 112.994 309.65 112.608 310.218 112.381C310.588 112.232 311.076 112.136 311.689 112.075Z" fill="#6A6AF4"/>
<path fill-rule="evenodd" clip-rule="evenodd" d="M192.37 95.866C196.997 94.049 195.471 92.4015 193.654 92.6438C191.377 92.9345 182.849 95.7933 182.849 95.7933C182.849 95.7933 187.355 91.9654 185.441 89.0582C183.527 86.1509 182.17 87.0716 181.904 89.47C181.637 91.8685 174.733 95.2603 174.733 95.2603L171.874 95.9871C171.874 95.9871 165.914 100.808 171.656 106.792C174.733 110.548 179.045 109.748 179.045 109.748C180.353 109.554 185.271 109.191 194.454 103.813C194.454 103.813 198.281 100.978 193.751 102.02C192.588 102.286 191.449 102.65 190.456 103.013" fill="white"/>
<path fill-rule="evenodd" clip-rule="evenodd" d="M182.864 86.5734C183.916 86.2867 184.989 87.0503 186.048 88.6587C186.489 89.3283 186.678 90.0718 186.636 90.8573C186.577 91.958 186.082 93.0735 185.286 94.1815L185.238 94.2481L185.28 94.2345C185.857 94.0494 186.435 93.8663 187.006 93.6884L187.825 93.4351L188.736 93.1585C191.027 92.4711 192.696 92.0336 193.558 91.9235C194.856 91.7505 196.098 92.3171 196.155 93.4467C196.211 94.5821 194.987 95.6192 192.636 96.5427C192.262 96.6894 191.84 96.5055 191.693 96.1318C191.547 95.7582 191.731 95.3364 192.104 95.1897C193.131 94.7864 193.866 94.3829 194.308 94.0076C194.481 93.8612 194.597 93.7295 194.66 93.6207C194.694 93.5603 194.703 93.5282 194.703 93.519C194.7 93.4617 194.32 93.2884 193.746 93.3649L193.653 93.3779C192.857 93.496 191.266 93.917 189.136 94.5562L188.739 94.676C188.498 94.749 188.252 94.8242 188.002 94.9014C187.068 95.1896 186.104 95.4951 185.15 95.8035L184.431 96.037L183.08 96.4826C182.334 96.7326 181.787 95.791 182.348 95.2668L182.492 95.1387L182.614 95.0254C182.678 94.9652 182.746 94.8999 182.817 94.8297C183.156 94.4945 183.496 94.1215 183.812 93.7225C184.633 92.6837 185.137 91.6653 185.184 90.7798C185.21 90.2968 185.099 89.8611 184.834 89.458C184.416 88.8225 184.029 88.3871 183.697 88.1511C183.471 87.9904 183.328 87.9535 183.246 87.9759C183.165 87.9978 183.058 88.0993 182.946 88.3177C182.807 88.5888 182.699 88.9756 182.638 89.448L182.626 89.5505C182.547 90.2608 182.107 90.9683 181.377 91.7116C180.713 92.3869 179.809 93.0876 178.722 93.8037C177.919 94.3329 177.061 94.8405 176.203 95.3096L175.951 95.4461C175.787 95.5344 175.631 95.6172 175.483 95.694L175.096 95.8917C175.077 95.9011 175.063 95.9082 175.053 95.9129C175.023 95.9277 174.992 95.9404 174.96 95.9508L174.912 95.9649L172.22 96.649L172.191 96.6755C172.14 96.7231 172.084 96.7758 172.026 96.8336L171.966 96.893C171.675 97.1872 171.382 97.5295 171.109 97.9141C170.358 98.9738 169.905 100.138 169.887 101.372C169.862 102.964 170.563 104.604 172.18 106.289L172.2 106.31L172.218 106.332C172.811 107.056 173.477 107.626 174.205 108.058C175.693 108.942 177.261 109.188 178.596 109.071L178.701 109.061C178.77 109.054 178.824 109.047 178.862 109.042L178.939 109.029C179.033 109.015 179.484 108.956 179.605 108.938C179.934 108.892 180.245 108.843 180.582 108.781C181.496 108.612 182.478 108.372 183.581 108.03C186.528 107.117 189.926 105.604 193.859 103.318L194.051 103.206L194.199 103.091L194.234 103.062C194.399 102.93 194.563 102.79 194.714 102.649L194.787 102.58L194.811 102.557L194.802 102.558C194.58 102.589 194.318 102.638 194.016 102.705L193.913 102.728C192.88 102.965 191.797 103.296 190.706 103.696C190.329 103.834 189.911 103.64 189.773 103.263C189.636 102.886 189.829 102.469 190.206 102.331C191.351 101.912 192.491 101.563 193.588 101.312L193.783 101.268C195.12 100.975 195.901 100.974 196.36 101.382C196.724 101.704 196.767 102.154 196.598 102.574C196.504 102.809 196.345 103.038 196.128 103.283C196.004 103.423 195.861 103.567 195.704 103.714C195.569 103.839 195.429 103.961 195.287 104.079L195.145 104.195C195.031 104.287 194.941 104.356 194.886 104.397C194.865 104.412 194.843 104.427 194.821 104.44C190.698 106.855 187.124 108.455 184.012 109.419C182.852 109.778 181.815 110.031 180.845 110.21C180.558 110.263 180.289 110.307 180.015 110.348L179.613 110.404L179.158 110.466L179.084 110.478C179.034 110.486 178.974 110.493 178.904 110.501L178.849 110.507C177.208 110.675 175.295 110.397 173.463 109.308C172.637 108.817 171.879 108.18 171.205 107.387L171.113 107.276L171.03 107.189C169.262 105.307 168.434 103.378 168.432 101.459L168.433 101.35C168.457 99.7907 169.015 98.3549 169.924 97.0734C170.245 96.6203 170.588 96.2181 170.933 95.87L171.035 95.7689C171.198 95.6091 171.329 95.4928 171.417 95.4223C171.485 95.3673 171.562 95.3251 171.645 95.2976L171.695 95.2829L174.478 94.5751L174.708 94.4582L174.921 94.3477C175.103 94.2519 175.299 94.1472 175.506 94.0343C176.331 93.5829 177.155 93.0949 177.922 92.5897C178.931 91.9252 179.76 91.2827 180.34 90.6926C180.863 90.1603 181.147 89.7048 181.181 89.39C181.347 87.8995 181.893 86.8375 182.864 86.5734Z" fill="#6A6AF4"/>
<path fill-rule="evenodd" clip-rule="evenodd" d="M185.271 98.7977C186.943 98.1921 192.976 95.0425 195.52 95.0183C198.063 94.9941 197.7 96.8596 191.861 99.1127" fill="white"/>
<path fill-rule="evenodd" clip-rule="evenodd" d="M195.513 94.2913C196.305 94.2837 196.925 94.432 197.325 94.7876C197.867 95.2697 197.869 95.9772 197.436 96.6178C196.772 97.602 194.952 98.6987 192.123 99.7905C191.748 99.935 191.328 99.7486 191.183 99.3741C191.039 98.9996 191.225 98.5789 191.6 98.4344L191.858 98.3336C194.235 97.394 195.743 96.4811 196.207 95.8389L196.222 95.8171L196.199 95.8107L196.163 95.8015C196.001 95.7628 195.786 95.7424 195.526 95.7449C194.641 95.7533 193.101 96.2243 191.026 97.077C190.735 97.1965 190.434 97.323 190.121 97.4579L189.652 97.6619C189.057 97.9274 186.001 99.3064 185.519 99.4808C185.142 99.6176 184.725 99.4225 184.588 99.0451C184.456 98.6812 184.633 98.2806 184.984 98.1299L185.113 98.0797C185.805 97.8015 188.858 96.4218 189.156 96.2916L189.547 96.1222C189.868 95.9844 190.175 95.855 190.473 95.7324L190.763 95.6144C192.863 94.7661 194.428 94.3016 195.513 94.2913Z" fill="#6A6AF4"/>
<path fill-rule="evenodd" clip-rule="evenodd" d="M185.974 101.899C186.289 101.899 196.004 96.6416 196.828 97.9256C197.482 98.9674 196.779 100.179 190.989 102.82L186.095 104.782" fill="white"/>
<path fill-rule="evenodd" clip-rule="evenodd" d="M194.708 97.2821L194.879 97.233C196.19 96.8637 197.003 96.8531 197.443 97.5391C198.56 99.3182 196.972 100.857 191.623 103.328L191.29 103.481L191.259 103.494L186.366 105.457C185.993 105.606 185.57 105.425 185.42 105.052C185.276 104.693 185.439 104.287 185.785 104.124L185.825 104.107L190.703 102.151L191.109 101.964C193.525 100.843 195.029 99.968 195.786 99.281L195.829 99.2416L195.922 99.1528C196.257 98.8255 196.342 98.646 196.286 98.4639L196.282 98.4504L196.235 98.4508L196.201 98.4521C195.951 98.4642 195.583 98.5397 195.12 98.6763L194.922 98.7364C194.115 98.9892 193.088 99.3948 191.873 99.9313L191.72 99.999C191.453 100.118 191.178 100.242 190.895 100.372L190.22 100.686C189.772 100.895 189.346 101.099 188.786 101.371L186.618 102.426C186.088 102.679 186.148 102.626 185.974 102.626C185.572 102.626 185.247 102.3 185.247 101.899C185.247 101.569 185.467 101.291 185.768 101.202L185.805 101.192L185.829 101.182C185.863 101.168 185.906 101.149 185.959 101.124L186.344 100.943L188.339 99.9723C188.994 99.655 189.476 99.427 190.07 99.1517L190.503 98.953C190.716 98.8558 190.925 98.7617 191.129 98.6707L191.445 98.5314C192.744 97.9624 193.837 97.539 194.708 97.2821Z" fill="#6A6AF4"/>
<path fill-rule="evenodd" clip-rule="evenodd" d="M82.3789 59.065C86.1341 56.6908 98.7564 57.8052 108.593 61.4393L104.619 69.0466L84.5593 65.8729L82.3789 59.065Z" fill="#6A6AF4"/>
<path fill-rule="evenodd" clip-rule="evenodd" d="M85.0923 65.6309V45.4497L102.802 56.1339L102.39 66.9634L85.0923 65.6309Z" fill="white"/>
<path fill-rule="evenodd" clip-rule="evenodd" d="M84.3655 45.4496V65.6308C84.3655 66.0106 84.6578 66.3263 85.0365 66.3555L102.335 67.688C102.746 67.7197 103.101 67.4031 103.117 66.9909L103.529 56.1614C103.539 55.897 103.404 55.6481 103.178 55.5115L85.4677 44.8273C84.9833 44.5351 84.3655 44.8839 84.3655 45.4496ZM85.8191 46.7368L102.06 56.5345L101.693 66.1803L85.8191 64.9575V46.7368Z" fill="#6A6AF4"/>
<path fill-rule="evenodd" clip-rule="evenodd" d="M108.544 23.8391C101.325 18.8483 94.8316 17.007 84.6563 30.0412L83.2753 38.6176C79.0113 37.3336 76.7582 39.4171 77.6788 43.1481C78.6722 47.1698 80.998 48.9626 84.8743 47.9208C84.8743 47.9208 84.6563 47.4121 84.8743 47.9208C86.7398 52.1364 90.2285 56.9576 96.7456 58.387C106.945 60.5916 109.319 54.2926 110.458 51.7972C111.597 49.3018 115.764 28.8299 108.544 23.8391Z" fill="white"/>
<path fill-rule="evenodd" clip-rule="evenodd" d="M97.6054 19.4614C93.3638 20.0702 89.0328 23.2541 84.0834 29.594L84.0527 29.6364C83.9944 29.7234 83.9554 29.822 83.9387 29.9257L82.6847 37.7137L82.6589 37.7081C78.4522 36.8058 75.9576 39.2061 76.9733 43.3223L77.0068 43.4554C78.0744 47.6056 80.5842 49.5082 84.3362 48.7905L84.4608 48.7657L84.5151 48.8808C87.0166 54.1428 90.9219 57.8538 96.5899 59.0969C102.921 60.4653 106.953 58.8738 109.452 55.2501C109.827 54.7064 110.154 54.1368 110.468 53.5045L110.57 53.2967C110.621 53.1918 110.671 53.0848 110.724 52.9723L111.119 52.0989C111.95 50.279 113.119 44.0136 113.362 38.7877L113.381 38.3375C113.661 31.0227 112.365 25.597 108.958 23.2412L108.652 23.0315C104.393 20.1353 101.139 18.9541 97.6054 19.4614ZM108.131 24.437C111.026 26.4382 112.215 31.5428 111.919 38.5085L111.91 38.7202C111.677 43.7265 110.56 49.7513 109.819 51.4455L109.508 52.1371L109.406 52.3584C109.324 52.5357 109.246 52.6972 109.167 52.8577C108.881 53.4321 108.588 53.9431 108.256 54.4248C106.091 57.5632 102.653 58.9202 96.8992 57.6766C91.5099 56.4945 87.8523 52.8543 85.539 47.6268C85.3946 47.3005 85.0349 47.1273 84.6898 47.2179L84.574 47.2483C81.2839 48.0912 79.3039 46.6964 78.3845 42.9739C77.586 39.7378 79.3997 38.2096 83.0658 39.3136L83.1079 39.325C83.5155 39.422 83.9254 39.1528 83.9929 38.7332L85.3439 30.3419L85.5128 30.1279C90.131 24.2986 94.0862 21.435 97.8119 20.9003C100.984 20.4449 103.994 21.5772 108.131 24.437Z" fill="#6A6AF4"/>
<path fill-rule="evenodd" clip-rule="evenodd" d="M105.071 38.8157C105.455 38.7722 105.804 39.0372 105.869 39.4139L105.875 39.4562L106.747 47.1604C106.795 47.5846 106.469 47.9553 106.049 47.9686L106.006 47.9687L103.147 47.896C102.746 47.8858 102.429 47.5523 102.439 47.151C102.449 46.764 102.76 46.4554 103.142 46.443L103.184 46.4429L105.208 46.494L104.43 39.6197C104.387 39.2351 104.652 38.8866 105.028 38.8217L105.071 38.8157Z" fill="#6A6AF4"/>
<path fill-rule="evenodd" clip-rule="evenodd" d="M109.126 40.7011C109.594 40.7011 109.974 40.1045 109.974 39.3686C109.974 38.6327 109.594 38.0361 109.126 38.0361C108.657 38.0361 108.278 38.6327 108.278 39.3686C108.278 40.1045 108.657 40.7011 109.126 40.7011Z" fill="#6A6AF4"/>
<path fill-rule="evenodd" clip-rule="evenodd" d="M100.888 40.5556C101.357 40.5556 101.736 39.959 101.736 39.2231C101.736 38.4872 101.357 37.8906 100.888 37.8906C100.42 37.8906 100.041 38.4872 100.041 39.2231C100.041 39.959 100.42 40.5556 100.888 40.5556Z" fill="#6A6AF4"/>
<path fill-rule="evenodd" clip-rule="evenodd" d="M96.6162 32.0698C97.5682 31.3785 98.7323 31.0349 100.076 31.2364C100.473 31.2959 100.746 31.666 100.687 32.063C100.627 32.4599 100.257 32.7335 99.86 32.6739C98.9208 32.533 98.1313 32.7661 97.4704 33.246C97.2841 33.3813 97.1236 33.5261 96.9905 33.6691L96.9186 33.7493C96.8987 33.7722 96.8831 33.7912 96.8717 33.8057L96.8546 33.8282C96.623 34.156 96.1694 34.234 95.8416 34.0023C95.5138 33.7707 95.4358 33.3171 95.6675 32.9893C95.7186 32.9169 95.8047 32.8097 95.9261 32.6791C96.1204 32.4702 96.3502 32.263 96.6162 32.0698Z" fill="white"/>
<path fill-rule="evenodd" clip-rule="evenodd" d="M107.99 31.0463C108.51 30.9666 109.062 30.9656 109.602 31.1005C110.524 31.3311 111.228 31.9294 111.54 32.9253C111.659 33.3084 111.446 33.7161 111.063 33.8358C110.693 33.9512 110.301 33.7568 110.166 33.3992L110.152 33.3588C110.001 32.8765 109.705 32.6247 109.249 32.5107C108.925 32.4296 108.555 32.4303 108.21 32.4832L108.144 32.494C108.095 32.5025 108.061 32.5098 108.046 32.5138C107.657 32.613 107.261 32.3782 107.162 31.9892C107.062 31.6003 107.297 31.2045 107.686 31.1053L107.752 31.0899C107.814 31.0763 107.894 31.061 107.99 31.0463Z" fill="#6A6AF4"/>
<path fill-rule="evenodd" clip-rule="evenodd" d="M99.3913 48.0993C99.7734 48.0374 100.134 48.2856 100.217 48.6586L100.232 48.7375C100.242 48.7831 100.26 48.8544 100.287 48.9437C100.349 49.1465 100.435 49.349 100.545 49.5328C100.887 50.1065 101.358 50.3677 102.118 50.2331C102.514 50.1631 102.891 50.4268 102.961 50.822C103.031 51.2173 102.767 51.5944 102.372 51.6644C100.968 51.913 99.9282 51.3363 99.2964 50.2779C99.1218 49.9854 98.9916 49.6776 98.8973 49.3702L98.8624 49.251C98.8257 49.1185 98.8024 49.01 98.79 48.9329C98.7258 48.5367 98.995 48.1635 99.3913 48.0993Z" fill="#6A6AF4"/>
<path fill-rule="evenodd" clip-rule="evenodd" d="M70.9436 14.6084C66.3647 5.64435 58.9754 4.86908 50.4959 6.54075C42.0165 8.21243 37.2437 19.6719 36.953 20.7136C33.4885 33.0695 38.0674 46.2975 48.2671 54.0986C49.4057 54.9708 50.5202 55.843 51.6104 56.6909C57.5945 61.391 44.318 65.3884 44.318 65.3884C69.7565 67.4235 64.2085 41.985 63.6755 39.7077C71.8158 36.6551 75.2076 22.9667 70.9436 14.6084Z" fill="#E4794A"/>
<path fill-rule="evenodd" clip-rule="evenodd" d="M84.6563 32.3909V32.3909C83.8568 34.4744 81.5068 35.4919 79.4232 34.6925L64.6931 28.9506C62.6096 28.1511 61.5921 25.8011 62.3916 23.7176V23.7176C63.1911 21.634 65.5411 20.6165 67.6246 21.416L82.3547 27.1578C84.4383 27.9573 85.4558 30.3073 84.6563 32.3909Z" fill="#FAA184"/>
<path fill-rule="evenodd" clip-rule="evenodd" d="M115.691 32.6092C115.594 26.3586 114.092 20.9075 110.337 17.2976C109.828 16.6919 109.126 16.1105 108.229 15.626C105.152 13.6393 100.985 12.5733 95.4373 12.7671C95.3404 12.7671 95.2193 12.8156 95.0981 12.8641C94.226 12.9367 93.3538 13.0821 92.5058 13.2517C92.0698 13.3244 91.6094 13.4213 91.1249 13.5666C89.5501 13.9785 88.0481 14.56 86.6671 15.1899C74.2386 20.5441 69.3689 30.1865 74.9169 43.4871C77.7757 50.3434 81.5067 52.5481 85.0923 52.5723V48.4053C84.7774 47.7511 84.2686 47.9934 84.2686 47.9934C80.3923 49.0352 78.6722 47.1697 77.6788 43.1722C77.1943 41.234 77.5819 39.7319 78.6479 38.9324C78.6722 38.9082 78.6964 38.884 78.7206 38.8598C78.7691 38.8355 78.8175 38.8113 78.866 38.7629C78.8902 38.7386 78.9144 38.7386 78.9629 38.7144C79.0113 38.6902 79.0598 38.6659 79.1082 38.6417C79.1325 38.6175 79.1567 38.6175 79.2052 38.5933C79.2536 38.569 79.3021 38.5448 79.3747 38.5206C79.399 38.5206 79.4232 38.4964 79.4474 38.4964C79.5201 38.4721 79.5686 38.4479 79.6412 38.4237C79.6655 38.4237 79.6897 38.4237 79.6897 38.3995C80.0046 38.3025 80.3681 38.2541 80.7557 38.2299H80.7799C80.8768 38.2299 80.9737 38.2299 81.0464 38.2299C81.0706 38.2299 81.0949 38.2299 81.0949 38.2299C81.1918 38.2299 81.2887 38.2299 81.3856 38.2541C81.4098 38.2541 81.434 38.2541 81.434 38.2541C81.531 38.2541 81.6279 38.2783 81.7248 38.2783C81.749 38.2783 81.749 38.2783 81.7732 38.2783C82.2335 38.3268 82.7181 38.4479 83.2511 38.5933V38.5933C83.5903 38.6902 83.348 38.8355 83.6872 38.9809L84.5836 38.9082C84.8985 38.9082 85.2135 38.884 85.5284 38.8355C93.378 37.8907 105.54 32.2942 109.901 25.0745C112.954 28.7813 113.293 36.0979 112.736 42.2758C114.625 39.4654 115.74 36.1706 115.691 32.6092Z" fill="#E4794A"/>
<path fill-rule="evenodd" clip-rule="evenodd" d="M97.2461 30.4463C98.1981 29.7549 99.3622 29.4113 100.706 29.6128C101.102 29.6724 101.376 30.0425 101.316 30.4394C101.257 30.8364 100.887 31.1099 100.49 31.0504C99.5507 30.9095 98.7611 31.1425 98.1003 31.6225C97.914 31.7578 97.7535 31.9025 97.6204 32.0456L97.5484 32.1257C97.5286 32.1487 97.513 32.1677 97.5016 32.1821L97.4845 32.2047C97.2528 32.5325 96.7993 32.6105 96.4715 32.3788C96.1437 32.1472 96.0657 31.6936 96.2974 31.3658C96.3485 31.2934 96.4346 31.1861 96.556 31.0556C96.7503 30.8467 96.98 30.6395 97.2461 30.4463Z" fill="white"/>
<path fill-rule="evenodd" clip-rule="evenodd" d="M176.913 107.423C176.913 97.6833 175.823 88.5739 158.961 90.1486C158.428 90.2456 157.943 90.3425 157.483 90.4636L137.835 94.6791L122.572 72.6809C120.634 69.2406 117.121 66.9633 113.196 66.6241L108.132 66.188L108.593 61.4153C108.593 61.4153 107.89 63.1354 102.318 64.1772C94.7833 65.5823 82.379 59.041 82.379 59.041C82.379 59.041 82.379 66.188 82.379 66.5272C82.379 66.6241 73.0515 67.0844 68.7633 69.7736C64.4751 72.4386 62.6581 77.6717 59.6297 84.9883C56.6013 92.3291 47.08 118.349 46.862 120.069C46.6439 121.814 44.5362 132.037 50.1327 138.094C54.8812 143.23 64.7416 151.807 74.9655 148.342L124.583 147.615C121.457 140.057 120.391 130.22 120.173 120.869C121.264 121.426 122.426 121.959 123.686 122.419C168.943 133.321 172.625 120.869 172.625 120.869V120.869C175.242 117.695 176.913 112.849 176.913 107.423Z" fill="#CACAFB"/>
<path fill-rule="evenodd" clip-rule="evenodd" d="M79.069 87.314L79.1116 87.3158C79.4977 87.3435 79.7917 87.6678 79.7866 88.05L79.7848 88.0927L78.4523 106.723C78.4161 107.229 77.8868 107.543 77.4257 107.333C73.7757 105.668 70.3171 106.094 67.2295 107.821C66.6309 108.156 66.0985 108.514 65.6402 108.871C65.508 108.975 65.3904 109.071 65.2881 109.159L65.2285 109.211C65.1622 109.269 65.1199 109.308 65.1023 109.325C64.8142 109.605 64.3541 109.598 64.0746 109.31C63.795 109.021 63.802 108.561 64.0901 108.282L64.1443 108.23C64.2729 108.111 64.4751 107.937 64.7467 107.725C65.2608 107.324 65.8539 106.925 66.5199 106.552C69.6763 104.787 73.2243 104.229 76.9476 105.569L77.0739 105.615L78.3348 87.989C78.3624 87.6029 78.6868 87.3089 79.069 87.314Z" fill="white"/>
<path fill-rule="evenodd" clip-rule="evenodd" d="M83.7201 114.991L83.7213 114.974C83.7364 114.787 83.724 114.515 83.6587 114.17C83.5589 113.643 83.3547 113.066 83.0189 112.449C82.0904 110.743 80.3303 109.024 77.5186 107.39L77.3664 107.302C77.018 107.103 76.8972 106.659 77.0966 106.31C77.2886 105.975 77.7075 105.85 78.0513 106.021L78.0896 106.041L78.2518 106.135C81.2273 107.865 83.1633 109.734 84.2379 111.649L84.2957 111.754C85.0209 113.086 85.2389 114.239 85.1702 115.091L85.1635 115.161C85.1612 115.182 85.1588 115.199 85.1566 115.214C85.095 115.611 84.7236 115.882 84.3269 115.821C83.9302 115.759 83.6586 115.388 83.7201 114.991Z" fill="white"/>
<path fill-rule="evenodd" clip-rule="evenodd" d="M116.168 80.7594C116.402 80.4338 116.856 80.3601 117.182 80.5947L117.228 80.6286C117.279 80.6674 117.345 80.7212 117.427 80.7906L117.468 80.8265C117.674 81.0045 117.9 81.2209 118.142 81.4772C118.822 82.1985 119.498 83.0995 120.127 84.1925C121.555 86.6787 122.53 89.788 122.85 93.5719C123.243 98.2164 122.623 103.623 120.807 109.845L120.762 109.997L121.77 124.112C121.798 124.498 121.519 124.835 121.14 124.884L121.097 124.888C120.711 124.916 120.374 124.637 120.325 124.258L120.32 124.215L119.303 109.97C119.297 109.882 119.306 109.795 119.331 109.711C121.161 103.538 121.785 98.2201 121.401 93.6945C121.099 90.1228 120.189 87.2189 118.866 84.9168C118.296 83.9246 117.688 83.1148 117.084 82.4745C116.903 82.2817 116.734 82.1179 116.581 81.9818L116.458 81.8748C116.422 81.8444 116.392 81.8205 116.37 81.803L116.332 81.774C116.007 81.5393 115.933 81.0851 116.168 80.7594Z" fill="white"/>
<path fill-rule="evenodd" clip-rule="evenodd" d="M97.0604 120.965C95.1707 115.078 88.8959 114.594 88.8959 114.594C88.8959 114.594 85.7948 113.867 82.2092 113.697C80.9978 115.272 77.8967 118.64 75.6194 125.326L76.8307 126.974C76.8307 126.974 80.7071 128.573 82.4757 129.275C84.7288 130.172 87.0788 130.244 89.1381 128.742C89.2108 128.694 89.3077 128.621 89.3804 128.573L90.7129 121.426C89.8407 120.166 90.2041 118.47 92.2392 119.463C94.2985 120.457 92.6511 123.025 95.3403 123.243C98.0537 123.485 97.0604 120.965 97.0604 120.965Z" fill="white"/>
<path fill-rule="evenodd" clip-rule="evenodd" d="M82.2435 112.971C82.006 112.96 81.778 113.065 81.6331 113.254L81.4112 113.537L80.8503 114.238C80.4552 114.734 80.1255 115.163 79.7841 115.63C78.8535 116.903 78.0045 118.245 77.2018 119.773C76.3512 121.393 75.5907 123.156 74.9314 125.092C74.8547 125.317 74.893 125.565 75.0338 125.757L76.2452 127.404C76.3141 127.498 76.4044 127.573 76.5083 127.625L76.6253 127.675L78.512 128.45L81.0116 129.47C81.4823 129.661 81.8848 129.822 82.2073 129.951L82.3292 129.998C84.927 130.998 87.3844 130.869 89.469 129.399L89.5413 129.347L89.7836 129.177C89.9467 129.068 90.059 128.898 90.0949 128.706L91.4274 121.559C91.4629 121.368 91.4208 121.171 91.3105 121.012C91.0162 120.587 90.9339 120.122 91.0316 119.933C91.0448 119.907 91.0525 119.902 91.1112 119.895C91.2764 119.874 91.5514 119.936 91.9204 120.116C92.378 120.337 92.5665 120.627 92.7224 121.259L92.7853 121.536L92.8017 121.61C92.9616 122.344 93.0781 122.69 93.3801 123.078C93.7909 123.604 94.4152 123.897 95.2815 123.967C96.8944 124.111 97.8288 123.394 97.9514 122.185C97.989 121.814 97.9461 121.439 97.8537 121.075L97.8381 121.015L97.8071 120.906C97.7969 120.872 97.7868 120.84 97.7771 120.811L97.7458 120.723L97.7524 120.743C96.9993 118.397 95.5514 116.667 93.6253 115.481C92.6071 114.854 91.5211 114.42 90.4355 114.141C90.0549 114.043 89.7004 113.972 89.3803 113.922L89.2006 113.896C89.1647 113.892 89.1314 113.887 89.1009 113.884L89.0105 113.874L88.8719 113.843C88.7468 113.816 88.6052 113.786 88.4483 113.754L88.3523 113.735C87.7953 113.624 87.1731 113.513 86.5002 113.409C85.0945 113.193 83.6583 113.038 82.2435 112.971ZM82.5479 114.442L82.9188 114.466C84.0377 114.544 85.1678 114.675 86.2791 114.846C86.8575 114.935 87.3968 115.03 87.8865 115.125L88.2475 115.197C88.3338 115.215 88.4144 115.232 88.4892 115.248L88.73 115.301C88.7541 115.307 88.7785 115.311 88.803 115.314L88.9094 115.325C88.9586 115.33 89.0251 115.339 89.1075 115.351L89.1588 115.359C89.4332 115.401 89.7412 115.463 90.074 115.549C91.0266 115.793 91.9789 116.175 92.8631 116.719C94.5068 117.731 95.7267 119.188 96.3684 121.187L96.395 121.261C96.4077 121.298 96.4258 121.357 96.4446 121.431C96.4988 121.645 96.5233 121.86 96.5052 122.039C96.4665 122.421 96.2648 122.585 95.4741 122.524L95.4049 122.519C94.6244 122.455 94.4561 122.302 94.2638 121.486L94.1551 121C93.9054 119.932 93.497 119.263 92.555 118.808C91.3078 118.2 90.2193 118.338 89.7401 119.266L89.7091 119.329C89.4127 119.969 89.5222 120.808 89.9345 121.549L89.9466 121.57L88.72 128.148L88.7098 128.155C87.0417 129.372 85.0644 129.492 82.8586 128.644L82.7444 128.6C82.4491 128.482 82.0854 128.336 81.6627 128.165L80.3058 127.614L78.7447 126.975L77.2957 126.379L76.431 125.203L76.5226 124.945C77.1057 123.322 77.7635 121.83 78.4887 120.449C79.2565 118.987 80.0676 117.706 80.9577 116.488C81.213 116.138 81.4621 115.811 81.7407 115.456L82.0287 115.092L82.5479 114.442Z" fill="#6A6AF4"/>
<path opacity="0.5" fill-rule="evenodd" clip-rule="evenodd" d="M201.697 95.0664C171.438 118.954 153.001 103.958 138.949 106.09C124.897 108.222 122.741 115.199 110.046 120.19C102.197 123.267 89.5985 122.831 84.7773 122.055V142.673H201.697V95.0664V95.0664Z" fill="white"/>
<path fill-rule="evenodd" clip-rule="evenodd" d="M207.512 141.146C207.913 141.146 208.239 141.472 208.239 141.873C208.239 142.26 207.936 142.577 207.555 142.599L207.512 142.6H84.7774C84.3759 142.6 84.0505 142.275 84.0505 141.873C84.0505 141.486 84.3531 141.17 84.7346 141.148L84.7774 141.146H207.512Z" fill="#FAA184"/>
<path fill-rule="evenodd" clip-rule="evenodd" d="M101.906 121.522C102.293 121.522 102.609 121.825 102.632 122.207L102.633 122.249V123.703C102.633 124.104 102.307 124.43 101.906 124.43C101.519 124.43 101.203 124.127 101.18 123.746L101.179 123.703V122.249C101.179 121.848 101.505 121.522 101.906 121.522Z" fill="#FAA184"/>
<path fill-rule="evenodd" clip-rule="evenodd" d="M101.179 127.046V130.389C101.179 130.79 101.505 131.116 101.906 131.116C102.307 131.116 102.633 130.79 102.633 130.389V127.046C102.633 126.645 102.307 126.319 101.906 126.319C101.505 126.319 101.179 126.645 101.179 127.046ZM101.179 133.732V137.074C101.179 137.476 101.505 137.801 101.906 137.801C102.307 137.801 102.633 137.476 102.633 137.074V133.732C102.633 133.33 102.307 133.005 101.906 133.005C101.505 133.005 101.179 133.33 101.179 133.732Z" fill="#FAA184"/>
<path fill-rule="evenodd" clip-rule="evenodd" d="M101.906 139.693C102.293 139.693 102.609 139.995 102.632 140.377L102.633 140.42V141.873C102.633 142.275 102.307 142.6 101.906 142.6C101.519 142.6 101.203 142.298 101.18 141.916L101.179 141.873V140.42C101.179 140.018 101.505 139.693 101.906 139.693Z" fill="#FAA184"/>
<path fill-rule="evenodd" clip-rule="evenodd" d="M138.949 105.678C139.336 105.678 139.653 105.98 139.675 106.362L139.676 106.405V107.858C139.676 108.26 139.351 108.585 138.949 108.585C138.562 108.585 138.246 108.282 138.224 107.901L138.222 107.858V106.405C138.222 106.003 138.548 105.678 138.949 105.678Z" fill="#FAA184"/>
<path fill-rule="evenodd" clip-rule="evenodd" d="M138.222 110.814V113.774C138.222 114.176 138.548 114.501 138.949 114.501C139.351 114.501 139.676 114.176 139.676 113.774V110.814C139.676 110.412 139.351 110.087 138.949 110.087C138.548 110.087 138.222 110.412 138.222 110.814ZM138.222 116.735V119.695C138.222 120.096 138.548 120.422 138.949 120.422C139.351 120.422 139.676 120.096 139.676 119.695V116.735C139.676 116.333 139.351 116.008 138.949 116.008C138.548 116.008 138.222 116.333 138.222 116.735ZM138.222 122.655V125.616C138.222 126.017 138.548 126.343 138.949 126.343C139.351 126.343 139.676 126.017 139.676 125.616V122.655C139.676 122.254 139.351 121.929 138.949 121.929C138.548 121.929 138.222 122.254 138.222 122.655ZM138.222 128.576V131.537C138.222 131.938 138.548 132.264 138.949 132.264C139.351 132.264 139.676 131.938 139.676 131.537V128.576C139.676 128.175 139.351 127.85 138.949 127.85C138.548 127.85 138.222 128.175 138.222 128.576ZM138.222 134.497V137.458C138.222 137.859 138.548 138.184 138.949 138.184C139.351 138.184 139.676 137.859 139.676 137.458V134.497C139.676 134.096 139.351 133.77 138.949 133.77C138.548 133.77 138.222 134.096 138.222 134.497Z" fill="#FAA184"/>
<path fill-rule="evenodd" clip-rule="evenodd" d="M138.949 139.692C139.336 139.692 139.653 139.995 139.675 140.376L139.676 140.419V141.873C139.676 142.274 139.351 142.6 138.949 142.6C138.562 142.6 138.246 142.297 138.224 141.916L138.222 141.873V140.419C138.222 140.018 138.548 139.692 138.949 139.692Z" fill="#FAA184"/>
<path fill-rule="evenodd" clip-rule="evenodd" d="M175.193 107.229C175.58 107.229 175.897 107.531 175.919 107.913L175.92 107.955V109.409C175.92 109.81 175.595 110.136 175.193 110.136C174.806 110.136 174.49 109.833 174.468 109.452L174.466 109.409V107.955C174.466 107.554 174.792 107.229 175.193 107.229Z" fill="#FAA184"/>
<path fill-rule="evenodd" clip-rule="evenodd" d="M174.466 112.219V115.039C174.466 115.441 174.792 115.766 175.193 115.766C175.595 115.766 175.92 115.441 175.92 115.039V112.219C175.92 111.818 175.595 111.493 175.193 111.493C174.792 111.493 174.466 111.818 174.466 112.219ZM174.466 117.859V120.678C174.466 121.08 174.792 121.405 175.193 121.405C175.595 121.405 175.92 121.08 175.92 120.678V117.859C175.92 117.457 175.595 117.132 175.193 117.132C174.792 117.132 174.466 117.457 174.466 117.859ZM174.466 123.498V126.318C174.466 126.719 174.792 127.044 175.193 127.044C175.595 127.044 175.92 126.719 175.92 126.318V123.498C175.92 123.097 175.595 122.771 175.193 122.771C174.792 122.771 174.466 123.097 174.466 123.498ZM174.466 129.137V131.957C174.466 132.358 174.792 132.684 175.193 132.684C175.595 132.684 175.92 132.358 175.92 131.957V129.137C175.92 128.736 175.595 128.41 175.193 128.41C174.792 128.41 174.466 128.736 174.466 129.137ZM174.466 134.776V137.596C174.466 137.998 174.792 138.323 175.193 138.323C175.595 138.323 175.92 137.998 175.92 137.596V134.776C175.92 134.375 175.595 134.05 175.193 134.05C174.792 134.05 174.466 134.375 174.466 134.776Z" fill="#FAA184"/>
<path fill-rule="evenodd" clip-rule="evenodd" d="M175.193 139.693C175.58 139.693 175.897 139.995 175.919 140.377L175.92 140.42V141.873C175.92 142.275 175.595 142.6 175.193 142.6C174.806 142.6 174.49 142.298 174.468 141.916L174.466 141.873V140.42C174.466 140.018 174.792 139.693 175.193 139.693Z" fill="#FAA184"/>
<path fill-rule="evenodd" clip-rule="evenodd" d="M201.097 94.282C201.516 93.9502 202.126 94.0216 202.458 94.4415C202.79 94.8614 202.718 95.4709 202.298 95.8027C192.499 103.547 183.357 107.736 174.303 109.173C170.646 109.753 167.044 109.883 163.284 109.637L162.931 109.613C159.991 109.403 157.359 109.027 153.343 108.313L150.135 107.742C147.536 107.283 147.059 107.22 145.618 107.053C143.077 106.759 140.993 106.736 139.094 107.024C133.002 107.948 129.333 109.568 124.201 113.072L123.306 113.691L121.744 114.782C120.888 115.377 120.213 115.837 119.532 116.286C116.539 118.255 113.756 119.749 110.402 121.067C103.575 123.764 96.2858 124.132 89.4149 122.987C88.887 122.899 88.5303 122.4 88.6183 121.872C88.7063 121.344 89.2056 120.988 89.7335 121.075C96.2847 122.167 103.231 121.816 109.692 119.264C112.814 118.036 115.417 116.653 118.204 114.838L118.466 114.667C118.936 114.358 119.404 114.042 119.935 113.676L122.735 111.728L123.107 111.473C128.463 107.815 132.388 106.081 138.804 105.108C140.831 104.8 143.006 104.814 145.597 105.1L146.426 105.196C147.396 105.313 148.042 105.408 149.777 105.711L154.122 106.483C157.831 107.135 160.319 107.484 163.069 107.68C166.816 107.947 170.382 107.833 173.999 107.258C182.714 105.875 191.549 101.826 201.097 94.282Z" fill="#FAA184"/>
<path fill-rule="evenodd" clip-rule="evenodd" d="M175.193 109.578C176.09 109.578 176.816 108.852 176.816 107.955C176.816 107.059 176.09 106.332 175.193 106.332C174.297 106.332 173.57 107.059 173.57 107.955C173.57 108.852 174.297 109.578 175.193 109.578Z" fill="#FAA184"/>
<path fill-rule="evenodd" clip-rule="evenodd" d="M138.949 107.883C139.846 107.883 140.572 107.156 140.572 106.259C140.572 105.363 139.846 104.636 138.949 104.636C138.053 104.636 137.326 105.363 137.326 106.259C137.326 107.156 138.053 107.883 138.949 107.883Z" fill="#FAA184"/>
<path fill-rule="evenodd" clip-rule="evenodd" d="M101.906 123.872C102.802 123.872 103.529 123.146 103.529 122.249C103.529 121.353 102.802 120.626 101.906 120.626C101.009 120.626 100.283 121.353 100.283 122.249C100.283 123.146 101.009 123.872 101.906 123.872Z" fill="#FAA184"/>
<path fill-rule="evenodd" clip-rule="evenodd" d="M85.6978 122.71C85.6978 122.71 91.3669 128.282 93.5231 127.071C95.6793 125.859 96.7938 124.842 96.7938 123.437C96.7938 122.032 94.5407 121.111 93.4262 123.437C93.4262 123.437 89.5499 121.28 89.1622 119.851" fill="white"/>
<path fill-rule="evenodd" clip-rule="evenodd" d="M88.972 119.15C89.3456 119.048 89.7302 119.257 89.8513 119.62L89.8637 119.661C89.9126 119.841 90.1343 120.143 90.5061 120.5C90.8229 120.805 91.2296 121.134 91.7037 121.476C92.0923 121.756 92.5066 122.031 92.9248 122.292L93.175 122.446L93.2064 122.404C93.8353 121.58 94.6917 121.191 95.5772 121.31L95.6454 121.32C96.7029 121.493 97.5206 122.379 97.5206 123.437C97.5206 125.104 96.4096 126.283 93.8791 127.704C92.816 128.302 91.398 127.884 89.6369 126.792C89.0703 126.441 88.4783 126.022 87.8697 125.551C87.2136 125.043 86.5722 124.5 85.9705 123.958L85.7666 123.773C85.7009 123.712 85.6375 123.654 85.5766 123.597L85.2802 123.317L85.1883 123.228C84.902 122.947 84.898 122.487 85.1794 122.2C85.4495 121.926 85.8844 121.911 86.1721 122.159L86.2072 122.191C86.2401 122.224 86.3056 122.287 86.4004 122.377L86.5675 122.534C86.6837 122.642 86.8096 122.757 86.944 122.878C87.5204 123.398 88.1348 123.918 88.7595 124.402C89.331 124.844 89.8829 125.234 90.403 125.557C91.735 126.383 92.7382 126.678 93.1671 126.437L93.3739 126.32C95.3307 125.195 96.067 124.382 96.067 123.437C96.067 123.118 95.789 122.817 95.4104 122.755C94.9455 122.679 94.4559 122.97 94.0817 123.751C93.9007 124.128 93.4389 124.275 93.0729 124.072L92.8771 123.96L92.6875 123.849C92.5888 123.79 92.4848 123.728 92.3761 123.661C91.8581 123.345 91.3398 123.005 90.8536 122.655C90.3284 122.276 89.8711 121.906 89.499 121.549C88.9532 121.024 88.595 120.536 88.4608 120.041C88.3557 119.654 88.5846 119.255 88.972 119.15Z" fill="#6A6AF4"/>
<path fill-rule="evenodd" clip-rule="evenodd" d="M82.4998 124.527C82.4998 124.527 87.6117 129.59 89.9375 128.96C89.9375 128.96 91.9241 128.403 92.2633 127.192" fill="white"/>
<path fill-rule="evenodd" clip-rule="evenodd" d="M81.9834 124.015C82.2659 123.73 82.7261 123.728 83.0112 124.01L83.1364 124.132L83.2008 124.193C83.3576 124.343 83.5367 124.51 83.7349 124.69C84.3014 125.204 84.9055 125.718 85.5205 126.197C86.0926 126.642 86.6451 127.034 87.1653 127.356C88.3312 128.077 89.2547 128.392 89.7412 128.26L89.8127 128.239C89.8717 128.219 89.9523 128.191 90.0487 128.155C90.2919 128.061 90.5347 127.949 90.7566 127.818C91.1809 127.569 91.4577 127.295 91.5498 127.038L91.5634 126.996C91.6716 126.609 92.0727 126.383 92.4593 126.492C92.8458 126.6 93.0714 127.001 92.9632 127.388C92.766 128.092 92.234 128.636 91.4931 129.071C91.1956 129.246 90.8818 129.392 90.5684 129.512C90.3791 129.585 90.2283 129.633 90.1275 129.662C89.1241 129.933 87.8866 129.512 86.4001 128.592C85.8319 128.24 85.2381 127.819 84.6277 127.344C83.9812 126.841 83.3497 126.303 82.7577 125.766L82.5571 125.582C82.4925 125.523 82.4302 125.465 82.3702 125.409L82.1555 125.205L81.9883 125.043C81.7031 124.761 81.7009 124.3 81.9834 124.015Z" fill="#6A6AF4"/>
<path fill-rule="evenodd" clip-rule="evenodd" d="M75.9827 125.811C75.9827 125.811 81.2884 132.813 83.275 133.346C85.2617 133.854 84.7044 131.335 80.8523 126.32" fill="white"/>
<path fill-rule="evenodd" clip-rule="evenodd" d="M75.5437 125.232C75.8514 124.998 76.2847 125.048 76.5331 125.336L76.8072 125.691C77.0055 125.947 77.2296 126.233 77.4748 126.54C78.175 127.419 78.9026 128.297 79.6189 129.115C79.9322 129.473 80.2369 129.812 80.5312 130.129L80.6886 130.298C81.9636 131.654 82.9796 132.514 83.4554 132.641C83.524 132.659 83.5835 132.67 83.633 132.677L83.6705 132.681C83.6686 132.558 83.6396 132.393 83.5803 132.19L83.5595 132.121C83.2004 130.97 82.0762 129.106 80.276 126.762C80.0314 126.444 80.0913 125.988 80.4096 125.743C80.728 125.499 81.1842 125.559 81.4288 125.877L81.6366 126.149C83.4126 128.492 84.5408 130.386 84.947 131.687C85.4705 133.364 84.7148 134.464 83.0867 134.047C82.2081 133.812 81.0221 132.795 79.4657 131.118C79.1614 130.79 78.8473 130.441 78.525 130.073C77.7925 129.236 77.0512 128.341 76.338 127.446L76.1295 127.183C76.0618 127.098 75.9959 127.014 75.932 126.933L75.4034 126.25C75.161 125.93 75.2238 125.474 75.5437 125.232Z" fill="#6A6AF4"/>
<path fill-rule="evenodd" clip-rule="evenodd" d="M384.83 147.567C385.299 147.567 385.678 147.947 385.678 148.415C385.678 148.868 385.324 149.237 384.877 149.262L384.83 149.263H1.14531C0.677003 149.263 0.297363 148.883 0.297363 148.415C0.297363 147.962 0.652116 147.592 1.09879 147.568L1.14531 147.567H384.83Z" fill="#6A6AF4"/>
</svg>
