<svg width="36" height="49" viewBox="0 0 36 49" fill="none" xmlns="http://www.w3.org/2000/svg">
<path d="M18.7999 5.40039C19.2418 5.40039 19.5999 5.75856 19.5999 6.20039C19.5999 6.61066 19.2911 6.9488 18.8932 6.99501L18.7999 7.00039H5.99995C5.55812 7.00039 5.19995 6.64222 5.19995 6.20039C5.19995 5.79012 5.50878 5.45198 5.90665 5.40577L5.99995 5.40039H18.7999Z" fill="#E1000F"/>
<path d="M26.7999 10.2004C27.2418 10.2004 27.5999 10.5586 27.5999 11.0004C27.5999 11.4107 27.2911 11.7488 26.8932 11.795L26.7999 11.8004H5.99995C5.55812 11.8004 5.19995 11.4422 5.19995 11.0004C5.19995 10.5901 5.50878 10.252 5.90665 10.2058L5.99995 10.2004H26.7999Z" fill="#E1000F"/>
<path d="M22.7999 15.8004C22.7999 15.3586 22.4418 15.0004 21.9999 15.0004H5.99995L5.90665 15.0058C5.50878 15.052 5.19995 15.3901 5.19995 15.8004C5.19995 16.2422 5.55812 16.6004 5.99995 16.6004H21.9999L22.0932 16.595C22.4911 16.5488 22.7999 16.2107 22.7999 15.8004Z" fill="#E1000F"/>
<path d="M26.8 19.7996C27.2418 19.7996 27.6 20.1578 27.6 20.5996C27.6 21.0099 27.2912 21.348 26.8933 21.3942L26.8 21.3996H6.00002C5.5582 21.3996 5.20002 21.0414 5.20002 20.5996C5.20002 20.1893 5.50886 19.8512 5.90673 19.805L6.00002 19.7996H26.8Z" fill="#000091"/>
<path d="M27.6 30.1996C27.6 29.7578 27.2418 29.3996 26.8 29.3996H6.00002L5.90673 29.405C5.50886 29.4512 5.20002 29.7893 5.20002 30.1996C5.20002 30.6414 5.5582 30.9996 6.00002 30.9996H26.8L26.8933 30.9942C27.2912 30.948 27.6 30.6099 27.6 30.1996Z" fill="#000091"/>
<path d="M22.8 25.3996C22.8 24.9578 22.4419 24.5996 22 24.5996H6.00002L5.90673 24.605C5.50886 24.6512 5.20002 24.9893 5.20002 25.3996C5.20002 25.8414 5.5582 26.1996 6.00002 26.1996H22L22.0933 26.1942C22.4912 26.148 22.8 25.8099 22.8 25.3996Z" fill="#000091"/>
<path d="M22 38.9996C22.4419 38.9996 22.8 39.3578 22.8 39.7996C22.8 40.2099 22.4912 40.548 22.0933 40.5942L22 40.5996H6.00002C5.5582 40.5996 5.20002 40.2414 5.20002 39.7996C5.20002 39.3893 5.50886 39.0512 5.90673 39.005L6.00002 38.9996H22Z" fill="#000091"/>
<path d="M18 34.9996C18 34.5578 17.6419 34.1996 17.2 34.1996H6.00002L5.90673 34.205C5.50886 34.2512 5.20002 34.5893 5.20002 34.9996C5.20002 35.4414 5.5582 35.7996 6.00002 35.7996H17.2L17.2933 35.7942C17.6912 35.748 18 35.4099 18 34.9996Z" fill="#000091"/>
<path fill-rule="evenodd" clip-rule="evenodd" d="M1.20002 0.599609H31.6C32.0418 0.599609 32.4 0.957782 32.4 1.39961V44.5996C32.4 45.0414 32.0418 45.3996 31.6 45.3996H1.20002C0.758197 45.3996 0.400024 45.0414 0.400024 44.5996V1.39961C0.400024 0.957782 0.758197 0.599609 1.20002 0.599609ZM30.8 43.7996V2.19961H2.00002V43.7996H30.8Z" fill="#000091"/>
<path d="M34.8 6.99961C35.2103 6.99961 35.5484 7.30844 35.5946 7.70631L35.6 7.79961V47.7996C35.6 48.2099 35.2912 48.548 34.8933 48.5942L34.8 48.5996H7.60002C7.1582 48.5996 6.80002 48.2414 6.80002 47.7996C6.80002 47.3893 7.10886 47.0512 7.50673 47.005L7.60002 46.9996H34V7.79961C34 7.38934 34.3089 7.0512 34.7067 7.00499L34.8 6.99961Z" fill="#000091"/>
</svg>
