<svg width="120" height="120" viewBox="0 0 120 120" fill="none" xmlns="http://www.w3.org/2000/svg">
<path fill-rule="evenodd" clip-rule="evenodd" d="M22.5 21C21.6729 21 21 20.3271 21 19.5C21 18.6728 21.6729 18 22.5 18C23.3271 18 24 18.6728 24 19.5C24 20.3271 23.3271 21 22.5 21Z" fill="#CACAFB"/>
<path fill-rule="evenodd" clip-rule="evenodd" d="M7.5 105C6.6729 105 6 104.327 6 103.5C6 102.673 6.6729 102 7.5 102C8.3271 102 9 102.673 9 103.5C9 104.327 8.3271 105 7.5 105Z" fill="#CACAFB"/>
<path fill-rule="evenodd" clip-rule="evenodd" d="M112.5 96C111.673 96 111 95.3271 111 94.5C111 93.6728 111.673 93 112.5 93C113.327 93 114 93.6728 114 94.5C114 95.3271 113.327 96 112.5 96Z" fill="#CACAFB"/>
<path fill-rule="evenodd" clip-rule="evenodd" d="M88.5 18C87.6729 18 87 17.3271 87 16.5C87 15.6728 87.6729 15 88.5 15C89.3271 15 90 15.6728 90 16.5C90 17.3271 89.3271 18 88.5 18Z" fill="#CACAFB"/>
<path d="M21.0095 56.4032C21.1294 55.0175 22.3633 54 23.7857 54H28.5L28.6749 54.0101C29.4209 54.0967 30 54.7307 30 55.5L29.9899 55.6749C29.9033 56.4209 29.2693 57 28.5 57H24V63H28.5L28.6749 63.0101C29.4209 63.0967 30 63.7307 30 64.5C30 65.3284 29.3284 66 28.5 66H23.7857L23.5628 65.9916C22.1628 65.8863 21 64.7977 21 63.375V56.625L21.0095 56.4032Z" fill="#E4794A"/>
<path d="M41.9905 56.4032C41.8706 55.0175 40.6367 54 39.2143 54H34.5L34.3251 54.0101C33.5791 54.0967 33 54.7307 33 55.5L33.0101 55.6749C33.0967 56.4209 33.7307 57 34.5 57H39V63H34.5L34.3251 63.0101C33.5791 63.0967 33 63.7307 33 64.5C33 65.3284 33.6716 66 34.5 66H39.2143L39.4372 65.9916C40.8372 65.8863 42 64.7977 42 63.375V56.625L41.9905 56.4032Z" fill="#E4794A"/>
<path d="M96.2143 54C97.6367 54 98.8706 55.0175 98.9905 56.4032L99 56.625V63.375C99 64.7977 97.8372 65.8863 96.4372 65.9916L96.2143 66H91.5C90.6716 66 90 65.3284 90 64.5C90 63.7307 90.5791 63.0967 91.3251 63.0101L91.5 63H96V57H91.5C90.7307 57 90.0967 56.4209 90.0101 55.6749L90 55.5C90 54.7307 90.5791 54.0967 91.3251 54.0101L91.5 54H96.2143Z" fill="#E4794A"/>
<path d="M78.0095 56.4032C78.1294 55.0175 79.3633 54 80.7857 54H85.5L85.6749 54.0101C86.4209 54.0967 87 54.7307 87 55.5L86.9899 55.6749C86.9033 56.4209 86.2693 57 85.5 57H81V63H85.5L85.6749 63.0101C86.4209 63.0967 87 63.7307 87 64.5C87 65.3284 86.3284 66 85.5 66H80.7857L80.5628 65.9916C79.1628 65.8863 78 64.7977 78 63.375V56.625L78.0095 56.4032Z" fill="#E4794A"/>
<path fill-rule="evenodd" clip-rule="evenodd" d="M21 72C19.3431 72 18 73.3431 18 75V84C18 85.6569 19.3431 87 21 87H27C28.6569 87 30 85.6569 30 84V75C30 73.3431 28.6569 72 27 72H21ZM27 84V75H21V84H27Z" fill="#E4794A"/>
<path fill-rule="evenodd" clip-rule="evenodd" d="M36 72C34.3431 72 33 73.3431 33 75V84C33 85.6569 34.3431 87 36 87H42C43.6569 87 45 85.6569 45 84V75C45 73.3431 43.6569 72 42 72H36ZM42 84V75H36V84H42Z" fill="#E4794A"/>
<path fill-rule="evenodd" clip-rule="evenodd" d="M78 72C76.3431 72 75 73.3431 75 75V84C75 85.6569 76.3431 87 78 87H84C85.6569 87 87 85.6569 87 84V75C87 73.3431 85.6569 72 84 72H78ZM84 84V75H78V84H84Z" fill="#E4794A"/>
<path fill-rule="evenodd" clip-rule="evenodd" d="M93 72C91.3431 72 90 73.3431 90 75V84C90 85.6569 91.3431 87 93 87H99C100.657 87 102 85.6569 102 84V75C102 73.3431 100.657 72 99 72H93ZM99 84V75H93V84H99Z" fill="#E4794A"/>
<path d="M53.5607 18.4393C52.9749 17.8536 52.0251 17.8536 51.4393 18.4393L30.4393 39.4393L30.3146 39.5807C29.857 40.1691 29.8986 41.0199 30.4393 41.5607C31.0251 42.1464 31.9749 42.1464 32.5607 41.5607L53.5607 20.5607L53.6854 20.4193C54.143 19.8309 54.1014 18.9801 53.5607 18.4393Z" fill="#000091"/>
<path d="M60.8773 21.2831C60.3026 20.8679 59.5014 20.9094 58.972 21.4077L42.9272 36.5086L42.7982 36.6461C42.3231 37.2204 42.3389 38.0721 42.863 38.629L43.0004 38.758C43.5748 39.2331 44.4265 39.2173 44.9833 38.6932L59.9985 24.5595L84.0388 47.1846L84.2307 47.3505C84.759 47.7696 85.4156 48 86.0949 48H100.5L100.675 47.9899C101.421 47.9033 102 47.2693 102 46.5C102 45.6716 101.328 45 100.5 45H86.0949L61.028 21.4077L60.8773 21.2831Z" fill="#000091"/>
<path d="M106.5 45C105.731 45 105.097 45.5791 105.01 46.3251L105 46.5V96H91.5C90.7307 96 90.0967 96.5791 90.0101 97.3251L90 97.5C90 98.2693 90.5791 98.9033 91.3251 98.9899L91.5 99H106.5C107.269 99 107.903 98.4209 107.99 97.6749L108 97.5V46.5C108 45.6716 107.328 45 106.5 45Z" fill="#000091"/>
<path d="M31.5 96C32.3284 96 33 96.6716 33 97.5C33 98.2693 32.4209 98.9033 31.6749 98.9899L31.5 99H19.5C18.6716 99 18 98.3284 18 97.5C18 96.7307 18.5791 96.0967 19.3251 96.0101L19.5 96H31.5Z" fill="#000091"/>
<path d="M15 97.5C15 98.3284 14.3284 99 13.5 99C12.6716 99 12 98.3284 12 97.5C12 96.6716 12.6716 96 13.5 96C14.3284 96 15 96.6716 15 97.5Z" fill="#000091"/>
<path fill-rule="evenodd" clip-rule="evenodd" d="M78 91.5C78 90.6716 77.3284 90 76.5 90H72V67.5L71.9899 67.3251C71.9033 66.5791 71.2693 66 70.5 66H49.5L49.3251 66.0101C48.5791 66.0967 48 66.7307 48 67.5V90H43.5L43.3251 90.0101C42.5791 90.0967 42 90.7307 42 91.5C42 92.3284 42.6716 93 43.5 93H76.5L76.6749 92.9899C77.4209 92.9033 78 92.2693 78 91.5ZM61.5 76.5V90H69V68.9985H51V90H58.5V76.5C58.5 75.6716 59.1716 75 60 75C60.7693 75 61.4033 75.5791 61.4899 76.3251L61.5 76.5Z" fill="#000091"/>
<path d="M61.5 45C62.3284 45 63 45.6716 63 46.5C63 47.2693 62.4209 47.9033 61.6749 47.9899L61.5 48H58.5C57.7307 48 57.0967 47.4209 57.0101 46.6749C57.0034 46.6175 57 46.5592 57 46.5V43.5C57 42.6716 57.6716 42 58.5 42C59.2693 42 59.9033 42.5791 59.9899 43.3251L60 43.5V45H61.5Z" fill="#000091"/>
<path fill-rule="evenodd" clip-rule="evenodd" d="M51 45C51 40.0294 55.0294 36 60 36C64.9706 36 69 40.0294 69 45C69 49.9706 64.9706 54 60 54C55.0294 54 51 49.9706 51 45ZM60 39C63.3137 39 66 41.6863 66 45C66 48.3137 63.3137 51 60 51C56.6863 51 54 48.3137 54 45C54 41.6863 56.6863 39 60 39Z" fill="#000091"/>
<path d="M69 61.5C69 60.6716 68.3284 60 67.5 60H52.5L52.3251 60.0101C51.5791 60.0967 51 60.7307 51 61.5C51 62.3284 51.6716 63 52.5 63H67.5L67.6749 62.9899C68.4209 62.9033 69 62.2693 69 61.5Z" fill="#000091"/>
<path d="M84 97.5C84 96.6716 83.3284 96 82.5 96H37.5L37.3251 96.0101C36.5791 96.0967 36 96.7307 36 97.5C36 98.3284 36.6716 99 37.5 99H82.5L82.6749 98.9899C83.4209 98.9033 84 98.2693 84 97.5Z" fill="#000091"/>
<path d="M36.4393 42.4393C37.0251 41.8536 37.9749 41.8536 38.5607 42.4393C39.1014 42.9801 39.143 43.8309 38.6854 44.4193L38.5607 44.5607L35.5607 47.5607C35.3262 47.7951 35.0222 47.9439 34.6972 47.987L34.5 48H15V91.5C15 92.2693 14.4209 92.9033 13.6749 92.9899L13.5 93C12.7307 93 12.0967 92.4209 12.0101 91.6749L12 91.5V46.5C12 45.7307 12.5791 45.0967 13.3251 45.0101L13.5 45H33.876L36.4393 42.4393Z" fill="#000091"/>
<path d="M100.5 39C101.328 39 102 39.6716 102 40.5C102 41.2693 101.421 41.9033 100.675 41.9899L100.5 42H88.5C87.6716 42 87 41.3284 87 40.5C87 39.7307 87.5791 39.0967 88.3251 39.0101L88.5 39H100.5Z" fill="#000091"/>
<path d="M106.5 42C107.328 42 108 41.3284 108 40.5C108 39.6716 107.328 39 106.5 39C105.672 39 105 39.6716 105 40.5C105 41.3284 105.672 42 106.5 42Z" fill="#000091"/>
</svg>
