<svg width="161" height="160" viewBox="0 0 161 160" fill="none" xmlns="http://www.w3.org/2000/svg">
<path fill-rule="evenodd" clip-rule="evenodd" d="M146.5 35.9995C145.397 35.9995 144.5 35.1023 144.5 33.9995C144.5 32.8966 145.397 31.9995 146.5 31.9995C147.603 31.9995 148.5 32.8966 148.5 33.9995C148.5 35.1023 147.603 35.9995 146.5 35.9995Z" fill="#CACAFB"/>
<path fill-rule="evenodd" clip-rule="evenodd" d="M14.5 35.9995C13.3972 35.9995 12.5 35.1023 12.5 33.9995C12.5 32.8966 13.3972 31.9995 14.5 31.9995C15.6028 31.9995 16.5 32.8966 16.5 33.9995C16.5 35.1023 15.6028 35.9995 14.5 35.9995Z" fill="#CACAFB"/>
<path fill-rule="evenodd" clip-rule="evenodd" d="M22.5 136C21.3972 136 20.5 135.102 20.5 134C20.5 132.897 21.3972 132 22.5 132C23.6028 132 24.5 132.897 24.5 134C24.5 135.102 23.6028 136 22.5 136Z" fill="#CACAFB"/>
<path fill-rule="evenodd" clip-rule="evenodd" d="M38.5 11.9995C37.3972 11.9995 36.5 11.1023 36.5 9.99951C36.5 8.89662 37.3972 7.99951 38.5 7.99951C39.6028 7.99951 40.5 8.89662 40.5 9.99951C40.5 11.1023 39.6028 11.9995 38.5 11.9995Z" fill="#CACAFB"/>
<path fill-rule="evenodd" clip-rule="evenodd" d="M110.5 156C109.397 156 108.5 155.102 108.5 154C108.5 152.897 109.397 152 110.5 152C111.603 152 112.5 152.897 112.5 154C112.5 155.102 111.603 156 110.5 156Z" fill="#CACAFB"/>
<path d="M108.573 81.463C108.87 80.3989 109.972 79.7765 111.036 80.0728C115.716 81.3757 119.303 85.0456 120.252 89.596C120.478 90.6773 119.784 91.7367 118.703 91.9624C117.622 92.1881 116.562 91.4945 116.337 90.4132C115.7 87.3603 113.233 84.8366 109.964 83.9262C108.899 83.6299 108.277 82.5271 108.573 81.463Z" fill="#7B7B7B"/>
<path fill-rule="evenodd" clip-rule="evenodd" d="M88.5 91.9995C88.5 80.9692 97.47 71.9995 108.5 71.9995C119.53 71.9995 128.5 80.9692 128.5 91.9995C128.5 97.1318 126.558 101.818 123.37 105.362L135.16 125.784C136.817 128.654 135.834 132.323 132.964 133.98C130.197 135.578 126.686 134.721 124.953 132.084L124.768 131.784L113.045 111.479C111.584 111.819 110.063 112 108.5 112C97.4702 112 88.5 103.029 88.5 91.9995ZM116.897 110.151L128.232 129.784C128.784 130.741 130.008 131.068 130.964 130.516C131.852 130.003 132.198 128.912 131.801 127.993L131.696 127.784L120.338 108.112C119.267 108.9 118.115 109.585 116.897 110.151ZM124.5 91.9995C124.5 83.1783 117.321 75.9995 108.5 75.9995C99.6791 75.9995 92.5 83.1783 92.5 91.9995C92.5 100.82 99.6794 108 108.5 108C117.321 108 124.5 100.82 124.5 91.9995Z" fill="#7B7B7B"/>
<path d="M138.487 35.7663C138.371 34.7716 137.526 33.9995 136.5 33.9995H28.5L28.2668 34.013C27.2721 34.1285 26.5 34.9738 26.5 35.9995V128L26.5135 128.233C26.629 129.227 27.4743 130 28.5 130H112.5L112.733 129.986C113.728 129.871 114.5 129.025 114.5 128L114.487 127.766C114.371 126.772 113.526 126 112.5 126H30.5V53.9995H104.5L104.733 53.9861C105.728 53.8705 106.5 53.0252 106.5 51.9995C106.5 50.8949 105.605 49.9995 104.5 49.9995H30.5V37.9995H134.5V49.9995H116.5L116.267 50.013C115.272 50.1285 114.5 50.9738 114.5 51.9995C114.5 53.1041 115.395 53.9995 116.5 53.9995H134.5V112L134.513 112.233C134.629 113.227 135.474 114 136.5 114C137.605 114 138.5 113.104 138.5 112V35.9995L138.487 35.7663Z" fill="#BBBBBB"/>
<path d="M36.5 45.9995C35.3972 45.9995 34.5 45.1023 34.5 43.9995C34.5 42.8966 35.3972 41.9995 36.5 41.9995C37.6028 41.9995 38.5 42.8966 38.5 43.9995C38.5 45.1023 37.6028 45.9995 36.5 45.9995Z" fill="#BBBBBB"/>
<path d="M42.5 43.9995C42.5 45.1023 43.3972 45.9995 44.5 45.9995C45.6028 45.9995 46.5 45.1023 46.5 43.9995C46.5 42.8966 45.6028 41.9995 44.5 41.9995C43.3972 41.9995 42.5 42.8966 42.5 43.9995Z" fill="#BBBBBB"/>
<path d="M52.5 45.9995C51.3972 45.9995 50.5 45.1023 50.5 43.9995C50.5 42.8966 51.3972 41.9995 52.5 41.9995C53.6028 41.9995 54.5 42.8966 54.5 43.9995C54.5 45.1023 53.6028 45.9995 52.5 45.9995Z" fill="#BBBBBB"/>
<path d="M128.5 41.9995C129.605 41.9995 130.5 42.8949 130.5 43.9995C130.5 45.0252 129.728 45.8705 128.733 45.9861L128.5 45.9995H68.5C67.3954 45.9995 66.5 45.1041 66.5 43.9995C66.5 42.9738 67.2721 42.1285 68.2668 42.013L68.5 41.9995H128.5Z" fill="#BBBBBB"/>
<path d="M82.5 67.9995C82.5 66.8949 81.6046 65.9995 80.5 65.9995H44.5L44.2668 66.013C43.2721 66.1285 42.5 66.9738 42.5 67.9995C42.5 69.1041 43.3954 69.9995 44.5 69.9995H80.5L80.7332 69.9861C81.7279 69.8705 82.5 69.0252 82.5 67.9995Z" fill="#BBBBBB"/>
<path d="M72.5 77.9995C73.6046 77.9995 74.5 78.8949 74.5 79.9995C74.5 81.0252 73.7279 81.8705 72.7332 81.9861L72.5 81.9995H44.5C43.3954 81.9995 42.5 81.1041 42.5 79.9995C42.5 78.9738 43.2721 78.1285 44.2668 78.013L44.5 77.9995H72.5Z" fill="#BBBBBB"/>
<path d="M70.5 91.9995C70.5 90.8949 69.6046 89.9995 68.5 89.9995H44.5L44.2668 90.013C43.2721 90.1285 42.5 90.9738 42.5 91.9995C42.5 93.1041 43.3954 93.9995 44.5 93.9995H68.5L68.7332 93.9861C69.7279 93.8705 70.5 93.0252 70.5 91.9995Z" fill="#BBBBBB"/>
</svg>
