<svg width="229" height="89" viewBox="0 0 229 89" fill="none" xmlns="http://www.w3.org/2000/svg">
<path fill-rule="evenodd" clip-rule="evenodd" d="M105.993 8.59489C104.919 8.60934 103.873 8.71048 102.856 8.8983L106.193 27.9842L99.7915 46.261C101.911 47.0123 104.145 47.3879 106.394 47.3735C116.935 47.2579 125.513 38.4157 125.413 27.7819C125.299 17.1481 116.534 8.47931 105.993 8.59489Z" fill="#465F9D"/>
<path fill-rule="evenodd" clip-rule="evenodd" d="M82.9634 28.6749C83.0493 36.7803 88.1622 44.0043 95.7241 46.735L102.183 28.4727L82.9634 28.6749Z" fill="#FAA184"/>
<path fill-rule="evenodd" clip-rule="evenodd" d="M97.8151 5.37109C93.3324 6.16574 89.2793 8.54967 86.372 12.075C83.4647 15.6148 81.8893 20.0648 81.9466 24.6592L101.166 24.457L97.8151 5.37109Z" fill="#E4794A"/>
<path fill-rule="evenodd" clip-rule="evenodd" d="M117.25 9.0714C118.231 9.0714 119.026 8.26929 119.026 7.27984C119.026 6.29039 118.231 5.48828 117.25 5.48828C116.269 5.48828 115.474 6.29039 115.474 7.27984C115.474 8.26929 116.269 9.0714 117.25 9.0714Z" fill="#465F9D"/>
<path fill-rule="evenodd" clip-rule="evenodd" d="M84.1521 44.2667C85.1329 44.2667 85.928 43.4646 85.928 42.4752C85.928 41.4857 85.1329 40.6836 84.1521 40.6836C83.1713 40.6836 82.3762 41.4857 82.3762 42.4752C82.3762 43.4646 83.1713 44.2667 84.1521 44.2667Z" fill="#FAA184"/>
<path fill-rule="evenodd" clip-rule="evenodd" d="M82.3762 12.7706C83.357 12.7706 84.1521 11.9685 84.1521 10.9791C84.1521 9.98961 83.357 9.1875 82.3762 9.1875C81.3954 9.1875 80.6003 9.98961 80.6003 10.9791C80.6003 11.9685 81.3954 12.7706 82.3762 12.7706Z" fill="#E4794A"/>
<path fill-rule="evenodd" clip-rule="evenodd" d="M135.911 5.73047C136.148 5.73047 136.341 5.92453 136.341 6.16391C136.341 6.39474 136.162 6.58343 135.936 6.59662L135.911 6.59735H120.601C120.364 6.59735 120.171 6.40329 120.171 6.16391C120.171 5.93308 120.35 5.74439 120.576 5.7312L120.601 5.73047H135.911Z" fill="#465F9D"/>
<path fill-rule="evenodd" clip-rule="evenodd" d="M125.17 7.94141C125.407 7.94141 125.599 8.13546 125.599 8.37485C125.599 8.60568 125.42 8.79437 125.195 8.80755L125.17 8.80829H120.601C120.364 8.80829 120.171 8.61423 120.171 8.37485C120.171 8.14401 120.35 7.95533 120.576 7.94214L120.601 7.94141H125.17Z" fill="#465F9D"/>
<path fill-rule="evenodd" clip-rule="evenodd" d="M205.486 48.9706C198.841 38.5969 191.594 34.0313 188.83 32.5721C188.801 29.7836 186.496 27.2841 179.779 26.0849C164.741 23.282 160.931 27.3996 160.058 31.4451L148.887 31.2139L134.608 25.7237L127.848 32.9333C126.573 34.667 126.702 39.7383 131.171 44.0583C134.293 47.0779 145.464 54.5186 151.937 58.7519L152.567 88.1104L200.015 88.3993L197.781 76.6675C198.984 76.6097 198.64 76.5808 198.998 76.5664C209.482 76.2341 213.893 62.1328 205.486 48.9706Z" fill="#E4794A"/>
<path fill-rule="evenodd" clip-rule="evenodd" d="M159.914 36.1971C159.871 35.0413 159.671 33.2497 160.058 31.4437L154.501 31.3281C154.558 33.4086 155.231 39.6502 161.089 40.9505C160.502 39.708 160 38.1765 159.914 36.1971Z" fill="#2F4077"/>
<path fill-rule="evenodd" clip-rule="evenodd" d="M194.516 36.4279C192.052 34.4197 190.019 33.206 188.83 32.5703C188.873 36.6447 184.061 41.3692 181.039 43.6953C181.196 43.7242 181.354 43.7387 181.526 43.7531C185.393 44.0132 194.573 38.783 196.134 37.8872C195.633 37.4682 195.089 36.9625 194.516 36.4279Z" fill="#2F4077"/>
<path fill-rule="evenodd" clip-rule="evenodd" d="M195.941 52.2648C197.546 52.0021 199.28 52.2889 201.124 53.2192C201.336 53.3263 201.422 53.5866 201.316 53.8008C201.21 54.0149 200.952 54.1016 200.74 53.9946C199.054 53.1442 197.503 52.8875 196.078 53.1205C194.944 53.3062 193.934 53.7945 193.052 54.4944C192.649 54.8148 192.3 55.1584 192.007 55.5011C191.92 55.6031 191.844 55.6984 191.778 55.7851L191.718 55.8667C191.709 55.8786 191.702 55.8892 191.695 55.8986L191.667 55.94C191.536 56.14 191.27 56.1956 191.072 56.0641C190.873 55.9325 190.818 55.6638 190.949 55.4638L190.979 55.4185C191.056 55.3052 191.182 55.1387 191.356 54.9352C191.683 54.5522 192.072 54.1701 192.521 53.8133C193.51 53.0276 194.652 52.4758 195.941 52.2648Z" fill="#2F4077"/>
<path fill-rule="evenodd" clip-rule="evenodd" d="M185.503 49.1387C185.703 49.0286 185.953 49.0966 186.072 49.2895L186.156 49.4389C186.167 49.4583 186.179 49.4786 186.191 49.5C186.28 49.6536 186.383 49.8252 186.5 50.0102C186.833 50.539 187.206 51.0677 187.605 51.5594C188.734 52.9469 189.849 53.751 190.806 53.7146L190.851 53.7122L190.873 53.7103L190.938 53.6203C190.996 53.5406 191.066 53.4508 191.146 53.3523L191.182 53.308C191.526 52.8894 191.94 52.4718 192.423 52.082C194.452 50.4474 197.027 49.7945 200.12 50.6922C200.348 50.7584 200.479 50.9986 200.414 51.2286C200.348 51.4587 200.11 51.5915 199.882 51.5253C197.074 50.7101 194.782 51.2913 192.96 52.7593C192.524 53.1103 192.152 53.4864 191.843 53.8616C191.751 53.9733 191.671 54.0776 191.603 54.1725L191.569 54.2192C191.537 54.2656 191.513 54.3009 191.498 54.3236L191.487 54.342C191.423 54.4456 191.32 54.5174 191.201 54.5399C191.104 54.5584 191.006 54.5708 190.907 54.5773C189.578 54.6649 188.25 53.7178 186.941 52.1093C186.517 51.5882 186.126 51.0318 185.775 50.4755L185.685 50.3321C185.613 50.2148 185.546 50.1034 185.485 49.9988L185.398 49.8473C185.367 49.7938 185.345 49.7531 185.33 49.7266C185.217 49.5163 185.294 49.2531 185.503 49.1387Z" fill="#2F4077"/>
<path fill-rule="evenodd" clip-rule="evenodd" d="M163.624 42.7023C163.923 42.6331 164.221 42.8132 164.304 43.1073L164.312 43.1429L164.355 43.3382L164.41 43.5981C164.424 43.6676 164.439 43.7403 164.454 43.8163L164.469 43.8933C164.587 44.4867 164.705 45.141 164.814 45.8376C165.057 47.379 165.227 48.9023 165.29 50.3312C165.341 51.4651 165.322 52.5033 165.224 53.4262C165.191 53.7435 164.909 53.9733 164.594 53.9394C164.279 53.9055 164.052 53.6207 164.085 53.3033C164.176 52.444 164.194 51.4625 164.146 50.383C164.084 49.0023 163.919 47.5207 163.683 46.0191C163.576 45.3383 163.461 44.699 163.346 44.12L163.302 43.902C163.283 43.8094 163.265 43.7226 163.248 43.6418L163.194 43.395C163.123 43.0839 163.316 42.7738 163.624 42.7023Z" fill="#2F4077"/>
<path fill-rule="evenodd" clip-rule="evenodd" d="M179.267 43.0766C179.544 43.2104 179.665 43.5386 179.548 43.8206L179.394 44.153L179.288 44.3872C179.203 44.5767 179.112 44.783 179.016 45.0044C178.624 45.9086 178.231 46.8771 177.865 47.8698C177.487 48.8952 177.16 49.8886 176.896 50.8273C176.561 52.0221 176.341 53.0951 176.253 54.0124C176.222 54.3301 175.942 54.5628 175.627 54.5321C175.313 54.5014 175.082 54.219 175.112 53.9013C175.208 52.9067 175.442 51.7689 175.794 50.5126C176.066 49.5419 176.403 48.5197 176.791 47.4669C177.165 46.4523 177.566 45.4641 177.966 44.541L178.09 44.2585C178.17 44.076 178.247 43.9052 178.318 43.7471L178.444 43.4742L178.503 43.3475C178.64 43.0597 178.982 42.9385 179.267 43.0766Z" fill="#2F4077"/>
<path fill-rule="evenodd" clip-rule="evenodd" d="M182.027 31.3867L183.946 33.3661C183.946 33.3661 174.838 40.3589 171.873 57.1909C169.954 68.1281 170.598 69.3562 170.598 69.3562L164.956 69.0528C164.956 69.0528 168.106 50.8627 166.144 45.0979C164.182 39.3476 165.972 32.8748 167.304 31.8346C168.636 30.7943 182.027 31.3867 182.027 31.3867Z" fill="white"/>
<path fill-rule="evenodd" clip-rule="evenodd" d="M179.492 24.9609L180.022 29.4543L181.827 31.5492V31.5492C181.827 31.5492 176.485 34.8868 171.372 40.7527C171.372 40.7527 167.19 36.3027 166.459 29.3242L176.255 30.5523L177.029 26.6947L179.492 24.9609Z" fill="white"/>
<path fill-rule="evenodd" clip-rule="evenodd" d="M176.783 26.3396L176.759 26.3578C176.681 26.421 176.628 26.5098 176.608 26.6091L175.913 30.0729L166.512 28.8945C166.238 28.86 166.003 29.0925 166.032 29.3701C166.331 32.2285 167.208 34.8756 168.483 37.2675C169.043 38.3183 169.643 39.2497 170.245 40.0521C170.435 40.3059 170.613 40.5306 170.776 40.7253L170.881 40.8495C170.962 40.9445 171.023 41.012 171.06 41.0512C171.234 41.2362 171.528 41.2306 171.694 41.0392C171.901 40.8025 172.11 40.5676 172.321 40.3344C174.452 37.9808 176.736 35.8962 179.021 34.104C179.82 33.4772 180.561 32.9319 181.226 32.471L181.449 32.3176C181.568 32.2364 181.679 32.1622 181.78 32.0949L181.942 31.9888L182.053 31.9181L182.075 31.9029C182.281 31.7562 182.319 31.4599 182.151 31.2653L180.433 29.2708L179.919 24.9101C179.88 24.585 179.512 24.4185 179.246 24.6058L176.783 26.3396ZM179.15 25.7303L179.595 29.5058L179.6 29.5379C179.615 29.6122 179.648 29.6815 179.698 29.7389L181.178 31.4571L181.111 31.5023C180.995 31.5801 180.871 31.6649 180.739 31.7566C180.061 32.2268 179.306 32.7821 178.493 33.4197C176.173 35.2404 173.853 37.3574 171.686 39.7497L171.472 39.9875L171.375 40.0969L171.328 40.0396C171.204 39.8871 171.071 39.7169 170.93 39.5295C170.355 38.7612 169.778 37.8669 169.24 36.857L169.172 36.729C168.074 34.6356 167.293 32.3429 166.959 29.8844L166.951 29.823L176.202 30.9828L176.228 30.9852C176.441 30.9991 176.634 30.8522 176.677 30.6386L177.416 26.9511L179.15 25.7303Z" fill="#2F4077"/>
<path fill-rule="evenodd" clip-rule="evenodd" d="M181.082 18.8008C181.082 18.8008 184.491 18.873 183.875 21.936C183.259 24.999 179.507 23.2363 179.507 23.2363L180.008 18.8586L181.082 18.8008Z" fill="white"/>
<path fill-rule="evenodd" clip-rule="evenodd" d="M181.091 18.3672L181.059 18.3677L179.985 18.4255C179.776 18.4368 179.605 18.5986 179.581 18.8086L179.08 23.1863C179.059 23.3718 179.157 23.5502 179.325 23.629L179.383 23.6553C179.537 23.7238 179.767 23.8135 180.054 23.9026C180.622 24.0795 181.194 24.1829 181.74 24.1737C183.055 24.1515 184.004 23.472 184.296 22.0219C184.627 20.373 183.958 19.2829 182.686 18.7295C182.336 18.5774 181.966 18.4777 181.597 18.419L181.505 18.4051C181.326 18.3798 181.183 18.3691 181.091 18.3672ZM180.393 19.2717L181.086 19.2344L181.151 19.2384L181.171 19.24C181.258 19.247 181.357 19.2585 181.463 19.2754C181.766 19.3236 182.068 19.405 182.345 19.5257C183.266 19.9261 183.699 20.6309 183.454 21.8498C183.248 22.8714 182.662 23.2913 181.726 23.3071C181.283 23.3145 180.796 23.2266 180.307 23.0744L180.225 23.0483C180.144 23.0219 180.067 22.9948 179.993 22.9674L179.971 22.959L180.393 19.2717Z" fill="#2F4077"/>
<path fill-rule="evenodd" clip-rule="evenodd" d="M171.372 9.12156C170.469 9.04932 164.325 8.65923 163.652 13.8316C162.979 19.004 163.71 24.7255 164.268 27.3261C164.827 29.9268 176.614 28.7276 177.272 28.4964C177.931 28.2652 178.733 27.4706 178.733 27.4706L180.351 19.5242C180.351 19.5242 181.01 9.93065 171.372 9.12156Z" fill="white"/>
<path fill-rule="evenodd" clip-rule="evenodd" d="M169.859 8.66722C168.975 8.70948 168.11 8.84379 167.299 9.09623C165.043 9.79932 163.548 11.3052 163.226 13.7757C162.653 18.1792 163.035 23.6337 163.848 27.4184C164.157 28.8578 166.573 29.3905 170.491 29.4068L170.733 29.4071C173.36 29.4041 176.856 29.1018 177.414 28.9063C177.533 28.8644 177.656 28.8082 177.783 28.7391C177.969 28.6378 178.161 28.5102 178.357 28.362C178.491 28.2605 178.621 28.1537 178.745 28.0459L178.837 27.9649C178.927 27.8834 178.995 27.8191 179.034 27.7803C179.095 27.72 179.137 27.6427 179.154 27.5583L180.772 19.6119C180.776 19.593 180.779 19.5739 180.78 19.5546L180.784 19.4909C180.788 19.4021 180.791 19.2735 180.791 19.1095C180.79 18.7664 180.772 18.3838 180.731 17.9707C180.617 16.7902 180.345 15.596 179.872 14.459C178.512 11.1903 175.789 9.05797 171.407 8.69013C170.95 8.65347 170.452 8.63891 169.859 8.66722ZM171.338 9.55385C175.388 9.89383 177.84 11.8142 179.08 14.7942C179.517 15.8444 179.769 16.9555 179.876 18.0551C179.914 18.44 179.93 18.7953 179.931 19.1119L179.931 19.2173C179.931 19.251 179.93 19.2832 179.93 19.3138L179.927 19.4206C179.926 19.4391 179.925 19.4546 179.924 19.4676L178.34 27.249L178.332 27.2567C178.311 27.2759 178.289 27.2961 178.265 27.317C178.132 27.437 177.988 27.5569 177.841 27.668C177.677 27.7924 177.519 27.8972 177.374 27.9761C177.286 28.0243 177.204 28.0617 177.131 28.0872L177.101 28.0966C176.558 28.2522 173.214 28.5371 170.732 28.5399L170.521 28.5396C167.1 28.5245 164.861 28.0409 164.688 27.2345C163.895 23.5405 163.519 18.1833 164.078 13.8882C164.352 11.7859 165.594 10.5345 167.553 9.92419C168.287 9.69533 169.083 9.57185 169.9 9.53282C170.452 9.50645 170.915 9.51999 171.338 9.55385Z" fill="#2F4077"/>
<path fill-rule="evenodd" clip-rule="evenodd" d="M179.22 19.4531C178.647 20.0166 177.101 23.3108 176.728 24.8422C176.728 24.8422 172.919 23.5564 167.462 23.4697C167.462 23.4697 164.483 23.5275 163.294 23.8887C163.294 23.8887 163.552 29.3211 165.972 32.1241C168.393 34.927 173.491 34.1468 175.883 32.4564C178.275 30.766 178.676 29.9569 179.22 28.1509C179.779 26.3448 181.239 19.5976 181.239 19.5976L179.22 19.4531Z" fill="#869ECE"/>
<path fill-rule="evenodd" clip-rule="evenodd" d="M180.781 20.6231C180.781 20.6231 182.385 18.1236 183.001 15.5229C183.588 13.0812 182.457 10.5239 180.223 9.42584C178.346 8.51561 176.957 9.22356 176.957 9.22356C176.957 9.22356 178.948 5.81382 175.955 2.79418C174.909 1.72502 173.448 1.1471 171.959 1.19045C168.307 1.29158 167.19 4.41236 167.19 4.41236C167.19 4.41236 163.294 -2.82611 155.288 1.46496C154.486 1.8984 153.57 3.09759 153.14 3.90668C150.491 8.81902 159.213 14.6416 163.738 15.1039C168.722 15.6096 171.63 14.7716 173.234 13.5435C172.031 14.2659 173.377 21.7789 180.781 20.6231Z" fill="#2F4077"/>
<path fill-rule="evenodd" clip-rule="evenodd" d="M167.006 21.338C167.033 21.1001 167.246 20.9291 167.481 20.9559C167.709 20.9818 167.875 21.1822 167.862 21.4098L167.86 21.4352L167.4 25.5468L168.442 25.2727C168.663 25.2145 168.889 25.3414 168.959 25.5583L168.966 25.5827C169.024 25.8061 168.898 26.0342 168.683 26.1044L168.659 26.1115L167.012 26.545C166.728 26.6196 166.458 26.3925 166.474 26.102L166.476 26.077L167.006 21.338Z" fill="#2F4077"/>
<path fill-rule="evenodd" clip-rule="evenodd" d="M165.615 22.2253C165.883 22.2253 166.101 21.8889 166.101 21.474C166.101 21.059 165.883 20.7227 165.615 20.7227C165.346 20.7227 165.128 21.059 165.128 21.474C165.128 21.8889 165.346 22.2253 165.615 22.2253Z" fill="#2F4077"/>
<path fill-rule="evenodd" clip-rule="evenodd" d="M170.24 22.1393C170.509 22.1393 170.727 21.8029 170.727 21.388C170.727 20.9731 170.509 20.6367 170.24 20.6367C169.971 20.6367 169.753 20.9731 169.753 21.388C169.753 21.8029 169.971 22.1393 170.24 22.1393Z" fill="#2F4077"/>
<path fill-rule="evenodd" clip-rule="evenodd" d="M170.26 16.6684C171.03 16.547 171.695 16.744 172.236 17.144C172.386 17.2549 172.515 17.3738 172.624 17.4938C172.693 17.5689 172.741 17.6308 172.77 17.6729C172.906 17.8695 172.857 18.1396 172.662 18.2762C172.475 18.4077 172.219 18.3674 172.08 18.1886L172.053 18.1522C172.036 18.1312 172.016 18.1068 171.991 18.0799C171.918 17.9999 171.83 17.9188 171.728 17.8431C171.361 17.5719 170.921 17.4415 170.393 17.5249C170.158 17.5618 169.938 17.4 169.902 17.1635C169.865 16.927 170.026 16.7053 170.26 16.6684Z" fill="#2F4077"/>
<path fill-rule="evenodd" clip-rule="evenodd" d="M164.946 16.5984C165.248 16.5238 165.557 16.5253 165.848 16.571L165.91 16.5814C165.957 16.59 165.995 16.5985 166.023 16.6056C166.252 16.6654 166.391 16.9018 166.331 17.1336C166.274 17.3571 166.054 17.4947 165.832 17.4506L165.782 17.4392C165.766 17.4359 165.744 17.4318 165.716 17.4276C165.528 17.398 165.326 17.397 165.15 17.4404C164.913 17.4989 164.759 17.6254 164.676 17.8683L164.665 17.9021C164.596 18.1312 164.357 18.2608 164.129 18.1914C163.902 18.1221 163.774 17.8801 163.843 17.651C164.016 17.0743 164.418 16.7286 164.946 16.5984Z" fill="#2F4077"/>
<path fill-rule="evenodd" clip-rule="evenodd" d="M170.627 27.2542C170.298 27.572 169.782 27.9766 169.066 28.3089C169.066 28.3089 169.152 29.7537 170.799 29.2769C171.816 28.9879 171.687 28.0777 171.443 27.4275C171.3 27.0952 170.885 27.0085 170.627 27.2542Z" fill="#2F4077"/>
<path fill-rule="evenodd" clip-rule="evenodd" d="M136.553 34.2023C138.091 30.6743 137.219 26.8741 134.605 25.7144C131.991 24.5547 128.625 26.4746 127.087 30.0026C125.549 33.5306 126.421 37.3308 129.035 38.4905C131.649 39.6502 135.015 37.7303 136.553 34.2023Z" fill="#2F4077"/>
<path fill-rule="evenodd" clip-rule="evenodd" d="M120.73 27.1123C118.109 25.9131 117.737 27.2857 118.496 27.9792C119.455 28.8317 124.024 31.2445 124.024 31.2445C124.024 31.2445 120.329 30.97 119.384 33.0649C118.438 35.1599 119.427 35.3333 120.845 34.4086C122.248 33.4839 126.588 34.6831 126.588 34.6831L127.891 35.9834C127.891 35.9834 132.374 37.6161 133.72 32.5881C134.722 29.713 132.903 27.6614 132.903 27.6614C132.388 27.0256 130.583 24.3528 124.396 22.749C124.396 22.749 121.489 22.33 123.652 23.8326C124.21 24.2227 124.797 24.5406 125.356 24.8151" fill="white"/>
<path fill-rule="evenodd" clip-rule="evenodd" d="M123.622 22.2618C123.809 22.2609 124.007 22.2718 124.203 22.2906L124.307 22.3012C124.371 22.3082 124.422 22.3148 124.457 22.3198C124.473 22.3221 124.488 22.3252 124.503 22.3291C126.504 22.8476 128.177 23.5068 129.561 24.2788C130.627 24.873 131.479 25.5083 132.169 26.1754C132.399 26.3979 132.601 26.6144 132.79 26.8353L132.861 26.9183C132.903 26.9695 132.967 27.0479 133.029 27.1261L133.237 27.3871L133.266 27.4224C133.298 27.4614 133.337 27.5115 133.382 27.5724L133.428 27.6369C133.571 27.8394 133.713 28.0734 133.846 28.3371C134.486 29.6114 134.678 31.0772 134.153 32.6504L134.13 32.7163L134.111 32.7859C133.579 34.6978 132.56 35.8629 131.199 36.3758L131.139 36.398C130.191 36.7391 129.196 36.7375 128.263 36.5335C128.026 36.4817 127.849 36.4289 127.745 36.391C127.696 36.3732 127.651 36.3467 127.612 36.3128L127.589 36.2915L126.367 35.0725L126.223 35.0358L126.105 35.0067C125.811 34.9349 125.49 34.863 125.151 34.796C124.566 34.68 123.993 34.591 123.459 34.5398C122.33 34.4315 121.481 34.5066 121.078 34.7725C120.222 35.3307 119.495 35.5431 119.003 35.2384C118.414 34.8735 118.464 34.0571 118.993 32.8853C119.416 31.9469 120.302 31.3626 121.487 31.0524C121.767 30.9792 122.049 30.9241 122.329 30.8841L122.422 30.8713L122.26 30.7824C121.89 30.5789 121.525 30.3751 121.171 30.1749L120.834 29.983L120.438 29.7543C119.335 29.1121 118.566 28.6191 118.207 28.3004C117.644 27.7858 117.523 26.973 118.067 26.5059C118.607 26.0418 119.59 26.1149 120.907 26.7175C121.124 26.8164 121.219 27.0733 121.121 27.2913C121.023 27.5093 120.769 27.6058 120.553 27.507C119.507 27.0286 118.841 26.9791 118.624 27.1659C118.534 27.2436 118.565 27.458 118.78 27.6538C119.089 27.9288 119.887 28.4364 121.015 29.0888L121.259 29.2292L121.384 29.3007C121.867 29.5761 122.377 29.8602 122.893 30.1428L123.336 30.3844C123.54 30.495 123.731 30.598 123.906 30.6915L124.223 30.8604C124.629 31.0746 124.464 31.6883 124.018 31.6779L123.894 31.6715C123.235 31.6446 122.446 31.6971 121.703 31.8915C120.744 32.1424 120.072 32.5858 119.775 33.2444C119.566 33.708 119.458 34.0699 119.443 34.3153C119.434 34.4581 119.449 34.4972 119.453 34.4997C119.557 34.5644 119.994 34.4392 120.566 34.0735L120.61 34.0456C121.226 33.6394 122.227 33.5508 123.541 33.6768C124.106 33.731 124.705 33.8242 125.317 33.9454C125.624 34.0063 125.918 34.071 126.192 34.1362L126.308 34.1641C126.393 34.1851 126.472 34.2049 126.543 34.2232L126.701 34.265C126.762 34.2818 126.819 34.312 126.866 34.3533L126.89 34.3748L128.12 35.6025L128.136 35.6072C128.21 35.6295 128.295 35.6519 128.388 35.6735L128.445 35.6863C129.235 35.859 130.076 35.8603 130.85 35.5816C131.972 35.1777 132.817 34.2281 133.283 32.5552L133.305 32.475L133.315 32.4442C133.789 31.0834 133.631 29.8284 133.079 28.7288C132.967 28.5056 132.847 28.3084 132.728 28.14L132.681 28.0745C132.666 28.054 132.651 28.0349 132.637 28.017L132.607 27.9786L132.571 27.9357C132.555 27.9147 132.324 27.6228 132.216 27.4915L132.204 27.4776C132.014 27.2501 131.81 27.0294 131.574 26.8012C130.938 26.1857 130.146 25.5951 129.146 25.0375C127.861 24.3212 126.305 23.7028 124.441 23.2085L124.314 23.175L124.28 23.1708C124.233 23.1649 124.18 23.1591 124.122 23.1536C123.952 23.1373 123.782 23.1279 123.626 23.1287C123.579 23.1289 123.534 23.1302 123.492 23.1323L123.456 23.1344L123.481 23.1574C123.575 23.2407 123.698 23.3365 123.85 23.4437L123.896 23.4762C124.376 23.8111 124.903 24.11 125.544 24.4253C125.757 24.5302 125.846 24.7896 125.742 25.0048C125.638 25.22 125.381 25.3095 125.168 25.2047C124.49 24.8716 123.927 24.5522 123.408 24.1895L123.32 24.1274C122.572 23.5936 122.26 23.1723 122.485 22.7148C122.662 22.3536 123.038 22.2649 123.622 22.2618Z" fill="#2F4077"/>
<path fill-rule="evenodd" clip-rule="evenodd" d="M124.826 28.876C123.909 28.4281 120.057 27.2145 119.155 26.1164C118.252 25.0184 119.412 24.3682 122.706 25.8997" fill="white"/>
<path fill-rule="evenodd" clip-rule="evenodd" d="M119.28 24.5953C120.039 24.4556 121.288 24.7628 122.886 25.5058C123.102 25.606 123.196 25.8634 123.097 26.0809C122.997 26.2983 122.742 26.3933 122.526 26.2931C121.075 25.6184 119.977 25.3482 119.434 25.4481C119.371 25.4597 119.326 25.475 119.298 25.4897L119.289 25.4946L119.29 25.4974C119.292 25.5094 119.296 25.5264 119.304 25.5484L119.311 25.5659C119.342 25.6424 119.4 25.7357 119.485 25.8395C119.572 25.9456 119.71 26.0666 119.895 26.1972C120.354 26.5217 121.051 26.8738 121.976 27.2663L122.211 27.365C122.796 27.6047 124.751 28.3576 125.013 28.4856C125.227 28.59 125.316 28.8492 125.213 29.0647C125.113 29.2721 124.871 29.3633 124.663 29.2766L124.594 29.2453C124.229 29.0849 122.464 28.4047 121.885 28.1669L121.829 28.144C120.76 27.698 119.955 27.2984 119.402 26.9071C119.159 26.7357 118.966 26.5661 118.824 26.3928C118.181 25.6102 118.327 24.7706 119.28 24.5953Z" fill="#2F4077"/>
<path fill-rule="evenodd" clip-rule="evenodd" d="M126.287 27.2281C126.187 27.0981 119.871 25.2054 120.3 24.2951C120.644 23.5583 121.561 23.3416 125.055 24.6708L127.848 25.9133" fill="white"/>
<path fill-rule="evenodd" clip-rule="evenodd" d="M119.912 24.1106C120.442 22.9741 121.799 22.9891 125.008 24.1903L125.207 24.2653L125.228 24.2743L128.021 25.5168C128.238 25.6134 128.337 25.8693 128.241 26.0883C128.149 26.2995 127.91 26.3993 127.698 26.3196L127.674 26.31L124.895 25.0731L124.657 24.9835C122.097 24.0278 121.087 23.9492 120.754 24.3737L120.746 24.3838L120.761 24.3982C120.789 24.4262 120.826 24.4582 120.871 24.493L120.899 24.5143C121.135 24.6908 121.515 24.8993 122.015 25.1299C122.366 25.2916 122.77 25.4614 123.224 25.6399L123.562 25.7707C123.974 25.9285 124.369 26.0731 124.879 26.2538L126.11 26.6875L126.247 26.738C126.276 26.7489 126.302 26.7588 126.325 26.7681L126.368 26.7855C126.401 26.7993 126.429 26.8118 126.454 26.8243C126.527 26.8614 126.569 26.8882 126.626 26.962C126.772 27.151 126.738 27.4233 126.551 27.5703C126.406 27.6833 126.214 27.6893 126.066 27.6L126.055 27.5933L126.008 27.5737C125.976 27.5614 125.937 27.5464 125.889 27.5286L125.304 27.3213L124.67 27.0985C124.064 26.8842 123.618 26.7209 123.13 26.5325L122.911 26.4471C122.443 26.2633 122.025 26.0875 121.658 25.9184C121.108 25.6648 120.682 25.4308 120.387 25.2107C119.941 24.8769 119.717 24.5227 119.912 24.1106Z" fill="#2F4077"/>
<path fill-rule="evenodd" clip-rule="evenodd" d="M191.422 88.5028L135.682 88.4739L135.281 49.074L191.021 48.4961L191.422 88.5028Z" fill="white"/>
<path fill-rule="evenodd" clip-rule="evenodd" d="M191.017 48.0625L135.276 48.6404C135.039 48.6429 134.849 48.8389 134.851 49.0783L135.252 88.4781C135.255 88.7157 135.446 88.907 135.682 88.9071L191.422 88.936C191.661 88.9362 191.854 88.7394 191.852 88.4982L191.451 48.4916C191.448 48.2522 191.254 48.0601 191.017 48.0625ZM190.596 48.9336L190.988 88.0688L136.107 88.0405L135.715 49.5026L190.596 48.9336Z" fill="#2F4077"/>
<path fill-rule="evenodd" clip-rule="evenodd" d="M187.57 77.5075H140.938C140.694 77.5075 140.508 77.3197 140.508 77.0741C140.508 76.8284 140.694 76.6406 140.938 76.6406H187.57C187.813 76.6406 187.999 76.8284 187.999 77.0741C187.999 77.3197 187.813 77.5075 187.57 77.5075Z" fill="#869ECE"/>
<path fill-rule="evenodd" clip-rule="evenodd" d="M187.57 71.8903H140.938C140.694 71.8903 140.508 71.7025 140.508 71.4569C140.508 71.2113 140.694 71.0234 140.938 71.0234H187.57C187.813 71.0234 187.999 71.2113 187.999 71.4569C187.999 71.7025 187.813 71.8903 187.57 71.8903Z" fill="#869ECE"/>
<path fill-rule="evenodd" clip-rule="evenodd" d="M187.57 66.2692H140.938C140.694 66.2692 140.508 66.0814 140.508 65.8358C140.508 65.5902 140.694 65.4023 140.938 65.4023H187.57C187.813 65.4023 187.999 65.5902 187.999 65.8358C187.999 66.0814 187.813 66.2692 187.57 66.2692Z" fill="#869ECE"/>
<path fill-rule="evenodd" clip-rule="evenodd" d="M187.57 60.6481H140.938C140.694 60.6481 140.508 60.4603 140.508 60.2147C140.508 59.9691 140.694 59.7812 140.938 59.7812H187.57C187.813 59.7812 187.999 59.9691 187.999 60.2147C187.999 60.4603 187.813 60.6481 187.57 60.6481Z" fill="#869ECE"/>
<rect width="6.53042" height="25.6585" transform="matrix(0.999947 -0.0103155 0.010136 0.999949 166.635 56.6758)" fill="#465F9D"/>
<rect width="6.57339" height="16.4555" transform="matrix(0.999947 -0.0103155 0.010136 0.999949 177.766 65.8789)" fill="#E4794A"/>
<rect width="6.57338" height="16.4555" transform="matrix(0.999947 -0.0103155 0.010136 0.999949 155.698 65.8789)" fill="#E4794A"/>
<path fill-rule="evenodd" clip-rule="evenodd" d="M151.493 82.248L144.962 82.3203L144.862 74.4316L151.393 74.3594L151.493 82.248Z" fill="#E4794A"/>
<path fill-rule="evenodd" clip-rule="evenodd" d="M140.938 54.2461C141.167 54.2461 141.354 54.4265 141.367 54.6541L141.368 54.6795L141.367 81.8852H187.57C187.798 81.8852 187.985 82.0657 187.999 82.2932L187.999 82.3187C187.999 82.5495 187.82 82.7382 187.595 82.7514L187.57 82.7521H140.938C140.709 82.7521 140.522 82.5717 140.509 82.3441L140.508 82.3187V54.6795C140.508 54.4402 140.701 54.2461 140.938 54.2461Z" fill="#2F4077"/>
<path fill-rule="evenodd" clip-rule="evenodd" d="M149.774 83.5195C150.012 83.5195 150.204 83.7136 150.204 83.953C150.204 84.1838 150.025 84.3725 149.8 84.3857L149.774 84.3864H145.936C145.699 84.3864 145.507 84.1924 145.507 83.953C145.507 83.7221 145.685 83.5335 145.911 83.5203L145.936 83.5195H149.774Z" fill="#E4794A"/>
<path fill-rule="evenodd" clip-rule="evenodd" d="M161.017 83.5195C161.254 83.5195 161.447 83.7136 161.447 83.953C161.447 84.1838 161.268 84.3725 161.042 84.3857L161.017 84.3864H157.179C156.942 84.3864 156.749 84.1924 156.749 83.953C156.749 83.7221 156.928 83.5335 157.154 83.5203L157.179 83.5195H161.017Z" fill="#E4794A"/>
<path fill-rule="evenodd" clip-rule="evenodd" d="M172.045 83.5195C172.282 83.5195 172.475 83.7136 172.475 83.953C172.475 84.1838 172.296 84.3725 172.07 84.3857L172.045 84.3864H168.192C167.955 84.3864 167.763 84.1924 167.763 83.953C167.763 83.7221 167.942 83.5335 168.167 83.5203L168.192 83.5195H172.045Z" fill="#465F9D"/>
<path fill-rule="evenodd" clip-rule="evenodd" d="M183.087 83.5195C183.324 83.5195 183.517 83.7136 183.517 83.953C183.517 84.1838 183.338 84.3725 183.112 84.3857L183.087 84.3864H179.249C179.011 84.3864 178.819 84.1924 178.819 83.953C178.819 83.7221 178.998 83.5335 179.223 83.5203L179.249 83.5195H183.087Z" fill="#E4794A"/>
<path fill-rule="evenodd" clip-rule="evenodd" d="M139.019 61.1827C138.775 61.1827 138.589 60.9948 138.589 60.7492V60.0702C138.589 59.8245 138.775 59.6367 139.019 59.6367C139.262 59.6367 139.449 59.8245 139.449 60.0702V60.7492C139.449 60.9804 139.262 61.1827 139.019 61.1827Z" fill="#869ECE"/>
<path fill-rule="evenodd" clip-rule="evenodd" d="M139.019 66.6006C138.775 66.6006 138.589 66.4128 138.589 66.1672V65.4881C138.589 65.2425 138.775 65.0547 139.019 65.0547C139.262 65.0547 139.449 65.2425 139.449 65.4881V66.1672C139.449 66.4128 139.262 66.6006 139.019 66.6006Z" fill="#869ECE"/>
<path fill-rule="evenodd" clip-rule="evenodd" d="M139.019 72.5694C138.775 72.5694 138.589 72.3816 138.589 72.1359V71.4569C138.589 71.2113 138.775 71.0234 139.019 71.0234C139.262 71.0234 139.449 71.2113 139.449 71.4569V72.1359C139.449 72.3671 139.262 72.5694 139.019 72.5694Z" fill="#869ECE"/>
<path fill-rule="evenodd" clip-rule="evenodd" d="M139.019 78.1866C138.775 78.1866 138.589 77.9987 138.589 77.7531V77.0741C138.589 76.8284 138.775 76.6406 139.019 76.6406C139.262 76.6406 139.449 76.8284 139.449 77.0741V77.7531C139.449 77.9843 139.262 78.1866 139.019 78.1866Z" fill="#869ECE"/>
<path fill-rule="evenodd" clip-rule="evenodd" d="M198.44 71.3513C201.525 71.3513 204.025 68.227 204.025 64.3729C204.025 60.5189 201.525 57.3945 198.44 57.3945C195.355 57.3945 192.854 60.5189 192.854 64.3729C192.854 68.227 195.355 71.3513 198.44 71.3513Z" fill="#2F4077"/>
<path fill-rule="evenodd" clip-rule="evenodd" d="M185.178 65.3128C182.299 65.3417 182.514 63.9258 183.474 63.6224C184.691 63.2323 189.832 62.8856 189.832 62.8856C189.832 62.8856 186.338 61.6286 186.309 59.3313C186.281 57.0341 187.255 57.2797 188.171 58.6956C189.088 60.1115 193.542 60.7761 193.542 60.7761L195.26 60.1115C195.26 60.1115 200.015 60.4438 199.242 65.5729C199.013 68.607 196.535 69.7484 196.535 69.7484C195.805 70.124 193.098 71.8289 186.782 70.7886C186.782 70.7886 183.961 69.9796 186.524 69.4883C187.197 69.3583 187.856 69.3005 188.472 69.286" fill="white"/>
<path fill-rule="evenodd" clip-rule="evenodd" d="M196.313 69.377L196.396 69.3349C196.41 69.3276 196.427 69.3184 196.447 69.3074C196.529 69.2621 196.623 69.2058 196.724 69.1383C197.016 68.9432 197.309 68.699 197.583 68.4035C198.261 67.6706 198.704 66.7523 198.807 65.6213L198.815 65.524L198.817 65.5079C199.15 63.3023 198.455 61.9316 197.081 61.143C196.675 60.9099 196.236 60.7465 195.797 60.6421C195.644 60.6056 195.502 60.5791 195.375 60.5612L195.318 60.5534L193.696 61.1811C193.637 61.204 193.573 61.2133 193.51 61.2086L193.479 61.2051L193.31 61.1779L193.232 61.1647C193.039 61.1315 192.824 61.0915 192.593 61.0446C191.931 60.9106 191.269 60.7483 190.649 60.5564L190.488 60.5057C189.19 60.0888 188.267 59.5982 187.837 58.9714L187.812 58.9328C187.428 58.3397 187.067 58.0339 186.944 58.0507L186.941 58.0524C186.933 58.0602 186.905 58.0972 186.862 58.2139C186.778 58.444 186.733 58.818 186.739 59.3261C186.749 60.1552 187.327 60.9258 188.313 61.6046C188.677 61.8554 189.07 62.0742 189.463 62.2586C189.578 62.3123 189.685 62.3598 189.784 62.4009L189.926 62.4583L189.977 62.4775C190.416 62.6355 190.326 63.2869 189.861 63.3183L189.405 63.3509C189.227 63.364 189.035 63.3787 188.832 63.3946L188.318 63.4362C187.72 63.4859 187.128 63.5395 186.568 63.5963L186.327 63.6212C184.983 63.7622 184.01 63.9057 183.602 64.0362C183.333 64.1213 183.222 64.2974 183.273 64.4037C183.398 64.6644 184.027 64.8911 185.174 64.8796C185.411 64.8773 185.605 65.0694 185.608 65.3087C185.61 65.5481 185.42 65.7441 185.182 65.7465C183.738 65.761 182.809 65.4258 182.5 64.7812C182.188 64.1318 182.626 63.4365 183.344 63.2095L183.404 63.1911C183.937 63.0343 185.003 62.8838 186.482 62.7338L186.903 62.6922C187.257 62.6581 187.621 62.6253 187.989 62.594L188.222 62.5744L188.167 62.541C188.09 62.494 188.015 62.4457 187.94 62.3961L187.829 62.3207C186.635 61.4988 185.894 60.5109 185.88 59.337C185.864 58.0523 186.144 57.2859 186.828 57.1918C187.399 57.1132 187.977 57.6033 188.531 58.4588C188.818 58.9025 189.677 59.3491 190.901 59.7276C191.491 59.9101 192.126 60.0659 192.762 60.1947C192.984 60.2398 193.191 60.2783 193.376 60.3102L193.495 60.3301L195.107 59.707C195.155 59.6882 195.207 59.6785 195.259 59.6783L195.29 59.6793L195.347 59.6841C195.498 59.6985 195.721 59.7332 195.995 59.7983C196.509 59.9206 197.023 60.1121 197.506 60.3895C199.166 61.3422 200.036 63.035 199.678 65.5591L199.669 65.6212L199.663 65.6935C199.546 67.0002 199.038 68.0784 198.263 68.9381L198.211 68.9951C197.889 69.3432 197.544 69.6304 197.198 69.8613L197.116 69.9151C196.969 70.009 196.848 70.0772 196.759 70.1212L196.726 70.1375L196.377 70.3211L196.202 70.4101C195.913 70.5528 195.614 70.6832 195.28 70.8063C193.163 71.5872 190.395 71.8231 186.713 71.2166C186.697 71.214 186.68 71.2103 186.665 71.2058L186.558 71.1734C186.531 71.165 186.502 71.1555 186.47 71.1449L186.438 71.134C186.27 71.0778 186.103 71.0147 185.945 70.9456C185.707 70.8421 185.51 70.734 185.359 70.6142C185.095 70.4052 184.948 70.1448 185.046 69.8263C185.168 69.4279 185.614 69.2217 186.443 69.0628C187.099 68.9363 187.771 68.8691 188.462 68.8529C188.699 68.8474 188.896 69.0369 188.902 69.2762C188.907 69.5155 188.719 69.714 188.482 69.7196C187.837 69.7347 187.211 69.7972 186.604 69.9144C186.406 69.9524 186.242 69.9924 186.113 70.0329L186.071 70.0465L186.087 70.0554C186.134 70.0801 186.186 70.1054 186.243 70.1308L186.286 70.1499C186.419 70.2081 186.564 70.2627 186.71 70.3117L186.783 70.336L186.876 70.3651L186.977 70.3816C190.411 70.932 192.971 70.7175 194.914 70.0179L194.985 69.9921C195.251 69.8939 195.492 69.791 195.725 69.6798L195.824 69.6316C195.946 69.5711 196.223 69.4248 196.313 69.377Z" fill="#2F4077"/>
<path fill-rule="evenodd" clip-rule="evenodd" d="M189.646 65.3703C188.63 65.3992 184.619 64.9658 183.359 65.5871C182.099 66.2083 182.901 67.2919 186.524 67.2197" fill="white"/>
<path fill-rule="evenodd" clip-rule="evenodd" d="M183.17 65.1976C183.789 64.8929 184.869 64.7952 186.437 64.8201L186.668 64.8246C187.005 64.8322 187.354 64.845 187.768 64.8639L189.3 64.936C189.489 64.9432 189.518 64.9403 189.634 64.937C189.871 64.9303 190.069 65.1188 190.076 65.3581C190.083 65.5974 189.896 65.7968 189.658 65.8036L189.465 65.8078C189.365 65.8073 189.21 65.8009 188.78 65.7804L187.826 65.7343C187.375 65.7133 187.004 65.6993 186.65 65.6913L186.423 65.6869C184.998 65.6642 183.998 65.7547 183.548 65.9765C183.429 66.0348 183.34 66.0948 183.283 66.1508C183.269 66.1641 183.258 66.1756 183.25 66.1853L183.237 66.2025L183.243 66.2106C183.26 66.2322 183.288 66.2591 183.33 66.2894L183.352 66.3048C183.81 66.6189 184.923 66.8181 186.516 66.7863C186.753 66.7816 186.949 66.9718 186.954 67.2111C186.958 67.4504 186.77 67.6483 186.533 67.653C184.778 67.688 183.51 67.4612 182.869 67.0221C182.067 66.4731 182.268 65.6424 183.17 65.1976Z" fill="#2F4077"/>
<path fill-rule="evenodd" clip-rule="evenodd" d="M190.319 67.4662C190.176 67.5529 183.646 66.7149 183.674 67.7118C183.703 68.5353 184.448 69.0988 188.171 69.2866H191.236" fill="white"/>
<path fill-rule="evenodd" clip-rule="evenodd" d="M184.663 66.8312C185.255 66.7724 186.045 66.7722 187.018 66.8177L187.255 66.8295C187.575 66.8463 187.909 66.8675 188.268 66.8932L188.928 66.9433L189.803 67.0126C189.945 67.0234 190.052 67.0307 190.131 67.0349L190.198 67.038L190.246 67.0391L190.265 67.0361C190.421 67.0162 190.581 67.0837 190.674 67.2209L190.688 67.2432C190.81 67.4484 190.744 67.7147 190.541 67.8378C190.471 67.8801 190.419 67.8928 190.354 67.9007C190.329 67.9037 190.305 67.9052 190.278 67.9057C190.255 67.9062 190.23 67.9061 190.201 67.9053L190.138 67.9031C190.087 67.9009 190.026 67.8974 189.952 67.8925L188.479 67.7779L188.106 67.7508C187.784 67.7282 187.483 67.7094 187.193 67.6943L186.978 67.6836C186.077 67.6415 185.343 67.6402 184.806 67.6883L184.747 67.6939C184.476 67.7207 184.269 67.7605 184.138 67.8083L184.12 67.8152L184.122 67.8237C184.263 68.365 185.245 68.6989 188.099 68.8489L188.184 68.8532H191.236C191.465 68.8532 191.652 69.0336 191.665 69.2611L191.666 69.2866C191.666 69.5174 191.487 69.7061 191.261 69.7193L191.236 69.7201H188.171L188.15 69.7195L187.938 69.7083C184.525 69.5179 183.289 68.9888 183.245 67.7243C183.235 67.3791 183.457 67.149 183.793 67.0133C184.012 66.9248 184.3 66.8671 184.663 66.8312Z" fill="#2F4077"/>
<path fill-rule="evenodd" clip-rule="evenodd" d="M114.128 57.1655C116.863 56.0819 115.961 55.0994 114.887 55.2439C113.54 55.4172 108.499 57.1221 108.499 57.1221C108.499 57.1221 111.163 54.8393 110.032 53.1056C108.9 51.3718 108.098 51.9208 107.941 53.3512C107.783 54.7815 103.701 56.8043 103.701 56.8043L102.011 57.2377C102.011 57.2377 98.4882 60.1129 101.882 63.6815C103.701 65.921 106.251 65.4442 106.251 65.4442C107.024 65.3286 109.931 65.1119 115.359 61.9044C115.359 61.9044 117.622 60.214 114.944 60.8353C114.256 60.9942 113.583 61.2109 112.996 61.4276" fill="white"/>
<path fill-rule="evenodd" clip-rule="evenodd" d="M108.508 51.6212C109.13 51.4503 109.764 51.9057 110.39 52.8649C110.651 53.2642 110.763 53.7076 110.738 54.176C110.703 54.8324 110.411 55.4977 109.94 56.1584L109.911 56.1981L109.936 56.1901C110.277 56.0797 110.619 55.9705 110.957 55.8644L111.441 55.7133L111.979 55.5484C113.334 55.1384 114.32 54.8775 114.83 54.8119C115.597 54.7087 116.332 55.0466 116.365 55.7202C116.398 56.3973 115.675 57.0158 114.285 57.5666C114.064 57.654 113.814 57.5443 113.728 57.3215C113.641 57.0987 113.75 56.8471 113.971 56.7596C114.578 56.5192 115.012 56.2785 115.273 56.0547C115.376 55.9674 115.444 55.8889 115.481 55.824C115.502 55.7879 115.507 55.7688 115.507 55.7633C115.505 55.7291 115.28 55.6258 114.941 55.6715L114.886 55.6792C114.415 55.7496 113.475 56.0007 112.216 56.3819L111.981 56.4533C111.839 56.4969 111.693 56.5417 111.545 56.5877C110.993 56.7596 110.423 56.9418 109.859 57.1257L109.434 57.2649L108.636 57.5307C108.195 57.6798 107.872 57.1183 108.203 56.8056L108.288 56.7293L108.36 56.6617C108.398 56.6258 108.438 56.5868 108.48 56.545C108.681 56.3451 108.882 56.1226 109.068 55.8847C109.554 55.2652 109.852 54.6579 109.88 54.1298C109.895 53.8417 109.83 53.5819 109.673 53.3415C109.425 52.9625 109.197 52.7029 109.001 52.5621C108.867 52.4663 108.782 52.4443 108.734 52.4577C108.686 52.4707 108.623 52.5313 108.557 52.6615C108.474 52.8232 108.411 53.0538 108.375 53.3355L108.368 53.3967C108.321 53.8203 108.061 54.2422 107.629 54.6855C107.236 55.0882 106.702 55.506 106.06 55.9331C105.585 56.2487 105.078 56.5514 104.571 56.8311L104.422 56.9126C104.325 56.9653 104.232 57.0146 104.145 57.0604L103.916 57.1783C103.905 57.1839 103.896 57.1881 103.891 57.1909C103.873 57.1998 103.855 57.2073 103.836 57.2136L103.807 57.222L102.216 57.6299L102.199 57.6458C102.168 57.6741 102.136 57.7056 102.101 57.74L102.066 57.7754C101.894 57.9509 101.721 58.155 101.559 58.3844C101.115 59.0163 100.848 59.7109 100.837 60.4467C100.822 61.3962 101.237 62.3741 102.192 63.3791L102.204 63.3916L102.215 63.4045C102.565 63.8361 102.959 64.1759 103.39 64.4339C104.269 64.9612 105.196 65.1075 105.985 65.0379L106.047 65.0319C106.088 65.0277 106.12 65.0237 106.142 65.0204L106.188 65.0131C106.244 65.0047 106.51 64.969 106.582 64.9589C106.776 64.9313 106.96 64.9018 107.159 64.8648C107.699 64.7643 108.28 64.6213 108.932 64.4174C110.674 63.8729 112.683 62.9704 115.008 61.6072L115.121 61.5403L115.208 61.4717L115.23 61.4546C115.327 61.3759 115.424 61.2922 115.513 61.2084L115.556 61.1671L115.57 61.1531L115.565 61.1539C115.434 61.1724 115.279 61.2014 115.1 61.2416L115.04 61.2554C114.429 61.3966 113.789 61.5942 113.144 61.8323C112.921 61.9146 112.674 61.799 112.593 61.5742C112.511 61.3494 112.626 61.1005 112.849 61.0182C113.525 60.7684 114.199 60.5604 114.848 60.4105L114.963 60.3844C115.753 60.21 116.215 60.2092 116.487 60.4524C116.701 60.6445 116.727 60.913 116.627 61.1631C116.571 61.3033 116.477 61.4403 116.349 61.5861C116.276 61.67 116.192 61.7557 116.098 61.8431C116.019 61.9177 115.936 61.9908 115.852 62.061L115.768 62.1303C115.7 62.1851 115.647 62.2263 115.615 62.2504C115.603 62.2596 115.59 62.2682 115.576 62.2761C113.139 63.7163 111.026 64.6703 109.187 65.2454C108.501 65.4597 107.888 65.6107 107.315 65.7173C107.145 65.7489 106.986 65.7753 106.824 65.7995L106.587 65.8331L106.317 65.8699L106.274 65.8771C106.244 65.8815 106.209 65.8862 106.167 65.8908L106.135 65.8943C105.164 65.9947 104.034 65.8286 102.951 65.1791C102.462 64.8863 102.014 64.5066 101.616 64.0336L101.561 63.9677L101.513 63.9158C100.467 62.7934 99.9781 61.6428 99.9769 60.4984L99.9774 60.4336C99.9913 59.5035 100.321 58.6473 100.858 57.883C101.048 57.6128 101.252 57.373 101.455 57.1654L101.515 57.1051C101.612 57.0098 101.69 56.9404 101.741 56.8984C101.781 56.8656 101.827 56.8404 101.876 56.824L101.905 56.8153L103.551 56.3932L103.687 56.3234L103.813 56.2575C103.92 56.2004 104.036 56.138 104.158 56.0706C104.646 55.8014 105.134 55.5104 105.587 55.2092C106.183 54.8128 106.673 54.4297 107.016 54.0778C107.325 53.7603 107.493 53.4887 107.514 53.3009C107.611 52.4121 107.934 51.7788 108.508 51.6212Z" fill="#2F4077"/>
<path fill-rule="evenodd" clip-rule="evenodd" d="M109.931 58.9103C110.919 58.5491 114.486 56.6708 115.989 56.6564C117.493 56.6419 117.278 57.7544 113.827 59.0981" fill="white"/>
<path fill-rule="evenodd" clip-rule="evenodd" d="M115.985 56.2228C116.454 56.2183 116.82 56.3067 117.057 56.5188C117.377 56.8063 117.378 57.2282 117.122 57.6103C116.73 58.1972 115.654 58.8512 113.981 59.5023C113.76 59.5885 113.511 59.4773 113.426 59.254C113.34 59.0307 113.451 58.7798 113.672 58.6936L113.825 58.6335C115.23 58.0731 116.122 57.5287 116.396 57.1457L116.405 57.1327L116.391 57.1289L116.37 57.1235C116.274 57.1004 116.147 57.0882 115.993 57.0897C115.47 57.0947 114.559 57.3756 113.333 57.8841C113.161 57.9554 112.983 58.0308 112.798 58.1113L112.521 58.2329C112.169 58.3912 110.362 59.2136 110.078 59.3177C109.854 59.3992 109.608 59.2829 109.527 59.0578C109.449 58.8408 109.554 58.6019 109.761 58.512L109.837 58.4821C110.247 58.3162 112.051 57.4934 112.228 57.4157L112.459 57.3147C112.648 57.2325 112.83 57.1553 113.006 57.0823L113.178 57.0119C114.419 56.506 115.344 56.229 115.985 56.2228Z" fill="#2F4077"/>
<path fill-rule="evenodd" clip-rule="evenodd" d="M110.347 60.7595C110.533 60.7595 116.276 57.6243 116.763 58.39C117.15 59.0113 116.734 59.7337 113.311 61.3085L110.418 62.4788" fill="white"/>
<path fill-rule="evenodd" clip-rule="evenodd" d="M115.51 58.0068L115.611 57.9776C116.386 57.7573 116.867 57.751 117.127 58.1601C117.787 59.2211 116.848 60.1388 113.686 61.6126L113.49 61.7035L113.471 61.7114L110.578 62.8817C110.358 62.9708 110.108 62.8629 110.019 62.6407C109.934 62.4265 110.031 62.1842 110.235 62.0873L110.258 62.0771L113.142 60.9104L113.382 60.7991C114.811 60.1304 115.7 59.6086 116.147 59.1989L116.172 59.1754L116.228 59.1224C116.426 58.9273 116.476 58.8202 116.443 58.7116L116.44 58.7036L116.413 58.7038L116.393 58.7046C116.245 58.7118 116.027 58.7568 115.753 58.8383L115.636 58.8741C115.159 59.0249 114.552 59.2668 113.834 59.5867L113.743 59.6271C113.585 59.6979 113.423 59.7721 113.256 59.8496L112.857 60.0365C112.592 60.1617 112.34 60.2832 112.009 60.4452L110.727 61.0746C110.414 61.2252 110.45 61.1935 110.347 61.1935C110.109 61.1935 109.917 60.9995 109.917 60.7601C109.917 60.5635 110.047 60.3974 110.225 60.3444L110.247 60.3385L110.261 60.3326C110.281 60.3241 110.307 60.3126 110.338 60.2982L110.565 60.19L111.745 59.6112C112.132 59.4219 112.417 59.286 112.768 59.1218L113.024 59.0033C113.15 58.9453 113.273 58.8892 113.394 58.835L113.581 58.7519C114.349 58.4126 114.995 58.16 115.51 58.0068Z" fill="#2F4077"/>
<path fill-rule="evenodd" clip-rule="evenodd" d="M49.1068 35.216C51.3267 33.8001 58.7883 34.4647 64.603 36.6319L62.2542 41.1686L50.3958 39.2759L49.1068 35.216Z" fill="#2F4077"/>
<path fill-rule="evenodd" clip-rule="evenodd" d="M50.7108 39.1329V27.0977L61.18 33.4692L60.9366 39.9275L50.7108 39.1329Z" fill="white"/>
<path fill-rule="evenodd" clip-rule="evenodd" d="M50.2811 27.0943V39.1295C50.2811 39.356 50.454 39.5443 50.6778 39.5617L60.9035 40.3563C61.1466 40.3752 61.3566 40.1864 61.3659 39.9406L61.6093 33.4823C61.6153 33.3247 61.5358 33.1762 61.4019 33.0947L50.9327 26.7231C50.6464 26.5489 50.2811 26.7569 50.2811 27.0943ZM51.1404 27.8619L60.741 33.7048L60.5242 39.4571L51.1404 38.7279V27.8619Z" fill="#2F4077"/>
<path fill-rule="evenodd" clip-rule="evenodd" d="M64.5743 14.211C60.3064 11.2347 56.4682 10.1367 50.453 17.9097L49.6367 23.0244C47.116 22.2586 45.7841 23.5011 46.3283 25.7261C46.9155 28.1245 48.2904 29.1937 50.5819 28.5724C50.5819 28.5724 50.453 28.269 50.5819 28.5724C51.6847 31.0864 53.747 33.9615 57.5996 34.814C63.629 36.1287 65.0326 32.3722 65.7057 30.8841C66.3788 29.3959 68.8422 17.1873 64.5743 14.211Z" fill="white"/>
<path fill-rule="evenodd" clip-rule="evenodd" d="M58.1078 11.5994C55.6004 11.9624 53.0402 13.8612 50.1144 17.642L50.0962 17.6673C50.0618 17.7192 50.0387 17.778 50.0289 17.8399L49.2875 22.4843L49.2723 22.481C46.7855 21.9429 45.3108 23.3743 45.9112 25.829L45.9311 25.9084C46.5622 28.3834 48.0458 29.5181 50.2638 29.09L50.3375 29.0752L50.3696 29.1439C51.8483 32.2819 54.1569 34.495 57.5076 35.2364C61.2499 36.0524 63.6336 35.1033 65.111 32.9423C65.3327 32.618 65.526 32.2783 65.7118 31.9013L65.7719 31.7773C65.8018 31.7148 65.8317 31.651 65.8626 31.5839L66.0966 31.063C66.5875 29.9777 67.2784 26.2413 67.4221 23.1248L67.4334 22.8563C67.5988 18.494 66.8332 15.2584 64.8186 13.8535L64.6378 13.7284C62.12 12.0013 60.1969 11.2968 58.1078 11.5994ZM64.33 14.5665C66.0414 15.7599 66.7442 18.8041 66.5693 22.9582L66.5637 23.0844C66.426 26.0699 65.7659 29.6629 65.328 30.6732L65.1437 31.0857L65.0837 31.2176C65.035 31.3234 64.9893 31.4197 64.9422 31.5154C64.7735 31.8579 64.6001 32.1627 64.4037 32.45C63.1241 34.3216 61.0916 35.1309 57.6904 34.3892C54.5045 33.6843 52.3424 31.5134 50.9748 28.3959C50.8895 28.2013 50.6768 28.098 50.4729 28.1521L50.4044 28.1702C48.4594 28.6728 47.289 27.8411 46.7455 25.6211C46.2735 23.6912 47.3456 22.7799 49.5128 23.4383L49.5377 23.445C49.7786 23.5029 50.021 23.3424 50.0609 23.0921L50.8595 18.0879L50.9594 17.9603C53.6894 14.4839 56.0275 12.7762 58.2299 12.4573C60.1053 12.1858 61.8844 12.861 64.33 14.5665Z" fill="#2F4077"/>
<path fill-rule="evenodd" clip-rule="evenodd" d="M62.5209 23.1434C62.7483 23.1174 62.9543 23.2755 62.9926 23.5001L62.9962 23.5253L63.5118 28.1198C63.5402 28.3728 63.3477 28.5939 63.099 28.6018L63.0739 28.6019L61.3839 28.5585C61.1467 28.5525 60.9593 28.3535 60.9654 28.1142C60.9712 27.8835 61.1547 27.6994 61.3805 27.692L61.4058 27.6919L62.6023 27.7224L62.1423 23.6229C62.1166 23.3935 62.2733 23.1857 62.4959 23.147L62.5209 23.1434Z" fill="#2F4077"/>
<path fill-rule="evenodd" clip-rule="evenodd" d="M64.918 24.2651C65.1949 24.2651 65.4193 23.9093 65.4193 23.4704C65.4193 23.0316 65.1949 22.6758 64.918 22.6758C64.6412 22.6758 64.4167 23.0316 64.4167 23.4704C64.4167 23.9093 64.6412 24.2651 64.918 24.2651Z" fill="#2F4077"/>
<path fill-rule="evenodd" clip-rule="evenodd" d="M60.0486 24.1791C60.3255 24.1791 60.5499 23.8234 60.5499 23.3845C60.5499 22.9456 60.3255 22.5898 60.0486 22.5898C59.7718 22.5898 59.5474 22.9456 59.5474 23.3845C59.5474 23.8234 59.7718 24.1791 60.0486 24.1791Z" fill="#2F4077"/>
<path fill-rule="evenodd" clip-rule="evenodd" d="M57.5231 19.121C58.0858 18.7087 58.774 18.5038 59.5681 18.6239C59.8027 18.6595 59.9644 18.8802 59.9292 19.1169C59.894 19.3536 59.6753 19.5167 59.4406 19.4812C58.8854 19.3972 58.4187 19.5362 58.028 19.8224C57.9179 19.9031 57.823 19.9894 57.7443 20.0747L57.7018 20.1225C57.6901 20.1362 57.6808 20.1475 57.6741 20.1562L57.664 20.1696C57.5271 20.3651 57.2589 20.4116 57.0652 20.2734C56.8714 20.1353 56.8253 19.8648 56.9622 19.6693C56.9925 19.6262 57.0434 19.5622 57.1151 19.4843C57.23 19.3598 57.3658 19.2362 57.5231 19.121Z" fill="white"/>
<path fill-rule="evenodd" clip-rule="evenodd" d="M64.2465 18.5091C64.5539 18.4616 64.8805 18.461 65.1995 18.5414C65.7447 18.679 66.161 19.0358 66.345 19.6297C66.4157 19.8581 66.2895 20.1013 66.063 20.1727C65.8446 20.2415 65.6127 20.1256 65.533 19.9123L65.5248 19.8882C65.4357 19.6006 65.2604 19.4504 64.991 19.3824C64.7992 19.334 64.5808 19.3345 64.3767 19.366L64.3377 19.3725C64.3088 19.3776 64.2888 19.3819 64.2795 19.3843C64.0496 19.4435 63.8156 19.3034 63.757 19.0714C63.6983 18.8395 63.8372 18.6035 64.0671 18.5443L64.1058 18.5351C64.1424 18.527 64.1898 18.5179 64.2465 18.5091Z" fill="#2F4077"/>
<path fill-rule="evenodd" clip-rule="evenodd" d="M59.1635 28.6775C59.3894 28.6406 59.6026 28.7886 59.6516 29.0111L59.6605 29.0581C59.6663 29.0853 59.6768 29.1278 59.693 29.1811C59.7298 29.302 59.7804 29.4228 59.8453 29.5324C60.0477 29.8745 60.3262 30.0303 60.7756 29.95C61.0093 29.9083 61.2323 30.0655 61.2736 30.3012C61.315 30.5369 61.1591 30.7619 60.9255 30.8036C60.0957 30.9519 59.481 30.608 59.1074 29.9767C59.0043 29.8023 58.9273 29.6188 58.8715 29.4354L58.8509 29.3643C58.8292 29.2853 58.8155 29.2206 58.8081 29.1747C58.7702 28.9383 58.9293 28.7158 59.1635 28.6775Z" fill="#2F4077"/>
<path fill-rule="evenodd" clip-rule="evenodd" d="M42.3469 8.70535C39.6401 3.35957 35.272 2.89723 30.2594 3.89414C25.2467 4.89106 22.4253 11.725 22.2535 12.3463C20.2055 19.7148 22.9123 27.6034 28.9418 32.2557C29.6149 32.7758 30.2737 33.2959 30.9182 33.8016C34.4556 36.6045 26.6073 38.9885 26.6073 38.9885C41.6452 40.2021 38.3655 25.0316 38.0504 23.6735C42.8625 21.8531 44.8676 13.6899 42.3469 8.70535Z" fill="#2F4077"/>
<path fill-rule="evenodd" clip-rule="evenodd" d="M50.4531 19.309V19.309C49.9804 20.5515 48.5912 21.1583 47.3596 20.6816L38.6519 17.2574C37.4203 16.7806 36.8187 15.3791 37.2914 14.1366V14.1366C37.764 12.8941 39.1532 12.2872 40.3849 12.764L49.0925 16.1882C50.3242 16.665 50.9257 18.0665 50.4531 19.309Z" fill="#E4794A"/>
<path fill-rule="evenodd" clip-rule="evenodd" d="M68.7992 19.4401C68.7419 15.7125 67.854 12.4617 65.6341 10.309C65.3334 9.94776 64.918 9.60101 64.3881 9.31205C62.5693 8.12731 60.1059 7.4916 56.8262 7.60718C56.7689 7.60718 56.6973 7.63608 56.6257 7.66497C56.1101 7.70832 55.5946 7.795 55.0933 7.89614C54.8355 7.93949 54.5634 7.99728 54.277 8.08397C53.346 8.32958 52.4581 8.67634 51.6417 9.05199C44.2947 12.245 41.416 17.9953 44.6957 25.9273C46.3857 30.0161 48.5912 31.3309 50.7108 31.3453V28.8603C50.5246 28.4702 50.2239 28.6146 50.2239 28.6146C47.9324 29.2359 46.9156 28.1234 46.3284 25.7395C46.0419 24.5836 46.2711 23.6879 46.9012 23.2111C46.9156 23.1966 46.9299 23.1822 46.9442 23.1677C46.9729 23.1533 47.0015 23.1388 47.0301 23.1099C47.0445 23.0955 47.0588 23.0955 47.0874 23.081C47.1161 23.0666 47.1447 23.0521 47.1734 23.0377C47.1877 23.0233 47.202 23.0233 47.2306 23.0088C47.2593 22.9944 47.2879 22.9799 47.3309 22.9655C47.3452 22.9655 47.3595 22.951 47.3739 22.951C47.4168 22.9366 47.4455 22.9221 47.4884 22.9077C47.5028 22.9077 47.5171 22.9077 47.5171 22.8932C47.7033 22.8354 47.9181 22.8065 48.1472 22.7921H48.1616C48.2188 22.7921 48.2761 22.7921 48.3191 22.7921C48.3334 22.7921 48.3477 22.7921 48.3477 22.7921C48.405 22.7921 48.4623 22.7921 48.5196 22.8065C48.5339 22.8065 48.5482 22.8065 48.5482 22.8065C48.6055 22.8065 48.6628 22.821 48.7201 22.821C48.7344 22.821 48.7344 22.821 48.7488 22.821C49.0209 22.8499 49.3073 22.9221 49.6224 23.0088V23.0088C49.8229 23.0666 49.6797 23.1533 49.8802 23.24L50.4101 23.1966C50.5963 23.1966 50.7824 23.1822 50.9686 23.1533C55.6089 22.5898 62.7984 19.2523 65.3763 14.9468C67.1809 17.1573 67.3814 21.5207 67.052 25.2049C68.1691 23.5289 68.8279 21.564 68.7992 19.4401Z" fill="#2F4077"/>
<path fill-rule="evenodd" clip-rule="evenodd" d="M57.8955 18.1522C58.4583 17.7399 59.1464 17.535 59.9405 17.6552C60.1752 17.6907 60.3369 17.9114 60.3017 18.1481C60.2665 18.3849 60.0477 18.548 59.813 18.5125C59.2578 18.4285 58.7911 18.5674 58.4004 18.8537C58.2903 18.9343 58.1954 19.0207 58.1168 19.106L58.0742 19.1538C58.0625 19.1675 58.0533 19.1788 58.0465 19.1874L58.0364 19.2009C57.8995 19.3964 57.6314 19.4428 57.4376 19.3047C57.2438 19.1665 57.1977 18.8961 57.3347 18.7006C57.3649 18.6574 57.4158 18.5934 57.4876 18.5156C57.6024 18.391 57.7382 18.2675 57.8955 18.1522Z" fill="white"/>
<path fill-rule="evenodd" clip-rule="evenodd" d="M104.99 64.0559C104.99 58.2478 104.346 52.8153 94.3779 53.7544C94.0628 53.8122 93.7764 53.87 93.5043 53.9422L81.8893 56.4562L72.8666 43.3374C71.7209 41.2858 69.6442 39.9276 67.3241 39.7254L64.3308 39.4653L64.603 36.619C64.603 36.619 64.1876 37.6448 60.8936 38.2661C56.4395 39.1041 49.1068 35.2031 49.1068 35.2031C49.1068 35.2031 49.1068 39.4653 49.1068 39.6676C49.1068 39.7254 43.5929 39.9999 41.058 41.6036C38.523 43.1929 37.4489 46.3137 35.6587 50.677C33.8684 55.0547 28.24 70.572 28.1111 71.5978C27.9822 72.638 26.7362 78.7351 30.0445 82.3471C32.8516 85.4101 38.6806 90.5247 44.7243 88.4586L74.0553 88.0252C72.2078 83.5174 71.5777 77.6515 71.4488 72.0746C72.0932 72.4069 72.7807 72.7247 73.5254 72.9992C100.278 79.5009 102.455 72.0746 102.455 72.0746V72.0746C104.002 70.1819 104.99 67.2922 104.99 64.0559Z" fill="#465F9D"/>
<path fill-rule="evenodd" clip-rule="evenodd" d="M47.1501 52.0664L47.1754 52.0675C47.4036 52.084 47.5774 52.2774 47.5744 52.5053L47.5733 52.5308L46.7856 63.6413C46.7642 63.9428 46.4513 64.1302 46.1788 64.0048C44.021 63.0121 41.9765 63.2661 40.1513 64.296C39.7974 64.4956 39.4827 64.7094 39.2118 64.9224C39.1336 64.9839 39.0641 65.0414 39.0036 65.0938L38.9684 65.1247C38.9292 65.1594 38.9042 65.1828 38.8938 65.1929C38.7235 65.3596 38.4515 65.3555 38.2863 65.1837C38.121 65.0119 38.1251 64.7374 38.2954 64.5708L38.3275 64.5401C38.4035 64.4686 38.5231 64.3649 38.6836 64.2387C38.9875 63.9997 39.3381 63.7615 39.7318 63.5394C41.5977 62.4866 43.6951 62.1539 45.8961 62.953L45.9708 62.9806L46.7162 52.4689C46.7325 52.2387 46.9242 52.0634 47.1501 52.0664Z" fill="white"/>
<path fill-rule="evenodd" clip-rule="evenodd" d="M49.8996 68.5705L49.9003 68.5603C49.9092 68.4489 49.9019 68.2868 49.8633 68.0812C49.8043 67.7666 49.6836 67.4223 49.4851 67.0545C48.9362 66.0371 47.8957 65.0123 46.2336 64.0376L46.1436 63.9853C45.9377 63.8663 45.8663 63.6015 45.9841 63.3938C46.0977 63.1937 46.3453 63.1195 46.5485 63.2211L46.5711 63.2333L46.667 63.2891C48.426 64.3207 49.5704 65.4356 50.2057 66.5777L50.2398 66.64C50.6685 67.4345 50.7974 68.1219 50.7568 68.63L50.7528 68.6719C50.7515 68.6842 50.7501 68.6947 50.7487 68.7035C50.7123 68.94 50.4928 69.102 50.2583 69.0653C50.0238 69.0286 49.8632 68.8071 49.8996 68.5705Z" fill="white"/>
<path fill-rule="evenodd" clip-rule="evenodd" d="M69.0809 48.1566C69.2196 47.9624 69.4881 47.9184 69.6806 48.0584L69.7076 48.0786C69.7376 48.1017 69.7772 48.1338 69.8252 48.1752L69.8499 48.1966C69.9714 48.3028 70.1052 48.4318 70.2481 48.5847C70.6502 49.0148 71.0499 49.5521 71.4212 50.204C72.2658 51.6866 72.8418 53.5409 73.0311 55.7974C73.2635 58.5672 72.8973 61.7914 71.8234 65.5022L71.797 65.5927L72.393 74.01C72.4093 74.2402 72.2442 74.4413 72.0201 74.4707L71.995 74.4732C71.7668 74.4897 71.5675 74.3231 71.5384 74.0971L71.5358 74.0718L70.9343 65.5763C70.9306 65.5243 70.9363 65.4721 70.951 65.4222C72.033 61.7411 72.4013 58.5694 72.1749 55.8705C71.9962 53.7405 71.4583 52.0088 70.6762 50.6359C70.3391 50.0442 69.9798 49.5612 69.6229 49.1794C69.5154 49.0644 69.4156 48.9667 69.3253 48.8856L69.2524 48.8218C69.2311 48.8037 69.2138 48.7894 69.2006 48.7789L69.1782 48.7617C68.9857 48.6217 68.9421 48.3508 69.0809 48.1566Z" fill="white"/>
<path fill-rule="evenodd" clip-rule="evenodd" d="M57.7857 72.1352C56.6686 68.6243 52.9593 68.3354 52.9593 68.3354C52.9593 68.3354 51.1261 67.9019 49.0065 67.8008C48.2904 68.7399 46.4572 70.7482 45.111 74.7358L45.8271 75.7183C45.8271 75.7183 48.1185 76.6719 49.164 77.0909C50.4959 77.6255 51.8852 77.6688 53.1025 76.773C53.1455 76.7441 53.2028 76.7008 53.2457 76.6719L54.0334 72.4097C53.5178 71.6584 53.7327 70.647 54.9357 71.2394C56.153 71.8318 55.1792 73.3633 56.7689 73.4933C58.3729 73.6378 57.7857 72.1352 57.7857 72.1352Z" fill="white"/>
<path fill-rule="evenodd" clip-rule="evenodd" d="M49.0268 67.3677C48.8864 67.361 48.7517 67.424 48.666 67.5364L48.5348 67.7051L48.2032 68.1233C47.9696 68.4193 47.7748 68.6747 47.5729 68.9533C47.0228 69.7127 46.5209 70.5128 46.0464 71.4243C45.5436 72.3901 45.094 73.4414 44.7043 74.596C44.659 74.7302 44.6816 74.8782 44.7648 74.9925L45.4809 75.9749C45.5217 76.0308 45.5751 76.0759 45.6365 76.1066L45.7056 76.1365L46.821 76.5989L48.2986 77.2069C48.5768 77.3206 48.8148 77.4171 49.0054 77.4936L49.0775 77.522C50.6131 78.1184 52.0658 78.0414 53.2981 77.1647L53.3409 77.1335L53.4841 77.0324C53.5805 76.9675 53.6469 76.8661 53.6681 76.7512L54.4558 72.489C54.4768 72.3753 54.452 72.2579 54.3867 72.1628C54.2128 71.9094 54.1641 71.6322 54.2218 71.5195C54.2297 71.5042 54.2342 71.501 54.2689 71.4965C54.3665 71.484 54.5291 71.5214 54.7473 71.6288C55.0178 71.7604 55.1292 71.9332 55.2213 72.3105L55.2586 72.4752L55.2682 72.5198C55.3627 72.9574 55.4316 73.1638 55.6102 73.3948C55.853 73.709 56.222 73.8833 56.7342 73.9252C57.6876 74.0111 58.24 73.5837 58.3125 72.8627C58.3347 72.6415 58.3093 72.4179 58.2547 72.2003L58.2455 72.1646L58.2272 72.0995C58.2211 72.0792 58.2152 72.0604 58.2094 72.0431L58.1909 71.9906L58.1949 72.0026C57.7496 70.6033 56.8937 69.572 55.7551 68.8647C55.1532 68.4908 54.5112 68.2315 53.8695 68.0653C53.6445 68.007 53.4349 67.9644 53.2457 67.9349L53.1395 67.9195C53.1182 67.9166 53.0986 67.9142 53.0805 67.912L53.0271 67.9061L52.9451 67.8879C52.8712 67.8716 52.7875 67.8538 52.6947 67.8349L52.638 67.8234C52.3087 67.7571 51.9409 67.6908 51.5432 67.6291C50.7122 67.5 49.8632 67.4076 49.0268 67.3677ZM49.2067 68.2454L49.426 68.2597C50.0874 68.3058 50.7555 68.3841 51.4124 68.4861C51.7543 68.5392 52.0732 68.5956 52.3626 68.6524L52.5761 68.6954C52.627 68.706 52.6747 68.7161 52.7189 68.7256L52.8613 68.7574C52.8755 68.7608 52.8899 68.7634 52.9044 68.7653L52.9673 68.7717C52.9964 68.775 53.0357 68.78 53.0844 68.7873L53.1148 68.7919C53.277 68.8172 53.459 68.8542 53.6558 68.9051C54.2189 69.051 54.7818 69.2784 55.3045 69.6031C56.2762 70.2067 56.9973 71.0756 57.3767 72.2677L57.3924 72.3119C57.3999 72.334 57.4106 72.369 57.4217 72.4133C57.4537 72.541 57.4683 72.6689 57.4575 72.7755C57.4346 73.0032 57.3154 73.1013 56.848 73.0651L56.8071 73.0617C56.3457 73.0239 56.2462 72.9325 56.1325 72.4459L56.0683 72.1563C55.9207 71.519 55.6792 71.1201 55.1224 70.8491C54.3851 70.486 53.7417 70.5686 53.4584 71.1218L53.44 71.1596C53.2648 71.5413 53.3296 72.0415 53.5733 72.4833L53.5804 72.4957L52.8553 76.4185L52.8493 76.4229C51.8632 77.1485 50.6944 77.2202 49.3904 76.7149L49.3229 76.6882C49.1484 76.6183 48.9334 76.5311 48.6835 76.4291L47.8813 76.1001L46.9585 75.7191L46.1019 75.3637L45.5908 74.6627L45.6449 74.5088C45.9896 73.5406 46.3785 72.6511 46.8072 71.8276C47.2611 70.9558 47.7405 70.1914 48.2667 69.465C48.4176 69.2567 48.5649 69.0613 48.7296 68.8496L48.8998 68.6326L49.2067 68.2454Z" fill="#2F4077"/>
<path opacity="0.5" fill-rule="evenodd" clip-rule="evenodd" d="M119.642 56.6914C101.754 70.9372 90.8548 61.9938 82.5481 63.2653C74.2415 64.5367 72.9669 68.6977 65.4623 71.674C60.822 73.5089 53.3747 73.2489 50.5247 72.7865V85.0818H119.642V56.6914V56.6914Z" fill="white"/>
<path fill-rule="evenodd" clip-rule="evenodd" d="M123.079 84.1719C123.316 84.1719 123.508 84.3659 123.508 84.6053C123.508 84.8361 123.329 85.0248 123.104 85.038L123.079 85.0388H50.5246C50.2873 85.0388 50.095 84.8447 50.095 84.6053C50.095 84.3745 50.2738 84.1858 50.4994 84.1726L50.5246 84.1719H123.079Z" fill="#E4794A"/>
<path fill-rule="evenodd" clip-rule="evenodd" d="M60.6501 72.4688C60.8789 72.4688 61.066 72.6492 61.079 72.8767L61.0798 72.9022V73.7691C61.0798 74.0085 60.8874 74.2025 60.6501 74.2025C60.4213 74.2025 60.2343 74.0221 60.2212 73.7945L60.2205 73.7691V72.9022C60.2205 72.6628 60.4128 72.4688 60.6501 72.4688Z" fill="#E4794A"/>
<path fill-rule="evenodd" clip-rule="evenodd" d="M60.2205 75.7616V77.755C60.2205 77.9944 60.4128 78.1885 60.6501 78.1885C60.8874 78.1885 61.0798 77.9944 61.0798 77.755V75.7616C61.0798 75.5222 60.8874 75.3281 60.6501 75.3281C60.4128 75.3281 60.2205 75.5222 60.2205 75.7616ZM60.2205 79.7482V81.7417C60.2205 81.9811 60.4129 82.1752 60.6502 82.1752C60.8875 82.1752 61.0798 81.9811 61.0798 81.7417V79.7482C61.0798 79.5089 60.8875 79.3148 60.6502 79.3148C60.4129 79.3148 60.2205 79.5089 60.2205 79.7482Z" fill="#E4794A"/>
<path fill-rule="evenodd" clip-rule="evenodd" d="M60.6501 83.3047C60.8789 83.3047 61.066 83.4851 61.079 83.7127L61.0798 83.7381V84.605C61.0798 84.8444 60.8874 85.0385 60.6501 85.0385C60.4213 85.0385 60.2343 84.858 60.2212 84.6305L60.2205 84.605V83.7381C60.2205 83.4987 60.4128 83.3047 60.6501 83.3047Z" fill="#E4794A"/>
<path fill-rule="evenodd" clip-rule="evenodd" d="M82.5482 63.0195C82.777 63.0195 82.964 63.2 82.9771 63.4275L82.9778 63.453V64.3199C82.9778 64.5592 82.7855 64.7533 82.5482 64.7533C82.3194 64.7533 82.1323 64.5729 82.1193 64.3453L82.1185 64.3199V63.453C82.1185 63.2136 82.3109 63.0195 82.5482 63.0195Z" fill="#E4794A"/>
<path fill-rule="evenodd" clip-rule="evenodd" d="M82.1186 66.0819V67.8474C82.1186 68.0867 82.3109 68.2808 82.5482 68.2808C82.7855 68.2808 82.9779 68.0867 82.9779 67.8474V66.0819C82.9779 65.8425 82.7855 65.6484 82.5482 65.6484C82.3109 65.6484 82.1186 65.8425 82.1186 66.0819ZM82.1185 69.6129V71.3783C82.1185 71.6177 82.3109 71.8118 82.5482 71.8118C82.7855 71.8118 82.9778 71.6177 82.9778 71.3783V69.6129C82.9778 69.3735 82.7855 69.1794 82.5482 69.1794C82.3109 69.1794 82.1185 69.3735 82.1185 69.6129ZM82.1185 73.1434V74.9089C82.1185 75.1483 82.3109 75.3424 82.5482 75.3424C82.7855 75.3424 82.9778 75.1483 82.9778 74.9089V73.1434C82.9778 72.904 82.7855 72.71 82.5482 72.71C82.3109 72.71 82.1185 72.904 82.1185 73.1434ZM82.1185 76.6746V78.4401C82.1185 78.6795 82.3109 78.8736 82.5482 78.8736C82.7855 78.8736 82.9778 78.6795 82.9778 78.4401V76.6746C82.9778 76.4353 82.7855 76.2412 82.5482 76.2412C82.3109 76.2412 82.1185 76.4353 82.1185 76.6746ZM82.1185 80.2052V81.9707C82.1185 82.2101 82.3109 82.4041 82.5482 82.4041C82.7855 82.4041 82.9778 82.2101 82.9778 81.9707V80.2052C82.9778 79.9658 82.7855 79.7718 82.5482 79.7718C82.3109 79.7718 82.1185 79.9658 82.1185 80.2052Z" fill="#E4794A"/>
<path fill-rule="evenodd" clip-rule="evenodd" d="M82.5482 83.3047C82.777 83.3047 82.964 83.4851 82.9771 83.7127L82.9778 83.7381V84.605C82.9778 84.8444 82.7855 85.0385 82.5482 85.0385C82.3194 85.0385 82.1323 84.858 82.1193 84.6305L82.1185 84.605V83.7381C82.1185 83.4987 82.3109 83.3047 82.5482 83.3047Z" fill="#E4794A"/>
<path fill-rule="evenodd" clip-rule="evenodd" d="M103.973 63.9414C104.202 63.9414 104.389 64.1219 104.402 64.3494L104.403 64.3748V65.2417C104.403 65.4811 104.211 65.6752 103.973 65.6752C103.745 65.6752 103.558 65.4947 103.545 65.2672L103.544 65.2417V64.3748C103.544 64.1355 103.736 63.9414 103.973 63.9414Z" fill="#E4794A"/>
<path fill-rule="evenodd" clip-rule="evenodd" d="M103.544 66.9178V68.5993C103.544 68.8387 103.736 69.0328 103.973 69.0328C104.211 69.0328 104.403 68.8387 104.403 68.5993V66.9178C104.403 66.6784 104.211 66.4844 103.973 66.4844C103.736 66.4844 103.544 66.6784 103.544 66.9178ZM103.544 70.2812V71.9627C103.544 72.202 103.736 72.3961 103.973 72.3961C104.211 72.3961 104.403 72.202 104.403 71.9627V70.2812C104.403 70.0418 104.211 69.8477 103.973 69.8477C103.736 69.8477 103.544 70.0418 103.544 70.2812ZM103.544 73.6438V75.3253C103.544 75.5647 103.736 75.7588 103.973 75.7588C104.211 75.7588 104.403 75.5647 104.403 75.3253V73.6438C104.403 73.4045 104.211 73.2104 103.973 73.2104C103.736 73.2104 103.544 73.4045 103.544 73.6438ZM103.544 77.0072V78.6887C103.544 78.9281 103.736 79.1221 103.973 79.1221C104.211 79.1221 104.403 78.9281 104.403 78.6887V77.0072C104.403 76.7678 104.211 76.5737 103.973 76.5737C103.736 76.5737 103.544 76.7678 103.544 77.0072ZM103.544 80.3699V82.0514C103.544 82.2908 103.736 82.4848 103.973 82.4848C104.211 82.4848 104.403 82.2908 104.403 82.0514V80.3699C104.403 80.1305 104.211 79.9364 103.973 79.9364C103.736 79.9364 103.544 80.1305 103.544 80.3699Z" fill="#E4794A"/>
<path fill-rule="evenodd" clip-rule="evenodd" d="M103.973 83.3008C104.202 83.3008 104.389 83.4812 104.402 83.7088L104.403 83.7342V84.6011C104.403 84.8405 104.211 85.0346 103.973 85.0346C103.745 85.0346 103.558 84.8541 103.545 84.6266L103.544 84.6011V83.7342C103.544 83.4948 103.736 83.3008 103.973 83.3008Z" fill="#E4794A"/>
<path fill-rule="evenodd" clip-rule="evenodd" d="M119.286 56.2222C119.535 56.0243 119.895 56.0669 120.091 56.3173C120.287 56.5677 120.245 56.9311 119.997 57.129C114.204 61.7472 108.8 64.2453 103.447 65.1023C101.286 65.4485 99.1561 65.5258 96.9333 65.3793L96.7247 65.3649C94.9868 65.2398 93.431 65.0156 91.057 64.5897L89.1604 64.249C87.624 63.9753 87.3425 63.9378 86.4904 63.8383C84.9881 63.6628 83.7564 63.6491 82.634 63.8208C79.0327 64.3721 76.8637 65.3378 73.8299 67.4279L73.3008 67.7971L72.3774 68.4473C71.8716 68.8023 71.4725 69.0768 71.0694 69.3443C69.3006 70.5184 67.6551 71.4095 65.6727 72.1957C61.6371 73.8041 57.3278 74.0237 53.2661 73.3408C52.9541 73.2883 52.7432 72.9906 52.7952 72.6757C52.8473 72.3609 53.1424 72.1482 53.4545 72.2007C57.3272 72.8518 61.4332 72.6426 65.2526 71.1204C67.0986 70.3883 68.6373 69.5631 70.2849 68.481L70.4397 68.3788C70.7174 68.1944 70.9942 68.006 71.3082 67.7881L72.9631 66.6263L73.1829 66.474C76.3491 64.2928 78.6695 63.2586 82.4621 62.6781C83.6604 62.4947 84.9464 62.503 86.4779 62.6736L86.9681 62.731C87.5413 62.8003 87.9231 62.8572 88.949 63.0379L91.5178 63.4982C93.7098 63.8874 95.1807 64.095 96.8062 64.212C99.0212 64.3715 101.129 64.3032 103.268 63.9608C108.419 63.1359 113.643 60.7214 119.286 56.2222Z" fill="#FAA184"/>
<path fill-rule="evenodd" clip-rule="evenodd" d="M103.973 65.3462C104.503 65.3462 104.933 64.9128 104.933 64.3782C104.933 63.8436 104.503 63.4102 103.973 63.4102C103.444 63.4102 103.014 63.8436 103.014 64.3782C103.014 64.9128 103.444 65.3462 103.973 65.3462Z" fill="#E4794A"/>
<path fill-rule="evenodd" clip-rule="evenodd" d="M82.5481 64.3345C83.078 64.3345 83.5076 63.9011 83.5076 63.3665C83.5076 62.8318 83.078 62.3984 82.5481 62.3984C82.0181 62.3984 81.5885 62.8318 81.5885 63.3665C81.5885 63.9011 82.0181 64.3345 82.5481 64.3345Z" fill="#E4794A"/>
<path fill-rule="evenodd" clip-rule="evenodd" d="M60.6501 73.8696C61.1801 73.8696 61.6097 73.4362 61.6097 72.9016C61.6097 72.367 61.1801 71.9336 60.6501 71.9336C60.1202 71.9336 59.6906 72.367 59.6906 72.9016C59.6906 73.4362 60.1202 73.8696 60.6501 73.8696Z" fill="#E4794A"/>
<path fill-rule="evenodd" clip-rule="evenodd" d="M51.0688 73.1775C51.0688 73.1775 54.4201 76.5006 55.6948 75.7782C56.9694 75.0558 57.6282 74.449 57.6282 73.611C57.6282 72.773 56.2963 72.224 55.6375 73.611C55.6375 73.611 53.346 72.3251 53.1169 71.4727" fill="white"/>
<path fill-rule="evenodd" clip-rule="evenodd" d="M53.0045 71.0543C53.2253 70.9939 53.4527 71.1186 53.5243 71.3348L53.5316 71.3592C53.5605 71.4667 53.6916 71.6468 53.9114 71.8598C54.0986 72.0413 54.3391 72.2375 54.6193 72.4414C54.849 72.6085 55.094 72.7726 55.3412 72.9282L55.4891 73.0201L55.5076 72.9952C55.8794 72.5038 56.3856 72.2717 56.9091 72.3427L56.9494 72.3488C57.5746 72.4521 58.058 72.9801 58.058 73.6109C58.058 74.6054 57.4012 75.3082 55.9053 76.156C55.2768 76.5122 54.4386 76.2632 53.3975 75.6118C53.0626 75.4023 52.7127 75.1529 52.3528 74.8719C51.965 74.569 51.5858 74.2454 51.2301 73.9218L51.1096 73.8112C51.0708 73.7753 51.0333 73.7404 50.9973 73.7066L50.8221 73.5397L50.7678 73.4866C50.5985 73.3188 50.5962 73.0444 50.7625 72.8736C50.9222 72.7098 51.1793 72.701 51.3493 72.849L51.3701 72.8684C51.3895 72.8876 51.4283 72.9253 51.4843 72.9788L51.583 73.0723C51.6518 73.1369 51.7262 73.2057 51.8057 73.278C52.1464 73.588 52.5096 73.898 52.8789 74.1865C53.2167 74.4503 53.543 74.6828 53.8504 74.8751C54.6378 75.3678 55.2309 75.544 55.4844 75.4002L55.6067 75.3302C56.7634 74.6594 57.1987 74.1748 57.1987 73.6109C57.1987 73.4207 57.0343 73.2413 56.8105 73.2043C56.5357 73.1589 56.2463 73.3325 56.025 73.7982C55.9181 74.0234 55.6451 74.1111 55.4287 73.9897L55.313 73.923L55.2009 73.8567C55.1426 73.8219 55.081 73.7846 55.0168 73.7449C54.7106 73.5561 54.4042 73.3537 54.1168 73.1446C53.8063 72.9188 53.536 72.6981 53.316 72.485C52.9934 72.1723 52.7816 71.8812 52.7023 71.5861C52.6402 71.355 52.7755 71.1169 53.0045 71.0543Z" fill="#2F4077"/>
<path fill-rule="evenodd" clip-rule="evenodd" d="M49.1785 74.2617C49.1785 74.2617 52.2004 77.2814 53.5753 76.9057C53.5753 76.9057 54.7496 76.5734 54.9501 75.851" fill="white"/>
<path fill-rule="evenodd" clip-rule="evenodd" d="M48.8732 73.9565C49.0402 73.7865 49.3122 73.7852 49.4808 73.9536L49.5548 74.0261L49.5928 74.0629C49.6855 74.152 49.7914 74.2515 49.9086 74.3588C50.2434 74.6656 50.6006 74.9723 50.9641 75.2577C51.3023 75.5232 51.6289 75.7566 51.9364 75.9486C52.6257 76.3791 53.1716 76.5668 53.4592 76.4882L53.5015 76.4752C53.5363 76.4638 53.5839 76.4471 53.6409 76.4251C53.7847 76.3696 53.9283 76.3023 54.0595 76.2245C54.3103 76.0758 54.4739 75.9128 54.5283 75.7595L54.5364 75.734C54.6003 75.5035 54.8374 75.3689 55.0659 75.4335C55.2945 75.498 55.4278 75.7372 55.3638 75.9677C55.2472 76.3878 54.9328 76.7122 54.4948 76.9719C54.3189 77.0762 54.1334 77.1631 53.9482 77.2347C53.8363 77.2779 53.7471 77.3071 53.6875 77.3239C53.0944 77.486 52.3628 77.2345 51.4841 76.6857C51.1482 76.4759 50.7972 76.2251 50.4363 75.9418C50.0542 75.6417 49.6809 75.3212 49.3309 75.0006L49.2123 74.8912C49.1741 74.8556 49.1373 74.821 49.1019 74.7875L48.9749 74.6662L48.8761 74.5695C48.7075 74.4011 48.7062 74.1266 48.8732 73.9565Z" fill="#2F4077"/>
<path fill-rule="evenodd" clip-rule="evenodd" d="M45.3259 75.0273C45.3259 75.0273 48.4623 79.2028 49.6367 79.5207C50.8111 79.8241 50.4817 78.3215 48.2045 75.3308" fill="white"/>
<path fill-rule="evenodd" clip-rule="evenodd" d="M45.0664 74.6818C45.2482 74.5427 45.5044 74.572 45.6512 74.7441L45.8132 74.9557C45.9305 75.1084 46.063 75.2787 46.2079 75.4621C46.6218 75.9861 47.0519 76.51 47.4753 76.998C47.6606 77.2114 47.8407 77.4136 48.0147 77.6027L48.1077 77.7032C48.8614 78.5118 49.462 79.0245 49.7433 79.1007C49.7839 79.1111 49.819 79.118 49.8483 79.1218L49.8704 79.1242C49.8693 79.0511 49.8522 78.9525 49.8172 78.8313L49.8048 78.7901C49.5926 78.1042 48.928 76.9923 47.8638 75.5947C47.7192 75.4048 47.7546 75.1327 47.9428 74.9869C48.131 74.8411 48.4007 74.8767 48.5453 75.0666L48.6681 75.229C49.718 76.6261 50.3849 77.7556 50.6251 78.5317C50.9345 79.5318 50.4878 80.1879 49.5254 79.9392C49.006 79.7986 48.3049 79.1924 47.3848 78.1924C47.2049 77.9969 47.0192 77.7885 46.8287 77.5689C46.3957 77.0698 45.9575 76.5361 45.5359 76.0024L45.4126 75.8457C45.3726 75.7947 45.3337 75.7448 45.2959 75.6962L44.9834 75.289C44.8401 75.0982 44.8772 74.8263 45.0664 74.6818Z" fill="#2F4077"/>
<path fill-rule="evenodd" clip-rule="evenodd" d="M227.9 87.9961C228.177 87.9961 228.401 88.2225 228.401 88.5018C228.401 88.7718 228.191 88.9923 227.927 89.0067L227.9 89.0075H1.08592C0.809078 89.0075 0.584656 88.7811 0.584656 88.5018C0.584656 88.2318 0.794366 88.0112 1.05841 87.9968L1.08592 87.9961H227.9Z" fill="#2F4077"/>
</svg>
