<svg width="172" height="101" viewBox="0 0 172 101" fill="none" xmlns="http://www.w3.org/2000/svg">
<path fill-rule="evenodd" clip-rule="evenodd" d="M81.8429 17.3508C81.8429 17.3508 85.3814 14.5322 83.9462 13.3435C82.511 12.1547 80.4447 15.8312 75.3225 16.7994C71.2766 17.5714 62.7024 28.7846 68.8763 35.0714C74.2089 40.5003 81.348 41.5665 81.348 41.5665L94.9331 35.3288C94.9331 35.3288 79.3065 29.2258 80.2715 26.5665C81.2366 23.9195 81.8429 17.3508 81.8429 17.3508Z" fill="white"/>
<path fill-rule="evenodd" clip-rule="evenodd" d="M82.1067 13.132L82.0665 13.1548C81.6368 13.4044 80.0462 14.4661 79.5647 14.7533C78.2079 15.5626 76.8877 16.1137 75.3723 16.4153L75.2522 16.4385C73.0225 16.864 69.8017 20.0388 67.9356 23.702C65.6931 28.104 65.6956 32.3601 68.6102 35.328C69.6511 36.3876 70.8029 37.3289 72.0468 38.1588C74.0669 39.5067 76.2291 40.5014 78.3914 41.1976C79.1041 41.4271 79.7693 41.6082 80.3724 41.7464L80.4848 41.7718C80.6577 41.8105 80.8157 41.8433 80.9579 41.8708L81.1346 41.9037C81.2079 41.9168 81.2609 41.9255 81.2926 41.9302C81.3645 41.941 81.438 41.9306 81.504 41.9003L95.0892 35.6625C95.3782 35.5298 95.3733 35.1254 95.0904 34.9959L95.028 34.9707L94.7463 34.8589L94.4414 34.7364C93.9739 34.5475 93.4564 34.3344 92.9007 34.1005L92.781 34.0501C91.0633 33.3253 89.3458 32.5575 87.744 31.7809C86.5392 31.1969 85.4475 30.6304 84.4956 30.0898L84.3774 30.0224C81.7679 28.528 80.4023 27.2933 80.6208 26.6911C80.9512 25.7848 81.2571 24.4027 81.5404 22.6626L81.557 22.5599C81.7394 21.4271 81.9013 20.2146 82.0409 19.0024L82.0917 18.5521C82.1038 18.4428 82.1154 18.336 82.1265 18.2319L82.1838 17.6791L82.1978 17.5367L82.1873 17.5457C82.2736 17.4735 82.3696 17.391 82.4728 17.2994C82.7675 17.0378 83.0622 16.7546 83.3382 16.4591C83.7172 16.0534 84.0311 15.6562 84.2588 15.2751C84.7874 14.3901 84.8363 13.6017 84.1843 13.0616C83.6119 12.5875 82.97 12.655 82.1067 13.132ZM75.3336 17.1726L75.392 17.1607C77.0518 16.847 78.4851 16.2556 79.9477 15.3832L80.0019 15.3504C80.5786 14.9992 82.1537 13.948 82.4684 13.7741L82.55 13.7299C83.1228 13.4263 83.4404 13.404 83.7081 13.6257C84.0114 13.877 83.986 14.2878 83.6199 14.9007C83.4226 15.231 83.1395 15.5892 82.7933 15.9597C82.5344 16.2369 82.2558 16.5046 81.9772 16.7519C81.9123 16.8096 81.8504 16.8634 81.7925 16.9128L81.7086 16.9837C81.6607 17.0237 81.6271 17.0511 81.6102 17.0645C81.5318 17.127 81.4823 17.2183 81.4732 17.3176L81.4352 17.705L81.3992 18.0523C81.3742 18.2889 81.3466 18.5407 81.3164 18.805L81.3033 18.919C81.1741 20.0411 81.0257 21.163 80.8597 22.2189L80.8239 22.4441C80.5428 24.1898 80.2394 25.5722 79.9224 26.4418C79.5073 27.5857 81.0071 28.9416 84.0058 30.6589C85.0014 31.2291 86.1484 31.826 87.4176 32.4413C88.9374 33.1781 90.5583 33.9062 92.185 34.5974L92.6104 34.7773L92.9961 34.9389C93.2067 35.0267 93.4111 35.1112 93.6085 35.1922L94.0003 35.352L81.2961 41.1852L81.2114 41.1701C81.0675 41.1437 80.9025 41.1105 80.7181 41.0701L80.6481 41.0546C80.0373 40.9181 79.3556 40.7349 78.6209 40.4983C76.5205 39.8221 74.42 38.8557 72.4615 37.549C71.2588 36.7466 70.1464 35.8375 69.1423 34.8152C66.4861 32.1105 66.4838 28.1841 68.5983 24.0332C70.3535 20.5878 73.3726 17.5948 75.3336 17.1726Z" fill="#2F4077"/>
<rect x="82.0656" y="14.7656" width="20.8603" height="9.57108" fill="#FAA184"/>
<path fill-rule="evenodd" clip-rule="evenodd" d="M90.4418 21.6523C90.6468 21.6523 90.813 21.8169 90.813 22.02C90.813 22.2158 90.6584 22.3758 90.4636 22.387L90.4418 22.3876H84.738C84.533 22.3876 84.3668 22.223 84.3668 22.02C84.3668 21.8242 84.5213 21.6642 84.7162 21.653L84.738 21.6523H90.4418Z" fill="#2F4077"/>
<path fill-rule="evenodd" clip-rule="evenodd" d="M99.9068 19.998C100.112 19.998 100.278 20.1626 100.278 20.3657C100.278 20.5615 100.124 20.7215 99.9287 20.7327L99.9068 20.7333H84.738C84.533 20.7333 84.3668 20.5687 84.3668 20.3657C84.3668 20.1699 84.5213 20.0099 84.7162 19.9987L84.738 19.998H99.9068Z" fill="#2F4077"/>
<path fill-rule="evenodd" clip-rule="evenodd" d="M99.9068 18.418C100.112 18.418 100.278 18.5826 100.278 18.7856C100.278 18.9814 100.124 19.1415 99.9287 19.1526L99.9068 19.1533H84.738C84.533 19.1533 84.3668 18.9887 84.3668 18.7856C84.3668 18.5898 84.5213 18.4298 84.7162 18.4186L84.738 18.418H99.9068Z" fill="#2F4077"/>
<path fill-rule="evenodd" clip-rule="evenodd" d="M99.9068 16.8242C100.112 16.8242 100.278 16.9888 100.278 17.1919C100.278 17.3877 100.124 17.5477 99.9287 17.5589L99.9068 17.5595H84.738C84.533 17.5595 84.3668 17.3949 84.3668 17.1919C84.3668 16.9961 84.5213 16.836 84.7162 16.8248L84.738 16.8242H99.9068Z" fill="#2F4077"/>
<path fill-rule="evenodd" clip-rule="evenodd" d="M75.5204 16.751C78.9847 15.6235 84.738 16.3833 85.5174 16.8245C86.2969 17.2657 86.4206 18.9324 84.6019 18.8711C82.7831 18.8098 79.2074 18.3196 79.2074 18.3196C81.9294 19.0794 85.2947 20.1824 85.7154 20.6726C86.3588 21.4201 85.2824 22.8294 83.4388 22.2534L78.1557 20.8074C78.1557 20.8074 83.9337 23.0132 84.5647 23.5157C85.1958 24.0304 84.5647 26.1382 81.0633 24.5696C77.5618 23.001 77.2401 23.1848 77.2401 23.1848C77.2401 23.1848 81.4221 25.3049 82.1645 25.9299C82.9068 26.5549 80.556 28.7976 76.7824 26.1505C76.7824 26.1505 76.0895 28.9201 72.5633 27.6701" fill="white"/>
<path fill-rule="evenodd" clip-rule="evenodd" d="M75.4045 16.401C76.9861 15.8863 79.1276 15.7137 81.4245 15.8255L81.5455 15.8317C83.4314 15.9315 85.2042 16.2231 85.7016 16.5046C86.2348 16.8064 86.5287 17.4947 86.3972 18.1115C86.2436 18.8316 85.5834 19.2713 84.5892 19.2378L84.4515 19.2325C84.0982 19.2174 83.6782 19.1881 83.2011 19.1464L83.1433 19.1412L83.429 19.2407C84.7713 19.7132 85.7176 20.1322 85.9837 20.4175L85.9979 20.4333C86.4557 20.9653 86.3248 21.7264 85.7581 22.2318C85.2981 22.642 84.6353 22.8265 83.895 22.7296L83.8484 22.7231L84.0005 22.7937C84.3735 22.969 84.6325 23.1075 84.7706 23.2082L84.8007 23.2312C85.344 23.6744 85.2481 24.6111 84.5906 25.1141C84.0028 25.5639 83.0964 25.6386 81.9251 25.287L81.8447 25.2623L81.9395 25.3218C82.1344 25.4458 82.2848 25.5505 82.3875 25.6347L82.4049 25.6491C82.7512 25.9407 82.7488 26.4034 82.475 26.8052C82.2371 27.1544 81.8106 27.4477 81.2806 27.6165C80.1025 27.9918 78.6133 27.7386 77.022 26.7501L76.9592 26.7108L76.9306 26.7676C76.8466 26.9301 76.7455 27.0907 76.6257 27.245L76.5799 27.3026C75.7357 28.3376 74.3635 28.698 72.4382 28.0155C72.2452 27.9471 72.1447 27.7367 72.2138 27.5455C72.2829 27.3543 72.4954 27.2548 72.6884 27.3232C74.3205 27.9018 75.3594 27.6289 76.0024 26.8406C76.1445 26.6664 76.2551 26.4786 76.3373 26.2913C76.36 26.2395 76.3791 26.191 76.3947 26.1468L76.4058 26.1145C76.4153 26.0855 76.4206 26.0672 76.4221 26.0614C76.485 25.81 76.7835 25.7001 76.9969 25.8498C78.5775 26.9585 80.0013 27.2516 81.0533 26.9165C81.4331 26.7955 81.7208 26.5977 81.8597 26.3939C81.9083 26.3226 81.9297 26.2627 81.9299 26.2248L81.9298 26.2161C81.9295 26.2143 81.9287 26.2134 81.9272 26.2119L81.895 26.1856C81.6263 25.9723 80.9108 25.5493 79.8977 24.9966L79.5807 24.8246C79.0929 24.5614 78.5738 24.2874 78.0512 24.0157L77.7034 23.8356L77.071 23.5114C76.8092 23.3786 76.7998 23.0113 77.0547 22.8656C77.093 22.8437 77.134 22.8292 77.1775 22.8205L77.201 22.8165C77.5754 22.7627 78.5957 23.0781 80.775 24.0378L81.2163 24.2339C82.6605 24.8809 83.6455 24.9081 84.1368 24.5322C84.4396 24.3006 84.4784 23.9208 84.3322 23.8015C84.1385 23.6473 83.1803 23.2135 81.7634 22.6303L81.3564 22.4638L81.2474 22.4196C80.6126 22.162 79.9367 21.8937 79.2567 21.6278L78.6888 21.4066L78.0222 21.1497C77.5897 20.9846 77.7936 20.3489 78.2328 20.4469L78.2546 20.4523L83.5377 21.8984L83.5505 21.9021C84.2726 22.1277 84.8895 22.017 85.2613 21.6854C85.5512 21.4269 85.6055 21.1109 85.4326 20.9099C85.1337 20.5616 82.22 19.5418 79.1067 18.6728C78.6695 18.5507 78.796 17.9141 79.2353 17.9521L79.8416 18.0318L79.9168 18.0414C80.4244 18.1066 80.9579 18.1717 81.492 18.2325L81.8226 18.2696C81.9861 18.2876 82.1468 18.3048 82.3043 18.3212L82.6406 18.3554C83.4404 18.4346 84.112 18.486 84.6145 18.5029C85.2689 18.525 85.5968 18.3066 85.6708 17.9595C85.737 17.6492 85.5807 17.283 85.3333 17.143C84.9725 16.9388 83.2744 16.6595 81.5059 16.5659C79.2472 16.4464 77.1424 16.6094 75.6362 17.0995C75.4415 17.1629 75.2317 17.0579 75.1677 16.865C75.1037 16.6721 75.2097 16.4644 75.4045 16.401Z" fill="#2F4077"/>
<path fill-rule="evenodd" clip-rule="evenodd" d="M116.263 100.085L118.961 86.3715C118.961 86.3715 115.447 70.4279 116.598 66.9107C117.748 63.3936 121.608 59.2637 121.608 59.2637L110.547 54.9867L110.362 38.0137C112.378 38.7735 132.694 46.9475 132.694 46.9475C132.694 46.9475 149.731 50.2441 152.491 51.1264C160.001 53.5406 171.99 61.249 154.272 81.1387L156.4 99.9745" fill="#465F9D"/>
<path fill-rule="evenodd" clip-rule="evenodd" d="M130.579 43.3568L132.694 47.0578L131.16 46.4573C130.801 47.0823 124.838 56.9843 135.243 59.2759C142.06 60.7833 148.643 56.3593 152.218 51.4941L147.764 49.57L143.063 38.6387L130.579 43.3568Z" fill="white"/>
<path fill-rule="evenodd" clip-rule="evenodd" d="M130.446 43.0119L130.425 43.0205C130.228 43.1086 130.147 43.3473 130.256 43.5365L131.854 46.3319L131.297 46.114C131.132 46.0495 130.945 46.1095 130.849 46.2547L130.787 46.3606L130.733 46.4559L130.705 46.5045C130.628 46.6414 130.549 46.7855 130.466 46.9426C130.24 47.3716 130.02 47.8322 129.814 48.3234C129.133 49.9446 128.736 51.5645 128.766 53.0924C128.831 56.3426 130.821 58.6771 135.163 59.6334C138.462 60.363 141.874 59.7799 145.118 58.0991C147.982 56.6154 150.599 54.3206 152.518 51.709L152.531 51.6904C152.653 51.5018 152.577 51.2466 152.367 51.1557L148.048 49.29L143.404 38.4932C143.326 38.3114 143.117 38.2233 142.93 38.2938L130.446 43.0119ZM142.861 39.1067L147.423 49.7127L147.434 49.7358C147.473 49.8114 147.537 49.8715 147.616 49.9056L151.641 51.6444L151.616 51.6772C149.794 54.0333 147.386 56.0941 144.774 57.4475C141.678 59.052 138.441 59.605 135.324 58.9157C131.311 58.032 129.567 55.9843 129.509 53.0779C129.48 51.6671 129.854 50.141 130.499 48.6058C130.697 48.1353 130.908 47.6937 131.124 47.2827L131.163 47.2086C131.189 47.1599 131.215 47.1124 131.24 47.066L131.324 46.9152L132.558 47.3983L132.577 47.4052C132.895 47.5121 133.186 47.171 133.017 46.8752L131.114 43.5463L142.861 39.1067Z" fill="#2F4077"/>
<path fill-rule="evenodd" clip-rule="evenodd" d="M65.0284 81.8106L60.5124 98.2322H87.6827L83.278 81.6758L65.0284 81.8106Z" fill="#E4794A"/>
<path fill-rule="evenodd" clip-rule="evenodd" d="M73.7263 86.0391C71.7105 86.0391 70.0764 87.6576 70.0764 89.6543C70.0764 91.6509 71.7105 93.2695 73.7263 93.2695C75.7421 93.2695 77.3763 91.6509 77.3763 89.6543C77.3763 87.6576 75.7421 86.0391 73.7263 86.0391ZM73.7263 86.7744C75.3321 86.7744 76.6339 88.0637 76.6339 89.6543C76.6339 91.2448 75.3321 92.5342 73.7263 92.5342C72.1205 92.5342 70.8188 91.2448 70.8188 89.6543C70.8188 88.0637 72.1205 86.7744 73.7263 86.7744Z" fill="#2F4077"/>
<path fill-rule="evenodd" clip-rule="evenodd" d="M80.8917 82.1153C81.0842 82.0705 81.2768 82.1828 81.3324 82.3681L81.3381 82.389L84.9756 97.7077C85.0225 97.9053 84.8988 98.1032 84.6993 98.1497C84.5068 98.1945 84.3142 98.0822 84.2586 97.8969L84.253 97.876L80.6154 82.5574C80.5685 82.3597 80.6922 82.1618 80.8917 82.1153Z" fill="#2F4077"/>
<path fill-rule="evenodd" clip-rule="evenodd" d="M110.696 82.4241H35.1609C34.4185 82.4241 33.7999 81.8114 33.7999 81.0761V36.4437C33.7999 35.6962 34.4185 35.0957 35.1609 35.0957H110.696C111.438 35.0957 112.057 35.6962 112.057 36.4437V81.0761C112.057 81.8114 111.451 82.4241 110.696 82.4241Z" fill="#E4794A"/>
<path fill-rule="evenodd" clip-rule="evenodd" d="M103.99 37.6934H38.8974C37.9377 37.6934 37.1652 38.4585 37.1652 39.409V77.0561C37.1652 78.0067 37.9377 78.7718 38.8974 78.7718H103.99C104.95 78.7718 105.722 78.0067 105.722 77.0561V39.409C105.722 38.4585 104.95 37.6934 103.99 37.6934ZM38.8974 38.4287H103.99C104.54 38.4287 104.98 38.8645 104.98 39.409V77.0561C104.98 77.6006 104.54 78.0365 103.99 78.0365H38.8974C38.3477 78.0365 37.9076 77.6006 37.9076 77.0561V39.409C37.9076 38.8645 38.3477 38.4287 38.8974 38.4287Z" fill="#2F4077"/>
<path fill-rule="evenodd" clip-rule="evenodd" d="M108.778 35.0957C108.976 35.0957 109.137 35.2488 109.149 35.4417L109.149 35.4634V81.9952C109.149 82.1983 108.983 82.3629 108.778 82.3629C108.58 82.3629 108.419 82.2098 108.407 82.0168L108.407 81.9952V35.4634C108.407 35.2603 108.573 35.0957 108.778 35.0957Z" fill="#2F4077"/>
<path fill-rule="evenodd" clip-rule="evenodd" d="M83.3151 82.0078C83.5201 82.0078 83.6863 82.1724 83.6863 82.3755C83.6863 82.5713 83.5318 82.7313 83.337 82.7425L83.3151 82.7431H64.9294C64.7244 82.7431 64.5582 82.5785 64.5582 82.3755C64.5582 82.1797 64.7128 82.0196 64.9076 82.0084L64.9294 82.0078H83.3151Z" fill="#2F4077"/>
<path fill-rule="evenodd" clip-rule="evenodd" d="M85.2824 58.088C89.2662 58.088 92.4956 54.8893 92.4956 50.9434C92.4956 46.9976 89.2662 43.7988 85.2824 43.7988C81.2986 43.7988 78.0692 46.9976 78.0692 50.9434C78.0692 54.8893 81.2986 58.088 85.2824 58.088Z" fill="#FAA184"/>
<rect x="77.4876" y="50.3906" width="1.11353" height="1.10294" fill="#2F4077"/>
<rect x="91.8893" y="50.3906" width="1.11354" height="1.10294" fill="#2F4077"/>
<rect x="84.7256" y="57.5977" width="1.11354" height="1.10294" fill="#2F4077"/>
<rect x="84.7256" y="43.2344" width="1.11354" height="1.10294" fill="#2F4077"/>
<path fill-rule="evenodd" clip-rule="evenodd" d="M92.5328 43.5645H78.0321C77.8954 43.5645 77.7846 43.6742 77.7846 43.8096V58.1355C77.7846 58.2709 77.8954 58.3806 78.0321 58.3806H92.5328C92.6695 58.3806 92.7802 58.2709 92.7802 58.1355V43.8096C92.7802 43.6742 92.6695 43.5645 92.5328 43.5645ZM92.2853 44.0545V57.8903H78.2795V44.0545H92.2853Z" fill="#2F4077"/>
<rect x="77.4753" y="43.2344" width="1.11353" height="1.10294" fill="#2F4077"/>
<rect x="91.9389" y="43.2344" width="1.11354" height="1.10294" fill="#2F4077"/>
<rect x="77.4753" y="57.6211" width="1.11353" height="1.10294" fill="#2F4077"/>
<rect x="91.9389" y="57.6211" width="1.11354" height="1.10294" fill="#2F4077"/>
<path fill-rule="evenodd" clip-rule="evenodd" d="M95.4156 100.428H52.7671C52.0124 100.428 51.4061 99.8272 51.4061 99.0796V98.9203C51.4061 98.1728 52.0124 97.5723 52.7671 97.5723H95.4156C96.1703 97.5723 96.7766 98.1728 96.7766 98.9203V99.0796C96.7766 99.8272 96.1703 100.428 95.4156 100.428Z" fill="#2F4077"/>
<path fill-rule="evenodd" clip-rule="evenodd" d="M90.5408 53.2944C90.5408 53.2944 89.8479 49.3116 91.1223 46.64C93.9309 40.7332 93.0772 54.3116 95.9229 54.8263" fill="white"/>
<path fill-rule="evenodd" clip-rule="evenodd" d="M91.7853 44.989C92.1894 44.6749 92.6288 44.7345 92.9407 45.1179C93.3006 45.5604 93.5279 46.3818 93.8388 48.0683L94.1734 49.9323L94.2222 50.1928C94.743 52.9295 95.2712 54.3087 95.9677 54.4608L95.9895 54.4652C96.1912 54.5016 96.3248 54.6931 96.288 54.8929C96.2512 55.0926 96.0579 55.225 95.8562 55.1885C95.1553 55.0617 94.6534 54.4144 94.2489 53.329C93.9616 52.5582 93.7341 51.6166 93.4782 50.253L93.3992 49.8227C93.3125 49.3418 93.1638 48.5033 93.1359 48.3497L93.096 48.1328C92.8241 46.6722 92.6124 45.9025 92.3741 45.5938L92.3305 45.5386C92.3112 45.5152 92.3057 45.5172 92.2768 45.5407L92.2436 45.5674C92.044 45.7226 91.7757 46.1291 91.4579 46.7976C91.1785 47.3834 90.9829 48.0719 90.8639 48.8422C90.6789 50.0395 90.6883 51.3262 90.8159 52.5398L90.8312 52.6794C90.8442 52.7926 90.8575 52.8982 90.8709 52.9953L90.8917 53.139L90.9066 53.2326C90.9414 53.4326 90.8058 53.6228 90.6038 53.6573C90.4018 53.6918 90.2098 53.5575 90.175 53.3574L90.1604 53.267C90.1555 53.2356 90.15 53.1983 90.1439 53.1555C90.1212 52.9969 90.0986 52.8161 90.0776 52.616C89.9439 51.3452 89.9341 49.9994 90.1301 48.731C90.2593 47.8948 90.4739 47.1392 90.7865 46.4839C91.1499 45.7196 91.4705 45.2336 91.7853 44.989Z" fill="#2F4077"/>
<path fill-rule="evenodd" clip-rule="evenodd" d="M140.811 67.2295L131.494 78.2222C131.494 78.2222 107.912 66.0653 101.726 59.031C96.0589 53.1486 94.7969 53.0996 94.7969 53.0996C94.7969 53.0996 87.5713 53.2712 85.2948 54.0677C83.0182 54.8521 75.5575 57.303 75.9782 58.4795C76.2751 59.3128 80.3457 58.8472 82.4367 58.5285L86.3712 63.6266C86.3712 63.6266 88.2271 63.0996 89.2911 63.2099C91.4811 63.4305 93.9061 64.3006 95.131 63.6266C95.131 63.6266 107.083 85.5383 129.774 93.406C132.138 94.2271 134.723 94.129 137 93.1119C142.63 90.5996 153.072 84.0432 158.417 75.5628L140.811 67.2295Z" fill="white"/>
<path fill-rule="evenodd" clip-rule="evenodd" d="M85.2576 53.6902L83.353 54.3438L83.3066 54.3599C82.4054 54.6737 81.5916 54.9671 80.8198 55.2599L80.54 55.3667C79.8948 55.6148 79.3041 55.8539 78.7714 56.0843L78.6582 56.1335C76.4139 57.1141 75.3507 57.8243 75.6283 58.6007C75.8499 59.2227 76.8291 59.3699 78.5495 59.3018L78.67 59.2966C79.6801 59.2507 80.882 59.1231 82.063 58.9539L82.2751 58.9229L86.0763 63.8483C86.1639 63.9618 86.3094 64.0141 86.4489 63.9845L86.6399 63.9337C86.6647 63.9272 86.6907 63.9205 86.7179 63.9136C86.9123 63.8643 87.1234 63.8148 87.3432 63.7687C87.6554 63.7033 87.9588 63.6502 88.2425 63.6138C88.6469 63.562 88.9916 63.5469 89.2525 63.574C89.5489 63.6038 89.863 63.647 90.2195 63.7055L90.4428 63.7431C90.6102 63.772 90.7844 63.8035 91.0113 63.8456L91.9351 64.0167C92.6491 64.1455 92.9885 64.1924 93.4264 64.2251L93.4983 64.2301C94.0696 64.2674 94.5436 64.2323 94.94 64.1051L94.9711 64.0946L95.0166 64.1736C95.1911 64.4746 95.3998 64.8233 95.6425 65.2157L95.7929 65.4575C96.4538 66.5136 97.2307 67.6775 98.123 68.9236C100.867 72.7562 104.134 76.5884 107.916 80.1659C114.35 86.2512 121.6 90.9597 129.652 93.7514C132.111 94.6059 134.795 94.4986 137.153 93.4454C140.393 91.9996 144.396 89.6234 148.041 86.866C152.536 83.465 156.25 79.6933 158.732 75.7559C158.849 75.5699 158.777 75.3241 158.577 75.2295L140.971 66.8962L140.949 66.8866C140.801 66.8279 140.63 66.8692 140.527 66.9915L131.402 77.7576L130.738 77.41L130.327 77.1928C129.26 76.6288 128.072 75.9905 126.792 75.2908C123.136 73.2916 119.48 71.201 116.069 69.1223L115.613 68.8441C113.953 67.8264 112.394 66.8361 110.953 65.8803L110.578 65.6306C106.568 62.9506 103.626 60.6309 102.006 58.7879L101.994 58.7756L101.746 58.5186C99.4206 56.1199 97.6742 54.5348 96.4205 53.6088L96.3239 53.5381C95.5638 52.9857 95.1029 52.762 94.8452 52.7333L94.8225 52.7312L94.8053 52.7305L94.7782 52.7307L94.399 52.7417L93.9509 52.7571C93.711 52.7659 93.4564 52.7762 93.1898 52.7879C91.9921 52.8407 90.7942 52.913 89.6751 53.0078L89.5752 53.0163C87.6181 53.1852 86.1287 53.4047 85.2576 53.6902ZM94.7657 53.4665L94.772 53.4686C94.8106 53.4805 94.8626 53.5011 94.9287 53.5321L94.9579 53.5461C95.1939 53.6608 95.5134 53.8592 95.9248 54.1601L96.0199 54.2303C97.2343 55.134 98.9389 56.6846 101.211 59.029L101.451 59.2763L101.551 59.3891C103.278 61.3104 106.31 63.6794 110.413 66.4069L110.54 66.4913C112.121 67.5396 113.841 68.6283 115.68 69.7486C118.98 71.7595 122.506 73.7804 126.041 75.7194L126.752 76.1086C127.756 76.6557 128.7 77.1636 129.57 77.6259L130.229 77.9747C130.448 78.0899 130.65 78.196 130.835 78.2928L131.323 78.5467L131.344 78.5568C131.494 78.6227 131.672 78.5829 131.778 78.4569L140.91 67.6823L157.879 75.7142L157.863 75.739C155.437 79.4593 151.876 83.0385 147.59 86.2817C143.99 89.0053 140.035 91.3524 136.848 92.7751C134.665 93.7504 132.178 93.8498 129.897 93.0575C121.953 90.3032 114.791 85.6516 108.429 79.6341C104.684 76.0913 101.447 72.2945 98.7285 68.4982C97.7775 67.1701 96.9594 65.9373 96.2755 64.8315L96.1751 64.6686C95.995 64.3749 95.8358 64.1086 95.6976 63.8714L95.5885 63.6826C95.5661 63.6435 95.5453 63.6069 95.526 63.5728L95.4576 63.4502C95.363 63.2768 95.1482 63.2092 94.971 63.2932L94.9116 63.3244C94.347 63.6156 93.6118 63.5743 91.6794 63.2216L90.8364 63.0657C90.6949 63.0402 90.57 63.0184 90.4419 62.9969C90.0294 62.9275 89.6692 62.8768 89.3287 62.8425C89.0018 62.8087 88.6039 62.8261 88.1472 62.8846C87.8421 62.9237 87.5197 62.9801 87.1895 63.0494L87.0912 63.0703C86.9285 63.1055 86.7711 63.1422 86.622 63.1792L86.5151 63.206L82.7316 58.3037C82.6492 58.1968 82.5144 58.1431 82.3803 58.1636C81.043 58.3673 79.6428 58.5226 78.5199 58.5671L78.3643 58.5725C77.7512 58.5915 77.2464 58.5744 76.8742 58.5185C76.6719 58.488 76.5155 58.4469 76.412 58.3991L76.3928 58.3899C76.3746 58.3807 76.3594 58.3718 76.3474 58.3636L76.3417 58.3595L76.3455 58.3525C76.3557 58.3336 76.3715 58.31 76.3933 58.2826C76.4853 58.1676 76.6529 58.0264 76.8894 57.8684C77.3389 57.5682 78.0107 57.2233 78.8737 56.8431L78.9578 56.8062C79.5821 56.5334 80.2938 56.2468 81.0853 55.9465C81.8021 55.6746 82.5568 55.4017 83.386 55.1118L85.4167 54.4134C86.2101 54.1358 87.728 53.9108 89.7383 53.7404C90.7671 53.6532 91.8651 53.5852 92.9681 53.534L93.4467 53.5128C93.7043 53.502 93.9492 53.4927 94.1788 53.4847L94.6524 53.4697L94.7657 53.4665Z" fill="#2F4077"/>
<path fill-rule="evenodd" clip-rule="evenodd" d="M86.1609 55.6973C86.1609 55.6973 81.1995 58.5281 81.5459 60.4277C81.8923 62.3272 83.4142 61.8125 83.4142 61.8125" fill="white"/>
<path fill-rule="evenodd" clip-rule="evenodd" d="M86.4825 55.5143C86.581 55.6837 86.5281 55.8984 86.3654 56.0046L86.1858 56.1105L86.1541 56.1295C85.9987 56.2228 85.8252 56.3299 85.6382 56.4493C85.1042 56.7904 84.5703 57.1604 84.0734 57.5454C83.3604 58.0979 82.786 58.6336 82.403 59.1273C82.0179 59.6238 81.8532 60.0451 81.9111 60.3628C82.0242 60.9829 82.2638 61.3063 82.587 61.4387C82.7852 61.5198 83.0079 61.5257 83.2142 61.4844C83.2314 61.481 83.2472 61.4774 83.2614 61.4739L83.2942 61.4651C83.4882 61.3994 83.6992 61.502 83.7654 61.6942C83.8317 61.8863 83.7281 62.0953 83.5341 62.1609L83.5018 62.1711C83.4657 62.1818 83.4184 62.1937 83.3614 62.2051C83.0229 62.2729 82.6576 62.2632 82.3034 62.1182C81.7338 61.885 81.3366 61.3486 81.1806 60.4935C81.0777 59.929 81.3141 59.3242 81.8143 58.6793C82.2417 58.1284 82.8581 57.5535 83.616 56.9663C84.1324 56.5662 84.6842 56.1837 85.2359 55.8313L85.3781 55.7413C85.4943 55.6682 85.6047 55.6001 85.7083 55.5375L85.8933 55.4271L85.9756 55.3792C86.1532 55.2779 86.3802 55.3383 86.4825 55.5143Z" fill="#2F4077"/>
<path fill-rule="evenodd" clip-rule="evenodd" d="M87.2373 57.6953C87.2373 57.6953 83.0429 60.5875 83.5255 62.4625C84.008 64.3375 85.4927 63.7002 85.4927 63.7002" fill="white"/>
<path fill-rule="evenodd" clip-rule="evenodd" d="M87.5419 57.4838C87.659 57.6504 87.6176 57.8796 87.4493 57.9956L87.3452 58.0693L87.2954 58.1053C87.1701 58.1961 87.0303 58.3005 86.8795 58.417C86.4488 58.7497 86.0181 59.111 85.6173 59.4871C85.0339 60.0346 84.566 60.5653 84.2571 61.0546C83.9234 61.5834 83.7976 62.0299 83.8852 62.3702C84.0325 62.9429 84.2734 63.2467 84.5757 63.37C84.7824 63.4543 85.0155 63.4525 85.2373 63.3952C85.2794 63.3843 85.3112 63.3741 85.3303 63.3672L85.3451 63.3614C85.5332 63.2807 85.7518 63.3663 85.8333 63.5526C85.9148 63.7389 85.8284 63.9554 85.6403 64.0361C85.5934 64.0562 85.52 64.082 85.4247 64.1067C85.0604 64.2008 84.6704 64.2039 84.293 64.0499C83.7603 63.8326 83.3681 63.3381 83.1658 62.5518C83.0186 61.9799 83.1968 61.3474 83.6277 60.6648C83.975 60.1146 84.4816 59.54 85.1068 58.9533C85.5264 58.5596 85.9747 58.1835 86.423 57.8372L86.5385 57.7486C86.6519 57.6624 86.7585 57.5833 86.8569 57.512L86.9344 57.4562L87.0252 57.3921C87.1934 57.2761 87.4248 57.3172 87.5419 57.4838Z" fill="#2F4077"/>
<path fill-rule="evenodd" clip-rule="evenodd" d="M88.6354 60.1328C88.6354 60.1328 83.6368 63.6867 86.5815 64.7529C89.5262 65.8191 90.4913 65.1573 90.4913 65.1573C90.4913 65.1573 91.6048 63.5764 88.524 63.1108" fill="white"/>
<path fill-rule="evenodd" clip-rule="evenodd" d="M88.9369 59.9189C89.0518 60.0775 89.021 60.296 88.8705 60.4178L88.7556 60.5023L88.7305 60.521C88.6313 60.5949 88.5206 60.6799 88.4012 60.7745C88.06 61.0448 87.7189 61.3373 87.4017 61.6403C86.9785 62.0446 86.6319 62.4355 86.3899 62.7962C85.8285 63.633 85.8864 64.1103 86.7089 64.4081C88.3829 65.0142 89.4926 65.1012 90.1403 64.9074L90.1815 64.8944C90.194 64.8903 90.2053 64.8864 90.2153 64.8828L90.2251 64.879L90.2391 64.8496L90.2477 64.8302C90.3345 64.6277 90.3454 64.4281 90.2452 64.249C90.0586 63.916 89.5081 63.6319 88.468 63.4747C88.2654 63.444 88.1262 63.2565 88.1571 63.0558C88.188 62.8551 88.3774 62.7172 88.58 62.7478C89.825 62.936 90.5757 63.3234 90.8943 63.8924C91.1223 64.2994 91.0989 64.7259 90.9309 65.1177C90.8832 65.2289 90.8339 65.3138 90.7957 65.3682C90.7704 65.4041 90.7389 65.4352 90.7025 65.4601C90.6339 65.5072 90.5194 65.562 90.3551 65.6112C89.5392 65.8554 88.2688 65.7558 86.4541 65.0987C85.1012 64.6089 84.9759 63.5754 85.7716 62.3893C86.0476 61.978 86.4276 61.5492 86.8864 61.111C87.2216 60.7908 87.5796 60.4839 87.9375 60.2003C88.0269 60.1294 88.1119 60.0636 88.1913 60.0033L88.3108 59.9136L88.4189 59.8346C88.5855 59.7162 88.8174 59.754 88.9369 59.9189Z" fill="#2F4077"/>
<path fill-rule="evenodd" clip-rule="evenodd" d="M123.279 24.9989C122.487 27.5969 120.223 39.9253 128.413 42.989C136.604 46.0528 144.312 39.9131 147.22 32.315C150.127 24.717 148.309 17.3028 143.162 15.244C138.027 13.1851 129.02 6.18758 123.279 24.9989Z" fill="white"/>
<path fill-rule="evenodd" clip-rule="evenodd" d="M132.444 12.0823C128.555 12.9588 125.413 16.8626 122.996 24.6543L122.923 24.8916C122.262 27.0631 121.809 30.6932 122.108 33.8527C122.55 38.5166 124.484 41.9112 128.282 43.332C132.273 44.8249 136.364 44.2635 139.998 41.9589C143.325 39.8488 146.059 36.3841 147.567 32.4444C150.526 24.7117 148.689 17.0574 143.301 14.9021L143.157 14.8437C142.882 14.7303 142.582 14.5978 142.213 14.428L141.81 14.2403C141.469 14.0807 140.814 13.7734 140.574 13.6627L140.362 13.5659C138.934 12.9161 137.84 12.5 136.711 12.2199C135.196 11.8437 133.79 11.7789 132.444 12.0823ZM123.612 25.1766L123.634 25.1043C125.991 17.3813 128.992 13.6144 132.609 12.7992C133.831 12.5238 135.121 12.5832 136.531 12.9331C137.633 13.2067 138.716 13.6219 140.157 14.2819L140.634 14.503C141.05 14.6975 141.609 14.9601 141.696 15.0002L141.98 15.1313C142.387 15.3178 142.714 15.4601 143.022 15.5838C147.972 17.5636 149.705 24.7833 146.873 32.1838C145.42 35.98 142.787 39.3174 139.598 41.3396C136.154 43.5236 132.307 44.0515 128.545 42.6442C125.056 41.3392 123.265 38.1962 122.847 33.784C122.561 30.7607 122.989 27.2706 123.612 25.1766Z" fill="#2F4077"/>
<rect width="3.13167" height="5.50949" transform="matrix(0.798691 0.601742 -0.609076 0.793112 155.526 8.41211)" fill="#E4794A"/>
<path fill-rule="evenodd" clip-rule="evenodd" d="M159.716 11.5546C162.777 11.5546 165.259 9.09657 165.259 6.06441C165.259 3.03226 162.777 0.574219 159.716 0.574219C156.655 0.574219 154.173 3.03226 154.173 6.06441C154.173 9.09657 156.655 11.5546 159.716 11.5546Z" fill="#2F4077"/>
<path fill-rule="evenodd" clip-rule="evenodd" d="M153.258 11.3333C149.237 8.12256 144.56 5.56128 139.549 5.59805C124.095 6.43138 120.223 16.2353 123.996 22.8284C126.508 15.7941 129.552 13.0858 132.583 12.424C133.585 17.5956 140.687 24.4829 148.457 27.5711C148.445 27.6446 148.432 27.7181 148.42 27.7917C150.659 28.3554 153.951 29.8382 152.713 33.674C151.006 38.9804 145.797 36.6397 145.141 36.3211C144.547 37.2157 143.879 38.0613 143.149 38.8333L145.116 43.049L162.327 45.6593C163.378 46.0392 164.504 45.2917 164.566 44.1765C164.888 37.2402 166.113 21.8603 153.258 11.3333Z" fill="#2F4077"/>
<path fill-rule="evenodd" clip-rule="evenodd" d="M144.102 35.696L145.067 36.3087C145.067 36.3087 150.882 39.3602 152.713 33.6985C154.099 29.397 149.83 28.0489 147.678 27.6445" fill="white"/>
<path fill-rule="evenodd" clip-rule="evenodd" d="M147.313 27.5766C147.351 27.3771 147.545 27.246 147.747 27.2838C149.301 27.5757 150.713 28.0949 151.755 28.924C153.213 30.0839 153.742 31.7163 153.067 33.8111C152.355 36.0111 151.002 37.1684 149.219 37.4379C148.161 37.5978 147.043 37.4349 145.951 37.068C145.672 36.9744 145.416 36.874 145.188 36.7733L145.091 36.7299C145.012 36.6936 144.95 36.6636 144.908 36.6419L144.88 36.6267L144.867 36.6188L143.902 36.006C143.729 35.8965 143.679 35.6691 143.789 35.4981C143.896 35.3335 144.113 35.2813 144.283 35.3755L144.302 35.387L145.253 35.9908L145.301 36.0145L145.37 36.0473C145.407 36.0645 145.447 36.0827 145.49 36.1018C145.698 36.1936 145.933 36.2857 146.189 36.3717C147.178 36.7039 148.184 36.8505 149.107 36.711C150.61 36.4839 151.734 35.5227 152.36 33.5872C152.939 31.7875 152.513 30.4699 151.29 29.4973C150.362 28.7586 149.053 28.2777 147.608 28.0063C147.407 27.9684 147.275 27.776 147.313 27.5766Z" fill="#2F4077"/>
<path fill-rule="evenodd" clip-rule="evenodd" d="M132.423 35.7156C132.57 35.5739 132.805 35.577 132.948 35.7225C133.091 35.8679 133.088 36.1007 132.941 36.2424C131.743 37.3977 130.538 37.4498 129.521 36.8219C129.384 36.7376 129.263 36.6473 129.158 36.5562C129.093 36.4996 129.046 36.4533 129.017 36.4225C128.879 36.2723 128.89 36.0397 129.042 35.9031C129.188 35.7717 129.411 35.7768 129.55 35.9109L129.585 35.9465C129.599 35.9604 129.62 35.9797 129.647 36.0031C129.723 36.069 129.812 36.1356 129.913 36.1978C130.656 36.6561 131.485 36.6202 132.423 35.7156Z" fill="#2F4077"/>
<path fill-rule="evenodd" clip-rule="evenodd" d="M131.651 21.2328C131.734 21.0476 131.954 20.9648 132.141 21.048C132.321 21.1281 132.406 21.3333 132.336 21.514L132.328 21.5339L128.214 30.6095L130.325 31.15C130.517 31.199 130.634 31.3872 130.596 31.5769L130.592 31.5979C130.542 31.7875 130.352 31.9041 130.161 31.8667L130.139 31.8619L127.603 31.2123C127.387 31.1572 127.271 30.929 127.349 30.726L127.357 30.7058L131.651 21.2328Z" fill="#2F4077"/>
<path fill-rule="evenodd" clip-rule="evenodd" d="M136.343 22.1871C137.48 21.6913 138.51 22.0461 139.362 22.9067C139.557 23.1045 139.729 23.3153 139.875 23.5263L139.917 23.5881C139.984 23.6873 140.032 23.7667 140.061 23.8189C140.158 23.9974 140.091 24.2206 139.911 24.3174C139.738 24.4105 139.522 24.3526 139.419 24.1887L139.383 24.1267L139.375 24.113C139.344 24.0623 139.307 24.0051 139.264 23.9431C139.14 23.765 138.995 23.5866 138.831 23.4213C138.175 22.7572 137.45 22.5077 136.642 22.86C136.455 22.9419 136.236 22.8575 136.153 22.6717C136.07 22.4859 136.156 22.2689 136.343 22.1871Z" fill="#2F4077"/>
<path fill-rule="evenodd" clip-rule="evenodd" d="M125.373 19.4025C126.471 18.7342 127.573 18.9852 128.554 19.778C128.751 19.9373 128.928 20.1073 129.082 20.2777L129.131 20.3321C129.2 20.4103 129.25 20.4732 129.282 20.515C129.403 20.6785 129.368 20.9087 129.202 21.029C129.044 21.1447 128.823 21.1167 128.698 20.969L128.648 20.9059C128.615 20.8651 128.576 20.8191 128.53 20.7692C128.4 20.6255 128.25 20.4815 128.085 20.3477C127.323 19.7317 126.542 19.554 125.762 20.0288C125.587 20.1352 125.359 20.0812 125.252 19.9082C125.144 19.7353 125.199 19.5088 125.373 19.4025Z" fill="#2F4077"/>
<path fill-rule="evenodd" clip-rule="evenodd" d="M135.907 27.3225C136.066 26.6019 135.817 25.9354 135.35 25.8339C134.883 25.7324 134.375 26.2344 134.215 26.955C134.055 27.6756 134.305 28.342 134.772 28.4435C135.239 28.545 135.747 28.0431 135.907 27.3225Z" fill="#2F4077"/>
<path fill-rule="evenodd" clip-rule="evenodd" d="M126.91 25.4045C127.069 24.6839 126.82 24.0174 126.353 23.916C125.885 23.8145 125.377 24.3164 125.218 25.037C125.058 25.7576 125.308 26.4241 125.775 26.5255C126.242 26.627 126.75 26.1251 126.91 25.4045Z" fill="#2F4077"/>
<path fill-rule="evenodd" clip-rule="evenodd" d="M133.084 24.8757C132.16 28.9446 133.947 32.8362 137.14 33.5396C140.334 34.2429 143.633 31.4716 144.556 27.4027C145.48 23.3338 143.693 19.4422 140.5 18.7388C137.306 18.0355 134.007 20.8069 133.084 24.8757ZM133.807 25.035C134.649 21.3266 137.593 18.8533 140.336 19.4576C143.08 20.0618 144.675 23.535 143.833 27.2434C142.991 30.9518 140.047 33.4251 137.303 32.8209C134.56 32.2166 132.965 28.7435 133.807 25.035Z" fill="#E4794A"/>
<path fill-rule="evenodd" clip-rule="evenodd" d="M117.733 21.8035C116.809 25.8724 118.596 29.764 121.789 30.4673C124.983 31.1707 128.282 28.3993 129.205 24.3304C130.129 20.2615 128.342 16.3699 125.149 15.6666C121.955 14.9632 118.656 17.7346 117.733 21.8035ZM118.456 21.9628C119.298 18.2544 122.242 15.781 124.986 16.3853C127.729 16.9896 129.324 20.4627 128.482 24.1711C127.64 27.8795 124.696 30.3529 121.953 29.7486C119.209 29.1443 117.614 25.6712 118.456 21.9628Z" fill="#E4794A"/>
<path fill-rule="evenodd" clip-rule="evenodd" d="M128.929 23.1912C128.972 23 129.157 22.8765 129.35 22.907L129.371 22.911L133.652 23.8424C133.853 23.8859 133.979 24.082 133.935 24.2803C133.893 24.4716 133.707 24.595 133.515 24.5646L133.493 24.5605L129.212 23.6292C129.012 23.5856 128.885 23.3895 128.929 23.1912Z" fill="#E4794A"/>
<path fill-rule="evenodd" clip-rule="evenodd" d="M144.359 25.8499C144.442 25.6723 144.65 25.5914 144.832 25.6623L144.852 25.6709L149.553 27.8277C149.739 27.913 149.82 28.1316 149.734 28.3158C149.651 28.4935 149.443 28.5744 149.261 28.5034L149.241 28.4949L144.54 26.3381C144.354 26.2527 144.273 26.0342 144.359 25.8499Z" fill="#E4794A"/>
<rect width="19.5624" height="19.449" transform="matrix(-0.898442 0.439092 -0.445896 -0.895085 71.7941 66.2598)" fill="white"/>
<path fill-rule="evenodd" clip-rule="evenodd" d="M48.751 70.1328C48.9486 70.1355 49.1081 70.2906 49.1168 70.4838L49.1172 70.5054L49.1096 71.0568L49.6665 71.0642C49.8642 71.0668 50.0237 71.222 50.0324 71.4151L50.0327 71.4367C50.0301 71.6325 49.8734 71.7905 49.6784 71.7991L49.6566 71.7994L48.7287 71.7872C48.531 71.7846 48.3715 71.6294 48.3628 71.4363L48.3625 71.4147L48.3749 70.4956C48.3776 70.2925 48.546 70.1301 48.751 70.1328Z" fill="#2F4077"/>
<path fill-rule="evenodd" clip-rule="evenodd" d="M51.6362 71.8251L53.6079 71.8513C53.8128 71.854 53.9812 71.6916 53.984 71.4886C53.9867 71.2855 53.8228 71.1187 53.6178 71.116L51.6462 71.0899C51.4412 71.0872 51.2728 71.2495 51.2701 71.4526C51.2673 71.6556 51.4313 71.8224 51.6362 71.8251ZM55.5795 71.8774L57.5511 71.9036C57.7561 71.9063 57.9245 71.7439 57.9272 71.5409C57.93 71.3378 57.766 71.171 57.5611 71.1683L55.5894 71.1422C55.3845 71.1395 55.2161 71.3018 55.2133 71.5049C55.2106 71.7079 55.3745 71.8747 55.5795 71.8774ZM59.5228 71.9297L61.4944 71.9558C61.6994 71.9586 61.8678 71.7962 61.8705 71.5932C61.8733 71.3901 61.7093 71.2233 61.5043 71.2206L59.5327 71.1945C59.3277 71.1918 59.1593 71.3541 59.1566 71.5572C59.1539 71.7602 59.3178 71.927 59.5228 71.9297ZM63.466 71.982L65.4377 72.0081C65.6427 72.0109 65.8111 71.8485 65.8138 71.6454C65.8165 71.4424 65.6526 71.2756 65.4476 71.2729L63.476 71.2468C63.271 71.244 63.1026 71.4064 63.0999 71.6095C63.0971 71.8125 63.2611 71.9793 63.466 71.982Z" fill="#2F4077"/>
<path fill-rule="evenodd" clip-rule="evenodd" d="M68.3616 70.3906C68.5592 70.3932 68.7187 70.5484 68.7274 70.7415L68.7278 70.7631L68.7154 71.6823C68.7127 71.878 68.5561 72.036 68.3611 72.0446L68.3393 72.045L67.4113 72.0327C67.2064 72.03 67.0424 71.8632 67.0451 71.6602C67.0478 71.4644 67.2044 71.3064 67.3994 71.2978L67.4212 71.2975L67.978 71.3048L67.9855 70.7533C67.9881 70.5576 68.1448 70.3996 68.3397 70.391L68.3616 70.3906Z" fill="#2F4077"/>
<path fill-rule="evenodd" clip-rule="evenodd" d="M68.7525 68.814L68.7773 66.8611C68.7798 66.6581 68.6157 66.4915 68.4108 66.4889C68.2058 66.4864 68.0375 66.6489 68.035 66.8519L68.0102 68.8048C68.0077 69.0078 68.1717 69.1745 68.3767 69.177C68.5817 69.1796 68.75 69.0171 68.7525 68.814ZM68.802 64.9082L68.8267 62.9553C68.8293 62.7523 68.6652 62.5857 68.4602 62.5831C68.2552 62.5806 68.087 62.7431 68.0844 62.9461L68.0597 64.899C68.0571 65.102 68.2212 65.2687 68.4262 65.2712C68.6312 65.2738 68.7994 65.1113 68.802 64.9082ZM68.8514 61.0024L68.8762 59.0495C68.8787 58.8465 68.7147 58.6799 68.5097 58.6773C68.3047 58.6748 68.1364 58.8373 68.1339 59.0403L68.1091 60.9932C68.1066 61.1962 68.2707 61.3629 68.4756 61.3654C68.6806 61.368 68.8489 61.2055 68.8514 61.0024ZM68.9009 57.0966L68.9256 55.1437C68.9282 54.9407 68.7641 54.7741 68.5591 54.7715C68.3541 54.769 68.1859 54.9315 68.1833 55.1345L68.1586 57.0874C68.156 57.2905 68.3201 57.4571 68.5251 57.4596C68.7301 57.4622 68.8983 57.2997 68.9009 57.0966Z" fill="#2F4077"/>
<path fill-rule="evenodd" clip-rule="evenodd" d="M67.6687 51.8848L68.5966 51.897C68.7943 51.8996 68.9538 52.0548 68.9625 52.2479L68.9628 52.2695L68.9505 53.1887C68.9477 53.3917 68.7794 53.5541 68.5744 53.5514C68.3767 53.5488 68.2172 53.3936 68.2085 53.2005L68.2082 53.1789L68.2156 52.6273L67.6588 52.62C67.4611 52.6174 67.3016 52.4622 67.2929 52.2691L67.2926 52.2475C67.2952 52.0517 67.4519 51.8937 67.6469 51.8851L67.6687 51.8848Z" fill="#2F4077"/>
<path fill-rule="evenodd" clip-rule="evenodd" d="M65.7015 51.8608L63.7298 51.8347C63.5249 51.8319 63.3565 51.9943 63.3537 52.1974C63.351 52.4004 63.5149 52.5672 63.7199 52.5699L65.6915 52.596C65.8965 52.5988 66.0649 52.4364 66.0676 52.2333C66.0704 52.0303 65.9065 51.8635 65.7015 51.8608ZM61.7582 51.8085L59.7866 51.7824C59.5816 51.7797 59.4132 51.942 59.4104 52.1451C59.4077 52.3481 59.5716 52.5149 59.7766 52.5176L61.7483 52.5437C61.9532 52.5465 62.1216 52.3841 62.1244 52.1811C62.1271 51.978 61.9632 51.8112 61.7582 51.8085ZM57.8149 51.7562L55.8433 51.7301C55.6383 51.7274 55.4699 51.8897 55.4672 52.0928C55.4644 52.2958 55.6284 52.4626 55.8333 52.4653L57.805 52.4915C58.01 52.4942 58.1784 52.3318 58.1811 52.1288C58.1838 51.9257 58.0199 51.7589 57.8149 51.7562ZM53.8717 51.7039L51.9 51.6778C51.695 51.675 51.5266 51.8374 51.5239 52.0405C51.5212 52.2435 51.6851 52.4103 51.8901 52.413L53.8617 52.4391C54.0667 52.4419 54.2351 52.2795 54.2378 52.0765C54.2406 51.8734 54.0766 51.7066 53.8717 51.7039Z" fill="#2F4077"/>
<path fill-rule="evenodd" clip-rule="evenodd" d="M48.9984 51.6406L49.9263 51.6529C50.1313 51.6556 50.2953 51.8224 50.2925 52.0254C50.2899 52.2212 50.1332 52.3792 49.9383 52.3878L49.9164 52.3881L49.3595 52.3807L49.3522 52.9323C49.3496 53.128 49.1929 53.286 48.9979 53.2946L48.9761 53.295C48.7785 53.2924 48.619 53.1372 48.6103 52.9441L48.6099 52.9225L48.6223 52.0033C48.6249 51.8076 48.7816 51.6496 48.9766 51.641L48.9984 51.6406Z" fill="#2F4077"/>
<path fill-rule="evenodd" clip-rule="evenodd" d="M48.5852 54.8705L48.5588 56.8234C48.5561 57.0264 48.72 57.1932 48.925 57.196C49.13 57.1987 49.2984 57.0363 49.3011 56.8333L49.3275 54.8804C49.3302 54.6774 49.1663 54.5106 48.9613 54.5078C48.7563 54.5051 48.588 54.6675 48.5852 54.8705ZM48.5324 58.7763L48.506 60.7292C48.5033 60.9322 48.6672 61.099 48.8722 61.1017C49.0772 61.1044 49.2456 60.942 49.2483 60.739L49.2747 58.7861C49.2775 58.5831 49.1135 58.4163 48.9085 58.4136C48.7036 58.4109 48.5352 58.5733 48.5324 58.7763ZM48.4796 62.682L48.4532 64.6349C48.4505 64.8379 48.6144 65.0047 48.8194 65.0075C49.0244 65.0102 49.1928 64.8478 49.1955 64.6448L49.2219 62.6919C49.2247 62.4889 49.0607 62.3221 48.8557 62.3194C48.6508 62.3166 48.4824 62.479 48.4796 62.682ZM48.4268 66.5878L48.4004 68.5407C48.3977 68.7437 48.5616 68.9105 48.7666 68.9132C48.9716 68.9159 49.14 68.7535 49.1427 68.5505L49.1691 66.5976C49.1719 66.3946 49.0079 66.2278 48.8029 66.2251C48.598 66.2224 48.4296 66.3848 48.4268 66.5878Z" fill="#2F4077"/>
<path fill-rule="evenodd" clip-rule="evenodd" d="M53.4439 64.5453L53.5881 64.5449C53.793 64.5473 53.9573 64.7138 53.9549 64.9169C53.9525 65.1126 53.7961 65.2709 53.6012 65.2798L53.5716 65.2801L53.4946 65.2802L53.4435 65.2807C53.3625 65.2816 53.2699 65.2834 53.1664 65.2865L53.0084 65.2918C52.7657 65.3009 52.4972 65.3152 52.2046 65.3356C51.2086 65.4052 50.1088 65.5333 48.932 65.734C45.618 66.2994 42.3138 67.3264 39.2323 68.9279C35.7902 70.7169 32.8331 73.1234 30.5047 76.2271C27.7931 79.8417 25.9998 84.3174 25.2719 89.7406C25.2449 89.9418 25.0582 90.0833 24.855 90.0566C24.6518 90.0298 24.509 89.8449 24.536 89.6437C25.2802 84.0986 27.1208 79.5051 29.9088 75.7886C32.3069 72.5919 35.3506 70.115 38.8874 68.2768C42.0432 66.6367 45.4202 65.587 48.806 65.0094C50.0081 64.8043 51.1324 64.6735 52.1524 64.6021C52.4867 64.5788 52.7913 64.5632 53.0635 64.5541L53.2291 64.5492C53.3107 64.5472 53.3824 64.5459 53.4439 64.5453Z" fill="#2F4077"/>
<path fill-rule="evenodd" clip-rule="evenodd" d="M53.5342 65.8198C54.0535 65.8198 54.4745 65.4028 54.4745 64.8884C54.4745 64.374 54.0535 63.957 53.5342 63.957C53.0149 63.957 52.5939 64.374 52.5939 64.8884C52.5939 65.4028 53.0149 65.8198 53.5342 65.8198Z" fill="#2F4077"/>
<path fill-rule="evenodd" clip-rule="evenodd" d="M44.7991 99.8389H36.7816C36.2867 99.8389 35.8908 99.4467 35.8908 98.9565V98.4663C35.8908 97.9761 36.2867 97.584 36.7816 97.584H44.7991C45.294 97.584 45.6899 97.9761 45.6899 98.4663V98.9565C45.6899 99.4467 45.294 99.8389 44.7991 99.8389Z" fill="#2F4077"/>
<rect width="13.9066" height="13.8006" transform="matrix(0.94976 -0.312979 0.318414 0.947952 27.9268 41.2637)" fill="white"/>
<path fill-rule="evenodd" clip-rule="evenodd" d="M40.9915 36.5627L27.8089 40.8902C27.6147 40.9539 27.5101 41.1621 27.5752 41.3551L31.9948 54.4623C32.0599 54.6554 32.27 54.7602 32.4642 54.6965L45.6468 50.3689C45.841 50.3052 45.9456 50.097 45.8805 49.904L41.4609 36.7968C41.3958 36.6038 41.1857 36.4989 40.9915 36.5627ZM40.8757 37.3771L45.0596 49.7852L32.5799 53.882L28.396 41.4738L40.8757 37.3771Z" fill="#2F4077"/>
<path fill-rule="evenodd" clip-rule="evenodd" d="M40.8056 36.7448C40.8981 36.5636 41.1214 36.491 41.3044 36.5826C41.4805 36.6708 41.555 36.8792 41.4777 37.0563L41.4681 37.0766L32.6217 54.405C32.5292 54.5862 32.3059 54.6588 32.123 54.5672C31.9468 54.479 31.8723 54.2706 31.9496 54.0935L31.9592 54.0732L40.8056 36.7448Z" fill="#2F4077"/>
<path fill-rule="evenodd" clip-rule="evenodd" d="M27.6033 41.1094C27.6917 40.9345 27.9018 40.8599 28.0809 40.9358L28.1014 40.9452L45.6953 49.6707C45.8786 49.7616 45.9528 49.9825 45.861 50.1641C45.7726 50.3389 45.5626 50.4135 45.3834 50.3376L45.3629 50.3282L27.769 41.6027C27.5857 41.5118 27.5115 41.2909 27.6033 41.1094Z" fill="#2F4077"/>
<rect width="16.055" height="15.6416" transform="matrix(0.985287 0.170908 -0.174109 0.984726 43.607 28.8281)" fill="#465F9D"/>
<path fill-rule="evenodd" clip-rule="evenodd" d="M55.8612 39.5966L52.1735 38.9609C52.0391 38.9377 51.9108 39.0272 51.8871 39.1607L51.2354 42.8231C51.2117 42.9566 51.3014 43.0837 51.4358 43.1068L55.1235 43.7425C55.258 43.7656 55.3862 43.6762 55.41 43.5427L56.0616 39.8803C56.0854 39.7468 55.9956 39.6197 55.8612 39.5966ZM55.5317 40.038L54.9661 43.2169L51.7652 42.6652L52.3308 39.4862L55.5317 40.038Z" fill="white"/>
<path fill-rule="evenodd" clip-rule="evenodd" d="M55.6812 39.6517C55.7932 39.5741 55.9475 39.6011 56.0259 39.712C56.1003 39.8173 56.0795 39.9605 55.9812 40.0411L55.965 40.0533L51.6346 43.0558C51.5227 43.1334 51.3684 43.1064 51.29 42.9955C51.2155 42.8902 51.2364 42.747 51.3347 42.6664L51.3508 42.6542L55.6812 39.6517Z" fill="white"/>
<path fill-rule="evenodd" clip-rule="evenodd" d="M56.9119 33.4534L45.2424 31.4401C45.1079 31.4169 44.9795 31.5065 44.9558 31.6403L44.3337 35.1397C44.3099 35.2734 44.3997 35.4007 44.5343 35.4239L56.2037 37.4372C56.3383 37.4604 56.4666 37.3708 56.4904 37.237L57.1124 33.7376C57.1362 33.6039 57.0464 33.4766 56.9119 33.4534ZM56.5825 33.8954L56.0465 36.9118L44.8634 34.9817L45.3994 31.9654L56.5825 33.8954Z" fill="white"/>
<path fill-rule="evenodd" clip-rule="evenodd" d="M43.2068 41.5735C43.2296 41.4463 43.3476 41.3595 43.4753 41.3724L43.4936 41.3749L49.4325 42.4166C49.5671 42.4402 49.6569 42.5673 49.633 42.7006C49.6103 42.8279 49.4922 42.9147 49.3645 42.9018L49.3462 42.8992L43.4073 41.8576C43.2728 41.834 43.183 41.7068 43.2068 41.5735Z" fill="white"/>
<path fill-rule="evenodd" clip-rule="evenodd" d="M43.4542 40.1521C43.4767 40.0248 43.5945 39.9378 43.7223 39.9504L43.7406 39.9529L49.6795 40.9823C49.8141 41.0057 49.9041 41.1327 49.8805 41.266C49.8581 41.3933 49.7402 41.4803 49.6125 41.4677L49.5941 41.4652L43.6553 40.4358C43.5207 40.4125 43.4306 40.2854 43.4542 40.1521Z" fill="white"/>
<path fill-rule="evenodd" clip-rule="evenodd" d="M43.7016 38.7185C43.7241 38.5912 43.842 38.5042 43.9697 38.5168L43.988 38.5193L49.9269 39.5487C50.0615 39.5721 50.1515 39.6991 50.128 39.8324C50.1055 39.9597 49.9876 40.0467 49.8599 40.0341L49.8416 40.0316L43.9027 39.0022C43.7681 38.9789 43.6781 38.8519 43.7016 38.7185Z" fill="white"/>
<path fill-rule="evenodd" clip-rule="evenodd" d="M43.9616 37.2844C43.9843 37.1572 44.1024 37.0704 44.2301 37.0833L44.2484 37.0858L50.1873 38.1275C50.3218 38.1511 50.4116 38.2783 50.3878 38.4116C50.365 38.5388 50.247 38.6256 50.1193 38.6127L50.101 38.6102L44.1621 37.5685C44.0275 37.5449 43.9378 37.4177 43.9616 37.2844Z" fill="white"/>
<path fill-rule="evenodd" clip-rule="evenodd" d="M56.8454 33.4686C56.9811 33.4525 57.1042 33.5484 57.1205 33.6828C57.136 33.811 57.0485 33.9281 56.9225 33.9524L56.9043 33.9553L44.6182 35.4136C44.4825 35.4297 44.3594 35.3338 44.3431 35.1994C44.3276 35.0711 44.4151 34.9541 44.5411 34.9297L44.5593 34.9269L56.8454 33.4686Z" fill="white"/>
<path fill-rule="evenodd" clip-rule="evenodd" d="M90.9862 66.4082H82.1893C80.9079 66.4082 79.8632 67.4429 79.8632 68.7121V68.9327C79.8632 70.2019 80.9079 71.2366 82.1893 71.2366H90.9862C92.2676 71.2366 93.3123 70.2019 93.3123 68.9327V68.7121C93.3123 67.4429 92.2676 66.4082 90.9862 66.4082ZM82.1893 67.1435H90.9862C91.8576 67.1435 92.5699 67.849 92.5699 68.7121V68.9327C92.5699 69.7959 91.8576 70.5014 90.9862 70.5014H82.1893C81.3178 70.5014 80.6056 69.7959 80.6056 68.9327V68.7121C80.6056 67.849 81.3178 67.1435 82.1893 67.1435Z" fill="#2F4077"/>
<path fill-rule="evenodd" clip-rule="evenodd" d="M90.6645 71.9105C92.4343 71.9105 93.869 70.4895 93.869 68.7365C93.869 66.9836 92.4343 65.5625 90.6645 65.5625C88.8947 65.5625 87.46 66.9836 87.46 68.7365C87.46 70.4895 88.8947 71.9105 90.6645 71.9105Z" fill="white"/>
<path fill-rule="evenodd" clip-rule="evenodd" d="M95.7373 73.8477C95.9423 73.8477 96.1084 74.0123 96.1084 74.2153C96.1084 74.4111 95.9539 74.5711 95.7591 74.5823L95.7373 74.5829H86.1114C85.9064 74.5829 85.7402 74.4183 85.7402 74.2153C85.7402 74.0195 85.8947 73.8595 86.0895 73.8483L86.1114 73.8477H95.7373Z" fill="#2F4077"/>
<path fill-rule="evenodd" clip-rule="evenodd" d="M170.901 99.7285C171.106 99.7285 171.272 99.8931 171.272 100.096C171.272 100.292 171.118 100.452 170.923 100.463L170.901 100.464H1.11135C0.906356 100.464 0.740173 100.299 0.740173 100.096C0.740173 99.9004 0.894698 99.7403 1.08954 99.7291L1.11135 99.7285H170.901Z" fill="#2F4077"/>
</svg>
