<svg width="324" height="115" viewBox="0 0 324 115" fill="none" xmlns="http://www.w3.org/2000/svg">
<path fill-rule="evenodd" clip-rule="evenodd" d="M89.6317 114.368C88.921 105.999 83.0741 93.938 81.7672 82.4048C90.5718 74.1733 81.0564 50.1669 75.8057 49.9146C70.5091 48.9516 65.9233 47.9657 57.4626 47.6676C47.007 47.3007 37.5604 48.5618 34.0523 49.0663C20.9599 55.5322 13.852 93.5482 22.4732 101.046C24.1011 102.468 26.738 103.889 29.948 105.219C29.6728 108.429 29.4894 111.639 29.4894 114.62L89.6317 114.368Z" fill="#000091"/>
<path fill-rule="evenodd" clip-rule="evenodd" d="M47.718 48.9976L49.6211 37.6249L63.837 42.9673L64.3643 51.0612C62.4383 65.1624 47.3053 51.4968 47.718 48.9976Z" fill="white"/>
<path fill-rule="evenodd" clip-rule="evenodd" d="M48.9427 37.5112L47.0396 48.8839C46.7437 50.6759 50.9287 54.9256 54.8591 56.8709C57.2029 58.031 59.369 58.3784 61.1448 57.6791C63.2281 56.8587 64.5632 54.6884 65.0459 51.1541C65.0521 51.1085 65.0538 51.0623 65.0508 51.0163L64.5234 42.9225C64.5058 42.6528 64.332 42.4184 64.079 42.3233L49.8631 36.9809C49.4578 36.8285 49.0142 37.0841 48.9427 37.5112ZM50.1614 38.5626L63.1795 43.4549L63.6734 51.0348L63.6829 50.968C62.9028 56.6801 59.9356 57.8486 55.4694 55.638C53.6891 54.7568 51.8314 53.3645 50.3643 51.8747L50.2298 51.7365C49.059 50.5195 48.348 49.4053 48.3968 49.1096L50.1614 38.5626Z" fill="#000091"/>
<path fill-rule="evenodd" clip-rule="evenodd" d="M67.4829 16.2093C67.4829 16.2093 56.5917 23.0421 61.8424 29.4851C61.8424 29.4851 64.204 32.1907 66.1301 31.6633C66.1301 31.6633 64.7085 29.3704 66.3593 28.2011C66.3593 28.2011 66.8408 35.0568 72.4584 33.6811C72.4584 33.6811 70.3948 30.6315 70.968 27.0088C72.1374 19.3964 70.3948 14.8336 67.4829 16.2093Z" fill="#000091"/>
<path fill-rule="evenodd" clip-rule="evenodd" d="M44.8978 27.0088C44.8978 27.0088 42.8113 13.6412 56.3393 11.3254C57.6004 11.1191 66.2446 9.81213 67.8267 16.9889C68.8814 21.781 69.0877 26.9858 68.9502 31.0213C68.9502 31.0442 68.8126 38.6566 65.8089 42.8755C62.8052 47.0944 56.133 46.7046 52.6248 44.6181C49.0938 42.5316 48.4518 41.4539 47.4659 38.9776C46.4799 36.5013 44.8978 27.0317 44.8978 27.0317V27.0088Z" fill="white"/>
<path fill-rule="evenodd" clip-rule="evenodd" d="M58.4169 10.4267C57.5753 10.4594 56.8881 10.5386 56.2281 10.6466C50.5564 11.6175 47.028 14.5231 45.2898 18.7347C44.2213 21.3239 43.9548 24.0277 44.142 26.4004L44.1603 26.616L44.1797 26.811C44.1839 26.8503 44.188 26.8869 44.1921 26.9208L44.2108 27.0663L44.2141 27.1074L44.2284 27.1995L44.3887 28.1324C44.4422 28.4398 44.5 28.7672 44.5614 29.1109L44.7208 29.9941C44.9086 31.0228 45.1018 32.042 45.296 33.0183L45.3793 33.4341C45.5425 34.2427 45.7013 34.9941 45.8545 35.6777L45.9596 36.1401C46.2748 37.506 46.5557 38.5303 46.8022 39.1694L46.8267 39.232C47.9928 42.1608 48.9081 43.2209 52.2748 45.2103C54.2076 46.3598 56.9063 46.9711 59.4527 46.7976C62.3627 46.5993 64.8405 45.4216 66.3692 43.2744C67.756 41.3265 68.6564 38.6223 69.1842 35.4891C69.352 34.4928 69.4702 33.5164 69.5475 32.5929L69.573 32.27C69.6103 31.7657 69.6321 31.3108 69.6369 31.0974L69.6376 31.0447C69.7987 26.3175 69.4697 21.4053 68.5598 17.1251L68.4983 16.8407C67.7356 13.3809 65.4129 11.4313 62.108 10.7162C60.925 10.4602 59.679 10.3776 58.4169 10.4267ZM61.8171 12.0608C64.5989 12.6628 66.4717 14.213 67.1304 17.0294L67.1548 17.1367C68.084 21.3586 68.4237 26.2725 68.2627 30.9978L68.2607 31.107C68.2548 31.3101 68.2329 31.7529 68.1958 32.2375C68.1227 33.1949 68.0033 34.2173 67.8276 35.2606C67.3313 38.2069 66.4905 40.732 65.2485 42.4765C63.9807 44.2573 61.886 45.2529 59.3592 45.425C57.0863 45.5799 54.6658 45.0317 52.9764 44.0269L52.7559 43.8958C49.834 42.1496 49.1322 41.3033 48.1049 38.7231C47.8707 38.1351 47.5743 37.0434 47.2378 35.5584L47.114 35.0026C46.9889 34.4316 46.8599 33.816 46.7279 33.1619C46.4774 31.9209 46.2273 30.5982 45.9874 29.2681L45.7986 28.2083L45.5843 26.9665L45.582 26.9379L45.5623 26.79L45.5472 26.6592C45.5397 26.5896 45.5322 26.5136 45.525 26.4316C45.3319 24.2236 45.5674 21.6685 46.5616 19.2596C48.122 15.4786 51.2625 12.8924 56.4553 12.0034L56.6987 11.9653C57.2306 11.8859 57.7967 11.8276 58.4705 11.8014C59.6247 11.7565 60.758 11.8316 61.8171 12.0608Z" fill="#000091"/>
<path fill-rule="evenodd" clip-rule="evenodd" d="M63.2404 27.3667C63.5993 27.2934 63.9501 27.5139 64.0429 27.8635L64.0521 27.9029L65.3132 34.0707C65.3977 34.4839 65.0945 34.8714 64.6798 34.8952L64.6393 34.8964H62.3235C61.9436 34.8964 61.6356 34.5884 61.6356 34.2085C61.6356 33.8422 61.922 33.5427 62.2831 33.5218L62.3235 33.5207H63.7964L62.7043 28.1785C62.6309 27.8195 62.8515 27.4688 63.2011 27.376L63.2404 27.3667Z" fill="#000091"/>
<path fill-rule="evenodd" clip-rule="evenodd" d="M66.8931 27.5256C66.8988 26.9431 66.5955 26.4679 66.2156 26.4642C65.8357 26.4605 65.5231 26.9297 65.5174 27.5122C65.5117 28.0947 65.815 28.5699 66.1949 28.5736C66.5748 28.5774 66.8874 28.1082 66.8931 27.5256Z" fill="#000091"/>
<path fill-rule="evenodd" clip-rule="evenodd" d="M60.3756 27.6957C60.4901 27.1245 60.281 26.601 59.9085 26.5263C59.536 26.4516 59.1412 26.854 59.0267 27.4252C58.9122 27.9963 59.1213 28.5199 59.4938 28.5946C59.8663 28.6693 60.2611 28.2668 60.3756 27.6957Z" fill="#000091"/>
<path fill-rule="evenodd" clip-rule="evenodd" d="M56.3382 22.3131C57.0935 21.7318 58.0305 21.4277 59.125 21.5565C59.5023 21.6009 59.7721 21.9427 59.7278 22.32C59.6834 22.6973 59.3415 22.9672 58.9642 22.9228C58.2502 22.8388 57.6632 23.0293 57.1772 23.4033C57.0333 23.5141 56.9102 23.6327 56.8091 23.7496L56.7626 23.8054C56.7556 23.8142 56.7489 23.8227 56.7425 23.8309L56.7104 23.874C56.5042 24.1931 56.0784 24.2846 55.7593 24.0785C55.4403 23.8723 55.3487 23.4465 55.5549 23.1274L55.5921 23.0726C55.6346 23.0125 55.6932 22.937 55.7681 22.8502C55.9273 22.666 56.1168 22.4834 56.3382 22.3131Z" fill="#000091"/>
<path fill-rule="evenodd" clip-rule="evenodd" d="M65.3414 20.8869C65.8856 20.7269 66.4395 20.6429 66.9772 20.6787C67.7799 20.7322 68.4658 21.0532 68.9337 21.6978C69.1569 22.0053 69.0886 22.4354 68.7811 22.6586C68.4855 22.8731 68.0764 22.8182 67.847 22.5403L67.8204 22.5059C67.6148 22.2227 67.309 22.0796 66.8858 22.0514C66.5322 22.0279 66.1309 22.0887 65.7293 22.2068C65.638 22.2336 65.5522 22.2618 65.4733 22.2902L65.3703 22.3289L65.2893 22.3621C64.943 22.5182 64.5356 22.3641 64.3795 22.0178C64.2233 21.6715 64.3774 21.2641 64.7237 21.108L64.7961 21.0766C64.9278 21.0216 65.1138 20.9538 65.3414 20.8869Z" fill="#000091"/>
<path fill-rule="evenodd" clip-rule="evenodd" d="M55.5139 17.0347C55.5139 17.0347 60.6271 34.9651 48.7041 36.7994C48.7041 36.7994 41.7566 38.0375 40.1745 35.5842C40.1745 35.5842 45.196 32.9015 44.5769 30.0354C44.5769 30.0354 38.9135 36.2491 33.9838 31.778C33.9838 31.778 42.1923 30.4022 41.4815 23.0192C40.9541 17.6997 53.6796 12.7241 55.5139 17.0347Z" fill="#000091"/>
<path fill-rule="evenodd" clip-rule="evenodd" d="M33.7083 19.5569L40.9767 18.4563C41.7334 13.5725 44.5766 6.55628 54.5965 5.40983C70.2569 3.59846 70.7384 18.8232 70.7384 18.8232L34.442 24.2344C33.158 24.4408 31.9428 23.5465 31.7364 22.2396C31.5301 20.9556 32.4243 19.7633 33.7083 19.5569Z" fill="#E4794A"/>
<path fill-rule="evenodd" clip-rule="evenodd" d="M58.1792 35.1576C58.5163 35.0141 58.904 35.1602 59.0647 35.4843L59.0915 35.5407L59.0977 35.5526C59.1213 35.5979 59.152 35.6506 59.1901 35.7088C59.3031 35.8821 59.4494 36.0575 59.6311 36.2219C60.3066 36.8326 61.2625 37.1291 62.6088 36.922C62.9843 36.8642 63.3355 37.1218 63.3933 37.4972C63.4511 37.8727 63.1935 38.2239 62.818 38.2817C61.0578 38.5525 59.6874 38.1275 58.7085 37.2423C58.4346 36.9947 58.2129 36.7288 58.0379 36.4606C57.9283 36.2927 57.8559 36.1542 57.8158 36.0599C57.667 35.7104 57.8297 35.3064 58.1792 35.1576Z" fill="#000091"/>
<path fill-rule="evenodd" clip-rule="evenodd" d="M93.9196 63.9012V56.0366C93.9196 52.8266 91.3286 50.2356 88.1186 50.2356H85.8487C85.8487 58.1919 79.4056 64.6578 71.4264 64.6578C63.4472 64.6578 57.0042 58.2148 57.0042 50.2356H54.7342C51.5242 50.2356 48.9332 52.8266 48.9332 56.0366V97.9276C48.9332 101.138 51.5242 103.729 54.7342 103.729H88.0957C91.3057 103.729 93.8967 101.138 93.8967 97.9276V92.7227C101.853 92.7227 108.319 86.2797 108.319 78.3005C108.342 70.3442 101.876 63.9012 93.9196 63.9012Z" fill="#FAA184"/>
<path fill-rule="evenodd" clip-rule="evenodd" d="M89.9529 101.757C89.93 101.665 84.8856 95.7724 84.7251 95.91C84.5646 96.0475 77.663 99.12 77.5025 99.3722C77.342 99.6015 77.0898 101 77.7777 102.284C78.4655 103.568 79.2451 106.526 82.3634 106.755C85.4818 107.008 89.9529 101.757 89.9529 101.757Z" fill="white"/>
<path fill-rule="evenodd" clip-rule="evenodd" d="M80.7586 97.2856C80.7586 97.2856 80.1625 93.2272 81.1026 92.2641C82.0427 91.3011 87.2934 100.289 89.1047 100.908" fill="white"/>
<path fill-rule="evenodd" clip-rule="evenodd" d="M80.6104 91.7837C81.0477 91.3357 81.5821 91.4447 82.1037 91.8162C82.3935 92.0227 82.7218 92.3404 83.1107 92.7777L83.2747 92.9646C83.7411 93.5021 84.1391 94.007 85.0376 95.1968L86.1242 96.6402C87.8728 98.9517 88.8457 100.07 89.3072 100.25L89.3272 100.257C89.6867 100.38 89.8785 100.771 89.7556 101.131C89.6328 101.49 89.2418 101.682 88.8823 101.559L88.8196 101.537C87.9919 101.219 87.0709 100.173 85.0967 97.5626L83.6216 95.6058C82.9637 94.7399 82.6199 94.3094 82.2369 93.8678L82.1499 93.768C81.898 93.4808 81.6815 93.2564 81.505 93.0988L81.4428 93.0449L81.4416 93.0493C81.3378 93.3787 81.2692 93.9175 81.261 94.5881L81.2602 94.6763C81.2579 95.2287 81.2919 95.8263 81.3501 96.4236C81.3619 96.5451 81.3743 96.6613 81.3868 96.771L81.422 97.0593C81.4296 97.1179 81.4355 97.1606 81.4392 97.1856C81.4944 97.5615 81.2345 97.911 80.8586 97.9662C80.4828 98.0214 80.1333 97.7614 80.0781 97.3856L80.047 97.153L80.02 96.9276C80.0066 96.8104 79.9935 96.6865 79.9808 96.557C79.9185 95.917 79.8819 95.2749 79.8845 94.6704C79.8904 93.306 80.0764 92.3307 80.6104 91.7837Z" fill="#000091"/>
<path fill-rule="evenodd" clip-rule="evenodd" d="M77.9613 97.9965C77.9613 97.9965 76.7002 95.0386 78.374 93.617C80.0249 92.1955 84.1291 100.289 85.9176 101.321" fill="white"/>
<path fill-rule="evenodd" clip-rule="evenodd" d="M77.925 93.0958C78.6797 92.4459 79.5663 92.7484 80.5178 93.6191C81.1139 94.1645 81.7597 94.9401 82.6037 96.0813L82.8966 96.4809C82.9789 96.5941 83.0644 96.7124 83.1561 96.8399L84.0961 98.1466C85.4532 100.022 85.8494 100.488 86.2612 100.725C86.5902 100.915 86.7031 101.336 86.5132 101.665C86.3234 101.994 85.9027 102.107 85.5737 101.917L85.4586 101.848C84.8288 101.459 84.4151 100.949 82.6507 98.495L81.9084 97.4617C81.8234 97.3442 81.7433 97.2339 81.6649 97.1268L81.5029 96.9065C80.7062 95.829 80.1042 95.1053 79.5891 94.634C79.3041 94.3732 79.0673 94.2134 78.9002 94.1564L78.8401 94.1361C78.8326 94.1341 78.8291 94.1341 78.826 94.1359L78.8191 94.1413C78.4482 94.4563 78.2514 94.9069 78.2042 95.4894C78.1629 95.9996 78.2401 96.5684 78.3963 97.1337C78.4323 97.2639 78.4702 97.3855 78.5083 97.4965L78.5586 97.6367L78.5939 97.7266C78.7429 98.0761 78.5804 98.4802 78.2309 98.6292C77.8814 98.7782 77.4774 98.6157 77.3284 98.2662C77.2602 98.1062 77.1646 97.8414 77.0703 97.5001C76.8747 96.7922 76.7768 96.0714 76.833 95.3784C76.9075 94.4571 77.2529 93.6665 77.925 93.0958Z" fill="#000091"/>
<path fill-rule="evenodd" clip-rule="evenodd" d="M77.2272 101.39C77.2272 101.39 75.1178 96.0933 76.5852 94.9698C78.0527 93.8463 80.4602 100.725 83.3263 102.307" fill="white"/>
<path fill-rule="evenodd" clip-rule="evenodd" d="M76.1672 94.4237C76.6167 94.0796 77.1516 94.0812 77.6483 94.362C77.9894 94.5548 78.3204 94.8758 78.6893 95.337L78.7911 95.4667C79.031 95.7773 79.2885 96.1471 79.6084 96.6332L80.7256 98.3588L80.8744 98.5839C82.0028 100.278 82.8432 101.255 83.6589 101.705C83.9915 101.888 84.1123 102.307 83.9287 102.64C83.7451 102.972 83.3266 103.093 82.9941 102.909C81.9012 102.306 80.9426 101.182 79.6565 99.2367L79.3338 98.7419C79.042 98.2908 78.6279 97.6471 78.5266 97.4923L78.4042 97.3062C78.0869 96.8267 77.8396 96.4773 77.6149 96.1963C77.3631 95.8814 77.1543 95.6745 77.0012 95.5776L76.9621 95.5545L76.9489 95.5698C76.7198 95.8502 76.6801 96.6804 76.9006 97.8549L76.9176 97.9436C77.0132 98.4311 77.1458 98.9525 77.306 99.4903C77.4087 99.8349 77.5177 100.169 77.6276 100.485L77.6936 100.672C77.7212 100.749 77.7477 100.822 77.7726 100.889L77.8665 101.135C78.007 101.488 77.8349 101.888 77.4819 102.029C77.129 102.17 76.7289 101.997 76.5884 101.644L76.5345 101.505C76.5015 101.418 76.4656 101.322 76.4274 101.216L76.3984 101.136C76.2583 100.744 76.1184 100.322 75.9876 99.8831C75.8156 99.3058 75.6724 98.7428 75.5676 98.2083C75.2119 96.3938 75.2991 95.0884 76.1672 94.4237Z" fill="#000091"/>
<path fill-rule="evenodd" clip-rule="evenodd" d="M88.7377 100.702C88.967 99.5556 88.8523 98.3633 88.3938 97.3085C87.8664 96.0704 87.2473 94.4195 87.2015 93.3419C87.1097 91.4846 90.1363 92.3559 90.2739 93.5024C90.4115 94.6488 90.9847 94.58 92.3146 95.7723C93.6445 96.9646 93.3922 101.619 93.3922 101.619C93.3922 101.619 94.5616 104.027 90.8013 106.893C87.041 109.759 83.0055 107.535 83.0055 107.535C83.0055 107.535 75.7141 104.852 75.7141 99.6014C75.7141 94.3507 77.6401 102.009 81.2858 104.164" fill="white"/>
<path fill-rule="evenodd" clip-rule="evenodd" d="M86.5144 93.3758C86.4477 92.0242 87.4975 91.4028 88.7664 91.6175C89.8474 91.8004 90.8476 92.5095 90.9569 93.4204C90.9973 93.7571 91.0587 93.8875 91.2428 94.0528L91.2765 94.0823C91.2678 94.0749 92.2959 94.8317 92.7738 95.2601C93.4456 95.8625 93.8009 96.969 93.9783 98.4776C94.0855 99.3892 94.1135 100.34 94.0945 101.2L94.0879 101.441L94.0856 101.504L94.0928 101.525C94.1041 101.559 94.1155 101.596 94.1267 101.635L94.1434 101.696C94.3155 102.349 94.3033 103.134 93.9958 104.001C93.5837 105.163 92.6857 106.321 91.2183 107.44C90.9612 107.636 90.6984 107.813 90.4305 107.973C88.2511 109.268 85.9357 109.306 83.7887 108.599C83.3367 108.451 82.9868 108.3 82.7583 108.182L82.7193 108.162L82.5708 108.103L82.4262 108.044C82.1653 107.934 81.8757 107.804 81.5646 107.652C80.6762 107.218 79.7877 106.699 78.955 106.093C76.5163 104.318 75.0262 102.16 75.0262 99.6014C75.0262 98.5787 75.0905 97.9798 75.2798 97.6146C75.474 97.2397 75.8529 97.0226 76.286 97.1374C76.5401 97.2047 76.7323 97.3596 76.9363 97.5963C77.2431 97.9522 78.7057 100.355 79.0511 100.86C79.9366 102.155 80.7746 103.063 81.6359 103.572C81.9629 103.765 82.0713 104.187 81.8779 104.514C81.6846 104.841 81.2628 104.95 80.9358 104.756C79.8978 104.143 78.9649 103.148 78.0082 101.771L77.9156 101.637C77.6695 101.277 77.0503 100.277 76.5563 99.4965L76.4052 99.2586L76.4047 99.2928C76.4034 99.3653 76.4025 99.4413 76.4022 99.5208L76.402 99.6014C76.402 101.637 77.6461 103.439 79.7646 104.981C80.5269 105.536 81.3473 106.015 82.1678 106.415C82.4138 106.535 82.6443 106.641 82.8547 106.731L82.9582 106.775C83.0198 106.801 83.076 106.824 83.1263 106.844L83.243 106.889C83.2647 106.897 83.286 106.906 83.3067 106.916L83.3898 106.959C83.4284 106.979 83.483 107.005 83.5524 107.036C83.7454 107.123 83.9688 107.21 84.2186 107.293C86.0208 107.886 87.9371 107.854 89.7275 106.79C89.95 106.658 90.169 106.51 90.3843 106.346C91.6491 105.382 92.3815 104.437 92.6991 103.541C92.9098 102.947 92.9176 102.443 92.813 102.046L92.7986 101.994C92.7853 101.949 92.7755 101.924 92.7735 101.92C92.7225 101.815 92.6991 101.698 92.7054 101.582L92.7117 101.432C92.7125 101.408 92.7134 101.383 92.7142 101.355C92.7404 100.506 92.7182 99.5415 92.612 98.6383C92.4718 97.4464 92.1971 96.5908 91.8554 96.2845L91.787 96.2244C91.3387 95.8375 90.4264 95.1656 90.3818 95.1274C89.908 94.7217 89.6746 94.2815 89.591 93.5843C89.5701 93.4104 89.0853 93.0667 88.537 92.9739C88.0344 92.8889 87.8725 92.9847 87.8887 93.3126C87.9215 94.0832 88.3098 95.3219 88.9232 96.7936L89.0246 97.0343C89.5368 98.2124 89.6702 99.5467 89.4122 100.837C89.3377 101.209 88.9753 101.451 88.6028 101.377C88.2303 101.302 87.9887 100.94 88.0632 100.567C88.2595 99.5855 88.169 98.5753 87.8027 97.6774L87.6436 97.2997C86.9738 95.6906 86.5558 94.3486 86.5144 93.3758Z" fill="#000091"/>
<path fill-rule="evenodd" clip-rule="evenodd" d="M49.3231 101.757C49.346 101.665 54.3904 95.7724 54.5509 95.91C54.7114 96.0475 61.613 99.12 61.7735 99.3722C61.934 99.6244 62.1862 101 61.4983 102.284C60.8105 103.568 60.0309 106.526 56.9126 106.755C53.7942 107.008 49.3231 101.757 49.3231 101.757Z" fill="white"/>
<path fill-rule="evenodd" clip-rule="evenodd" d="M58.5175 97.2856C58.5175 97.2856 59.1136 93.2272 58.1735 92.2641C57.2335 91.3011 51.9828 100.289 50.1714 100.908" fill="white"/>
<path fill-rule="evenodd" clip-rule="evenodd" d="M57.1726 91.8162C57.6942 91.4447 58.2286 91.3357 58.666 91.7837C59.2 92.3307 59.3859 93.306 59.3918 94.6704C59.3944 95.2749 59.3579 95.917 59.2955 96.557L59.2696 96.8082C59.2652 96.8487 59.2608 96.8885 59.2563 96.9276L59.2133 97.2765C59.2071 97.3236 59.2019 97.3603 59.1982 97.3856C59.143 97.7614 58.7936 98.0214 58.4177 97.9662C58.0418 97.911 57.7819 97.5615 57.8371 97.1856L57.8543 97.0593L57.8643 96.9815C57.8854 96.8138 57.9065 96.6261 57.9262 96.4236C57.9844 95.8263 58.0184 95.2287 58.0161 94.6763C58.0132 93.9986 57.9495 93.4478 57.8499 93.0999L57.8332 93.0449L57.8146 93.0608C57.6448 93.2073 57.4346 93.4208 57.1886 93.6975L56.9822 93.934C56.5548 94.4308 56.1546 94.9419 55.2785 96.1028L54.1796 97.5626C52.1555 100.239 51.2385 101.271 50.394 101.559C50.0346 101.682 49.6435 101.49 49.5207 101.131C49.4022 100.784 49.5763 100.408 49.9112 100.272L49.9491 100.257C50.4022 100.103 51.3778 98.9857 53.1521 96.6402L54.1213 95.3524C55.1035 94.0499 55.5154 93.525 56.0016 92.9646L56.0919 92.8611C56.5133 92.3805 56.8647 92.0356 57.1726 91.8162Z" fill="#000091"/>
<path fill-rule="evenodd" clip-rule="evenodd" d="M61.3148 97.9965C61.3148 97.9965 62.5759 95.0386 60.9021 93.617C59.2512 92.1955 55.147 100.289 53.3585 101.321" fill="white"/>
<path fill-rule="evenodd" clip-rule="evenodd" d="M58.7582 93.619C59.7097 92.7484 60.5964 92.4458 61.3475 93.0926C62.0231 93.6665 62.3685 94.457 62.4431 95.3783C62.4992 96.0714 62.4013 96.7922 62.2058 97.5C62.1115 97.8413 62.0159 98.1061 61.9477 98.2661C61.7987 98.6156 61.3946 98.7781 61.0452 98.6291C60.7082 98.4854 60.545 98.1046 60.6674 97.7642L60.7175 97.6366C60.724 97.6191 60.7313 97.5994 60.7391 97.5777C60.7868 97.4457 60.8348 97.2963 60.8797 97.1337C61.0359 96.5683 61.1132 95.9995 61.0719 95.4893C61.0268 94.9333 60.8454 94.4975 60.5033 94.1824L60.4484 94.1343C60.4428 94.1318 60.4336 94.1366 60.3758 94.1563C60.2088 94.2133 59.972 94.3731 59.6869 94.6339C59.1546 95.121 58.5297 95.8774 57.6928 97.0154L57.3677 97.4616L56.2115 99.069C54.6982 101.161 54.3477 101.545 53.7024 101.917C53.3733 102.107 52.9527 101.994 52.7628 101.665C52.573 101.336 52.6858 100.915 53.0149 100.725L53.0478 100.706C53.4759 100.445 53.9153 99.9033 55.4645 97.7524L56.1199 96.8398C56.2117 96.7123 56.2972 96.594 56.3794 96.4809L56.5008 96.3144C57.43 95.0444 58.1224 94.2007 58.7582 93.619Z" fill="#000091"/>
<path fill-rule="evenodd" clip-rule="evenodd" d="M62.0485 101.39C62.0485 101.39 64.158 96.0933 62.6905 94.9698C61.2231 93.8463 58.8156 100.725 55.9495 102.307" fill="white"/>
<path fill-rule="evenodd" clip-rule="evenodd" d="M61.6278 94.362C62.1245 94.0812 62.6593 94.0796 63.1088 94.4237C63.977 95.0884 64.0642 96.3938 63.7084 98.2083C63.6037 98.7428 63.4605 99.3058 63.2885 99.8831C63.1764 100.259 63.0575 100.623 62.9377 100.966L62.8777 101.136C62.8384 101.245 62.8012 101.347 62.7668 101.438L62.6877 101.644C62.5471 101.997 62.1471 102.17 61.7941 102.029C61.4412 101.888 61.269 101.488 61.4096 101.135L61.4555 101.016L61.5289 100.82C61.5462 100.773 61.5641 100.723 61.5825 100.672C61.7146 100.303 61.8468 99.9038 61.97 99.4903C62.1302 98.9525 62.2628 98.4311 62.3584 97.9436L62.3931 97.7586C62.5937 96.6351 62.5499 95.8424 62.3272 95.5698L62.3137 95.5545L62.3047 95.5596C62.1592 95.6419 61.957 95.8343 61.711 96.1347L61.6612 96.1963L61.5758 96.305C61.3735 96.5667 61.1495 96.8866 60.8718 97.3062L60.6435 97.6556C60.3985 98.0345 59.8747 98.8487 59.7004 99.1141L59.5396 99.3572C58.2935 101.228 57.3521 102.319 56.282 102.909C55.9494 103.093 55.531 102.972 55.3474 102.64C55.1638 102.307 55.2846 101.888 55.6172 101.705C56.4329 101.255 57.2733 100.278 58.4017 98.5839L58.6518 98.2035C58.9257 97.7818 59.4755 96.9267 59.5981 96.7392L59.7353 96.5308C60.0687 96.0274 60.3342 95.6529 60.5868 95.337C60.9557 94.8758 61.2867 94.5548 61.6278 94.362Z" fill="#000091"/>
<path fill-rule="evenodd" clip-rule="evenodd" d="M50.5614 100.702C50.3321 99.5556 50.4467 98.3633 50.9053 97.3085C51.4327 96.0704 52.0517 94.4195 52.0976 93.3419C52.1893 91.4846 49.1627 92.3559 49.0251 93.5024C48.8876 94.6488 48.3143 94.58 46.9845 95.7723C45.6546 96.9646 45.9068 101.619 45.9068 101.619C45.9068 101.619 44.7374 104.027 48.4978 106.893C52.2581 109.759 56.2936 107.535 56.2936 107.535C56.2936 107.535 63.5849 104.852 63.5849 99.6014C63.5849 94.3507 61.6589 102.009 58.0132 104.164" fill="white"/>
<path fill-rule="evenodd" clip-rule="evenodd" d="M50.5326 91.6175C51.8015 91.4028 52.8514 92.0242 52.7848 93.3711C52.7433 94.3484 52.3252 95.6906 51.6537 97.3037L51.5361 97.5828C51.1372 98.5005 51.0323 99.5491 51.2359 100.567C51.3104 100.94 51.0688 101.302 50.6963 101.377C50.3238 101.451 49.9614 101.209 49.8869 100.837C49.6371 99.5883 49.7541 98.2984 50.2243 97.153L50.3742 96.7976C50.9892 95.3219 51.3776 94.083 51.4106 93.3079C51.4265 92.9847 51.2647 92.8889 50.7621 92.974C50.2137 93.0667 49.729 93.4104 49.7081 93.5843C49.6277 94.2547 49.4088 94.6875 48.9709 95.0804L48.9173 95.1274C48.8702 95.1677 47.8592 95.912 47.4437 96.2845C47.1019 96.5908 46.8272 97.4464 46.6871 98.6383C46.589 99.472 46.5626 100.358 46.5797 101.157L46.5873 101.432C46.5898 101.502 46.5921 101.553 46.5937 101.582C46.5991 101.682 46.5826 101.782 46.5457 101.874L46.5256 101.92C46.5229 101.925 46.5064 101.969 46.486 102.046C46.3814 102.443 46.3893 102.947 46.5999 103.541C46.9175 104.437 47.6499 105.382 48.9148 106.346C49.13 106.51 49.349 106.658 49.5716 106.79C51.362 107.854 53.2783 107.886 55.0804 107.293C55.2945 107.222 55.4893 107.148 55.6621 107.073L55.7467 107.036C55.8439 106.992 55.9119 106.959 55.948 106.94L55.9616 106.932C55.9818 106.921 56.0026 106.911 56.0238 106.902L56.1245 106.863C56.1708 106.845 56.2231 106.824 56.2811 106.8L56.3409 106.775C56.5784 106.675 56.8443 106.555 57.1312 106.415C57.9517 106.015 58.7722 105.536 59.5344 104.981C61.6529 103.439 62.8971 101.637 62.8971 99.6014L62.8968 99.4944L62.8936 99.2586L62.4862 99.9034C62.0847 100.542 61.6585 101.225 61.4345 101.561L61.3835 101.637C60.3943 103.083 59.4347 104.123 58.3633 104.756C58.0363 104.95 57.6144 104.841 57.4211 104.514C57.2278 104.187 57.3362 103.765 57.6632 103.572C58.5245 103.063 59.3625 102.155 60.248 100.86L60.2927 100.794C60.7041 100.174 62.0677 97.9386 62.3627 97.5963C62.5667 97.3596 62.759 97.2047 63.0131 97.1374C63.4462 97.0226 63.8251 97.2397 64.0193 97.6146C64.2085 97.9798 64.2728 98.5787 64.2728 99.6014C64.2728 102.16 62.7827 104.318 60.3441 106.093C59.5113 106.699 58.6229 107.218 57.7345 107.652C57.4233 107.804 57.1338 107.934 56.8729 108.044L56.6867 108.12L56.5795 108.162L56.5407 108.182L56.4429 108.231C56.2345 108.332 55.95 108.451 55.5994 108.57L55.5104 108.6C53.3633 109.306 51.048 109.268 48.8686 107.973C48.6006 107.813 48.3379 107.636 48.0808 107.44C46.6134 106.321 45.7154 105.163 45.3033 104.001C44.9958 103.134 44.9836 102.349 45.1557 101.696C45.1667 101.654 45.1779 101.615 45.1893 101.578L45.2135 101.504L45.2097 101.397C45.1817 100.486 45.2053 99.4593 45.3207 98.4776C45.4982 96.969 45.8535 95.8625 46.5253 95.2602L46.6302 95.1683C47.1386 94.732 48.0307 94.0754 48.0225 94.0824C48.233 93.9021 48.2994 93.777 48.3422 93.4204C48.4515 92.5095 49.4517 91.8004 50.5326 91.6175Z" fill="#000091"/>
<path fill-rule="evenodd" clip-rule="evenodd" d="M170.961 49.0435L155.644 46.6131L153.993 41.4082C156.859 39.5968 166.489 40.4452 174.01 43.2196L170.961 49.0435Z" fill="#000091"/>
<path fill-rule="evenodd" clip-rule="evenodd" d="M196.09 78.0025L184.695 51.3592C183.961 49.7083 182.425 48.4931 180.568 47.9887C179.628 47.553 178.596 47.2779 177.518 47.1861L173.643 46.8651L173.987 43.2195C173.987 43.2195 173.46 44.5264 169.195 45.3289C163.44 46.4066 153.97 41.4081 153.97 41.4081C153.97 41.4081 153.97 46.3607 153.97 47.0486L148.1 46.8881C145.578 46.8193 140.694 46.6129 137.851 52.2305L124.071 86.8301C121.618 91.3012 122.902 97.9047 126.96 101.321L135.008 105.769L134.251 114.712L195.15 114.505L194.806 106.572C213.333 95.0845 196.09 78.0025 196.09 78.0025Z" fill="#6A6AF4"/>
<path fill-rule="evenodd" clip-rule="evenodd" d="M130.572 86.5691C133.458 84.5014 136.256 83.6109 138.92 83.7252C141.02 83.8152 142.911 84.5184 144.563 85.6309C145.183 86.0478 145.726 86.4947 146.19 86.943L146.298 87.0492C146.524 87.2726 146.684 87.4512 146.777 87.5667C147.017 87.8619 146.971 88.295 146.676 88.5341C146.392 88.764 145.981 88.7308 145.737 88.4654L145.643 88.3567C145.63 88.3419 145.615 88.3253 145.599 88.307C145.497 88.1951 145.375 88.0691 145.234 87.9324C144.826 87.5378 144.344 87.1418 143.795 86.7721C142.34 85.7927 140.688 85.178 138.861 85.0996C136.514 84.999 134.016 85.7939 131.373 87.6874C131.064 87.9087 130.634 87.8377 130.413 87.5289C130.192 87.2201 130.263 86.7903 130.572 86.5691Z" fill="white"/>
<path fill-rule="evenodd" clip-rule="evenodd" d="M132.214 83.0101C135.249 81.43 137.937 80.909 140.286 81.3011C142.188 81.6187 143.764 82.5128 145.031 83.7977C145.575 84.3497 146.028 84.9397 146.396 85.5335C146.528 85.747 146.641 85.9481 146.736 86.1333L146.784 86.2277C146.82 86.3001 146.847 86.3583 146.872 86.4133C147.026 86.7605 146.869 87.167 146.522 87.3213C146.175 87.4756 145.769 87.3192 145.614 86.9721C145.538 86.7997 145.42 86.5707 145.226 86.2581C144.91 85.7473 144.519 85.2381 144.052 84.7637C142.977 83.6741 141.656 82.9247 140.059 82.6581C138.023 82.3181 135.633 82.7814 132.849 84.2304C132.512 84.4058 132.097 84.2748 131.921 83.9379C131.746 83.6009 131.877 83.1855 132.214 83.0101Z" fill="white"/>
<path fill-rule="evenodd" clip-rule="evenodd" d="M189.34 81.9918C192.075 81.6041 195.047 82.3435 198.228 84.3949C198.548 84.6008 198.64 85.0265 198.434 85.3457C198.228 85.665 197.802 85.7569 197.483 85.551C194.569 83.6721 191.926 83.0147 189.533 83.3539C187.645 83.6216 185.981 84.4983 184.544 85.8C183.926 86.3605 183.393 86.9621 182.947 87.5627C182.815 87.7418 182.698 87.9093 182.599 88.0618L182.507 88.2056C182.468 88.2684 182.441 88.3126 182.428 88.336C182.243 88.6673 181.823 88.7853 181.492 88.5995C181.161 88.4137 181.043 87.9945 181.228 87.6631L181.271 87.5896C181.386 87.3929 181.577 87.1012 181.842 86.7432C182.339 86.0738 182.931 85.4055 183.62 84.7807C185.247 83.3065 187.155 82.3016 189.34 81.9918Z" fill="white"/>
<path fill-rule="evenodd" clip-rule="evenodd" d="M182.769 82.6103C185.385 79.9997 189.078 78.7602 193.943 79.6416C194.317 79.7093 194.565 80.0672 194.497 80.441C194.429 80.8149 194.071 81.063 193.697 80.9953C189.287 80.1962 186.045 81.2845 183.741 83.5841C183.117 84.207 182.612 84.8749 182.218 85.5411C182.1 85.7393 182 85.9245 181.918 86.0928L181.878 86.1756C181.845 86.2438 181.821 86.2981 181.804 86.3371L181.782 86.3904C181.645 86.7448 181.247 86.9209 180.892 86.7839C180.538 86.6469 180.362 86.2486 180.499 85.8942L180.533 85.8093C180.628 85.5825 180.792 85.2487 181.034 84.8404C181.484 84.0792 182.058 83.3196 182.769 82.6103Z" fill="white"/>
<path fill-rule="evenodd" clip-rule="evenodd" d="M156.057 46.4066V31.0214L169.585 39.1611L169.264 47.4384L156.057 46.4066Z" fill="white"/>
<path fill-rule="evenodd" clip-rule="evenodd" d="M155.369 31.0213V46.4066C155.369 46.7657 155.645 47.0644 156.003 47.0923L169.21 48.1241C169.599 48.1546 169.936 47.8552 169.951 47.465L170.272 39.1877C170.282 38.9371 170.154 38.701 169.939 38.5717L156.411 30.4319C155.953 30.1561 155.369 30.4863 155.369 31.0213ZM156.744 32.2379L168.881 39.5408L168.604 46.6969L156.744 45.7703V32.2379Z" fill="#000091"/>
<path fill-rule="evenodd" clip-rule="evenodd" d="M173.964 14.5126C168.461 10.7064 163.509 9.30771 155.736 19.2588L154.681 25.8165C151.425 24.8305 149.705 26.4355 150.416 29.2787C151.173 32.3512 152.961 33.7269 155.919 32.9244C155.759 32.5346 155.919 32.9244 155.919 32.9244C157.341 36.1344 160.023 39.826 164.999 40.9036C172.795 42.6004 174.583 37.7624 175.454 35.8822C176.303 33.9562 179.467 18.3187 173.964 14.5126Z" fill="white"/>
<path fill-rule="evenodd" clip-rule="evenodd" d="M165.603 11.0459C162.326 11.519 158.993 13.9707 155.193 18.8354L155.164 18.8756C155.109 18.9579 155.072 19.0513 155.056 19.1496L154.121 24.9672L154.024 24.9487C150.849 24.3658 148.956 26.2755 149.749 29.4455L149.775 29.5492C150.604 32.7796 152.593 34.2849 155.528 33.7209L155.588 33.8467C157.516 37.8202 160.528 40.6392 164.853 41.5759C169.724 42.6361 172.847 41.4075 174.784 38.6053C175.077 38.1822 175.331 37.7399 175.577 37.2471L175.668 37.0609C175.713 36.9667 175.759 36.8696 175.807 36.7648L176.078 36.1714C176.716 34.7234 177.597 29.927 177.778 25.9335C178.041 20.1258 177.056 15.8149 174.355 13.9468C170.969 11.6049 168.405 10.6412 165.603 11.0459ZM173.572 15.0783C175.75 16.5847 176.646 20.5067 176.403 25.8714L176.391 26.1228C176.193 29.9099 175.366 34.3767 174.825 35.605L174.606 36.0847C174.51 36.2931 174.43 36.4639 174.345 36.6339C174.127 37.0719 173.904 37.4588 173.653 37.823C172.033 40.1661 169.472 41.1734 165.145 40.2316C161.076 39.3502 158.295 36.5909 156.548 32.6459C156.411 32.3367 156.069 32.1729 155.742 32.2595L155.654 32.283C153.221 32.9123 151.767 31.8895 151.084 29.1143C150.492 26.7484 151.781 25.6572 154.481 26.4749L154.521 26.4857C154.907 26.5782 155.296 26.3233 155.36 25.9257L156.386 19.5436L156.607 19.2654C160.067 14.9346 163.026 12.808 165.799 12.4075C168.179 12.0639 170.445 12.9155 173.572 15.0783Z" fill="#000091"/>
<path fill-rule="evenodd" clip-rule="evenodd" d="M171.295 25.821C171.659 25.7797 171.989 26.0306 172.05 26.387L172.056 26.427L172.721 32.2968C172.766 32.6972 172.46 33.0474 172.063 33.0617L172.023 33.0619L169.845 33.0161C169.465 33.0081 169.164 32.6937 169.172 32.3139C169.179 31.9477 169.472 31.6543 169.833 31.641L169.874 31.6407L171.265 31.6699L170.689 26.5819C170.648 26.2179 170.899 25.8881 171.255 25.8267L171.295 25.821Z" fill="#000091"/>
<path fill-rule="evenodd" clip-rule="evenodd" d="M173.918 27.5132C174.285 27.5132 174.583 27.0615 174.583 26.5044C174.583 25.9472 174.285 25.4955 173.918 25.4955C173.55 25.4955 173.253 25.9472 173.253 26.5044C173.253 27.0615 173.55 27.5132 173.918 27.5132Z" fill="#000091"/>
<path fill-rule="evenodd" clip-rule="evenodd" d="M167.612 27.3986C167.979 27.3986 168.277 26.9469 168.277 26.3897C168.277 25.8325 167.979 25.3809 167.612 25.3809C167.245 25.3809 166.947 25.8325 166.947 26.3897C166.947 26.9469 167.245 27.3986 167.612 27.3986Z" fill="#000091"/>
<path fill-rule="evenodd" clip-rule="evenodd" d="M173.513 19.8953C173.923 19.8295 174.358 19.8258 174.786 19.9302C175.536 20.113 176.113 20.6038 176.363 21.4182C176.475 21.7813 176.271 22.1662 175.908 22.2779C175.558 22.3857 175.188 22.2 175.062 21.8611L175.049 21.8228C174.949 21.499 174.763 21.3405 174.46 21.2668C174.237 21.2122 173.975 21.2144 173.73 21.2537L173.675 21.2632C173.651 21.2677 173.633 21.2715 173.622 21.2741L173.613 21.2764C173.246 21.374 172.869 21.1555 172.771 20.7883C172.674 20.4212 172.892 20.0444 173.259 19.9468L173.315 19.9332C173.367 19.9212 173.433 19.908 173.513 19.8953Z" fill="#000091"/>
<path fill-rule="evenodd" clip-rule="evenodd" d="M167.062 33.5894C167.062 33.5894 169.172 34.346 170.937 34.0479C170.937 34.0479 170.272 37.0975 168.552 36.7306C166.856 36.3408 167.062 33.5894 167.062 33.5894Z" fill="#000091"/>
<path fill-rule="evenodd" clip-rule="evenodd" d="M145.257 7.47344C141.749 0.617719 136.131 0.0215688 129.642 1.32851C123.154 2.61253 119.531 11.3484 119.301 12.1509C116.665 21.5976 120.15 31.6863 127.946 37.6478C128.817 38.3127 129.665 38.9776 130.491 39.6197C135.076 43.1966 124.919 46.269 124.919 46.269C144.34 47.8282 140.098 28.3845 139.685 26.6649C145.922 24.3032 148.513 13.8477 145.257 7.47344Z" fill="#000091"/>
<path fill-rule="evenodd" clip-rule="evenodd" d="M155.712 21.0473C155.093 22.6294 153.305 23.409 151.723 22.7899L140.465 18.4105C138.883 17.7914 138.103 16.003 138.722 14.4209C139.341 12.8388 141.13 12.0592 142.712 12.6783L153.97 17.0577C155.552 17.6768 156.332 19.4652 155.712 21.0473Z" fill="#E4794A"/>
<path fill-rule="evenodd" clip-rule="evenodd" d="M179.421 21.2078C179.352 16.4386 178.205 12.2656 175.339 9.51412C174.95 9.03261 174.422 8.61989 173.711 8.2301C171.373 6.7168 168.186 5.89136 163.944 6.05186C163.875 6.05186 163.783 6.07479 163.691 6.12065C163.027 6.18944 162.362 6.28115 161.72 6.41873C161.376 6.46458 161.032 6.5563 160.665 6.67094C159.45 6.99195 158.326 7.42759 157.271 7.9091C147.779 11.9904 144.064 19.3506 148.306 29.5081C150.484 34.7358 153.328 36.4326 156.079 36.4326V33.2684C155.85 32.764 155.46 32.9703 155.46 32.9703C152.502 33.7728 151.195 32.3512 150.416 29.2788C150.049 27.7884 150.347 26.6649 151.149 26.0458C151.172 26.0229 151.195 26.0229 151.218 25.9999C151.241 25.977 151.287 25.9541 151.31 25.9312C151.333 25.9082 151.356 25.9082 151.379 25.8853C151.425 25.8624 151.447 25.8394 151.493 25.8165C151.516 25.8165 151.539 25.7936 151.562 25.7936C151.608 25.7707 151.654 25.7477 151.677 25.7477C151.7 25.7477 151.723 25.7248 151.746 25.7248C151.791 25.7019 151.837 25.7019 151.883 25.6789C151.906 25.6789 151.906 25.6789 151.929 25.656C152.181 25.5872 152.456 25.5414 152.754 25.5414H152.777C152.846 25.5414 152.915 25.5414 152.984 25.5414C153.007 25.5414 153.007 25.5414 153.03 25.5414C153.098 25.5414 153.167 25.5414 153.236 25.5414C153.259 25.5414 153.259 25.5414 153.282 25.5414C153.351 25.5414 153.442 25.5643 153.511 25.5643H153.534C153.878 25.6102 154.268 25.7019 154.658 25.8165C154.91 25.8853 154.726 25.9999 155.001 26.1146L155.689 26.0687C155.919 26.0687 156.171 26.0458 156.423 26.0229C162.407 25.3121 171.717 21.0244 175.018 15.5215C177.357 18.3646 177.609 23.9364 177.174 28.6597C178.595 26.4356 179.467 23.9364 179.421 21.2078Z" fill="#000091"/>
<path fill-rule="evenodd" clip-rule="evenodd" d="M165.255 19.4546C166.007 18.9027 166.935 18.6272 168.01 18.7846C168.386 18.8397 168.646 19.189 168.591 19.5649C168.536 19.9408 168.187 20.2009 167.811 20.1459C167.117 20.0443 166.545 20.2142 166.069 20.5636C165.935 20.6622 165.819 20.7677 165.725 20.8714L165.685 20.9157C165.663 20.942 165.647 20.9614 165.639 20.9723L165.634 20.9789C165.419 21.2918 164.99 21.3708 164.677 21.1553C164.365 20.9399 164.286 20.5116 164.501 20.1987L164.538 20.148C164.579 20.0925 164.636 20.0232 164.709 19.9438C164.862 19.7759 165.044 19.6096 165.255 19.4546Z" fill="white"/>
<path fill-rule="evenodd" clip-rule="evenodd" d="M183.479 62.8924L182.035 55.2342C181.439 52.1159 178.435 50.0752 175.34 50.6484L173.138 51.0612C171.671 43.3112 164.219 38.221 156.469 39.6655C148.719 41.133 143.629 48.5848 145.074 56.3348L142.872 56.7475C139.754 57.3437 137.713 60.3473 138.287 63.4427L139.731 71.1009C147.481 69.6335 154.956 74.7466 156.4 82.4966C157.868 90.2465 152.755 97.7213 145.005 99.1888L145.968 104.256C146.564 107.374 149.568 109.415 152.663 108.842L185.13 102.72C188.249 102.124 190.289 99.12 189.716 96.0246L188.753 90.9573C181.003 92.4248 173.528 87.3116 172.084 79.5617C170.616 71.8347 175.706 64.3599 183.479 62.8924Z" fill="#FAA184"/>
<path fill-rule="evenodd" clip-rule="evenodd" d="M152.709 103.499C155.804 105.7 156.217 104.027 155.3 102.972C154.177 101.642 148.765 97.4002 148.765 97.4002C148.765 97.4002 153.099 98.6842 154.154 96.2538C155.208 93.8233 154.062 93.3418 152.434 94.1672C150.806 94.9927 145.739 92.0119 145.739 92.0119L144.088 90.4757C144.088 90.4757 138.516 88.6873 137.095 94.8551C135.994 98.3862 138.31 100.817 138.31 100.817C138.975 101.573 141.268 104.554 148.536 108.177C148.536 108.177 151.952 109.438 149.384 106.984C148.719 106.342 148.032 105.769 147.367 105.288" fill="white"/>
<path fill-rule="evenodd" clip-rule="evenodd" d="M140.194 89.9007C141.36 89.4806 142.579 89.4627 143.714 89.6796L143.841 89.705C144.044 89.7473 144.199 89.7889 144.298 89.8208C144.378 89.8465 144.453 89.8867 144.518 89.9392L144.556 89.9722L146.151 91.4557L146.25 91.5124L146.421 91.6082C146.511 91.6582 146.607 91.711 146.709 91.7663C147.196 92.0296 147.714 92.293 148.241 92.5383C148.705 92.7547 149.154 92.9465 149.578 93.1072L149.759 93.174C150.917 93.594 151.786 93.7248 152.123 93.5538C153.181 93.0173 154.136 92.9189 154.759 93.4773C155.432 94.0803 155.388 95.1363 154.785 96.5276C154.258 97.7417 153.113 98.3172 151.618 98.4129C151.514 98.4196 151.409 98.4239 151.303 98.4259L151.154 98.4272L151.43 98.6509C151.722 98.8885 152.011 99.1249 152.293 99.3579L152.734 99.7234L153.186 100.102C154.465 101.179 155.364 101.994 155.788 102.484L155.819 102.521C156.518 103.325 156.691 104.443 155.916 105.011C155.151 105.572 153.927 105.209 152.31 104.06C152.001 103.84 151.928 103.41 152.149 103.101C152.369 102.791 152.798 102.719 153.108 102.939C153.783 103.419 154.336 103.713 154.744 103.834C154.845 103.864 154.931 103.882 155 103.888L155.033 103.891L155.03 103.874C155.002 103.753 154.928 103.606 154.814 103.463L154.775 103.416C154.4 102.972 153.41 102.082 152.01 100.911L151.695 100.648C150.961 100.039 150.175 99.4012 149.389 98.7725L148.937 98.4127L148.341 97.9416C147.754 97.4817 148.216 96.5583 148.923 96.7304L149.064 96.769C149.084 96.7742 149.106 96.7798 149.131 96.7859C149.277 96.8226 149.443 96.8595 149.623 96.8941C150.273 97.0184 150.931 97.0783 151.53 97.04C152.563 96.9738 153.239 96.6341 153.523 95.9799C153.747 95.4624 153.86 95.0495 153.872 94.758C153.876 94.653 153.867 94.576 153.85 94.5261L153.841 94.5019L153.831 94.4982C153.827 94.4968 153.82 94.495 153.812 94.4929C153.765 94.4816 153.696 94.4784 153.608 94.4875C153.399 94.5091 153.129 94.5947 152.822 94.7425L152.745 94.7808C151.916 95.201 150.698 95.0021 149.091 94.3937C148.633 94.2202 148.153 94.0153 147.66 93.7854C147.106 93.5276 146.564 93.252 146.054 92.9763L145.848 92.8638C145.782 92.8275 145.719 92.7924 145.659 92.7587L145.474 92.6537C145.437 92.6326 145.409 92.6161 145.39 92.6048C145.361 92.588 145.334 92.569 145.308 92.5482L145.27 92.5155L143.742 91.0936L143.723 91.0888C143.663 91.0741 143.598 91.0594 143.528 91.0451L143.456 91.0309C142.542 90.8563 141.561 90.8707 140.661 91.1949C139.268 91.6968 138.255 92.881 137.765 95.0096C137.761 95.0265 137.756 95.0433 137.751 95.0598C137.253 96.659 137.478 98.1163 138.16 99.3895C138.308 99.6653 138.466 99.9083 138.622 100.115L138.678 100.188C138.731 100.255 138.771 100.302 138.797 100.33L138.826 100.363L139.16 100.749C139.324 100.937 139.484 101.113 139.664 101.302C140.148 101.809 140.708 102.333 141.385 102.892C143.185 104.378 145.555 105.907 148.636 107.458L148.807 107.543L148.9 107.575L149.006 107.61L149.057 107.626L148.969 107.539L148.907 107.479C148.28 106.875 147.619 106.32 146.963 105.845C146.656 105.622 146.587 105.192 146.81 104.884C147.032 104.577 147.462 104.508 147.77 104.731C148.478 105.243 149.189 105.84 149.86 106.487L149.986 106.609C150.885 107.488 151.229 108.066 150.939 108.66C150.756 109.035 150.42 109.171 150.021 109.187C149.807 109.196 149.568 109.167 149.298 109.111C149.155 109.081 149.006 109.044 148.854 109.001L148.718 108.961C148.544 108.909 148.398 108.859 148.298 108.822C148.274 108.813 148.252 108.804 148.229 108.792C144.956 107.161 142.431 105.541 140.509 103.952C139.79 103.358 139.19 102.798 138.668 102.251C138.513 102.088 138.37 101.933 138.229 101.774L137.798 101.277L137.789 101.267C137.733 101.206 137.656 101.116 137.565 100.997L137.525 100.945C137.327 100.683 137.13 100.381 136.947 100.039C136.119 98.4931 135.831 96.7047 136.403 94.7669L136.431 94.6738L136.454 94.5768C137.051 92.1161 138.34 90.6038 140.106 89.9335L140.194 89.9007Z" fill="#000091"/>
<path fill-rule="evenodd" clip-rule="evenodd" d="M147.871 100.198C148.949 101 153.488 103.545 154.566 105.173C155.644 106.801 154.291 107.328 150.416 104.531" fill="white"/>
<path fill-rule="evenodd" clip-rule="evenodd" d="M147.319 99.7868C147.537 99.4939 147.944 99.4243 148.246 99.6211L148.341 99.6882C148.799 100.003 150.988 101.394 151.601 101.804L151.915 102.016C152.272 102.26 152.602 102.492 152.908 102.717C153.991 103.514 154.741 104.191 155.14 104.794C155.492 105.325 155.665 105.813 155.597 106.257C155.502 106.879 154.986 107.213 154.334 107.199C153.393 107.18 151.912 106.46 150.013 105.089C149.705 104.867 149.636 104.437 149.858 104.129C150.081 103.821 150.511 103.751 150.819 103.973L151.021 104.118C152.389 105.086 153.468 105.645 154.097 105.787L154.137 105.796L154.118 105.76C154.091 105.711 154.059 105.656 154.022 105.598L153.993 105.553C153.709 105.124 153.052 104.531 152.093 103.825C151.759 103.58 151.393 103.323 150.989 103.05L150.723 102.873C149.971 102.377 147.761 100.973 147.46 100.749C147.155 100.522 147.092 100.092 147.319 99.7868Z" fill="#000091"/>
<path fill-rule="evenodd" clip-rule="evenodd" d="M146.197 101.94C146.312 102.147 153.741 106.159 153.259 107.214C152.869 108.085 151.815 108.131 147.687 105.517L144.386 103.224" fill="white"/>
<path fill-rule="evenodd" clip-rule="evenodd" d="M145.863 101.339C146.121 101.195 146.432 101.236 146.644 101.417L146.672 101.442L146.752 101.495L146.983 101.64C147.104 101.714 147.254 101.804 147.516 101.961L148.414 102.499C149.064 102.891 149.519 103.17 150.033 103.495L150.107 103.542C150.362 103.704 150.604 103.86 150.836 104.013L151.007 104.126C151.844 104.684 152.511 105.174 152.992 105.597L153.06 105.657C153.821 106.342 154.17 106.874 153.887 107.495C153.522 108.31 152.773 108.605 151.709 108.34C150.791 108.111 149.475 107.449 147.562 106.251L147.319 106.098L147.295 106.082L143.993 103.789C143.681 103.573 143.604 103.144 143.821 102.832C144.029 102.531 144.435 102.449 144.743 102.636L144.778 102.659L148.069 104.944L148.17 105.009C149.997 106.159 151.232 106.79 151.994 106.993L152.041 107.005C152.295 107.068 152.426 107.089 152.506 107.066L152.515 107.063L152.509 107.055C152.434 106.963 152.328 106.853 152.192 106.727L152.139 106.68C151.732 106.313 151.126 105.863 150.351 105.343L150.245 105.271C150.026 105.126 149.796 104.976 149.554 104.821L149.37 104.704C148.835 104.364 148.375 104.082 147.701 103.675L146.238 102.797L146.078 102.697C146.009 102.654 145.952 102.617 145.906 102.586C145.865 102.558 145.83 102.532 145.799 102.508C145.712 102.438 145.658 102.387 145.596 102.274C145.411 101.942 145.531 101.523 145.863 101.339Z" fill="#000091"/>
<path fill-rule="evenodd" clip-rule="evenodd" d="M179.834 96.6209C176.211 97.7902 176.326 96.0935 177.518 95.3369C179.009 94.3968 185.429 91.9663 185.429 91.9663C185.429 91.9663 180.912 91.8975 180.637 89.2607C180.361 86.6239 181.6 86.5093 182.906 87.7933C184.213 89.0773 189.946 87.7245 189.946 87.7245L191.986 86.7615C191.986 86.7615 197.833 86.7156 197.375 93.0211C197.375 96.7355 194.44 98.3405 194.44 98.3405C193.591 98.8679 190.496 101.023 182.471 102.33C182.471 102.33 178.825 102.514 182.012 100.931C182.838 100.519 183.663 100.198 184.443 99.9226" fill="white"/>
<path fill-rule="evenodd" clip-rule="evenodd" d="M191.931 86.0757L191.981 86.0735L192.05 86.0741C192.113 86.0755 192.192 86.079 192.287 86.0857C192.496 86.1003 192.725 86.1267 192.969 86.1679C193.661 86.2846 194.354 86.4962 195.006 86.8294C197.076 87.8865 198.258 89.8927 198.068 92.9526L198.062 93.0496L198.061 93.1459C198.034 94.8467 197.454 96.2765 196.502 97.4342L196.432 97.5184C196.076 97.9375 195.696 98.2901 195.314 98.5798C195.137 98.7133 194.987 98.8144 194.872 98.8843L194.79 98.9322L194.55 99.0841C194.421 99.1652 194.306 99.2364 194.181 99.3112C193.844 99.5133 193.49 99.7105 193.091 99.9133C192.034 100.451 190.791 100.963 189.302 101.442C187.382 102.06 185.155 102.59 182.581 103.009L182.543 103.014L182.505 103.017C182.484 103.018 182.45 103.019 182.403 103.021C182.126 103.029 181.823 103.025 181.53 103C181.251 102.976 181.008 102.935 180.801 102.868C180.422 102.745 180.137 102.538 180.042 102.145C179.869 101.43 180.433 100.948 181.705 100.316C182.471 99.9331 183.264 99.6091 184.214 99.2738C184.572 99.1474 184.965 99.3353 185.091 99.6936C185.218 100.052 185.03 100.445 184.672 100.571C183.771 100.889 183.028 101.192 182.318 101.547L182.165 101.625L182.119 101.648L182.223 101.648L182.4 101.644L182.618 101.608C184.93 101.222 186.943 100.744 188.687 100.194L188.88 100.133C190.3 99.6758 191.476 99.1913 192.468 98.687C192.837 98.4993 193.163 98.3176 193.473 98.1315C193.56 98.0796 193.642 98.0294 193.728 97.9754L194.076 97.7562L194.155 97.7099L194.196 97.6841C194.281 97.6299 194.378 97.5631 194.483 97.4833C194.788 97.2518 195.096 96.967 195.382 96.6288C196.177 95.6918 196.659 94.5394 196.685 93.1413L196.687 93.0209L196.688 92.971C196.875 90.4029 195.99 88.8768 194.38 88.0546C193.864 87.7906 193.303 87.6193 192.741 87.5245C192.575 87.4966 192.419 87.4771 192.275 87.4647L192.151 87.4554L192.13 87.454L190.239 88.3464C190.21 88.3601 190.18 88.3717 190.15 88.3812L190.104 88.3938L189.978 88.4224C189.899 88.44 189.811 88.4591 189.715 88.4795L189.641 88.495C189.283 88.5696 188.891 88.6441 188.479 88.7137C187.746 88.8373 187.027 88.9318 186.349 88.9855C184.466 89.1347 183.13 88.9772 182.424 88.2838C182.153 88.017 181.897 87.8319 181.687 87.7407C181.606 87.7053 181.539 87.6875 181.491 87.684L181.461 87.6836C181.462 87.6833 181.458 87.6864 181.445 87.7035C181.415 87.7459 181.383 87.8165 181.355 87.918C181.279 88.1996 181.262 88.6276 181.321 89.1892C181.403 89.9783 182.073 90.5461 183.233 90.9126C183.712 91.064 184.234 91.166 184.757 91.2263C184.904 91.2432 185.042 91.2558 185.169 91.2647L185.262 91.2707C185.338 91.2751 185.393 91.2773 185.425 91.2781L185.439 91.2784C186.184 91.2897 186.375 92.3023 185.711 92.5938L184.676 92.9921L184.394 93.1017C183.555 93.4286 182.716 93.7621 181.92 94.087L181.383 94.3076L180.78 94.5597C179.354 95.1612 178.331 95.6373 177.887 95.9175C177.713 96.028 177.576 96.1653 177.504 96.2885L177.497 96.3018C177.558 96.3165 177.635 96.3266 177.728 96.3305L177.785 96.332C178.213 96.3378 178.83 96.2219 179.623 95.9661C179.984 95.8494 180.372 96.0479 180.489 96.4094C180.605 96.771 180.407 97.1586 180.045 97.2753C178.152 97.8864 176.878 97.8693 176.317 97.1096C175.748 96.3387 176.245 95.3302 177.151 94.7549L177.239 94.7009C177.824 94.3503 178.931 93.8421 180.465 93.1995L181.058 92.9535C181.51 92.7676 181.977 92.5783 182.453 92.3884L182.845 92.2324L182.819 92.2245C181.223 91.7205 180.144 90.8211 179.961 89.4108L179.952 89.332C179.795 87.8222 180.071 86.8013 180.895 86.4295C181.659 86.0853 182.54 86.4688 183.388 87.3025C183.697 87.606 184.76 87.7313 186.24 87.6141C186.874 87.5639 187.554 87.4745 188.25 87.3571C188.644 87.2906 189.019 87.2194 189.36 87.1481L189.561 87.1056L189.719 87.0704L191.693 86.1393C191.768 86.1038 191.849 86.0823 191.931 86.0757Z" fill="#000091"/>
<path fill-rule="evenodd" clip-rule="evenodd" d="M185.451 94.9011C184.167 95.3368 179.1 96.4144 177.564 97.6526C176.05 98.8678 177.174 99.8079 181.714 98.2946" fill="white"/>
<path fill-rule="evenodd" clip-rule="evenodd" d="M185.231 94.2498C185.59 94.1277 185.981 94.3204 186.103 94.6802C186.221 95.0271 186.046 95.4027 185.711 95.5385L185.673 95.5526C185.337 95.6665 182.5 96.4248 181.632 96.6848L181.269 96.7954C179.65 97.2972 178.519 97.7666 177.995 98.189C177.921 98.2487 177.858 98.3047 177.805 98.3549L177.781 98.3793L177.788 98.3803C178.434 98.4511 179.693 98.2344 181.386 97.6788L181.497 97.6421C181.857 97.522 182.247 97.7167 182.367 98.0771C182.487 98.4375 182.292 98.8271 181.932 98.9472L181.683 99.029C179.587 99.7055 178.044 99.9173 177.172 99.6557C176.548 99.4687 176.16 98.9932 176.256 98.3729C176.325 97.9276 176.638 97.514 177.133 97.1171C177.865 96.5265 179.186 95.9884 181.1 95.4084L181.39 95.3219C182.349 95.0423 184.606 94.4365 185.14 94.2781L185.231 94.2498Z" fill="#000091"/>
<path fill-rule="evenodd" clip-rule="evenodd" d="M186.529 97.0793C186.346 97.2398 178.068 98.8449 178.206 99.9913C178.32 100.931 179.329 101.298 184.03 100.037L187.859 98.8219" fill="white"/>
<path fill-rule="evenodd" clip-rule="evenodd" d="M186.255 96.4482C186.522 96.3322 186.845 96.3955 187.047 96.6264C187.297 96.9123 187.268 97.3469 186.982 97.597L186.934 97.6387C186.849 97.7092 186.791 97.7368 186.582 97.7932L186.181 97.8956L184.497 98.3009C183.915 98.4422 183.449 98.5588 182.985 98.6805L182.547 98.797C181.29 99.136 180.294 99.4519 179.61 99.7424C179.36 99.8486 179.16 99.9483 179.018 100.036L178.967 100.069L178.971 100.071C179.037 100.113 179.159 100.134 179.389 100.15L179.44 100.153C180.223 100.2 181.604 99.9703 183.721 99.4077L183.837 99.3766L187.651 98.1663C188 98.0555 188.372 98.2379 188.501 98.5757L188.515 98.6139C188.626 98.963 188.443 99.3351 188.105 99.4642L188.067 99.4776L184.238 100.693L184.208 100.702L183.798 100.81C181.7 101.356 180.285 101.582 179.357 101.526C178.262 101.46 177.631 100.957 177.523 100.073C177.438 99.3649 177.965 98.955 178.999 98.5075L179.072 98.4762C179.799 98.1674 180.795 97.8485 182.039 97.5095L182.547 97.3733C183.167 97.2096 183.775 97.0589 184.634 96.8527L185.937 96.5387L186.125 96.4897L186.23 96.4598L186.255 96.4482Z" fill="#000091"/>
<path fill-rule="evenodd" clip-rule="evenodd" d="M306.676 66.3548C306.744 53.8356 288.47 49.525 288.47 49.525C289.846 43.3113 289.227 27.926 263.18 32.6264C249.835 34.9423 246.075 41.9355 248.918 47.599C243.736 50.167 230.781 68.7393 230.781 68.7393L231.033 84.6978C230.07 84.4915 229.061 84.3768 228.03 84.3768C219.844 84.331 213.149 90.9574 213.126 99.1659C213.08 107.351 220.394 114.689 228.603 114.735C229.589 114.735 230.552 114.643 231.492 114.437V114.735L302.273 114.551C302.273 114.551 302.617 100.358 300.92 85.3169C303.878 78.507 306.676 70.8947 306.676 66.3548Z" fill="#E4794A"/>
<path fill-rule="evenodd" clip-rule="evenodd" d="M277.005 41.8896L281.729 44.5035C281.729 44.5035 269.439 49.8001 267.215 74.311C265.77 90.2236 266.917 115.056 266.917 115.056L258.8 114.941C258.8 114.941 260.978 65.7127 257.447 57.6876C253.916 49.6855 257.814 49.181 259.602 47.5072C261.414 45.8563 277.005 41.8896 277.005 41.8896Z" fill="white"/>
<path fill-rule="evenodd" clip-rule="evenodd" d="M225.393 109.598C231.902 109.598 237.178 104.322 237.178 97.813C237.178 91.3041 231.902 86.0276 225.393 86.0276C218.884 86.0276 213.607 91.3041 213.607 97.813C213.607 104.322 218.884 109.598 225.393 109.598Z" fill="#000091"/>
<path fill-rule="evenodd" clip-rule="evenodd" d="M268.361 109.048C274.022 109.048 278.61 104.459 278.61 98.799C278.61 93.1385 274.022 88.5498 268.361 88.5498C262.701 88.5498 258.112 93.1385 258.112 98.799C258.112 104.459 262.701 109.048 268.361 109.048Z" fill="#000091"/>
<path fill-rule="evenodd" clip-rule="evenodd" d="M276.776 64.016C278.817 63.0989 285.306 55.6699 288.47 49.4791C291.107 49.4333 294.913 51.2446 296.564 52.5287C289.066 64.3599 276.753 64.016 276.776 64.016Z" fill="#000091"/>
<path fill-rule="evenodd" clip-rule="evenodd" d="M276.273 84.2958C277.654 83.9639 279.206 83.8406 280.857 84.0466C283.074 84.3231 285.236 85.1719 287.259 86.7081C288.888 87.9451 290.387 89.6012 291.733 91.7109C291.937 92.0312 291.843 92.4565 291.523 92.6608C291.202 92.865 290.777 92.771 290.573 92.4507C289.313 90.4748 287.923 88.9398 286.427 87.8038C284.602 86.4179 282.668 85.659 280.687 85.4118C279.212 85.2278 277.824 85.3381 276.595 85.6335C276.35 85.6923 276.13 85.7544 275.937 85.8166L275.856 85.8432C275.734 85.8841 275.654 85.9143 275.62 85.9286C275.269 86.075 274.867 85.9096 274.72 85.559C274.574 85.2085 274.739 84.8056 275.09 84.6592L275.173 84.6258C275.41 84.5334 275.783 84.4136 276.273 84.2958Z" fill="#000091"/>
<path fill-rule="evenodd" clip-rule="evenodd" d="M276.239 83.4425C278.108 82.3908 280.254 81.8304 282.623 82.0249C285.685 82.2763 288.843 83.781 292.035 86.7631C292.313 87.0224 292.328 87.4577 292.068 87.7353C291.809 88.0129 291.374 88.0278 291.096 87.7684C288.121 84.9894 285.249 83.6208 282.51 83.396C280.436 83.2257 278.558 83.7164 276.914 84.6414C276.417 84.9212 275.98 85.2205 275.608 85.5183L275.486 85.6183C275.428 85.6668 275.374 85.7131 275.325 85.7567L275.221 85.8515L275.18 85.891C274.914 86.1618 274.478 86.1653 274.208 85.8988C273.937 85.6323 273.933 85.1968 274.2 84.926L274.249 84.8776C274.356 84.7733 274.524 84.6244 274.748 84.4446C275.176 84.1018 275.674 83.7605 276.239 83.4425Z" fill="#000091"/>
<path fill-rule="evenodd" clip-rule="evenodd" d="M300.785 85.3652C301.138 85.464 301.349 85.8205 301.272 86.1738L301.259 86.2234L301.192 86.4531L301.116 86.7007C301.066 86.8617 301.009 87.0371 300.947 87.226L300.909 87.341C300.616 88.2264 300.258 89.2118 299.834 90.2723C298.623 93.3019 297.12 96.3318 295.309 99.164C292.411 103.697 288.998 107.284 285.031 109.563C280.256 112.306 274.883 113.024 268.927 111.365L268.747 111.315L268.656 111.291C268.609 111.278 268.553 111.262 268.488 111.243L268.439 111.229C268.187 111.154 267.908 111.062 267.607 110.953C266.75 110.641 265.892 110.249 265.087 109.768C263.967 109.099 263.039 108.311 262.371 107.388C262.148 107.08 262.217 106.65 262.524 106.427C262.832 106.205 263.262 106.273 263.485 106.581C264.032 107.337 264.821 108.007 265.792 108.586C266.516 109.019 267.297 109.376 268.078 109.66C268.312 109.745 268.532 109.819 268.732 109.88L268.913 109.934C268.989 109.956 269.047 109.972 269.083 109.981L269.124 109.992C274.791 111.613 279.842 110.957 284.345 108.37C288.098 106.215 291.362 102.784 294.15 98.4228C295.911 95.6699 297.375 92.7158 298.557 89.7614C298.943 88.7965 299.272 87.8963 299.546 87.0815L299.604 86.9082C299.678 86.6832 299.744 86.4775 299.802 86.2924L299.89 86.0031L299.937 85.842C300.04 85.4761 300.419 85.2627 300.785 85.3652Z" fill="#000091"/>
<path fill-rule="evenodd" clip-rule="evenodd" d="M282.101 69.5226C282.453 69.6642 282.624 70.0648 282.482 70.4173L282.215 71.0749C282.002 71.5968 281.763 72.1781 281.502 72.8041L281.128 73.698C280.502 75.1861 279.866 76.6606 279.245 78.053L278.987 78.6279C278.902 78.8169 278.818 79.0032 278.734 79.1866L278.609 79.4597C278.141 80.4825 277.702 81.4038 277.301 82.2068C277.236 82.338 277.17 82.4688 277.104 82.599C276.134 84.5038 275.096 86.2382 274.056 87.7696C273.692 88.3068 273.353 88.7807 273.048 89.1873L272.896 89.3882L272.716 89.6192C272.689 89.6534 272.669 89.6787 272.656 89.6949C272.416 89.9895 271.982 90.0338 271.688 89.7939C271.405 89.5632 271.353 89.1537 271.562 88.8607L271.589 88.8261C271.603 88.8085 271.634 88.7706 271.679 88.7128L271.804 88.5512C271.849 88.4926 271.897 88.4295 271.947 88.3617L272.11 88.1426C272.359 87.8042 272.63 87.4215 272.918 86.997C273.926 85.5112 274.936 83.8258 275.877 81.9751L275.974 81.7847L276.07 81.5928C276.464 80.8037 276.896 79.8961 277.359 78.8864L277.607 78.3413C277.733 78.0646 277.86 77.7816 277.989 77.4927C278.667 75.9716 279.364 74.3499 280.046 72.7198L280.46 71.7269C280.583 71.4295 280.7 71.1444 280.811 70.8734L281.206 69.9043C281.347 69.5518 281.748 69.3809 282.101 69.5226Z" fill="#000091"/>
<path fill-rule="evenodd" clip-rule="evenodd" d="M277.372 31.9614L277.029 42.8297C277.074 44.2742 276.432 45.6499 275.332 46.59C273.222 48.3326 269.37 51.7949 264.532 57.2749C264.532 57.2749 258.479 50.8319 257.47 40.789L277.372 31.9614Z" fill="white"/>
<path fill-rule="evenodd" clip-rule="evenodd" d="M277.093 31.3326L257.191 40.1602C256.92 40.2807 256.756 40.5621 256.786 40.8578C257.202 44.9994 258.47 48.8386 260.324 52.3095C261.129 53.8172 261.992 55.1545 262.856 56.3075C263.13 56.6722 263.386 56.9953 263.621 57.2756L263.772 57.4544C263.89 57.5914 263.977 57.6889 264.031 57.7458C264.308 58.0412 264.78 58.0339 265.048 57.7301C269.092 53.1488 272.766 49.6017 275.77 47.1203L275.847 47.0529C277.052 45.9864 277.738 44.4789 277.718 42.9082L277.716 42.8329L278.06 31.9832C278.076 31.4764 277.557 31.1271 277.093 31.3326ZM276.65 33.0342L276.341 42.8079V42.8515C276.379 44.0684 275.841 45.2498 274.885 46.0669L274.739 46.1877C271.96 48.4984 268.632 51.6906 264.984 55.7355L264.541 56.2293L264.526 56.2116C264.348 55.9935 264.158 55.7502 263.957 55.4822C263.133 54.3832 262.308 53.1046 261.537 51.6614L261.431 51.4617C259.82 48.3937 258.689 45.0317 258.235 41.4283L258.208 41.2139L276.65 33.0342Z" fill="#000091"/>
<path fill-rule="evenodd" clip-rule="evenodd" d="M278.841 26.3668C278.841 26.3668 283.633 26.4815 282.761 30.7692C281.89 35.0568 276.594 32.5576 276.594 32.5576L277.327 26.4585L278.841 26.3668Z" fill="white"/>
<path fill-rule="evenodd" clip-rule="evenodd" d="M278.861 25.6793C278.84 25.6786 278.82 25.679 278.799 25.6802L277.286 25.7719C276.954 25.792 276.684 26.0464 276.644 26.3764L275.91 32.4754C275.875 32.7696 276.032 33.0533 276.3 33.1797L276.389 33.2203C276.611 33.3195 276.941 33.4482 277.349 33.5761C278.156 33.8289 278.968 33.9781 279.746 33.9692C281.638 33.9475 283.015 32.977 283.435 30.9061C283.872 28.7552 283.096 27.2415 281.52 26.3896C280.984 26.0998 280.394 25.9075 279.785 25.7909C279.568 25.7494 279.362 25.7202 279.17 25.7011L279.068 25.6917C279.036 25.689 279.006 25.6868 278.978 25.685L278.861 25.6793ZM277.941 27.1103L278.848 27.0553L278.902 27.0582C279.054 27.0679 279.27 27.0931 279.526 27.142C280.006 27.234 280.466 27.3839 280.865 27.5996C281.925 28.1728 282.399 29.0959 282.087 30.6321C281.805 32.0205 281.013 32.5788 279.73 32.5935C279.117 32.6006 278.44 32.4762 277.76 32.2632L277.645 32.2261C277.568 32.2011 277.494 32.1756 277.422 32.1498L277.339 32.1191L277.941 27.1103Z" fill="#000091"/>
<path fill-rule="evenodd" clip-rule="evenodd" d="M265.221 12.747C263.96 12.6324 255.293 12.0592 254.307 19.2818C253.321 26.5043 254.307 34.5065 255.109 38.1522C255.889 41.7979 272.512 40.1929 273.452 39.8719C274.392 39.5509 275.516 38.4503 275.516 38.4503L277.832 27.3527C277.832 27.3527 278.818 13.9393 265.221 12.747Z" fill="white"/>
<path fill-rule="evenodd" clip-rule="evenodd" d="M263.092 12.0169C261.841 12.0704 260.612 12.2542 259.46 12.605C256.245 13.5838 254.1 15.7044 253.625 19.1888C252.779 25.382 253.293 33.1042 254.437 38.3001C254.884 40.393 258.372 41.1533 264.045 41.1867L264.442 41.1877C268.128 41.1836 272.886 40.7921 273.674 40.5229C273.836 40.4675 274.002 40.3946 274.172 40.306C274.452 40.1605 274.74 39.9744 275.033 39.7568C275.272 39.5791 275.502 39.3901 275.715 39.201L275.867 39.0639C275.922 39.0136 275.966 38.9722 275.997 38.9417C276.094 38.8464 276.161 38.7242 276.189 38.5908L278.505 27.4933C278.511 27.4636 278.515 27.4335 278.517 27.4032L278.524 27.2743L278.526 27.2291C278.532 27.0972 278.535 26.9453 278.535 26.7748C278.535 26.2924 278.512 25.7547 278.458 25.1739C278.302 23.5145 277.924 21.8348 277.26 20.2334C275.368 15.6722 271.57 12.6672 265.466 12.079L265.28 12.0619C264.67 12.0063 263.937 11.9808 263.092 12.0169ZM265.158 13.4321C270.845 13.9308 274.268 16.612 275.989 20.7606C276.596 22.2239 276.944 23.7717 277.088 25.3027C277.133 25.779 277.154 26.2226 277.158 26.6245L277.159 26.7733C277.159 26.9258 277.156 27.0601 277.152 27.1746L277.147 27.2615L274.886 38.0963L274.803 38.171C274.618 38.3355 274.417 38.5 274.212 38.6523C273.974 38.8295 273.745 38.9774 273.537 39.0857C273.425 39.144 273.322 39.1894 273.229 39.2209C272.623 39.4279 267.882 39.8155 264.33 39.8119L264.222 39.8117C259.278 39.7955 256.015 39.103 255.781 38.0084C254.669 32.9568 254.166 25.3941 254.988 19.3748C255.384 16.4739 257.122 14.7547 259.86 13.921C260.891 13.6073 262.008 13.4402 263.151 13.3913C263.928 13.3581 264.602 13.3816 265.158 13.4321Z" fill="#000091"/>
<path fill-rule="evenodd" clip-rule="evenodd" d="M276.226 27.261C275.401 28.0635 273.223 32.6493 272.672 34.7816C272.672 34.7816 267.284 32.9473 259.557 32.8098C259.557 32.8098 255.338 32.8786 253.664 33.3601C253.664 33.3601 253.985 40.9495 257.402 44.8933C260.795 48.837 268.018 47.7594 271.411 45.4206C274.805 43.0819 275.378 41.9584 276.157 39.4133C276.96 36.8911 279.069 27.4673 279.069 27.4673L276.226 27.261Z" fill="#CACAFB"/>
<path fill-rule="evenodd" clip-rule="evenodd" d="M278.427 28.8889C278.427 28.8889 280.697 25.4038 281.592 21.781C282.417 18.3646 280.858 14.7877 277.694 13.2515C275.057 11.9675 273.085 12.9534 273.085 12.9534C273.085 12.9534 275.905 8.18421 271.709 3.94238C270.242 2.45201 268.178 1.62657 266.092 1.67243C260.956 1.81 259.351 6.14355 259.351 6.14355C259.351 6.14355 253.894 -3.991 242.59 1.94757C241.443 2.54372 240.159 4.21753 239.54 5.36397C235.78 12.2197 248.024 20.4053 254.421 21.0702C261.437 21.8039 265.564 20.6575 267.811 18.9608C266.115 19.9467 267.972 30.471 278.427 28.8889Z" fill="#000091"/>
<path fill-rule="evenodd" clip-rule="evenodd" d="M263.924 37.6626C264.146 37.2312 264.67 37.0455 265.117 37.2479C265.579 37.4569 265.783 38.0003 265.574 38.4617L265.54 38.5335C265.501 38.6123 265.446 38.7113 265.375 38.8254C265.223 39.0704 265.039 39.3143 264.819 39.5442C263.81 40.5991 262.419 41.0026 260.789 40.3298C260.321 40.1365 260.098 39.6003 260.291 39.1321C260.485 38.6639 261.021 38.441 261.489 38.6343C262.365 38.9959 262.975 38.8191 263.493 38.2765C263.62 38.1446 263.728 38.0008 263.817 37.8582L263.858 37.7891L263.903 37.7051L263.924 37.6626Z" fill="#000091"/>
<path fill-rule="evenodd" clip-rule="evenodd" d="M258.712 29.6796C258.833 29.1876 259.33 28.8865 259.821 29.007C260.298 29.1238 260.596 29.5934 260.504 30.0699L260.494 30.1161L259.346 34.8012L261.232 34.9927C261.721 35.0424 262.081 35.467 262.055 35.9522L262.052 35.9979C262.002 36.4865 261.578 36.8465 261.092 36.8212L261.047 36.8176L258.112 36.5196C257.573 36.4648 257.202 35.9592 257.304 35.4339L257.314 35.3889L258.712 29.6796Z" fill="#000091"/>
<path fill-rule="evenodd" clip-rule="evenodd" d="M257.439 29.016C257.441 28.4335 257.135 27.96 256.756 27.9583C256.376 27.9567 256.066 28.4276 256.063 29.0101C256.061 29.5926 256.367 30.0661 256.746 30.0678C257.126 30.0694 257.436 29.5985 257.439 29.016Z" fill="#000091"/>
<path fill-rule="evenodd" clip-rule="evenodd" d="M263.957 28.9398C263.959 28.3573 263.653 27.8838 263.273 27.8822C262.893 27.8805 262.583 28.3514 262.581 28.9339C262.578 29.5164 262.884 29.99 263.264 29.9916C263.644 29.9932 263.954 29.5224 263.957 28.9398Z" fill="#000091"/>
<path fill-rule="evenodd" clip-rule="evenodd" d="M263.578 23.0055C264.736 22.8401 265.743 23.1418 266.561 23.7403C266.792 23.909 266.991 24.09 267.16 24.2731L267.235 24.3569C267.304 24.4368 267.357 24.5051 267.394 24.5577C267.684 24.9729 267.583 25.5447 267.167 25.8347C266.765 26.1154 266.217 26.0294 265.919 25.6472L265.882 25.5968C265.87 25.582 265.846 25.5539 265.811 25.5162C265.72 25.4171 265.608 25.3158 265.479 25.2211C265.044 24.9033 264.532 24.7421 263.918 24.8111L263.837 24.8214C263.336 24.893 262.871 24.5446 262.799 24.0432C262.728 23.5417 263.076 23.0771 263.578 23.0055Z" fill="#000091"/>
<path fill-rule="evenodd" clip-rule="evenodd" d="M256.043 22.8662C256.517 22.7526 256.994 22.7578 257.444 22.8309L257.544 22.8483C257.622 22.8629 257.685 22.8774 257.731 22.89C258.221 23.0212 258.511 23.5242 258.38 24.0135C258.252 24.4874 257.776 24.7746 257.302 24.6727L257.23 24.6558C257.211 24.652 257.185 24.647 257.151 24.6415C256.92 24.604 256.674 24.6014 256.471 24.65C256.238 24.7058 256.105 24.8098 256.022 25.0377L256.007 25.0819C255.856 25.5653 255.341 25.8343 254.858 25.6828C254.374 25.5313 254.105 25.0166 254.257 24.5333C254.543 23.6213 255.2 23.0683 256.043 22.8662Z" fill="#000091"/>
<path fill-rule="evenodd" clip-rule="evenodd" d="M262.767 46.934L229.268 46.7964C226.058 46.7735 223.444 49.3874 223.421 52.5974L223.398 60.4849C215.396 60.4391 208.884 66.905 208.861 74.9072C208.815 82.9093 215.281 89.4211 223.283 89.444L223.26 94.6718C223.237 97.8819 225.851 100.496 229.061 100.519L262.56 100.656C265.77 100.679 268.384 98.0653 268.407 94.8552L268.591 52.7808C268.568 49.5708 265.977 46.9569 262.767 46.934Z" fill="#FAA184"/>
<path fill-rule="evenodd" clip-rule="evenodd" d="M220.875 97.6067C220.898 97.515 225.943 91.6222 226.103 91.7598C226.264 91.8974 233.165 94.9699 233.326 95.2221C233.486 95.4514 233.739 96.85 233.051 98.134C232.363 99.418 231.583 102.376 228.465 102.605C225.347 102.834 220.875 97.6067 220.875 97.6067Z" fill="white"/>
<path fill-rule="evenodd" clip-rule="evenodd" d="M230.07 93.1127C230.07 93.1127 230.666 89.0543 229.726 88.0913C228.786 87.1283 223.535 96.1164 221.724 96.7355" fill="white"/>
<path fill-rule="evenodd" clip-rule="evenodd" d="M228.725 87.6433C229.247 87.2717 229.781 87.1627 230.218 87.6107C230.752 88.1577 230.938 89.133 230.944 90.4974C230.947 91.1019 230.91 91.744 230.848 92.3841L230.822 92.6352C230.818 92.6758 230.813 92.7156 230.809 92.7547L230.766 93.1035C230.759 93.1507 230.754 93.1873 230.751 93.2126C230.695 93.5885 230.346 93.8484 229.97 93.7932C229.594 93.738 229.334 93.3885 229.389 93.0127L229.407 92.8863L229.417 92.8085C229.438 92.6408 229.459 92.4532 229.479 92.2506C229.537 91.6533 229.571 91.0557 229.568 90.5033C229.566 89.8256 229.502 89.2748 229.402 88.927L229.386 88.8719L229.367 88.8878C229.197 89.0343 228.987 89.2478 228.741 89.5246L228.535 89.761C228.107 90.2579 227.707 90.7689 226.831 91.9298L225.732 93.3896C223.708 96.0659 222.791 97.0977 221.946 97.3863C221.587 97.5091 221.196 97.3173 221.073 96.9578C220.955 96.6112 221.129 96.2352 221.464 96.0987L221.501 96.0845C221.955 95.9296 222.93 94.8127 224.704 92.4672L225.674 91.1794C226.656 89.8769 227.068 89.352 227.554 88.7916L227.644 88.6881C228.066 88.2075 228.417 87.8626 228.725 87.6433Z" fill="#000091"/>
<path fill-rule="evenodd" clip-rule="evenodd" d="M232.867 93.8234C232.867 93.8234 234.128 90.8655 232.454 89.444C230.804 88.0224 226.699 96.1162 224.911 97.148" fill="white"/>
<path fill-rule="evenodd" clip-rule="evenodd" d="M230.311 89.4461C231.262 88.5755 232.149 88.273 232.9 88.9198C233.576 89.4936 233.921 90.2842 233.996 91.2054C234.052 91.8985 233.954 92.6193 233.758 93.3271C233.664 93.6684 233.568 93.9333 233.5 94.0933C233.351 94.4427 232.947 94.6052 232.598 94.4562C232.261 94.3126 232.098 93.9317 232.22 93.5913L232.27 93.4638C232.277 93.4462 232.284 93.4265 232.292 93.4048C232.339 93.2728 232.387 93.1235 232.432 92.9608C232.588 92.3954 232.666 91.8266 232.624 91.3165C232.579 90.7604 232.398 90.3246 232.056 90.0095L232.001 89.9615C231.995 89.9589 231.986 89.9638 231.928 89.9835C231.761 90.0405 231.524 90.2003 231.239 90.4611C230.707 90.9481 230.082 91.7046 229.245 92.8426L228.92 93.2887L227.764 94.8961C226.251 96.9878 225.9 97.3717 225.255 97.744C224.926 97.9338 224.505 97.821 224.315 97.4919C224.125 97.1628 224.238 96.7422 224.567 96.5523L224.6 96.5328C225.028 96.2722 225.468 95.7304 227.017 93.5796L227.672 92.6669C227.764 92.5395 227.85 92.4212 227.932 92.308L228.053 92.1415C228.982 90.8716 229.675 90.0279 230.311 89.4461Z" fill="#000091"/>
<path fill-rule="evenodd" clip-rule="evenodd" d="M233.624 97.2169C233.624 97.2169 235.734 91.9203 234.266 90.7968C232.799 89.6733 230.391 96.552 227.525 98.1341" fill="white"/>
<path fill-rule="evenodd" clip-rule="evenodd" d="M233.203 90.1889C233.7 89.9081 234.234 89.9065 234.684 90.2506C235.552 90.9153 235.639 92.2207 235.283 94.0352C235.179 94.5697 235.036 95.1327 234.864 95.71C234.751 96.0863 234.633 96.4503 234.513 96.793L234.453 96.9625C234.413 97.0723 234.376 97.1735 234.342 97.2652L234.263 97.4714C234.122 97.8243 233.722 97.9965 233.369 97.8559C233.016 97.7153 232.844 97.3153 232.985 96.9623L233.031 96.8434L233.104 96.6467C233.121 96.5996 233.139 96.5502 233.158 96.4987C233.29 96.1298 233.422 95.7307 233.545 95.3172C233.705 94.7794 233.838 94.2581 233.933 93.7705L233.968 93.5855C234.169 92.462 234.125 91.6693 233.902 91.3967L233.889 91.3815L233.88 91.3866C233.734 91.4688 233.532 91.6612 233.286 91.9616L233.236 92.0232L233.151 92.1319C232.949 92.3936 232.725 92.7135 232.447 93.1331L232.219 93.4825C231.974 93.8614 231.45 94.6756 231.275 94.941L231.115 95.1841C229.869 97.0553 228.927 98.1455 227.857 98.7362C227.524 98.9198 227.106 98.799 226.922 98.4664C226.739 98.1338 226.86 97.7154 227.192 97.5318C228.008 97.0815 228.848 96.1051 229.977 94.4108L230.227 94.0304C230.501 93.6087 231.051 92.7536 231.173 92.5661L231.31 92.3577C231.644 91.8543 231.909 91.4798 232.162 91.1639C232.531 90.7027 232.862 90.3817 233.203 90.1889Z" fill="#000091"/>
<path fill-rule="evenodd" clip-rule="evenodd" d="M222.114 96.552C221.884 95.4056 221.999 94.2133 222.458 93.1585C222.985 91.9204 223.604 90.2695 223.65 89.1918C223.742 87.3346 220.715 88.2059 220.577 89.3523C220.44 90.4988 219.867 90.43 218.537 91.6223C217.207 92.7917 217.459 97.4691 217.459 97.4691C217.459 97.4691 216.29 99.8767 220.05 102.743C223.81 105.609 227.846 103.385 227.846 103.385C227.846 103.385 235.137 100.702 235.137 95.4514C235.137 90.2007 233.211 97.8589 229.565 100.014" fill="white"/>
<path fill-rule="evenodd" clip-rule="evenodd" d="M222.085 87.4675C223.354 87.2528 224.404 87.8742 224.337 89.2211C224.296 90.1983 223.878 91.5406 223.206 93.1536L223.088 93.4328C222.69 94.3504 222.585 95.3991 222.788 96.4171C222.863 96.7896 222.621 97.152 222.249 97.2265C221.876 97.301 221.514 97.0594 221.439 96.6869C221.19 95.4383 221.306 94.1484 221.777 93.003L221.927 92.6476C222.542 91.1718 222.93 89.9329 222.963 89.1579C222.979 88.8347 222.817 88.7389 222.314 88.8239C221.766 88.9167 221.281 89.2604 221.26 89.4343C221.18 90.1047 220.961 90.5375 220.523 90.9304L220.47 90.9773C220.423 91.0177 219.412 91.7619 218.991 92.1389C218.652 92.437 218.377 93.295 218.238 94.4939C218.141 95.3254 218.115 96.2087 218.132 97.0065L218.137 97.2041C218.141 97.3152 218.144 97.393 218.146 97.4321C218.151 97.5319 218.135 97.6316 218.098 97.724L218.078 97.7697C218.075 97.7752 218.059 97.8186 218.038 97.896C217.934 98.2934 217.942 98.7973 218.152 99.3914C218.47 100.287 219.202 101.232 220.467 102.196C220.682 102.36 220.901 102.508 221.124 102.64C222.914 103.704 224.831 103.736 226.633 103.143C226.847 103.072 227.042 102.998 227.214 102.923L227.299 102.886C227.396 102.842 227.464 102.809 227.5 102.79L227.514 102.782C227.534 102.771 227.555 102.761 227.576 102.752L227.677 102.713C227.723 102.695 227.776 102.674 227.833 102.65L227.893 102.625C228.131 102.525 228.397 102.405 228.684 102.265C229.504 101.865 230.325 101.386 231.087 100.831C233.205 99.2888 234.449 97.4871 234.449 95.4514L234.449 95.3444L234.446 95.1086L234.039 95.7533C233.637 96.3919 233.211 97.075 232.987 97.4113L232.936 97.4869C231.947 98.9331 230.987 99.9729 229.916 100.606C229.589 100.8 229.167 100.691 228.973 100.364C228.78 100.037 228.889 99.6155 229.216 99.4221C230.077 98.9129 230.915 98.0048 231.8 96.7102L231.845 96.6438C232.257 96.0235 233.62 93.7885 233.915 93.4463C234.119 93.2096 234.311 93.0547 234.565 92.9874C234.999 92.8726 235.377 93.0897 235.572 93.4646C235.761 93.8298 235.825 94.4287 235.825 95.4514C235.825 98.0101 234.335 100.168 231.896 101.943C231.064 102.549 230.175 103.068 229.287 103.502C228.976 103.654 228.686 103.784 228.425 103.894L228.239 103.97L228.132 104.012L228.093 104.032L227.995 104.081C227.787 104.182 227.502 104.301 227.152 104.42L227.063 104.449C224.916 105.156 222.6 105.118 220.421 103.823C220.153 103.663 219.89 103.486 219.633 103.29C218.166 102.171 217.268 101.013 216.856 99.8511C216.548 98.9838 216.536 98.1994 216.708 97.5458C216.725 97.483 216.742 97.4259 216.759 97.3747L216.766 97.3536L216.762 97.2462C216.734 96.3371 216.757 95.3136 216.871 94.335C217.043 92.8523 217.386 91.7597 218.026 91.1567L218.078 91.1101C218.556 90.6817 219.584 89.9249 219.575 89.9323C219.785 89.7521 219.852 89.6269 219.895 89.2704C220.004 88.3595 221.004 87.6503 222.085 87.4675Z" fill="#000091"/>
<path fill-rule="evenodd" clip-rule="evenodd" d="M267.926 98.2716C267.903 98.1799 262.859 92.2872 262.698 92.4247C262.538 92.5623 255.636 95.6348 255.476 95.887C255.315 96.1163 255.063 97.5149 255.751 98.799C256.439 100.083 257.218 103.041 260.336 103.27C263.455 103.499 267.926 98.2716 267.926 98.2716Z" fill="white"/>
<path fill-rule="evenodd" clip-rule="evenodd" d="M258.731 93.7776C258.731 93.7776 258.135 89.7192 259.075 88.7562C260.015 87.7932 265.266 96.7813 267.077 97.4004" fill="white"/>
<path fill-rule="evenodd" clip-rule="evenodd" d="M258.583 88.2758C259.021 87.8277 259.555 87.9367 260.077 88.3083C260.367 88.5147 260.695 88.8324 261.084 89.2698L261.248 89.4567C261.714 89.9942 262.112 90.4991 263.011 91.6888L264.097 93.1322C265.846 95.4437 266.819 96.562 267.28 96.7422L267.3 96.7495C267.66 96.8724 267.852 97.2634 267.729 97.6229C267.606 97.9824 267.215 98.1742 266.855 98.0513L266.793 98.0286C265.965 97.7108 265.044 96.6648 263.07 94.0547L261.595 92.0979C260.937 91.232 260.593 90.8015 260.21 90.3598L260.123 90.2601C259.871 89.9728 259.655 89.7485 259.478 89.5908L259.416 89.537L259.415 89.5413C259.311 89.8708 259.242 90.4096 259.234 91.0801L259.233 91.1683C259.231 91.7207 259.265 92.3184 259.323 92.9157C259.335 93.0372 259.347 93.1533 259.36 93.263L259.395 93.5513C259.403 93.6099 259.409 93.6526 259.412 93.6777C259.467 94.0536 259.208 94.403 258.832 94.4582C258.456 94.5134 258.106 94.2535 258.051 93.8776L258.02 93.6451L257.993 93.4197C257.98 93.3024 257.966 93.1786 257.954 93.0491C257.891 92.409 257.855 91.7669 257.858 91.1624C257.863 89.7981 258.049 88.8228 258.583 88.2758Z" fill="#000091"/>
<path fill-rule="evenodd" clip-rule="evenodd" d="M255.934 94.4884C255.934 94.4884 254.673 91.5306 256.347 90.109C257.998 88.6874 262.102 96.7813 263.89 97.8131" fill="white"/>
<path fill-rule="evenodd" clip-rule="evenodd" d="M255.898 89.5878C256.653 88.938 257.539 89.2405 258.491 90.1111C259.087 90.6565 259.733 91.4321 260.577 92.5734L260.87 92.973C260.952 93.0862 261.037 93.2045 261.129 93.3319L262.069 94.6387C263.426 96.5137 263.822 96.9798 264.234 97.2173C264.563 97.4072 264.676 97.8278 264.486 98.1569C264.296 98.486 263.876 98.5988 263.547 98.409L263.432 98.3404C262.802 97.9511 262.388 97.4411 260.624 94.9871L259.881 93.9537C259.796 93.8362 259.716 93.726 259.638 93.6189L259.476 93.3986C258.679 92.3211 258.077 91.5974 257.562 91.1261C257.277 90.8653 257.04 90.7055 256.873 90.6485L256.813 90.6281C256.806 90.6261 256.802 90.6262 256.799 90.6279L256.792 90.6334C256.421 90.9484 256.224 91.399 256.177 91.9815C256.136 92.4916 256.213 93.0604 256.369 93.6258C256.405 93.7559 256.443 93.8776 256.481 93.9886L256.532 94.1288L256.567 94.2187C256.716 94.5682 256.553 94.9722 256.204 95.1212C255.854 95.2702 255.45 95.1077 255.301 94.7583C255.233 94.5983 255.138 94.3334 255.043 93.9921C254.848 93.2843 254.75 92.5635 254.806 91.8704C254.881 90.9492 255.226 90.1586 255.898 89.5878Z" fill="#000091"/>
<path fill-rule="evenodd" clip-rule="evenodd" d="M255.2 97.9048C255.2 97.9048 253.091 92.6082 254.558 91.4847C256.026 90.3612 258.433 97.2398 261.299 98.8219" fill="white"/>
<path fill-rule="evenodd" clip-rule="evenodd" d="M254.14 90.9386C254.59 90.5944 255.125 90.5961 255.621 90.8769C255.963 91.0696 256.294 91.3906 256.662 91.8519L256.764 91.9816C257.004 92.2922 257.262 92.662 257.582 93.1481L258.699 94.8737L258.848 95.0988C259.976 96.793 260.816 97.7695 261.632 98.2198C261.965 98.4034 262.085 98.8218 261.902 99.1544C261.718 99.487 261.3 99.6078 260.967 99.4242C259.874 98.821 258.916 97.6966 257.63 95.7516L257.307 95.2568C257.015 94.8057 256.601 94.162 256.5 94.0072L256.377 93.8211C256.06 93.3416 255.813 92.9922 255.588 92.7111C255.336 92.3963 255.127 92.1894 254.974 92.0925L254.935 92.0694L254.922 92.0847C254.693 92.3651 254.653 93.1953 254.874 94.3698L254.891 94.4585C254.986 94.946 255.119 95.4674 255.279 96.0052C255.382 96.3498 255.491 96.6844 255.601 96.9998L255.667 97.1867C255.694 97.2639 255.721 97.3364 255.746 97.4037L255.84 97.6503C255.98 98.0033 255.808 98.4033 255.455 98.5439C255.102 98.6844 254.702 98.5123 254.562 98.1593L254.508 98.02C254.475 97.9333 254.439 97.8367 254.401 97.7312L254.372 97.6505C254.231 97.2593 254.092 96.837 253.961 96.398C253.789 95.8207 253.646 95.2577 253.541 94.7232C253.185 92.9086 253.272 91.6033 254.14 90.9386Z" fill="#000091"/>
<path fill-rule="evenodd" clip-rule="evenodd" d="M266.711 97.2169C266.94 96.0705 266.825 94.8782 266.367 93.8234C265.839 92.5853 265.22 90.9344 265.174 89.8568C265.083 87.9995 268.109 88.8708 268.247 90.0173C268.384 91.1637 268.958 91.0949 270.288 92.2872C271.617 93.4795 271.365 98.1341 271.365 98.1341C271.365 98.1341 272.535 100.542 268.774 103.408C265.014 106.274 260.978 104.05 260.978 104.05C260.978 104.05 253.687 101.367 253.687 96.1163C253.687 90.8656 255.613 98.5239 259.259 100.679" fill="white"/>
<path fill-rule="evenodd" clip-rule="evenodd" d="M264.487 89.8908C264.421 88.5392 265.471 87.9178 266.739 88.1325C267.82 88.3154 268.821 89.0245 268.93 89.9354C268.97 90.2722 269.032 90.4025 269.216 90.5678L269.25 90.5974C269.241 90.5899 270.269 91.3467 270.747 91.7752C271.419 92.3775 271.774 93.484 271.951 94.9926C272.059 95.9042 272.087 96.8546 272.068 97.7154L272.061 97.9565L272.059 98.0188L272.066 98.0398C272.077 98.0739 272.089 98.1106 272.1 98.1499L272.116 98.2108C272.289 98.8644 272.276 99.6489 271.969 100.516C271.557 101.678 270.659 102.836 269.191 103.955C268.934 104.151 268.671 104.328 268.404 104.488C266.224 105.783 263.909 105.821 261.762 105.115C261.31 104.966 260.96 104.815 260.731 104.697L260.692 104.677L260.544 104.618L260.399 104.559C260.138 104.449 259.849 104.319 259.538 104.167C258.649 103.733 257.761 103.214 256.928 102.608C254.489 100.833 252.999 98.6751 252.999 96.1164C252.999 95.0937 253.064 94.4948 253.253 94.1296C253.447 93.7547 253.826 93.5377 254.259 93.6524C254.513 93.7197 254.705 93.8746 254.909 94.1113C255.216 94.4673 256.679 96.8704 257.024 97.3752C257.91 98.6698 258.748 99.5779 259.609 100.087C259.936 100.28 260.044 100.702 259.851 101.029C259.658 101.356 259.236 101.465 258.909 101.271C257.871 100.658 256.938 99.6627 255.981 98.2863L255.889 98.152C255.643 97.7922 255.023 96.7922 254.529 96.0115L254.378 95.7737L254.378 95.8078C254.376 95.8803 254.376 95.9563 254.375 96.0358L254.375 96.1164C254.375 98.1521 255.619 99.9538 257.738 101.496C258.5 102.051 259.32 102.53 260.141 102.93C260.387 103.05 260.617 103.156 260.828 103.246L260.931 103.29C260.993 103.316 261.049 103.339 261.099 103.359L261.216 103.404C261.238 103.412 261.259 103.421 261.28 103.431L261.363 103.474C261.401 103.494 261.456 103.52 261.525 103.551C261.718 103.638 261.942 103.726 262.192 103.808C263.994 104.401 265.91 104.369 267.7 103.305C267.923 103.173 268.142 103.025 268.357 102.861C269.622 101.897 270.355 100.952 270.672 100.056C270.883 99.4623 270.891 98.9584 270.786 98.5611L270.772 98.5094C270.758 98.4643 270.749 98.4388 270.747 98.4347C270.696 98.3297 270.672 98.2135 270.678 98.097L270.685 97.9468C270.686 97.9234 270.686 97.8978 270.687 97.8701C270.713 97.0207 270.691 96.0565 270.585 95.1533C270.445 93.9614 270.17 93.1058 269.828 92.7995L269.76 92.7394C269.312 92.3525 268.399 91.6806 268.355 91.6424C267.881 91.2367 267.648 90.7965 267.564 90.0993C267.543 89.9254 267.058 89.5817 266.51 89.489C266.007 89.4039 265.846 89.4997 265.862 89.8276C265.895 90.5982 266.283 91.8369 266.896 93.3086L266.998 93.5493C267.51 94.7274 267.643 96.0617 267.385 97.3519C267.311 97.7244 266.948 97.966 266.576 97.8915C266.203 97.817 265.962 97.4546 266.036 97.0821C266.233 96.1005 266.142 95.0903 265.776 94.1924L265.617 93.8147C264.947 92.2057 264.529 90.8636 264.487 89.8908Z" fill="#000091"/>
<path fill-rule="evenodd" clip-rule="evenodd" d="M348.59 114.368C348.97 114.368 349.278 114.676 349.278 115.055C349.278 115.422 348.991 115.721 348.63 115.742L348.59 115.743H-31.2493C-31.6292 115.743 -31.9371 115.435 -31.9371 115.055C-31.9371 114.689 -31.6508 114.39 -31.2897 114.369L-31.2493 114.368H348.59Z" fill="#000091"/>
</svg>
