<svg width="290" height="144" viewBox="0 0 290 144" fill="none" xmlns="http://www.w3.org/2000/svg">
<path fill-rule="evenodd" clip-rule="evenodd" d="M265.953 34.038C265.953 34.038 273.885 62.9231 239.724 78.2592L227.009 68.455C227.009 68.455 226.668 34.6167 265.953 34.038Z" fill="white"/>
<path fill-rule="evenodd" clip-rule="evenodd" d="M265.945 33.5274C266.178 33.524 266.384 33.6783 266.445 33.9028L266.476 34.02L266.483 34.0488C266.511 34.1635 266.543 34.2982 266.576 34.4524C266.672 34.8898 266.768 35.3971 266.856 35.969C267.327 38.9965 267.434 42.4784 266.953 46.2266C266.295 51.3565 264.596 56.3717 261.632 61.0785C257.161 68.1801 250.059 74.179 239.932 78.7251C239.761 78.8022 239.56 78.7786 239.411 78.6636L226.696 68.8594C226.572 68.7638 226.499 68.6167 226.498 68.4601L226.498 68.2866C226.5 68.1961 226.502 68.0859 226.507 67.9568C226.518 67.6139 226.54 67.2236 226.574 66.7897C226.669 65.5808 226.842 64.2458 227.113 62.8167C227.878 58.7802 229.266 54.7519 231.432 50.988C234.208 46.1645 238.074 42.1255 243.179 39.1352C249.186 35.6166 256.727 33.6632 265.945 33.5274ZM265.553 34.5559L265.42 34.5587C256.618 34.7588 249.427 36.6591 243.695 40.0164C238.749 42.9135 235.008 46.8227 232.317 51.4974C230.213 55.1546 228.862 59.0761 228.117 63.0069C227.853 64.3982 227.684 65.6965 227.592 66.8696C227.563 67.2463 227.543 67.5879 227.531 67.8916L227.524 68.0907L227.522 68.2058L239.792 77.6676L240.107 77.5238C249.738 73.0927 256.494 67.3227 260.768 60.5343C263.649 55.9589 265.3 51.085 265.94 46.0966C266.408 42.4503 266.304 39.0635 265.847 36.1258L265.807 35.8761C265.74 35.4676 265.67 35.0974 265.6 34.7681L265.565 34.6096L265.553 34.5559Z" fill="#000091"/>
<path fill-rule="evenodd" clip-rule="evenodd" d="M235.604 5.23798C235.604 5.23798 194.14 27.0763 214.583 76.2167L237.306 78.4465C237.306 78.4635 272.659 47.0593 235.604 5.23798Z" fill="white"/>
<path fill-rule="evenodd" clip-rule="evenodd" d="M235.986 4.89931C244.727 14.7645 249.928 24.5652 252.002 34.2152C253.76 42.3956 253.23 50.2499 250.837 57.6879C248.978 63.4687 246.109 68.6687 242.658 73.2051C241.448 74.7943 240.252 76.1882 239.123 77.3732L238.942 77.5619C238.645 77.8699 238.37 78.1448 238.121 78.3845L237.954 78.5446C237.909 78.5873 237.866 78.6272 237.827 78.6639L237.64 78.8334L237.606 78.8596L237.566 78.8867C237.554 78.8931 237.539 78.9002 237.494 78.9212L237.464 78.932L237.357 78.9546L237.26 78.9176L237.256 78.9547L214.533 76.7249C214.346 76.7065 214.184 76.5866 214.111 76.4128C208.409 62.705 207.134 50.2951 209.597 39.1599C211.587 30.1671 215.917 22.3889 221.883 15.7893C224.827 12.5322 227.981 9.77415 231.136 7.50289C232.189 6.74505 233.171 6.09365 234.059 5.5474L234.192 5.46625C234.483 5.28849 234.746 5.13376 234.977 5.00192L235.153 4.90263L235.366 4.78615C235.574 4.67654 235.83 4.72327 235.986 4.89931ZM235.736 6.16081L235.493 5.88342L235.33 5.97733C235.146 6.08389 234.943 6.20421 234.723 6.33834C233.822 6.88763 232.817 7.55168 231.733 8.33177C228.634 10.5629 225.533 13.2738 222.64 16.4742C216.787 22.9496 212.543 30.5726 210.595 39.3806L210.523 39.7087C208.226 50.4402 209.461 62.3933 214.887 75.6154L214.938 75.7384L237.131 77.9161L237.252 77.8025L237.341 77.7178C237.646 77.4259 237.997 77.0747 238.383 76.6688C239.487 75.5102 240.659 74.1449 241.845 72.5868C245.23 68.137 248.044 63.0373 249.865 57.3752C252.205 50.1021 252.723 42.4287 251.004 34.4298C249.009 25.1482 244.054 15.7007 235.736 6.16081Z" fill="#000091"/>
<path fill-rule="evenodd" clip-rule="evenodd" d="M179.298 24.5911C179.298 24.5911 162.702 49.5273 190.328 74.8039L205.477 69.4932C205.477 69.4932 216.438 37.4762 179.298 24.5911Z" fill="white"/>
<path fill-rule="evenodd" clip-rule="evenodd" d="M179.466 24.1087C188.251 27.1568 194.837 31.423 199.442 36.7075C203.349 41.1899 205.729 46.282 206.816 51.775C207.66 56.0419 207.682 60.3031 207.115 64.3599C206.926 65.7125 206.683 66.9506 206.411 68.0529L206.37 68.2173C206.278 68.5822 206.189 68.9082 206.105 69.1929L206.08 69.2771C206.054 69.3629 206.031 69.44 206.009 69.508L205.96 69.6587C205.909 69.8067 205.794 69.9234 205.646 69.9751L190.497 75.2858C190.319 75.348 190.122 75.3076 189.983 75.1806C180.769 66.7502 175.783 57.7979 174.306 48.6334C173.196 41.7498 174.125 35.2656 176.35 29.4786C176.899 28.0521 177.487 26.7809 178.076 25.6803C178.264 25.3289 178.44 25.0175 178.601 24.7476L178.717 24.5556C178.787 24.4404 178.84 24.3577 178.873 24.3082C179.002 24.1145 179.246 24.0324 179.466 24.1087ZM179.646 25.2544L179.515 25.2083L179.432 25.3489C179.291 25.5871 179.139 25.8586 178.976 26.1622C178.406 27.2265 177.836 28.4594 177.303 29.8451C175.139 35.4743 174.236 41.7805 175.314 48.4708L175.358 48.7387C176.822 57.4012 181.522 65.8855 190.14 73.9348L190.448 74.2205L205.068 69.0953L205.102 68.9839L205.155 68.804C205.226 68.5561 205.302 68.2767 205.38 67.9674C205.66 66.8589 205.911 65.6009 206.104 64.2186C206.655 60.268 206.635 56.1194 205.814 51.9732C204.761 46.6494 202.457 41.7209 198.672 37.3785C194.278 32.3365 188.011 28.2324 179.646 25.2544Z" fill="#000091"/>
<path fill-rule="evenodd" clip-rule="evenodd" d="M162.277 46.4124C162.277 46.4124 164.047 81.6295 199.741 78.4976L207.928 66.5997C207.928 66.5827 199.315 35.3146 162.277 46.4124Z" fill="white"/>
<path fill-rule="evenodd" clip-rule="evenodd" d="M185.149 44.3845C190.756 45.6624 195.464 48.2887 199.343 51.9674C202.304 54.7755 204.62 58.033 206.367 61.4645L206.46 61.6485C207.537 63.7935 208.438 66.2388 208.438 66.5997C208.438 66.7031 208.407 66.804 208.349 66.8892L200.161 78.787C200.075 78.9125 199.937 78.9929 199.785 79.0062C190.986 79.7784 183.739 78.2934 177.917 74.8737C173.031 72.004 169.297 67.8657 166.571 62.7954C164.648 59.2183 163.337 55.3902 162.522 51.5628C162.238 50.2231 162.035 48.9785 161.901 47.8604L161.874 47.6301C161.844 47.3676 161.82 47.1268 161.802 46.909L161.789 46.7549L161.773 46.5387C161.77 46.4902 161.768 46.4565 161.767 46.4381C161.755 46.2033 161.905 45.9908 162.13 45.9233C170.892 43.2979 178.542 42.8788 185.149 44.3845ZM162.938 46.7496L162.816 46.7852L162.836 47.006C162.857 47.2282 162.883 47.4729 162.915 47.7388C163.045 48.8274 163.243 50.0418 163.521 51.3503C164.317 55.0891 165.598 58.8272 167.471 62.3118C170.113 67.226 173.72 71.2247 178.434 73.9931L178.603 74.0918C184.095 77.2653 190.909 78.6785 199.187 78.0311L199.457 78.0092L207.369 66.5107L207.335 66.4027L207.28 66.2322C207.203 65.9977 207.112 65.7356 207.006 65.4489C206.628 64.4238 206.145 63.2973 205.547 62.1068C203.84 58.7073 201.562 55.4789 198.64 52.7085C194.89 49.1519 190.344 46.616 184.922 45.3803C178.623 43.9448 171.322 44.3092 162.938 46.7496Z" fill="#000091"/>
<path fill-rule="evenodd" clip-rule="evenodd" d="M198.498 7.38257C198.498 7.38257 167.962 35.6379 197.494 79.9443L227.826 77.9358C227.826 77.9358 246.362 36.1996 198.498 7.38257Z" fill="white"/>
<path fill-rule="evenodd" clip-rule="evenodd" d="M198.761 6.94518C209.469 13.3922 217.409 20.7971 222.856 28.9782C228.175 36.9678 230.975 45.465 231.687 54.1843C232.225 60.7752 231.547 67.0287 230.085 72.6687C229.712 74.1094 229.313 75.4033 228.912 76.5351L228.858 76.6884C228.724 77.0612 228.599 77.3917 228.485 77.6782L228.409 77.8658C228.382 77.9313 228.358 77.9904 228.335 78.0431L228.292 78.1431C228.215 78.3164 228.048 78.4328 227.859 78.4454L197.527 80.4539C197.345 80.4659 197.17 80.3796 197.069 80.2276C188.035 66.6745 183.99 53.7625 184.116 41.614C184.214 32.133 186.827 23.6525 191.12 16.2867C192.652 13.6565 194.295 11.3571 195.939 9.40265C196.516 8.71718 197.052 8.12334 197.534 7.62289L197.717 7.43501C197.794 7.35603 197.867 7.28307 197.935 7.21616L198.095 7.06026C198.119 7.03788 198.137 7.0204 198.151 7.00785C198.318 6.85352 198.566 6.82797 198.761 6.94518ZM198.866 8.20355L198.571 8.02371L198.388 8.20941C198.35 8.24858 198.31 8.28925 198.27 8.3314C197.803 8.81566 197.282 9.39252 196.721 10.0601C195.113 11.9714 193.504 14.2235 192.002 16.801C187.794 24.0217 185.234 32.3323 185.137 41.6246L185.135 41.983C185.094 53.6972 189.005 66.1542 197.652 79.2598L197.756 79.4152L227.477 77.4472L227.504 77.3812C227.622 77.0877 227.754 76.7411 227.897 76.3436C228.305 75.2042 228.715 73.8879 229.097 72.4126C230.531 66.877 231.198 60.7359 230.669 54.2674C229.971 45.7154 227.226 37.3847 222.006 29.5442C216.753 21.6535 209.129 14.4837 198.866 8.20355Z" fill="#000091"/>
<path fill-rule="evenodd" clip-rule="evenodd" d="M208.336 28.7784C208.336 28.7784 253.953 49.4763 228.71 77.1358L207.927 76.8124C207.927 76.8124 183.263 59.0252 208.336 28.7784Z" fill="white"/>
<path fill-rule="evenodd" clip-rule="evenodd" d="M208.548 28.3134L208.674 28.3718L208.87 28.4645C209.13 28.588 209.43 28.7347 209.768 28.9043L210.076 29.0599C210.959 29.5089 211.927 30.0269 212.961 30.6118C216.262 32.4791 219.563 34.6421 222.647 37.0765C229.209 42.2575 233.885 47.9429 235.841 54.0588C238.291 61.7144 236.302 69.5757 229.088 77.48C228.99 77.5881 228.849 77.6487 228.703 77.6464L207.92 77.323C207.816 77.3214 207.714 77.2877 207.629 77.2266L207.546 77.1646L207.496 77.1268C207.393 77.0478 207.274 76.9538 207.14 76.845C206.76 76.536 206.338 76.1685 205.885 75.7431C204.592 74.5309 203.3 73.0959 202.095 71.4433C198.612 66.67 196.536 61.0805 196.576 54.73C196.628 46.5834 200.192 37.8039 207.943 28.4525C208.09 28.2752 208.338 28.2182 208.548 28.3134ZM208.479 29.409L208.278 29.6542C200.984 38.6251 197.647 46.9979 197.598 54.7365C197.559 60.8509 199.559 66.2339 202.92 70.8414C204.086 72.4397 205.335 73.8276 206.583 74.9981C206.986 75.3753 207.361 75.7042 207.7 75.984L207.838 76.0958L207.985 76.2138C208.016 76.2382 208.046 76.2614 208.075 76.2834L208.102 76.3043L228.488 76.6216L228.334 76.7916C235.309 69.1485 237.203 61.6645 234.869 54.37C232.985 48.4815 228.431 42.9445 222.014 37.8781C218.975 35.4788 215.717 33.3439 212.458 31.5007L212.101 31.2998C211.155 30.7713 210.27 30.3017 209.461 29.893L209.31 29.8171C209.078 29.7007 208.864 29.5953 208.67 29.5013L208.479 29.409Z" fill="#000091"/>
<path fill-rule="evenodd" clip-rule="evenodd" d="M276.047 53.4252C276.047 53.4252 261.562 86.889 225.902 83.3145L219.111 77.4252C219.128 77.4252 239.162 41.8847 276.047 53.4252Z" fill="white"/>
<path fill-rule="evenodd" clip-rule="evenodd" d="M248.851 53.6026C241.994 55.7795 235.817 59.6184 230.338 64.6487C227.23 67.5016 224.542 70.5587 222.279 73.6186C221.489 74.6867 220.809 75.6773 220.237 76.5704L220.178 76.6619C220.063 76.8429 219.958 77.0112 219.861 77.1676L219.769 77.3197L226.114 82.8221L225.953 82.8065C234.616 83.6749 242.464 82.3921 249.535 79.2751C255.452 76.6671 260.655 72.8536 265.173 68.1498C268.314 64.88 270.941 61.3755 273.074 57.8716C273.82 56.6462 274.451 55.509 274.969 54.4896L275.017 54.3936C275.113 54.2036 275.201 54.0257 275.281 53.8605L275.338 53.7416L275.316 53.7349C265.874 50.8934 257.051 50.9988 248.851 53.6026ZM218.744 77.0417L218.849 76.8661L218.942 76.7128C219.054 76.5295 219.179 76.3301 219.317 76.1133L219.377 76.0194C219.961 75.1076 220.653 74.0982 221.457 73.0113C223.758 69.9016 226.488 66.7962 229.647 63.8963C235.229 58.7715 241.532 54.8548 248.541 52.6291C257.108 49.9092 266.338 49.8524 276.199 52.9378C276.489 53.0284 276.636 53.3497 276.515 53.628L276.474 53.7212L276.407 53.8675C276.391 53.9031 276.373 53.9407 276.355 53.9803L276.241 54.22C276.148 54.414 276.044 54.6255 275.929 54.8536L275.879 54.9523C275.349 55.9944 274.706 57.1543 273.946 58.4027C271.776 61.9668 269.105 65.5302 265.91 68.8572C261.303 73.6523 255.993 77.5444 249.947 80.2096C242.716 83.3971 234.691 84.7087 225.851 83.8226C225.746 83.8121 225.647 83.7694 225.568 83.7003L218.776 77.8109L218.754 77.7912C218.442 77.4905 218.63 76.9619 219.053 76.9175L219.08 76.9154L219.111 76.9145C218.96 76.9145 218.843 76.9697 218.77 77.0219L218.744 77.0417Z" fill="#000091"/>
<path fill-rule="evenodd" clip-rule="evenodd" d="M181.357 75.4507H253.136C254.498 75.4507 255.604 76.5571 255.604 77.9188V86.923C255.604 88.2847 254.498 89.3911 253.136 89.3911H249.034L236.795 143.144H197.97L185.732 89.3911H181.34C179.978 89.3911 178.872 88.2847 178.872 86.923V77.9188C178.889 76.5571 179.995 75.4507 181.357 75.4507Z" fill="#CACAFB"/>
<path fill-rule="evenodd" clip-rule="evenodd" d="M187.042 88.8635C186.76 88.8635 186.532 89.0921 186.532 89.3742C186.532 89.6461 186.744 89.8684 187.012 89.8839L187.042 89.8848H247.621C247.903 89.8848 248.132 89.6562 248.132 89.3742C248.132 89.1022 247.919 88.8799 247.651 88.8644L247.621 88.8635H187.042Z" fill="white"/>
<path fill-rule="evenodd" clip-rule="evenodd" d="M231.655 137.408C231.451 138.821 230.685 140.778 228.83 142.446L228.455 143.28L202.549 143.042C178.566 134.94 136.438 126.583 136.438 126.583L181.068 98.6507C181.068 98.6507 208.268 104.829 218.668 110.855C229.051 116.898 232.642 130.566 231.655 137.408Z" fill="white"/>
<path fill-rule="evenodd" clip-rule="evenodd" d="M181.181 98.1527L181.948 98.3306C182.257 98.403 182.6 98.484 182.973 98.5734L183.766 98.7639C184.978 99.0572 186.293 99.3835 187.691 99.7398C192.571 100.984 197.452 102.336 202.008 103.751L202.831 104.008C209.36 106.064 214.603 108.069 218.127 109.968C218.404 110.117 218.669 110.265 218.924 110.413C223.822 113.263 227.555 117.954 229.898 123.637C231.892 128.476 232.702 133.731 232.161 137.481L232.146 137.577C231.868 139.336 230.935 141.169 229.347 142.664L229.252 142.753L228.921 143.49C228.838 143.675 228.653 143.793 228.451 143.791L202.544 143.553C202.49 143.552 202.437 143.543 202.386 143.526C201.682 143.288 200.957 143.048 200.212 142.807L199.532 142.588C193.362 140.61 185.919 138.529 177.475 136.385C168.691 134.155 159.294 131.974 149.882 129.926L147.939 129.505C145.144 128.902 142.527 128.351 140.137 127.857L138.404 127.501L136.339 127.083C135.885 126.993 135.775 126.395 136.167 126.15L180.797 98.2178C180.912 98.1462 181.05 98.1228 181.181 98.1527ZM181.16 99.1955L137.797 126.335L139.736 126.731L141.15 127.024C143.592 127.531 146.256 128.095 149.094 128.71L149.41 128.778C158.833 130.822 168.256 133.002 177.081 135.232L177.726 135.395C186.503 137.624 194.203 139.784 200.527 141.835L200.847 141.939C201.272 142.078 201.69 142.216 202.101 142.353L202.635 142.532L228.126 142.767L228.364 142.237C228.393 142.172 228.435 142.114 228.488 142.067C230.031 140.68 230.916 138.956 231.15 137.335C231.663 133.778 230.882 128.705 228.953 124.026C226.691 118.537 223.099 114.024 218.411 111.296C218.167 111.155 217.91 111.011 217.642 110.867L217.424 110.75C213.861 108.864 208.532 106.853 201.911 104.79L201.706 104.726C197.329 103.368 192.65 102.066 187.96 100.863L187.438 100.729C185.736 100.295 184.155 99.9058 182.736 99.5667L181.819 99.3493L181.16 99.1955Z" fill="#000091"/>
<path fill-rule="evenodd" clip-rule="evenodd" d="M227.57 143.127C239.212 141.136 235.893 108.489 216.319 79.6549C207.553 65.3911 205.016 61.5273 198.276 59.3145C195.638 58.4464 192.812 58.4464 189.816 59.7741C179.144 64.489 167.825 69.3911 175.416 71.5528C183.008 73.7145 200.914 88.4379 200.914 88.4379C200.914 88.4379 200.744 107.553 201.697 114.532C202.327 119.263 203.57 124.029 204.812 127.485" fill="white"/>
<path fill-rule="evenodd" clip-rule="evenodd" d="M198.436 58.8294C195.562 57.8837 192.657 57.988 189.728 59.2556L187.559 60.2133C180.787 63.2123 177.318 64.9084 174.958 66.5491L174.886 66.5988C173.331 67.6896 172.488 68.649 172.433 69.5933C172.371 70.6888 173.326 71.4736 175.195 72.0203L175.277 72.0439C177.729 72.7423 181.503 74.8581 186.21 78.0479C187.244 78.7486 188.313 79.4942 189.41 80.2788C192.025 82.1497 194.683 84.155 197.243 86.1604L197.711 86.5272C198.273 86.9696 198.802 87.3897 199.293 87.783L199.851 88.2317L200.402 88.6784L200.398 89.3569L200.395 90.0913C200.381 93.9173 200.407 98.2227 200.5 102.353L200.522 103.271C200.645 108.186 200.855 112.032 201.169 114.434L201.191 114.599C201.784 119.055 202.966 123.858 204.332 127.657C204.427 127.923 204.72 128.061 204.985 127.965C205.251 127.87 205.388 127.577 205.293 127.312C203.975 123.647 202.829 119.016 202.235 114.698L202.182 114.302C201.863 111.863 201.651 107.857 201.53 102.728L201.512 101.931C201.427 97.9332 201.403 93.7895 201.416 90.0948L201.425 88.4424C201.427 88.2881 201.358 88.1415 201.239 88.0434L200.649 87.5637L200.326 87.3033C199.64 86.7503 198.87 86.138 198.031 85.4802L197.873 85.3564C195.302 83.3425 192.633 81.3285 190.004 79.4482C188.9 78.6587 187.825 77.9082 186.783 77.2025L186.354 76.913C181.854 73.8893 178.221 71.8619 175.713 71.1076L175.408 71.0183C174.001 70.5973 173.426 70.1184 173.453 69.6517C173.483 69.1252 174.16 68.3559 175.473 67.435L175.611 67.3387C177.803 65.8289 181.058 64.2223 187.176 61.5007L190.024 60.2409C192.759 59.0285 195.441 58.9193 198.117 59.7996C201.431 60.8877 203.635 62.3672 206.059 65.1911L206.149 65.2963C208.309 67.8373 210.302 70.853 215.402 79.1383L215.884 79.9223L215.896 79.9417C225.057 93.4357 231.193 108.653 233.146 121.534C234.975 133.6 232.791 141.716 227.484 142.624C227.206 142.671 227.019 142.935 227.067 143.213C227.114 143.491 227.378 143.678 227.656 143.631C233.73 142.592 236.059 133.937 234.156 121.38C232.199 108.476 226.109 93.2924 217.018 79.7771L216.746 79.3746L215.968 78.1102C211.111 70.2282 209.132 67.2424 206.995 64.7152L206.927 64.6348C204.347 61.6 201.971 59.9899 198.436 58.8294Z" fill="#000091"/>
<path fill-rule="evenodd" clip-rule="evenodd" d="M62.3104 142.787L102.532 78.9911L181.034 98.1911V98.1741L195.11 101.238L185.732 138.668L166.174 133.936C163.485 139.144 161.51 142.753 161.51 142.753H62.3104V142.787Z" fill="#E4794A"/>
<path fill-rule="evenodd" clip-rule="evenodd" d="M125.97 62.7018C125.97 62.7018 118.072 62.3444 119.025 69.4933C119.979 76.6422 128.966 73.1188 128.966 73.1188L128.455 63.0082L125.97 62.7018Z" fill="white"/>
<path fill-rule="evenodd" clip-rule="evenodd" d="M125.982 62.1913L125.993 62.1917C126.006 62.1923 126.019 62.1934 126.032 62.195L128.517 62.5014C128.763 62.5317 128.952 62.7347 128.965 62.9824L129.475 73.0931C129.486 73.3123 129.356 73.5141 129.152 73.5942L129.083 73.6206C129.002 73.6506 128.888 73.691 128.744 73.7389C128.428 73.8443 128.074 73.9495 127.691 74.0476C126.422 74.3729 125.139 74.5464 123.929 74.486C120.96 74.3379 118.951 72.8026 118.519 69.5608C118.048 66.0327 119.546 63.8451 122.276 62.8104C123.023 62.5274 123.817 62.3507 124.617 62.2587C125.113 62.2017 125.543 62.1839 125.874 62.1887L125.982 62.1913ZM124.734 63.2733C124.012 63.3563 123.299 63.5149 122.639 63.7654C120.33 64.6404 119.127 66.3963 119.531 69.4258C119.893 72.1362 121.469 73.3407 123.98 73.466C125.074 73.5206 126.26 73.3602 127.438 73.0583L127.557 73.0274C127.83 72.9549 128.087 72.879 128.322 72.8027L128.436 72.7649L127.967 63.4625L125.93 63.2112L125.91 63.2108C125.616 63.2038 125.21 63.2185 124.734 63.2733Z" fill="#000091"/>
<path fill-rule="evenodd" clip-rule="evenodd" d="M149.885 41.9018C151.978 41.8678 166.276 41.8848 167.076 53.8678C167.859 65.8507 165.34 78.855 163.638 84.7614C161.936 90.6677 134.838 86.1231 133.34 85.4933C131.825 84.8635 130.106 82.9401 130.106 82.9401L127.553 64.455C127.536 64.455 127.434 42.3103 149.885 41.9018Z" fill="white"/>
<path fill-rule="evenodd" clip-rule="evenodd" d="M153.398 41.5645C155.402 41.7883 157.349 42.2168 159.147 42.9011C164.058 44.7697 167.155 48.2481 167.574 53.6695L167.586 53.8344C167.947 59.3651 167.637 65.46 166.795 71.6619L166.734 72.1072C166.06 76.926 165.092 81.5582 164.129 84.9027C163.659 86.5335 161.718 87.4894 158.57 87.947L158.468 87.9616C155.882 88.3257 152.508 88.3535 148.582 88.1011L148.379 88.0878C142.355 87.6877 134.345 86.4698 133.142 85.9639C132.968 85.8914 132.787 85.8018 132.602 85.6972C132.154 85.4442 131.687 85.1071 131.21 84.706C130.839 84.3945 130.483 84.062 130.153 83.7294L130.041 83.6158C129.987 83.5604 129.936 83.5073 129.889 83.4568L129.798 83.3603C129.765 83.3247 129.741 83.2977 129.725 83.2803L129.701 83.2511C129.647 83.181 129.612 83.0979 129.6 83.0099L127.177 65.4641L127.153 65.5385C127.034 65.9341 126.998 66.3216 127.002 65.9126L127.044 64.1942C127.048 64.0114 127.057 63.7978 127.071 63.5598L127.077 63.4694C127.127 62.6996 127.223 61.8359 127.374 60.9064C127.805 58.2586 128.595 55.5992 129.836 53.1041C131.436 49.8867 133.673 47.1834 136.635 45.1753C140.129 42.8069 144.517 41.4887 149.875 41.3912C150.91 41.3743 152.052 41.414 153.398 41.5645ZM166.585 54.1887L166.567 53.9017C166.228 48.823 163.398 45.6114 158.784 43.8556C157.074 43.2048 155.209 42.7944 153.285 42.5794C151.987 42.4344 150.887 42.3961 149.893 42.4123C144.728 42.5063 140.533 43.7665 137.208 46.0207C134.4 47.9242 132.276 50.4913 130.75 53.5589C129.559 55.9544 128.797 58.5174 128.382 61.0704C128.236 61.9665 128.144 62.7976 128.096 63.5357L128.091 63.6214L128.077 63.8643C128.075 63.9159 128.073 63.9658 128.071 64.0139L128.065 64.2181L128.102 62.7563C128.115 62.0415 128.01 63.9443 127.553 63.9443L127.583 63.9452C127.825 63.9594 128.025 64.1425 128.059 64.385L130.59 82.7116L130.676 82.8032C130.738 82.868 130.806 82.9373 130.878 83.01C131.188 83.3221 131.522 83.6342 131.867 83.9242C132.3 84.2879 132.718 84.5897 133.104 84.8081C133.255 84.8934 133.399 84.9648 133.536 85.0217L133.58 85.0386C134.039 85.1994 136.061 85.5908 138.454 85.9567L138.543 85.9703C141.749 86.4577 145.223 86.8547 148.446 87.0688C156.938 87.6329 162.505 86.8492 163.147 84.6199L163.235 84.3119C164.185 80.9366 165.134 76.3071 165.783 71.5245C166.601 65.4935 166.912 59.569 166.585 54.1887Z" fill="#000091"/>
<path fill-rule="evenodd" clip-rule="evenodd" d="M128.404 80.0124L125.289 92.2166C123.263 119.995 161.817 121.766 159.4 88.2677L136.659 91.1273L134.872 82.123L128.404 80.0124Z" fill="white"/>
<path fill-rule="evenodd" clip-rule="evenodd" d="M135.031 81.6376L135.063 81.6494C135.222 81.7135 135.339 81.8538 135.373 82.0236L137.068 90.5612L159.336 87.7611C159.626 87.7246 159.888 87.9391 159.909 88.231C160.487 96.2379 158.779 102.71 155.206 107.239C151.994 111.31 147.406 113.584 142.507 113.731C137.711 113.875 133.052 111.958 129.73 108.377C126.103 104.466 124.292 98.8747 124.78 92.1795C124.782 92.1494 124.787 92.1196 124.794 92.0904L127.909 79.8861C127.982 79.6001 128.282 79.4354 128.562 79.527L135.031 81.6376ZM128.764 80.6669L125.796 92.2974L125.799 92.2538C125.33 98.6748 127.051 103.986 130.479 107.682C133.598 111.045 137.973 112.846 142.476 112.711C147.076 112.573 151.381 110.439 154.404 106.607L154.506 106.477C157.741 102.296 159.347 96.3649 158.935 88.9992L158.926 88.8419L136.723 91.634L136.693 91.6369C136.439 91.6536 136.209 91.4795 136.159 91.2267L134.43 82.5156L128.764 80.6669Z" fill="#000091"/>
<path fill-rule="evenodd" clip-rule="evenodd" d="M132.966 63.9103C132.966 63.9103 134.413 73.6294 135.059 77.2039C135.059 77.2039 143.996 74.8039 156.54 75.4337C156.54 75.4337 163.366 76.0124 166.038 76.9996C166.038 76.9996 164.642 89.4252 158.685 95.5188C152.727 101.612 141.136 99.0592 135.893 94.8209C130.651 90.5826 129.868 88.6762 128.864 84.4379C127.859 80.1996 125.51 64.506 125.51 64.506L132.966 63.9103Z" fill="#6A6AF4"/>
<path fill-rule="evenodd" clip-rule="evenodd" d="M125.902 66.7528C125.902 66.7528 122.345 59.3996 121.306 53.3401C120.319 47.655 123.315 41.9358 128.659 39.7741C133.136 37.9528 134.6 38.5486 134.6 38.5486C134.6 38.5486 131.945 33.8167 138.855 26.855C141.289 24.4039 144.659 23.0422 148.115 23.1273C156.574 23.3486 159.213 30.4975 159.213 30.4975C159.213 30.4975 168.234 13.8337 186.821 23.6379C188.693 24.6252 190.821 27.3826 191.825 29.255C197.987 40.5401 177.817 53.9869 167.298 55.0762C155.74 56.2677 148.489 54.8379 144.966 51.7741C147.587 53.6124 142.872 70.5316 125.902 66.7528Z" fill="#000091"/>
<path fill-rule="evenodd" clip-rule="evenodd" d="M157.154 69.9876C156.79 70.0052 156.506 70.3058 156.506 70.6665L156.507 70.7005L156.987 80.659L154.164 79.7395C153.817 79.6266 153.446 79.8065 153.317 80.1429L153.306 80.1759C153.193 80.5223 153.373 80.8937 153.709 81.0225L153.742 81.0342L157.504 82.2597C157.947 82.4041 158.397 82.071 158.395 81.6111L158.395 81.5796L157.867 70.6349C157.849 70.2707 157.549 69.9872 157.188 69.9868L157.154 69.9876Z" fill="#000091"/>
<path fill-rule="evenodd" clip-rule="evenodd" d="M150.743 61.0661C149.021 60.6939 147.508 61.0591 146.254 61.8921C145.936 62.1033 145.659 62.3299 145.424 62.558L145.354 62.6266C145.244 62.7369 145.164 62.8274 145.114 62.8902C144.879 63.1843 144.928 63.6127 145.222 63.847C145.516 64.0814 145.944 64.033 146.179 63.7389C146.204 63.7075 146.268 63.6355 146.371 63.5365C146.549 63.3638 146.762 63.1894 147.008 63.0264C147.973 62.385 149.12 62.1083 150.455 62.3971C150.823 62.4765 151.185 62.243 151.265 61.8755C151.344 61.508 151.111 61.1456 150.743 61.0661Z" fill="#000091"/>
<path fill-rule="evenodd" clip-rule="evenodd" d="M162.027 58.5172C161.367 58.3822 160.684 58.4182 160.03 58.5571L159.924 58.5806C159.755 58.6195 159.623 58.6579 159.537 58.6875C159.181 58.8094 158.991 59.1966 159.113 59.5523C159.231 59.8969 159.598 60.0855 159.945 59.9861L160.018 59.9631C160.029 59.9601 160.041 59.9565 160.055 59.9526C160.13 59.9312 160.216 59.9096 160.312 59.8892C160.799 59.7859 161.304 59.7592 161.754 59.8513C162.393 59.982 162.845 60.3322 163.105 61.0066C163.241 61.3574 163.635 61.5319 163.986 61.3965C164.336 61.261 164.511 60.8668 164.375 60.516C163.939 59.3871 163.101 58.7369 162.027 58.5172Z" fill="#000091"/>
<path fill-rule="evenodd" clip-rule="evenodd" d="M144.812 83.7061C145.408 82.889 151.212 86.9571 148.948 87.3316C146.684 87.7061 143.536 85.4592 144.812 83.7061Z" fill="#000091"/>
<path fill-rule="evenodd" clip-rule="evenodd" d="M169.153 82.9572L147.11 75.5019C147.11 75.5019 144.166 74.3785 144.268 70.5487C144.37 66.7189 149.187 65.2891 149.187 65.2891L172.693 61.97L169.153 82.9572Z" fill="#E4794A"/>
<path fill-rule="evenodd" clip-rule="evenodd" d="M192.745 82.9572L170.702 75.5019C170.702 75.5019 167.757 74.3785 167.86 70.5487C167.962 66.7189 172.779 65.2891 172.779 65.2891L196.285 61.97L192.745 82.9572Z" fill="#E4794A"/>
<path fill-rule="evenodd" clip-rule="evenodd" d="M172.914 83.655C166.907 83.655 162.038 78.7854 162.038 72.7785C162.038 66.7715 166.907 61.9019 172.914 61.9019C178.921 61.9019 183.791 66.7715 183.791 72.7785C183.791 78.7854 178.921 83.655 172.914 83.655Z" fill="#000091"/>
<path fill-rule="evenodd" clip-rule="evenodd" d="M196.676 83.8082C190.669 83.8082 185.8 78.9386 185.8 72.9316C185.8 66.9247 190.669 62.0551 196.676 62.0551C202.683 62.0551 207.553 66.9247 207.553 72.9316C207.553 78.9386 202.683 83.8082 196.676 83.8082Z" fill="#000091"/>
<path fill-rule="evenodd" clip-rule="evenodd" d="M191.961 60.472C189.272 55.672 177.442 54.072 175.247 54.4124C173.051 54.7358 175.212 59.2294 184.659 60.0635C184.659 60.0635 187.553 60.1145 189.034 61.3911" fill="white"/>
<path fill-rule="evenodd" clip-rule="evenodd" d="M183.551 55.0213L183.341 54.9656C180.172 54.1379 176.6 53.7076 175.217 53.9005L175.172 53.9072C174.372 54.025 173.888 54.5932 173.954 55.3585C174.011 56.0184 174.471 56.7476 175.25 57.4304C177.038 58.9973 180.225 60.165 184.472 60.5593L184.614 60.5721L184.792 60.5796C184.811 60.5806 184.832 60.5818 184.854 60.5831C185.023 60.5931 185.213 60.6092 185.418 60.6326C186.001 60.6994 186.584 60.8111 187.122 60.9769C187.776 61.1783 188.315 61.4455 188.7 61.7779C188.914 61.962 189.236 61.9381 189.421 61.7245C189.605 61.5109 189.581 61.1885 189.367 61.0043C188.861 60.5678 188.2 60.2404 187.423 60.0009C186.818 59.8146 186.175 59.6914 185.534 59.618L185.346 59.5979C185.223 59.5858 185.106 59.5762 184.996 59.5687L184.842 59.5596L184.688 59.5532L184.566 59.5423C180.564 59.1707 177.601 58.0976 175.979 56.7104L175.924 56.6624C175.325 56.1375 175.002 55.6266 174.971 55.2705C174.953 55.0607 175.04 54.959 175.325 54.917C176.525 54.7309 180.08 55.1586 183.185 55.9808L183.287 56.0077C187.389 57.1086 190.401 58.7309 191.516 60.7216C191.654 60.9676 191.965 61.0553 192.211 60.9174C192.457 60.7796 192.545 60.4684 192.407 60.2224C191.118 57.9221 187.899 56.1881 183.551 55.0213Z" fill="#000091"/>
<path fill-rule="evenodd" clip-rule="evenodd" d="M188.166 58.889C183.196 56.506 172.609 62.0379 171.009 63.5699C169.392 65.1018 173.766 67.5188 181.953 62.7699C181.953 62.7699 184.353 61.1528 186.294 61.3401" fill="white"/>
<path fill-rule="evenodd" clip-rule="evenodd" d="M188.387 58.4285C186.005 57.2868 182.376 57.7254 178.147 59.2821L177.943 59.3579C174.85 60.52 171.646 62.2529 170.657 63.1991C170.069 63.7567 169.999 64.5008 170.495 65.0884C170.922 65.5942 171.72 65.9241 172.751 66.0329C175.116 66.2826 178.393 65.4023 182.085 63.2834L182.209 63.2115L182.323 63.139L182.416 63.0807C182.465 63.0502 182.519 63.018 182.576 62.9842C182.851 62.8225 183.155 62.6606 183.476 62.5097C184.149 62.1944 184.808 61.9713 185.411 61.8803C185.71 61.835 185.99 61.8237 186.245 61.8483C186.525 61.8754 186.775 61.6698 186.802 61.3891C186.829 61.1084 186.623 60.8588 186.343 60.8317C185.999 60.7986 185.637 60.8132 185.258 60.8704C184.545 60.9782 183.797 61.2313 183.043 61.585C182.691 61.7502 182.36 61.9269 182.059 62.1039L181.931 62.1798C181.84 62.2353 181.765 62.2822 181.71 62.3182L181.685 62.3349L181.577 62.3974C178.098 64.3941 175.058 65.2232 172.931 65.0246L172.858 65.0173C172.065 64.9336 171.506 64.7022 171.275 64.4294C171.14 64.2692 171.152 64.137 171.362 63.9386L171.422 63.8824C172.38 63.0216 175.462 61.3704 178.402 60.2768L178.5 60.2405C182.49 58.7718 185.885 58.3615 187.945 59.3494C188.2 59.4713 188.505 59.364 188.626 59.1097C188.748 58.8554 188.641 58.5504 188.387 58.4285Z" fill="#000091"/>
<path fill-rule="evenodd" clip-rule="evenodd" d="M193.477 58.889C188.506 56.506 177.919 62.0379 176.319 63.5699C174.702 65.1018 179.077 67.5188 187.264 62.7699C187.264 62.7699 189.664 61.1528 191.604 61.3401" fill="white"/>
<path fill-rule="evenodd" clip-rule="evenodd" d="M193.697 58.4285C191.316 57.2868 187.687 57.7254 183.458 59.2821L183.254 59.3579C180.161 60.52 176.956 62.2529 175.968 63.1991C175.379 63.7567 175.309 64.5008 175.806 65.0884C176.233 65.5942 177.03 65.9241 178.061 66.0329C180.426 66.2826 183.704 65.4023 187.395 63.2834L187.52 63.2115L187.633 63.139L187.726 63.0807C187.776 63.0502 187.83 63.018 187.887 62.9842C188.162 62.8225 188.465 62.6606 188.787 62.5097C189.46 62.1944 190.118 61.9713 190.721 61.8803C191.021 61.835 191.3 61.8237 191.555 61.8483C191.836 61.8754 192.085 61.6698 192.112 61.3891C192.14 61.1084 191.934 60.8588 191.653 60.8317C191.31 60.7986 190.947 60.8132 190.569 60.8704C189.856 60.9782 189.108 61.2313 188.353 61.585C188.001 61.7502 187.67 61.9269 187.369 62.1039L187.242 62.1798C187.15 62.2353 187.076 62.2822 187.021 62.3182L186.996 62.3349L186.887 62.3974C183.409 64.3941 180.368 65.2232 178.241 65.0246L178.168 65.0173C177.375 64.9336 176.816 64.7022 176.586 64.4294C176.45 64.2692 176.463 64.137 176.672 63.9386L176.733 63.8824C177.69 63.0216 180.772 61.3704 183.712 60.2768L183.81 60.2405C187.8 58.7718 191.195 58.3615 193.256 59.3494C193.51 59.4713 193.815 59.364 193.937 59.1097C194.059 58.8554 193.952 58.5504 193.697 58.4285Z" fill="#000091"/>
<path fill-rule="evenodd" clip-rule="evenodd" d="M197.851 59.1783C192.88 56.7953 182.293 62.3273 180.693 63.8592C179.076 65.3911 183.451 67.8081 191.638 63.0592C191.638 63.0592 194.038 61.4421 195.978 61.6294" fill="white"/>
<path fill-rule="evenodd" clip-rule="evenodd" d="M198.072 58.7179C195.69 57.5762 192.061 58.0148 187.832 59.5715L187.628 59.6473C184.535 60.8094 181.331 62.5423 180.342 63.4885C179.754 64.0461 179.684 64.7902 180.18 65.3778C180.607 65.8836 181.405 66.2135 182.436 66.3224C184.801 66.572 188.078 65.6917 191.77 63.5728L191.895 63.501L192.008 63.4284L192.101 63.3701C192.15 63.3397 192.204 63.3074 192.262 63.2736C192.536 63.112 192.84 62.95 193.162 62.7991C193.834 62.4838 194.493 62.2608 195.096 62.1697C195.395 62.1244 195.675 62.1131 195.93 62.1377C196.21 62.1648 196.46 61.9592 196.487 61.6785C196.514 61.3978 196.308 61.1483 196.028 61.1212C195.684 61.088 195.322 61.1027 194.943 61.1599C194.23 61.2676 193.482 61.5207 192.728 61.8745C192.376 62.0397 192.045 62.2164 191.744 62.3933L191.616 62.4693C191.525 62.5248 191.45 62.5716 191.395 62.6076L191.37 62.6243L191.262 62.6868C187.783 64.6836 184.743 65.5127 182.616 65.314L182.543 65.3067C181.75 65.223 181.191 64.9917 180.96 64.7189C180.825 64.5586 180.837 64.4264 181.047 64.2281L181.107 64.1719C182.065 63.3111 185.147 61.6598 188.087 60.5662L188.185 60.5299C192.175 59.0612 195.57 58.6509 197.63 59.6388C197.885 59.7608 198.19 59.6535 198.312 59.3992C198.433 59.1449 198.326 58.8399 198.072 58.7179Z" fill="#000091"/>
<path fill-rule="evenodd" clip-rule="evenodd" d="M31.859 27.706V27.706C36.0122 25.7826 41.0505 27.3486 43.1271 31.2124L55.6377 54.5145L47.825 18.3103C46.9058 14.089 49.8675 9.96984 54.4122 9.11878V9.11878C58.9569 8.26771 63.3824 11.0081 64.3016 15.2294L73.5952 52.8124L72.5569 9.20388C72.4207 4.8975 76.0633 1.30601 80.7101 1.16984V1.16984C85.3398 1.03367 89.2207 4.43793 89.3569 8.74431L90.7526 52.6252L98.8207 15.2464C99.7398 11.0252 104.165 8.28473 108.71 9.1358V9.1358C113.255 9.98686 116.216 14.089 115.297 18.3273L107.485 54.5315L119.995 31.2294C122.072 27.3656 127.11 25.7996 131.263 27.723V27.723C135.416 29.6464 137.102 34.3273 135.025 38.1911L109.357 85.9869L51.7569 82.2933L28.0633 38.1911C26.0207 34.3103 27.7058 29.6294 31.859 27.706Z" fill="white"/>
<path fill-rule="evenodd" clip-rule="evenodd" d="M89.8671 8.72819L91.1307 48.4528L98.3214 15.1387C99.2907 10.6871 103.898 7.79092 108.66 8.60808L108.8 8.63321L108.945 8.66139C113.695 9.62562 116.767 13.9607 115.796 18.4355L108.748 51.0992L119.545 30.9879C121.727 26.9281 126.971 25.2554 131.346 27.1998L131.474 27.258C135.894 29.305 137.692 34.3064 135.475 38.4329L109.807 86.2285C109.712 86.4045 109.523 86.5093 109.324 86.4965L51.724 82.8029C51.548 82.7916 51.3903 82.6903 51.3069 82.5349L27.6133 38.4328C25.4527 34.3277 27.1934 29.387 31.5132 27.3046L31.6407 27.2443L31.7729 27.1843C36.1458 25.2406 41.3925 26.9065 43.5767 30.9707L54.3746 51.0822L47.3257 18.418C46.3553 13.9615 49.4266 9.60873 54.1746 8.64488L54.3142 8.61761L54.4585 8.59172C59.2184 7.77496 63.8301 10.665 64.8003 15.1208L72.9737 48.1724L72.0462 9.21606C71.9025 4.67272 75.6924 0.880009 80.5482 0.664843L80.6911 0.659569C85.5966 0.515276 89.7217 4.13034 89.8671 8.72819ZM80.7248 1.6803L80.5895 1.68529C76.3227 1.87437 73.0083 5.15047 73.0643 9.06885L74.1054 52.8003C74.1199 53.4103 73.2457 53.5274 73.0992 52.935L63.8056 15.352C62.943 11.3916 58.7834 8.8197 54.5059 9.62073L54.3739 9.64651C50.1722 10.4995 47.478 14.3178 48.3237 18.2017L56.1366 54.4068C56.2614 54.9851 55.4674 55.2773 55.1876 54.7561L42.6769 31.454C40.731 27.8333 35.9862 26.3573 32.0733 28.1694L31.9531 28.2263L31.8396 28.282C28.1193 30.146 26.6489 34.408 28.5149 37.9533L52.0724 81.8019L109.062 85.4563L134.575 37.9496C136.509 34.3506 134.941 29.9891 131.048 28.1864L130.927 28.1314C127.036 26.402 122.369 27.8908 120.445 31.4712L107.934 54.7731C107.654 55.2943 106.86 55.0021 106.985 54.4239L114.798 18.2196C115.653 14.2787 112.894 10.439 108.616 9.63775L108.483 9.61399C104.25 8.88757 100.169 11.4529 99.3194 15.3551L91.2515 52.7329C91.1244 53.3217 90.2611 53.2435 90.242 52.6414L88.8462 8.76058C88.7192 4.74224 85.0791 1.55223 80.7248 1.6803Z" fill="#000091"/>
<path fill-rule="evenodd" clip-rule="evenodd" d="M57.8678 83.8932L44.404 54.2932C42.3784 49.8337 43.8593 44.1996 47.7061 41.6975V41.6975C51.5529 39.1954 56.3188 40.7613 58.3444 45.2209L66.3784 62.8549L62.0891 43.0762C61.0167 38.1571 63.5869 33.0507 67.8082 31.6549V31.6549C72.0295 30.2592 76.3188 33.1188 77.3742 38.0379L81.6295 57.6294L83.8763 38.123C84.455 33.0337 88.438 29.3571 92.7444 29.9018V29.9018C97.0508 30.4464 100.081 35.0081 99.5018 40.0805L97.1869 60.2167L102.259 47.1273C104.081 42.4294 108.761 40.2337 112.71 42.2422V42.2422C116.659 44.2507 118.395 49.6805 116.574 54.3784L105.17 83.8252" fill="#CACAFB"/>
<path fill-rule="evenodd" clip-rule="evenodd" d="M45.8166 77.255H117.817C119.178 77.255 120.285 78.3614 120.285 79.7231V88.7614C120.285 90.1231 119.178 91.2295 117.817 91.2295H113.391L101.153 143.178H62.2251L49.9868 91.2295H45.8506C44.4889 91.2295 43.3825 90.1231 43.3825 88.7614V79.7231C43.3485 78.3614 44.4549 77.255 45.8166 77.255Z" fill="#FCB09E"/>
<path fill-rule="evenodd" clip-rule="evenodd" d="M51.9778 91.1783C51.6958 91.1783 51.4672 91.407 51.4672 91.689C51.4672 91.9609 51.6798 92.1832 51.9478 92.1988L51.9778 92.1996H111.774C112.056 92.1996 112.284 91.971 112.284 91.689C112.284 91.417 112.072 91.1947 111.804 91.1792L111.774 91.1783H51.9778Z" fill="#000091"/>
<path fill-rule="evenodd" clip-rule="evenodd" d="M65.8678 123.093C68.4721 119.876 72.3019 114.617 69.7147 113.51C67.1274 112.404 67.1615 115.195 63.2636 117.851C59.3487 120.506 55.7062 121.017 51.8253 125.851" fill="white"/>
<path fill-rule="evenodd" clip-rule="evenodd" d="M69.9151 113.041C68.7677 112.55 67.9289 112.686 67.1094 113.414C66.9204 113.581 66.7343 113.775 66.4957 114.046L66.3466 114.219C66.2071 114.382 65.7701 114.895 65.6101 115.076C64.8905 115.89 64.2074 116.538 63.3435 117.169C63.2235 117.257 63.101 117.343 62.9766 117.428L62.8128 117.538C61.8773 118.163 61.109 118.588 59.4077 119.463L58.7676 119.792C57.9468 120.216 57.4547 120.483 56.8963 120.81C54.7772 122.051 53.0921 123.457 51.4268 125.531C51.2502 125.751 51.2854 126.072 51.5053 126.249C51.7252 126.425 52.0466 126.39 52.2232 126.17C53.7737 124.239 55.33 122.927 57.2869 121.765L57.5198 121.628C58.0358 121.329 58.5202 121.069 59.3223 120.655L60.1685 120.22C61.7977 119.378 62.5499 118.952 63.5508 118.273C63.6853 118.181 63.817 118.088 63.9461 117.994C64.8352 117.344 65.5463 116.678 66.2759 115.864L66.45 115.667C66.6917 115.389 67.1645 114.833 67.1627 114.835L67.2582 114.726C67.4731 114.481 67.6345 114.313 67.7875 114.177C68.3112 113.712 68.7294 113.644 69.5136 113.98C70.3057 114.318 70.2497 115.409 69.2842 117.276C68.4791 118.832 67.1693 120.674 65.4706 122.772C65.2932 122.991 65.327 123.313 65.5462 123.49C65.7654 123.668 66.087 123.634 66.2644 123.415L66.4843 123.142C68.1169 121.106 69.3825 119.309 70.1913 117.745C70.7336 116.696 71.0425 115.797 71.081 115.048C71.1291 114.111 70.7438 113.395 69.9151 113.041Z" fill="#000091"/>
<path fill-rule="evenodd" clip-rule="evenodd" d="M67.9953 120.54C74.6506 116.915 84.3357 116.71 86.6506 116.812C90.14 116.966 87.9953 124.012 70.8379 125.68C70.8379 125.68 66.3272 126.242 64.2166 128.455" fill="white"/>
<path fill-rule="evenodd" clip-rule="evenodd" d="M86.6732 116.302L86.4881 116.295C84.6608 116.232 81.7502 116.374 78.8805 116.773C74.6174 117.364 70.7843 118.439 67.7511 120.092C67.5035 120.227 67.4121 120.537 67.547 120.784C67.6819 121.032 67.992 121.123 68.2397 120.988C71.1015 119.43 74.7496 118.394 78.8204 117.812L79.0209 117.784C81.9277 117.381 84.8782 117.245 86.6283 117.323C87.2391 117.349 87.5413 117.613 87.5544 118.044C87.5722 118.629 87.103 119.45 86.1482 120.296C83.5419 122.606 78.31 124.441 70.7749 125.174L70.6817 125.186C70.6156 125.196 70.5293 125.209 70.4246 125.226C70.1535 125.271 69.8521 125.328 69.5279 125.399C68.6006 125.602 67.6727 125.874 66.8022 126.228C65.5824 126.724 64.5734 127.341 63.8472 128.103C63.6525 128.307 63.6602 128.63 63.8642 128.824C64.0683 129.019 64.3915 129.011 64.5862 128.807C65.1987 128.165 66.0899 127.621 67.187 127.174C67.998 126.844 68.8717 126.588 69.746 126.397C70.014 126.338 70.265 126.29 70.494 126.25L70.5907 126.234C70.6614 126.222 70.7255 126.212 70.7826 126.204L70.8874 126.189C78.605 125.438 84.0345 123.534 86.8256 121.061C87.9858 120.032 88.6038 118.95 88.5752 118.013C88.5448 117.011 87.7876 116.351 86.6732 116.302Z" fill="#000091"/>
<path fill-rule="evenodd" clip-rule="evenodd" d="M64.8978 129.97C68.5915 122.14 86.4808 119.366 89.9532 119.638C93.4255 119.91 91.0255 127.366 76.3361 129.698C76.3361 129.698 71.8085 130.106 69.6298 132.251" fill="white"/>
<path fill-rule="evenodd" clip-rule="evenodd" d="M89.9927 119.129C87.7523 118.953 82.1143 119.826 77.359 121.277C70.8536 123.263 66.1629 126.09 64.4356 129.752C64.3153 130.007 64.4245 130.311 64.6796 130.432C64.9346 130.552 65.239 130.443 65.3593 130.188C66.9289 126.86 71.4047 124.162 77.6571 122.254L77.9367 122.17C82.5197 120.803 87.8602 119.986 89.9128 120.147C91.1906 120.247 91.2548 121.717 89.5781 123.551C87.3084 126.033 82.7972 128.127 76.4486 129.162L76.2712 129.191L76.1648 129.202C76.1227 129.207 76.0741 129.212 76.0192 129.219L75.9322 129.23C75.6553 129.266 75.3474 129.314 75.0163 129.376C74.069 129.55 73.121 129.797 72.2315 130.129C71.0194 130.582 70.01 131.159 69.2711 131.887C69.0702 132.085 69.0676 132.408 69.2655 132.609C69.4633 132.81 69.7866 132.812 69.9876 132.615C70.6101 132.002 71.5001 131.493 72.5888 131.086C73.4168 130.777 74.3089 130.545 75.2017 130.38C75.4755 130.329 75.7319 130.288 75.9657 130.256L76.0646 130.243C76.1187 130.236 76.1691 130.23 76.2155 130.224L76.3816 130.206L76.4158 130.202C83.077 129.144 87.8658 126.936 90.3317 124.24C91.3675 123.107 91.9084 121.949 91.8658 120.974C91.82 119.925 91.0998 119.216 89.9927 119.129Z" fill="#000091"/>
<path fill-rule="evenodd" clip-rule="evenodd" d="M63.5187 136.37C67.025 128.455 84.6761 124.71 88.1655 124.898C91.6548 125.085 89.9016 133.34 75.2804 136.029C75.2804 136.029 70.7697 136.54 68.6421 138.736" fill="white"/>
<path fill-rule="evenodd" clip-rule="evenodd" d="M88.1928 124.387C86.0039 124.27 80.4195 125.408 75.6756 127.115C69.2893 129.412 64.6908 132.463 63.0517 136.163C62.9375 136.421 63.0539 136.722 63.3118 136.837C63.5696 136.951 63.8713 136.834 63.9855 136.577C65.48 133.203 69.8761 130.287 76.0213 128.076C80.6482 126.411 86.1085 125.298 88.1381 125.407C89.452 125.478 89.6492 127.175 88.1069 129.217C86.0333 131.964 81.6785 134.302 75.3794 135.491L75.2039 135.524L75.0997 135.537C75.0583 135.543 75.0105 135.55 74.9565 135.558L74.8708 135.571C74.5983 135.613 74.2954 135.667 73.9695 135.734C73.0374 135.928 72.1047 136.192 71.2297 136.54C70.013 137.022 69.0046 137.628 68.2753 138.38C68.0791 138.583 68.0842 138.906 68.2867 139.102C68.4892 139.299 68.8125 139.294 69.0087 139.091C69.6233 138.457 70.513 137.923 71.6063 137.489C72.4211 137.166 73.2988 136.917 74.1772 136.734C74.4465 136.678 74.6988 136.632 74.9288 136.595L75.026 136.58C75.097 136.569 75.1615 136.56 75.2188 136.552L75.3378 136.537L75.3727 136.531C82.0082 135.311 86.6576 132.832 88.9219 129.833C89.8645 128.584 90.3084 127.318 90.1876 126.279C90.0597 125.178 89.3033 124.447 88.1928 124.387Z" fill="#000091"/>
<path fill-rule="evenodd" clip-rule="evenodd" d="M60.9316 142.174C64.7444 134.889 81.8167 129.868 85.1018 130.259C88.3869 130.651 85.6465 136.54 70.021 141.221" fill="white"/>
<path fill-rule="evenodd" clip-rule="evenodd" d="M85.1623 129.752C83.2561 129.525 77.9024 130.861 73.0206 132.866C66.8795 135.387 62.2628 138.529 60.4792 141.937C60.3484 142.187 60.445 142.496 60.6948 142.627C60.9447 142.757 61.2533 142.661 61.3841 142.411C63.0256 139.274 67.4726 136.248 73.4086 133.81L73.693 133.695C78.3465 131.816 83.3911 130.57 85.0414 130.766C85.6129 130.834 85.8412 131.061 85.8189 131.45C85.7866 132.012 85.279 132.837 84.3021 133.761C81.7787 136.146 76.8478 138.643 69.8745 140.732C69.6043 140.813 69.4509 141.097 69.5318 141.367C69.6128 141.638 69.8974 141.791 70.1675 141.71C77.2807 139.579 82.3477 137.014 85.0038 134.503C86.1518 133.417 86.7882 132.383 86.8385 131.508C86.8944 130.536 86.2339 129.88 85.1623 129.752Z" fill="#000091"/>
<path fill-rule="evenodd" clip-rule="evenodd" d="M52.6934 124.591C59.4168 121.493 65.6466 118.804 68.6764 121.442C71.8423 124.217 75.3827 133.459 70.6338 140.251" fill="white"/>
<path fill-rule="evenodd" clip-rule="evenodd" d="M70.0381 141.221C37.9019 149.987 39.9955 122.157 67.7913 120.421Z" fill="white"/>
<path fill-rule="evenodd" clip-rule="evenodd" d="M67.7594 119.911C61.1309 120.325 55.5598 122.235 51.5894 125.228C47.9656 127.96 45.9191 131.452 45.9295 134.761C45.9403 138.169 48.1206 140.976 52.0474 142.394C56.3637 143.951 62.5381 143.796 70.1724 141.714C70.4445 141.639 70.6049 141.359 70.5307 141.087C70.4565 140.814 70.1758 140.654 69.9037 140.728C62.4555 142.76 56.4871 142.91 52.3941 141.433C48.8544 140.155 46.9601 137.717 46.9508 134.758C46.9415 131.8 48.8197 128.595 52.2042 126.044C56.0076 123.177 61.3865 121.333 67.8231 120.931C68.1046 120.913 68.3185 120.671 68.3009 120.389C68.2839 120.118 68.0579 119.909 67.7894 119.91L67.7594 119.911Z" fill="#000091"/>
<path fill-rule="evenodd" clip-rule="evenodd" d="M1.03402 142.77C0.752005 142.77 0.523384 142.999 0.523384 143.281C0.523384 143.552 0.735967 143.775 1.00402 143.79L1.03402 143.791H288.966C289.248 143.791 289.477 143.563 289.477 143.281C289.477 143.009 289.264 142.786 288.996 142.771L288.966 142.77H1.03402Z" fill="#000091"/>
</svg>
