<svg width="290" height="130" viewBox="0 0 290 130" fill="none" xmlns="http://www.w3.org/2000/svg">
<rect width="55" height="20" transform="translate(20 20.0005)" fill="white"/>
<path d="M37.7649 37.5893C37.7716 37.5893 37.7782 37.5795 37.7782 37.5795C37.8313 37.5402 37.8844 37.4912 37.9309 37.4323C37.9243 37.4323 37.9176 37.4323 37.911 37.4225C37.8645 37.4716 37.8114 37.5304 37.7649 37.5893Z" fill="#000091"/>
<path d="M45.1222 35.1103L45.006 35.2103C45.0724 35.1937 45.1222 35.177 45.1222 35.1103Z" fill="#000091"/>
<path fill-rule="evenodd" clip-rule="evenodd" d="M42.7435 37.6426C42.9566 37.4282 43.1697 37.2009 43.3828 36.967H43.3764C43.7767 36.5123 44.1642 36.0771 44.6291 35.6809C44.7712 35.551 44.9068 35.4406 45.0359 35.3496C45.0549 35.3305 45.0646 35.3021 45.0741 35.2743C45.084 35.2452 45.0937 35.2168 45.1134 35.2002C45.0214 35.2354 44.948 35.2909 44.8743 35.3468C44.7979 35.4046 44.7211 35.4627 44.6227 35.499C44.5839 35.499 44.5452 35.4601 44.5839 35.4211C44.7195 35.3236 44.8551 35.2197 44.9843 35.1158H44.9585C44.9197 35.1158 44.9197 35.0768 44.9197 35.0378C44.439 34.9615 44.0698 35.2903 43.7392 35.5846L43.7186 35.603C43.6671 35.6288 43.6185 35.6032 43.5803 35.583C43.561 35.5728 43.5444 35.564 43.5313 35.564C43.2389 35.662 42.9867 35.8428 42.7329 36.0248C42.499 36.1924 42.2638 36.361 41.9944 36.4669V36.3889C41.903 36.4205 41.8126 36.4616 41.7219 36.5028C41.5886 36.5635 41.4548 36.6243 41.3164 36.6552C41.0637 36.7139 40.8292 36.7063 40.602 36.699C40.5274 36.6966 40.4535 36.6942 40.38 36.6942C39.9665 36.7352 39.5581 36.8238 39.1503 36.9123L39.0175 36.9411C39.011 36.9443 39.0046 36.9459 38.9981 36.9475C38.9917 36.9492 38.9852 36.9508 38.9788 36.954C38.7334 37.019 38.5074 37.1099 38.2813 37.2399L38.2555 37.2528C38.2466 37.2647 38.2378 37.2753 38.2295 37.2851C38.2197 37.2967 38.2108 37.3073 38.2038 37.3178C38.1264 37.4087 38.0553 37.4867 37.9455 37.5451C37.7834 37.6267 37.6433 37.7525 37.5054 37.8762C37.4457 37.9298 37.3861 37.9832 37.3256 38.0323C37.3127 38.0453 37.2869 38.0518 37.2675 38.0518C37.0673 38.2467 36.8671 38.4416 36.6605 38.6299C36.6476 38.6429 36.5895 38.6494 36.5443 38.6429C36.5443 38.6429 36.5507 38.6429 36.5507 38.6364L36.5701 38.5974L36.667 38.4415C36.6863 38.4123 36.7041 38.3831 36.7218 38.3539C36.7396 38.3246 36.7574 38.2954 36.7767 38.2662C36.8283 38.1883 36.8801 38.1102 36.9382 38.0388C36.9511 38.0193 36.9511 37.9998 36.9382 37.9868C36.9253 37.9739 36.9059 37.9674 36.8865 37.9674C37.0738 37.7855 37.2933 37.6296 37.5193 37.4932V37.4867C37.4935 37.4932 37.4548 37.4737 37.4741 37.4477C37.4931 37.4239 37.5086 37.3966 37.5231 37.3709L37.5387 37.3438C37.5419 37.3373 37.5436 37.3324 37.5452 37.3275C37.5468 37.3227 37.5484 37.3178 37.5516 37.3113C37.5484 37.3048 37.5436 37.2999 37.5387 37.2951C37.5339 37.2902 37.529 37.2853 37.5258 37.2788L37.4866 37.3047C37.4398 37.3353 37.3917 37.3668 37.3515 37.4022C37.3229 37.4268 37.2963 37.4605 37.2691 37.495C37.2098 37.5699 37.1472 37.6491 37.0544 37.6491C37.0479 37.6491 37.0157 37.6491 36.9963 37.6426C36.9769 37.6426 36.964 37.6361 36.9575 37.6296C36.9575 37.6264 36.9575 37.6247 36.9583 37.6239C36.9592 37.6231 36.9608 37.6231 36.964 37.6231C36.964 37.6231 36.9705 37.6166 36.9705 37.6101C36.9705 37.6101 36.9705 37.6036 36.9769 37.6036C36.9801 37.5971 36.9834 37.5922 36.9866 37.5874C36.9898 37.5825 36.9931 37.5776 36.9963 37.5711C36.9995 37.5646 37.0027 37.5598 37.006 37.5549C37.0092 37.55 37.0124 37.5451 37.0157 37.5387C37.0189 37.5354 37.0205 37.5305 37.0221 37.5257C37.0237 37.5208 37.0253 37.5159 37.0286 37.5127L37.0359 37.4993C37.0423 37.4879 37.0499 37.4743 37.0544 37.4607C37.0576 37.4542 37.0609 37.4493 37.0641 37.4445C37.0673 37.4396 37.0706 37.4347 37.0738 37.4282C37.0835 37.4152 37.0915 37.4006 37.0996 37.386C37.1077 37.3714 37.1158 37.3568 37.1254 37.3438C37.1319 37.3308 37.1384 37.3178 37.1513 37.3048C37.1577 37.2918 37.1642 37.2804 37.1706 37.2691C37.1771 37.2577 37.1836 37.2463 37.19 37.2334C37.2094 37.2009 37.19 37.1749 37.1642 37.1684C37.2352 37.0775 37.3192 36.9995 37.4225 36.9411H37.4096C37.4987 36.8962 37.5904 36.8437 37.6815 36.7915C37.7352 36.7607 37.7896 36.7296 37.8422 36.7007C37.8616 36.6812 37.881 36.6617 37.9068 36.6488C37.6937 36.7202 37.5 36.8176 37.3127 36.9475C37.3127 36.9475 37.261 36.967 37.2481 36.98C37.2481 36.98 37.2094 36.993 37.1577 36.9475C37.1513 36.9411 37.1513 36.9346 37.1513 36.9216C37.1737 36.8764 37.22 36.8465 37.27 36.8142C37.3064 36.7907 37.3447 36.766 37.3773 36.7332C37.416 36.7332 37.4483 36.7332 37.4483 36.7722C38.192 36.189 39.1091 36.0541 40.0292 35.9187C40.5951 35.8354 41.1622 35.752 41.6909 35.564C41.7458 35.525 41.8023 35.4877 41.8588 35.4503C41.9153 35.413 41.9718 35.3756 42.0267 35.3366C42.1209 35.2974 42.2053 35.2303 42.2947 35.1592C42.383 35.0889 42.4762 35.0148 42.5885 34.9599C42.8856 34.7325 43.1116 34.4727 43.2278 34.0895C43.2278 34.0505 43.1891 34.0115 43.1891 34.0115C42.6983 34.5377 42.1365 34.9534 41.5359 35.2587C40.9633 35.5609 40.3497 35.6056 39.7423 35.65C39.5141 35.6666 39.2867 35.6832 39.0627 35.7134C39.1014 35.6354 39.1789 35.6354 39.25 35.6354C39.25 35.5432 39.2942 35.5035 39.3509 35.4526C39.366 35.439 39.3821 35.4245 39.3985 35.4081H39.5083C39.5276 35.4081 39.5373 35.3886 39.547 35.3691C39.5567 35.3496 39.5664 35.3301 39.5858 35.3301C39.6633 35.3301 39.773 35.2912 39.7343 35.2912C39.6751 35.215 39.589 35.2452 39.494 35.2784C39.4027 35.3104 39.3031 35.3453 39.2112 35.2912C39.2454 35.2537 39.2556 35.2087 39.265 35.1678C39.2751 35.1236 39.2841 35.0841 39.321 35.0638H39.4695C39.4695 34.9859 39.547 34.9144 39.547 34.9144C39.8838 34.7119 40.209 34.5351 40.5281 34.3616C40.7413 34.2457 40.952 34.1312 41.1614 34.0115C41.119 34.0115 41.0815 34.0289 41.045 34.0459C40.987 34.0728 40.9318 34.0984 40.8644 34.0505C40.9031 34.0505 40.9031 34.0229 40.9031 33.9953C40.9031 33.9677 40.9031 33.9401 40.9419 33.9401C41.1841 33.8754 41.3997 33.7704 41.62 33.6633C41.7754 33.5877 41.9332 33.5109 42.1042 33.4464C42.0534 33.4464 42.0065 33.4601 41.9607 33.4734C41.8725 33.499 41.7887 33.5234 41.6909 33.4464C41.7166 33.4335 41.7373 33.417 41.7577 33.4008C41.799 33.368 41.8392 33.336 41.9169 33.336V33.2256C41.9169 33.1866 41.9557 33.1866 41.9944 33.1866C41.9557 33.1866 41.9169 33.1476 41.9169 33.1476C41.9375 33.1063 41.9779 33.0979 42.0229 33.0884C42.0629 33.08 42.1065 33.0708 42.143 33.0372C42.1042 33.0372 42.0332 33.0372 42.0332 32.9982C42.143 32.8488 42.3302 32.8098 42.5175 32.7709C42.4981 32.7319 42.461 32.7319 42.4287 32.7319C42.3964 32.7319 42.369 32.7319 42.369 32.6929C42.369 32.6539 42.4077 32.6539 42.4465 32.6539H42.369C42.3082 32.6234 42.3189 32.5688 42.3264 32.531C42.3284 32.5206 42.3302 32.5115 42.3302 32.5045C42.4819 32.3258 42.5318 32.1149 42.5814 31.9051C42.6057 31.8024 42.6299 31.6999 42.666 31.6017C42.6273 31.6017 42.5885 31.6017 42.5885 31.5627C42.2254 31.9657 41.6499 32.1184 41.1032 32.2635L41.0516 32.2772H40.8644C40.6771 32.3551 40.4123 32.3552 40.2251 32.2382C40.136 32.1915 40.0725 32.1331 40.0039 32.07C39.9581 32.0279 39.91 31.9837 39.8505 31.9394C39.547 31.7511 39.25 31.6017 38.9142 31.4847C37.9778 31.1859 37.0027 31.03 36.0277 31.069C36.2999 30.9192 36.5891 30.8597 36.8821 30.7993C37.0338 30.7681 37.1865 30.7366 37.3385 30.6923C37.4344 30.664 37.5294 30.6349 37.6239 30.6059C38.1595 30.4417 38.6791 30.2824 39.25 30.3155C39.1753 30.289 39.0796 30.2986 38.9915 30.3074C38.9502 30.3116 38.9105 30.3155 38.8754 30.3155C38.4438 30.2834 38.0078 30.3795 37.5528 30.4798C37.4564 30.501 37.3592 30.5224 37.261 30.5429C37.0829 30.58 36.9134 30.6332 36.7438 30.6866C36.5568 30.7453 36.3695 30.8042 36.1697 30.8417C36.0831 30.8716 36.0135 30.9224 35.9458 30.972C35.8368 31.0517 35.7324 31.128 35.5692 31.108V30.9911C35.9437 30.5364 36.3957 30.0882 36.9963 30.0492C37.5768 29.9547 38.1242 30.022 38.6952 30.0923C38.7911 30.1041 38.8877 30.1159 38.9852 30.1272C39.4533 30.1648 39.8912 30.2692 40.3632 30.3818L40.4123 30.3935C40.5157 30.3935 40.5738 30.4844 40.63 30.5725C40.6758 30.6441 40.7203 30.7138 40.7869 30.7312C40.8788 30.763 40.9707 30.7689 41.0627 30.7748C41.1968 30.7834 41.3308 30.792 41.4649 30.8806C41.4649 30.8544 41.4605 30.8289 41.4562 30.8037C41.4476 30.7539 41.4392 30.705 41.4649 30.6533C41.5482 30.5695 41.6437 30.592 41.7378 30.6141C41.8114 30.6314 41.884 30.6485 41.9492 30.6143C42.154 30.4872 41.9619 30.2921 41.7697 30.0968C41.677 30.0027 41.5843 29.9085 41.5359 29.8219C41.5359 29.7829 41.5747 29.7439 41.5747 29.7439C41.6595 29.8199 41.7385 29.8986 41.8168 29.9766C42.0129 30.1718 42.2047 30.3628 42.4723 30.4974C42.6596 30.5754 43.1116 30.6858 43.0341 30.4584C42.9015 30.164 42.6749 29.9086 42.4461 29.6509C42.3519 29.5447 42.2573 29.4381 42.1688 29.3282V29.1788C42.1099 29.1788 42.0958 29.1563 42.0782 29.1284C42.0727 29.1196 42.0668 29.1102 42.059 29.1008V28.9514C41.9643 28.9018 41.9431 28.8231 41.9218 28.7439C41.9097 28.6989 41.8975 28.6537 41.8717 28.6137C41.807 28.5088 41.8024 28.3797 41.7976 28.2466C41.7937 28.1408 41.7898 28.0324 41.7555 27.9316C41.678 27.7043 41.6457 27.5159 41.607 27.2886C41.5649 27.056 41.5187 26.8336 41.4734 26.6159C41.3934 26.2316 41.3165 25.8619 41.2712 25.4763C41.2114 24.9252 41.4897 24.4591 41.7742 23.9826C41.8586 23.8413 41.9435 23.6992 42.0203 23.5536C42.285 23.0989 42.5821 22.6507 43.0728 22.3454C43.1799 21.9019 43.4713 21.5326 43.7612 21.1651L43.7832 21.1372C44.0693 20.7806 44.5471 20.5626 44.8993 20.4019L44.9391 20.3837C45.4621 20.1499 45.9335 20.0005 45.94 20.0005H20V40.0005H38.404C38.8962 39.6437 39.3854 39.4185 39.9677 39.1505C40.2334 39.0282 40.5185 38.897 40.8321 38.7403C40.8985 38.7069 40.9774 38.6681 41.065 38.625C41.5906 38.3664 42.428 37.9544 42.7435 37.6426ZM36.9037 34.9443C36.8307 34.9516 36.7533 34.9594 36.7825 34.9007C36.8096 34.7693 36.9442 34.7298 37.0757 34.6913C37.132 34.6749 37.1877 34.6586 37.2341 34.6353L37.2554 34.6243L37.2709 34.6161C37.3437 34.5774 37.4328 34.53 37.4986 34.5576C37.543 34.6207 37.598 34.6369 37.6514 34.6528C37.6912 34.6646 37.7301 34.6761 37.7631 34.7065C37.6236 34.8465 37.4607 34.8604 37.2955 34.8744C37.1858 34.8837 37.0752 34.8931 36.9696 34.9396C36.9506 34.9396 36.9274 34.9419 36.9037 34.9443ZM31.1906 34.0308C31.1906 34.0698 31.2293 34.1088 31.2293 34.1088C32.1334 33.089 32.9535 32.2186 34.1159 31.4976C34.147 31.4845 34.1354 31.5008 34.12 31.5224C34.0971 31.5547 34.0657 31.5988 34.1546 31.5755C34.5394 31.4878 34.7123 31.1581 34.8804 30.8373C34.9239 30.7544 34.967 30.6721 35.0135 30.5947C35.1898 30.3078 35.4403 30.1241 35.6927 29.9389C35.8747 29.8053 36.0577 29.6711 36.2146 29.4969C36.2146 29.5359 36.2146 29.5748 36.1758 29.6138C36.2146 29.6528 36.2533 29.6528 36.2921 29.6528C36.3602 29.6014 36.4346 29.5801 36.5058 29.5597C36.5967 29.5337 36.6826 29.5092 36.7441 29.4254C36.4471 29.3085 36.0661 29.2696 35.769 29.3865C34.9812 29.7632 34.3096 30.3673 33.6703 31.0494C33.2828 31.4586 32.8825 31.8418 32.3917 32.1081C32.0559 32.7837 31.6814 33.3878 31.1906 34.0308ZM34.3432 31.615C34.3229 31.6556 34.3027 31.6768 34.2834 31.697C34.2658 31.7154 34.2489 31.7331 34.2335 31.7639C34.1948 31.8416 34.1561 31.874 34.0851 31.9129C34.0464 31.9129 34.0077 31.9129 34.0077 31.874C34.0464 31.7251 34.1561 31.5762 34.3045 31.5373C34.3432 31.5438 34.3432 31.5827 34.3432 31.615ZM35.9945 37.3836C36.0267 37.3511 36.0654 37.3121 36.0848 37.2731C36.1171 37.1952 35.9171 37.2147 35.8848 37.2342C35.8555 37.2577 35.8369 37.2813 35.8144 37.3097L35.8074 37.3186C35.7805 37.3496 35.749 37.3782 35.717 37.4073C35.6953 37.4271 35.6734 37.447 35.6526 37.468C35.5622 37.5589 35.4719 37.6499 35.3751 37.7343C35.3106 37.7928 35.5171 37.8188 35.5622 37.7798C35.6138 37.7408 35.659 37.6953 35.7042 37.6499C35.7214 37.6499 35.7386 37.647 35.75 37.6451L35.7579 37.6438L35.7622 37.6434C35.8692 37.6075 35.9488 37.533 36.0262 37.4606L36.0461 37.442C36.0719 37.416 36.0396 37.3901 35.9945 37.3836ZM35.4106 36.9612C35.4099 36.9613 35.4094 36.9615 35.409 36.9618C35.4082 36.9626 35.4082 36.9643 35.4082 36.9675C35.3686 36.9947 35.3295 37.0223 35.2905 37.0499C35.1895 37.1214 35.0891 37.1924 34.982 37.2533C34.8796 37.311 34.7746 37.3609 34.6686 37.4112C34.6075 37.4402 34.5462 37.4693 34.4848 37.5002C34.4848 37.5002 34.4848 37.4937 34.4783 37.4937C34.4654 37.4742 34.4396 37.4677 34.4138 37.4807C34.2717 37.5586 34.149 37.6625 34.0392 37.773C34.0199 37.786 34.0005 37.8054 33.9876 37.8249L33.9294 37.8834V37.8899C33.9036 37.9159 33.8778 37.9419 33.8455 37.9808C33.8388 37.9876 33.8336 37.9943 33.8287 38.0008C33.8193 38.013 33.8107 38.0243 33.7938 38.0328C33.768 38.0458 33.7034 38.0458 33.7099 38.0068V38.0003C33.6905 38.0133 33.6647 38.0263 33.6453 38.0328C33.6356 38.0393 33.6259 38.0442 33.6163 38.049C33.6066 38.0539 33.5969 38.0588 33.5872 38.0653C33.5807 38.0588 33.5678 38.0588 33.5614 38.0588C33.5549 38.0588 33.542 38.0588 33.5355 38.0653C33.5205 38.0783 33.5054 38.0905 33.4903 38.1028C33.4602 38.1273 33.4301 38.1519 33.3999 38.1822C33.3224 38.2536 33.2514 38.3316 33.1804 38.416C33.1804 38.416 33.1804 38.4225 33.1739 38.4225C33.1739 38.4258 33.1723 38.4274 33.1707 38.429C33.1691 38.4306 33.1675 38.4323 33.1675 38.4355L33.1545 38.4485C33.1521 38.451 33.1505 38.4535 33.1492 38.4556C33.1471 38.459 33.1456 38.4615 33.1416 38.4615L33.1352 38.468C33.1287 38.481 33.1223 38.494 33.1093 38.507C33.1029 38.5135 33.09 38.52 33.0771 38.52C33.0706 38.5135 33.0641 38.507 33.0641 38.5005C33.0609 38.4972 33.0593 38.494 33.0577 38.4907C33.0561 38.4875 33.0544 38.4842 33.0512 38.481C33.0448 38.4712 33.0399 38.4615 33.0351 38.4518C33.0302 38.442 33.0254 38.4323 33.0189 38.4225V38.416C33.0189 38.4128 33.0173 38.4095 33.0157 38.4063C33.0141 38.403 33.0125 38.3998 33.0125 38.3965L33.1287 38.2601L33.1352 38.2536C33.1416 38.2472 33.1481 38.239 33.1545 38.2309C33.161 38.2228 33.1675 38.2147 33.1739 38.2082C33.1836 38.1952 33.1949 38.1822 33.2062 38.1692C33.2175 38.1562 33.2288 38.1432 33.2385 38.1302C33.2417 38.1237 33.2449 38.1189 33.2482 38.114C33.2514 38.1091 33.2546 38.1042 33.2579 38.0977C33.2966 38.0458 33.3354 37.9938 33.3741 37.9354V37.9289C33.3806 37.9224 33.387 37.9159 33.387 37.9029C33.4064 37.8769 33.4258 37.8509 33.4387 37.8249L33.4774 37.747V37.7405L33.4839 37.734C33.4839 37.7307 33.4855 37.7291 33.4871 37.7275C33.4887 37.7259 33.4903 37.7242 33.4903 37.721C33.4968 37.7048 33.5032 37.6902 33.5097 37.6756C33.5161 37.661 33.5226 37.6463 33.5291 37.6301V37.6236L33.5355 37.5976C33.5388 37.5911 33.5404 37.5846 33.542 37.5781C33.5436 37.5716 33.5452 37.5651 33.5485 37.5586V37.5521C33.5517 37.5424 33.5533 37.5326 33.5549 37.5229C33.5565 37.5131 33.5581 37.5034 33.5614 37.4937C33.5614 37.4872 33.5614 37.4742 33.5549 37.4677C33.5937 37.3962 33.6453 37.3313 33.7034 37.2663C33.7002 37.2663 33.697 37.2679 33.6937 37.2696C33.6919 37.2705 33.69 37.2714 33.6882 37.272C33.6868 37.2725 33.6854 37.2728 33.6841 37.2728C33.6553 37.2909 33.6306 37.315 33.6054 37.3395C33.5853 37.3591 33.5649 37.3789 33.542 37.3962C33.5032 37.4287 33.4258 37.3767 33.4774 37.3378C33.5097 37.3118 33.5355 37.2858 33.5613 37.2598C33.5613 37.2598 33.5614 37.2533 33.5678 37.2533C33.5936 37.23 33.6183 37.2036 33.6432 37.177C33.6808 37.1369 33.7188 37.0962 33.7615 37.0649C33.8068 37.0325 33.839 37.0065 33.8778 36.974C33.8842 36.9675 33.8907 36.961 33.8972 36.961C33.923 36.9285 33.9488 36.8961 33.9811 36.8636C33.9811 36.8636 33.9876 36.8636 33.9876 36.8571C34.2093 36.642 34.5209 36.5661 34.839 36.4887C35.0396 36.4398 35.2428 36.3904 35.4276 36.305C35.532 36.2615 35.6484 36.2786 35.7635 36.2955C35.8548 36.3089 35.9453 36.3222 36.0282 36.305C36.1379 36.305 36.2542 36.305 36.3639 36.3829C36.1086 36.5189 35.8649 36.6744 35.6238 36.8282C35.554 36.8727 35.4843 36.9173 35.4147 36.961C35.4129 36.961 35.4116 36.961 35.4106 36.9612ZM36.2176 34.3137C36.1874 34.3172 36.1678 34.3194 36.1846 34.3363C36.2943 34.4468 36.5204 34.4078 36.6753 34.3233C36.7851 34.2454 36.9014 34.2454 37.0499 34.2454C37.0886 34.2454 37.0886 34.1739 37.0886 34.135C37.1984 34.1739 37.2759 34.1739 37.3857 34.1739C38.2833 33.9856 39.1486 33.7972 39.9751 33.3815C39.1388 32.7352 38.1077 32.4473 37.0978 32.1653C36.9302 32.1186 36.7632 32.072 36.5978 32.0239C36.6342 32.0239 36.6706 32.036 36.7072 32.0482C36.781 32.0728 36.8559 32.0977 36.9336 32.0239C36.8312 31.9421 36.7171 31.9265 36.6041 31.911C36.5106 31.8982 36.4179 31.8855 36.3331 31.8355C36.3419 31.8355 36.3525 31.8375 36.3639 31.8398C36.4026 31.8472 36.4517 31.8567 36.4816 31.7965C36.2855 31.6979 36.0893 31.6644 35.8913 31.6306C35.7894 31.6132 35.6871 31.5957 35.584 31.5692C35.7713 31.5302 35.8875 31.3808 35.8875 31.1924C35.8875 31.1535 35.81 31.1535 35.7713 31.1535C35.3257 31.3808 35.0222 31.7965 34.8349 32.2837C35.0038 32.3831 35.1857 32.3716 35.3641 32.3603C35.4654 32.3539 35.5656 32.3475 35.6615 32.3617C35.5768 32.4421 35.4545 32.4639 35.3368 32.4849C35.293 32.4928 35.2498 32.5005 35.2095 32.5111C35.0932 32.537 34.9835 32.6215 35.0222 32.6994C35.048 32.7319 35.0739 32.7449 35.1062 32.7514C35.0222 32.7774 34.9447 32.8164 34.8737 32.8878C34.98 32.9715 35.0896 32.9553 35.1978 32.9394C35.2408 32.9331 35.2835 32.9268 35.3257 32.9268C35.3257 32.974 35.3567 32.99 35.3889 33.0066C35.4054 33.0152 35.4223 33.024 35.4355 33.0372C35.2482 33.1087 35.0997 33.2646 35.0609 33.375C35.0147 33.4875 34.9292 33.5606 34.8445 33.6331C34.7874 33.682 34.7306 33.7305 34.6864 33.7907V33.9076C34.5617 34.0182 34.4334 34.117 34.307 34.2144C34.0472 34.4145 33.7949 34.6089 33.5951 34.8885C33.6338 34.8885 33.6338 34.9274 33.6338 34.9664C33.5981 35.0203 33.5473 35.0577 33.4991 35.0931C33.4427 35.1345 33.3899 35.1732 33.3691 35.2327C33.3691 35.2717 33.3691 35.3107 33.4078 35.3107C33.6448 35.2324 33.8498 35.1005 34.0508 34.9712C34.2332 34.8539 34.4123 34.7387 34.6089 34.6676C34.7696 34.629 34.9095 34.5561 35.046 34.485C35.1618 34.4247 35.2752 34.3656 35.3967 34.3298C35.4904 34.3103 35.5937 34.2827 35.697 34.2551C35.8003 34.2275 35.9037 34.1999 35.9973 34.1804C35.9973 34.2194 35.9973 34.2584 36.036 34.2584H36.3331C36.3148 34.3025 36.2571 34.3092 36.2176 34.3137Z" fill="#000091"/>
<path d="M75 20.0005H53.4884C53.4884 20.0005 53.5274 20.007 53.69 20.0915C53.8656 20.1825 54.0932 20.3061 54.2297 20.3776C54.5094 20.5206 54.776 20.7027 54.9516 20.9823C55.0296 21.0928 55.1401 21.3204 55.0686 21.4699C54.9906 21.6585 54.9516 21.9641 54.763 22.0356C54.5354 22.1526 54.2362 22.1526 53.9696 22.1136C53.8201 22.1136 53.6705 22.0746 53.5144 22.0356C54.0802 22.2632 54.6134 22.5297 54.9906 23.0564C55.0296 23.1344 55.1792 23.1669 55.3287 23.1669C55.3677 23.1669 55.3677 23.245 55.3677 23.2775C55.2897 23.3555 55.2182 23.3945 55.2572 23.505H55.3677C55.5563 23.427 55.5173 23.0499 55.7839 23.1669C55.9725 23.2775 56.0505 23.5441 55.9335 23.7326C55.7839 23.8822 55.6344 23.9992 55.4783 24.1097C55.4393 24.1877 55.4393 24.2983 55.4783 24.3763C55.5888 24.5258 55.6279 24.6754 55.6669 24.8314C55.7839 25.098 55.8164 25.3971 55.9335 25.6637C56.0831 26.2294 56.2326 26.795 56.2001 27.3672C56.2001 27.6663 56.0505 27.9329 56.1611 28.2385C56.2391 28.5375 56.4277 28.7651 56.5773 29.0317C56.7268 29.2593 56.8764 29.4088 56.9935 29.6364C57.2211 30.0135 57.6373 30.3906 57.4487 30.8457C57.3381 31.1123 56.9219 31.0733 56.6553 31.2229C56.4277 31.4114 56.6163 31.717 56.7334 31.9056C56.9219 32.2437 56.5057 32.4712 56.2391 32.5883C56.3172 32.7053 56.4667 32.6663 56.5057 32.7378C56.5448 32.9264 56.7334 33.0369 56.6163 33.232C56.4667 33.4595 56.0115 33.5701 56.2391 33.9147C56.3887 34.1812 56.2912 34.4738 56.2001 34.7469C56.0896 35.085 55.7839 35.2346 55.5173 35.3126C55.2897 35.3906 55.0231 35.3906 54.802 35.3516C54.724 35.3126 54.6524 35.2736 54.5744 35.2736C53.9306 35.1955 53.2868 35.0135 52.6495 35.0135C52.461 35.0525 52.2724 35.085 52.1228 35.163C51.9537 35.2866 51.7977 35.4231 51.6676 35.5662C51.6676 35.5662 51.6676 35.5662 51.6611 35.5727C51.6351 35.6052 51.6026 35.6312 51.5766 35.6637C51.5636 35.6832 51.544 35.7027 51.531 35.7222C51.518 35.7352 51.5115 35.7482 51.4985 35.7612C51.388 35.8978 51.2904 36.0473 51.1994 36.1968C51.1929 36.2099 51.1864 36.2164 51.1799 36.2229C51.1734 36.2424 51.1604 36.2554 51.1474 36.2749C51.0238 36.5024 50.9328 36.7365 50.8612 36.9706C50.6011 37.8353 50.7182 38.5766 50.9003 38.7586C50.9523 38.8106 52.1488 39.1812 52.9812 39.5519C53.3714 39.7274 53.6445 39.8574 53.8721 40.0005H74.9935V20.0005H75Z" fill="#E1000F"/>
<path d="M54.7665 27.295C54.9161 27.334 55.1437 27.334 55.1437 27.4119C55.0657 27.7106 54.6169 27.7885 54.3892 28.0937H54.2722C54.1616 28.1716 54.1941 28.36 54.0835 28.36C53.973 28.321 53.8559 28.36 53.7453 28.3989C53.8949 28.5483 54.0835 28.6651 54.3112 28.6262C54.3502 28.6262 54.4218 28.7041 54.4218 28.7755C54.4218 28.7755 54.4608 28.7755 54.4998 28.7366C54.5388 28.7366 54.5779 28.7366 54.5779 28.7755V28.9249C54.4673 29.0742 54.2722 29.0028 54.1226 29.0353C54.4283 29.1132 54.7275 29.1132 54.9941 29.0353C55.2218 28.9574 54.9941 28.5807 55.1437 28.3924C55.0657 28.3924 55.1437 28.2755 55.0657 28.2755C55.1437 28.1976 55.2153 28.0872 55.2933 28.0483C55.3714 28.0483 55.4819 28.0093 55.521 27.9314C55.521 27.8535 55.3714 27.821 55.4039 27.7431C55.6315 27.5937 55.8202 27.3665 55.7421 27.1392C55.7031 27.0223 55.4039 27.0223 55.2153 26.9509C55.0267 26.8794 54.799 26.9509 54.5714 26.9898C54.3827 26.9898 54.1941 27.1067 54.0055 27.1392C53.7388 27.2171 53.5112 27.3665 53.29 27.5158C53.5567 27.4054 53.8169 27.3665 54.1226 27.2885C54.3502 27.295 54.5388 27.2431 54.7665 27.295Z" fill="#808080"/>
<path d="M22.06 65.0005V51.0005H26.34C29.42 51.0005 31.32 52.5805 31.32 55.1805C31.32 56.8805 30.5 58.1405 29.06 58.8005L33.44 65.0005H30.1L26.36 59.3405H24.9V65.0005H22.06ZM26.5 53.3605H24.9V56.9805H26.5C27.7 56.9805 28.4 56.2805 28.4 55.1405C28.4 54.0805 27.7 53.3605 26.5 53.3605ZM40.8789 49.8005H38.2989L40.5589 47.1005H43.4789L40.8789 49.8005ZM35.5389 65.0005V51.0005H43.6989V53.3605H38.3789V56.6805H42.8989V59.0405H38.3789V62.6405H43.6989V65.0005H35.5389ZM47.2991 65.0005V51.0005H51.9191C54.9991 51.0005 56.8791 52.5805 56.8791 55.1805C56.8791 57.7605 54.9991 59.3405 51.9191 59.3405H50.1391V65.0005H47.2991ZM52.0391 53.3605H50.1391V56.9805H52.0391C53.2391 56.9805 53.9591 56.2805 53.9591 55.1405C53.9591 54.0805 53.2391 53.3605 52.0391 53.3605ZM67.7842 59.7605V51.0005H70.6242V59.5205C70.6242 63.2005 68.4642 65.4005 64.9442 65.4005C61.4442 65.4005 59.2842 63.2005 59.2842 59.5205V51.0005H62.1242V59.7605C62.1242 61.6405 63.1842 62.7405 64.9642 62.7405C66.7042 62.7405 67.7842 61.6405 67.7842 59.7605ZM74.4522 65.0005V51.0005H78.5722C81.4922 51.0005 83.2722 52.4405 83.2722 54.8005C83.2722 55.9405 82.7522 56.9205 81.7722 57.5605C83.2522 58.2205 84.0722 59.4205 84.0722 60.8805C84.0722 63.4405 82.0922 65.0005 78.8722 65.0005H74.4522ZM78.6322 53.3605H77.2922V56.5205H78.6322C79.7122 56.5205 80.3522 55.9405 80.3522 54.9205C80.3522 53.9405 79.7122 53.3605 78.6322 53.3605ZM79.0322 58.8805H77.2922V62.6405H79.0322C80.3522 62.6405 81.1522 61.9405 81.1522 60.7605C81.1522 59.5605 80.3522 58.8805 79.0322 58.8805ZM87.2866 65.0005V51.0005H90.1266V62.4205H95.4466V65.0005H87.2866ZM98.2459 65.0005V51.0005H101.086V65.0005H98.2459ZM117.039 64.6405C118.119 65.6205 119.079 65.9805 119.979 65.9805C120.279 65.9805 120.679 65.9405 120.979 65.8205V68.2205C120.519 68.4005 120.119 68.4805 119.499 68.4805C117.939 68.4805 116.499 67.8405 115.119 66.6405L113.459 65.1605C112.859 65.3205 112.219 65.4005 111.539 65.4005C107.119 65.4005 104.099 62.0005 104.099 58.0005C104.099 54.0005 107.119 50.6005 111.539 50.6005C115.939 50.6005 118.959 54.0005 118.959 58.0005C118.959 60.3405 117.919 62.4805 116.199 63.8405L117.039 64.6405ZM111.539 62.7405C114.159 62.7405 116.039 60.6805 116.039 58.0005C116.039 55.3205 114.159 53.2605 111.539 53.2605C108.899 53.2605 107.019 55.3205 107.019 58.0005C107.019 60.6805 108.899 62.7405 111.539 62.7405ZM130.237 59.7605V51.0005H133.077V59.5205C133.077 63.2005 130.917 65.4005 127.397 65.4005C123.897 65.4005 121.737 63.2005 121.737 59.5205V51.0005H124.577V59.7605C124.577 61.6405 125.637 62.7405 127.417 62.7405C129.157 62.7405 130.237 61.6405 130.237 59.7605ZM136.905 65.0005V51.0005H145.065V53.3605H139.745V56.6805H144.265V59.0405H139.745V62.6405H145.065V65.0005H136.905ZM154.156 65.0005V51.0005H162.316V53.3605H156.996V56.6805H161.516V59.0405H156.996V65.0005H154.156ZM165.115 65.0005V51.0005H169.395C172.475 51.0005 174.375 52.5805 174.375 55.1805C174.375 56.8805 173.555 58.1405 172.115 58.8005L176.495 65.0005H173.155L169.415 59.3405H167.955V65.0005H165.115ZM169.555 53.3605H167.955V56.9805H169.555C170.755 56.9805 171.455 56.2805 171.455 55.1405C171.455 54.0805 170.755 53.3605 169.555 53.3605ZM177.44 65.0005L182.74 51.0005H186.46L191.76 65.0005H188.74L187.4 61.3605H181.8L180.46 65.0005H177.44ZM182.68 58.9405H186.52L184.6 53.6805L182.68 58.9405ZM194.222 65.0005V51.0005H197.862L204.122 61.1205V51.0005H206.962V65.0005H203.322L197.062 54.8805V65.0005H194.222ZM217.417 62.7405C219.017 62.7405 220.277 61.9605 221.077 60.8205L223.317 62.5405C222.237 64.0205 220.557 65.0605 218.517 65.3205L216.777 68.2205H214.257L216.017 65.2805C212.377 64.6405 209.977 61.5605 209.977 58.0005C209.977 54.0005 212.997 50.6005 217.417 50.6005C219.957 50.6005 222.037 51.7405 223.317 53.4405L221.077 55.1805C220.277 54.0405 219.017 53.2605 217.417 53.2605C214.777 53.2605 212.897 55.3205 212.897 58.0005C212.897 60.6805 214.777 62.7405 217.417 62.7405ZM224.224 65.0005L229.524 51.0005H233.244L238.544 65.0005H235.524L234.184 61.3605H228.584L227.244 65.0005H224.224ZM229.464 58.9405H233.304L231.384 53.6805L229.464 58.9405ZM241.006 65.0005V51.0005H243.846V65.0005H241.006ZM246.799 63.0605L248.859 61.1605C249.699 62.2405 250.819 62.8805 251.959 62.8805C253.079 62.8805 253.759 62.2805 253.759 61.2805C253.759 58.7005 247.399 59.4005 247.399 54.6605C247.399 52.4405 249.239 50.6005 251.919 50.6005C254.019 50.6005 255.619 51.5405 256.819 52.9605L254.739 54.8405C253.919 53.7805 252.999 53.0805 251.939 53.0805C250.939 53.0805 250.279 53.7205 250.279 54.5605C250.279 57.1005 256.639 56.3805 256.639 61.1805C256.599 63.8205 254.559 65.4005 251.979 65.4005C249.619 65.4005 248.039 64.5405 246.799 63.0605ZM259.917 65.0005V51.0005H268.077V53.3605H262.757V56.6805H267.277V59.0405H262.757V62.6405H268.077V65.0005H259.917Z" fill="#161616"/>
<path fill-rule="evenodd" clip-rule="evenodd" d="M71.96 100.7L70.1 102.4H69.62L70.72 100.46H71.96V100.7ZM70.62 107.279H70.22C69.72 107.879 69.16 108.359 68.62 108.359C68.06 108.359 67.78 108.019 67.78 107.279C67.78 106.979 67.82 106.659 67.88 106.379L71.14 105.3C71.78 103.78 71.02 103.12 70.12 103.12C68.58 103.12 66.82 105.82 66.82 107.979C66.82 108.999 67.3 109.559 68.06 109.559C68.94 109.539 69.86 108.679 70.62 107.279ZM69.5012 104C69.9412 104 70.3213 104.34 70.1213 105.12L68.1012 105.66C68.4212 104.7 69.0212 104 69.5012 104ZM63.1421 104.04H64.2221L62.5021 108.759C62.3421 109.159 62.5621 109.559 62.9821 109.559C64.2021 109.559 65.6621 108.519 66.2221 107.039H65.9221C65.4821 107.659 64.5221 108.339 63.8021 108.459L65.3821 104.04H67.0021L67.2021 103.36H65.6221L66.2221 101.66H65.6021L64.4821 103.36L63.1421 103.54V104.04ZM61.6409 103.141C61.8609 103.141 62.161 103.381 62.021 103.821L60.0809 108.521C60.5809 108.441 61.1009 107.961 61.4009 107.521H61.7209C61.2609 108.7 60.2209 109.56 59.3209 109.56C59.1009 109.56 58.7809 109.32 58.9409 108.88L60.7409 104.181C60.2409 104.261 59.7209 104.741 59.4209 105.181H59.1209C59.5809 103.981 60.7009 103.141 61.6409 103.141ZM62.2023 101.94C62.6023 101.94 62.9423 101.62 62.9423 101.2C62.9423 100.8 62.6023 100.46 62.2023 100.46C61.7823 100.46 61.4623 100.8 61.4623 101.2C61.4623 101.6 61.8023 101.94 62.2023 101.94ZM53.4619 105.841C53.9019 104.881 53.7419 104.441 53.4619 104.441C53.2219 104.441 52.9418 104.701 52.6618 105.181H52.3618C52.8218 104.161 53.4219 103.141 54.0819 103.141C54.6419 103.141 54.8419 103.701 54.8419 104.321V105.201C54.9319 105.096 55.0195 104.993 55.1051 104.893L55.1067 104.891L55.108 104.889C55.9529 103.898 56.5981 103.141 57.3419 103.141C57.9219 103.141 58.2219 103.501 58.2219 104.041C58.2219 104.361 58.1219 104.761 57.9019 105.181L56.2419 108.521C56.7419 108.441 57.2619 107.961 57.5619 107.521H57.8619C57.4019 108.72 56.2819 109.56 55.3419 109.56C54.9219 109.56 54.6819 109.12 54.8619 108.76L56.7819 105.061C57.0019 104.641 57.0419 104.361 56.7019 104.361C56.2419 104.361 55.1619 105.121 54.5819 105.821L53.3219 109.14C53.1819 109.48 53.0419 109.56 52.7218 109.56C52.2018 109.56 51.9418 109.22 52.1818 108.681L53.4619 105.841ZM52.1604 104.56C52.3804 103.8 52.2604 103.12 51.6803 103.12C50.957 103.12 50.7305 103.597 50.0296 105.076L49.9803 105.18V104.3C49.9803 103.68 49.7803 103.12 49.2203 103.12C48.5603 103.12 47.9603 104.14 47.5003 105.16H47.8003C48.1203 104.7 48.4203 104.42 48.6603 104.42C48.9403 104.42 49.1003 104.86 48.6603 105.82L47.3803 108.659C47.1403 109.199 47.4003 109.539 47.9203 109.539C48.2403 109.539 48.3803 109.459 48.5203 109.119L49.7803 105.8C50.1403 105.36 50.4603 104.98 50.8603 104.56H52.1604ZM45.8407 105.12C46.0407 104.34 45.6607 104 45.2207 104C44.7407 104 44.1407 104.7 43.8207 105.66L45.8407 105.12ZM46.3395 107.279H45.9395C45.4395 107.879 44.8795 108.359 44.3394 108.359C43.7794 108.359 43.4994 108.019 43.4994 107.279C43.4994 106.979 43.5394 106.659 43.5994 106.379L46.8595 105.3C47.4995 103.78 46.7395 103.12 45.8395 103.12C44.2994 103.12 42.5394 105.82 42.5394 107.979C42.5394 108.999 43.0194 109.559 43.7794 109.559C44.6595 109.539 45.5795 108.679 46.3395 107.279ZM39.9415 104.04H38.8615V103.54L40.2016 103.36L41.3216 101.66H41.9416L41.3416 103.36H42.9216L42.7216 104.04H41.1016L39.5215 108.459C40.2416 108.339 41.2016 107.659 41.6416 107.039H41.9416C41.3816 108.519 39.9215 109.559 38.7015 109.559C38.2815 109.559 38.0615 109.159 38.2215 108.759L39.9415 104.04ZM33.1424 107.7C33.1424 106.24 34.7625 104.28 35.6625 104.28C35.8625 104.28 36.0625 104.3 36.2225 104.36L35.2825 106.88C34.7425 107.54 33.9025 108.34 33.5024 108.34C33.2824 108.34 33.1424 108.14 33.1424 107.7ZM37.603 102.82L38.103 102.86L36.363 106.86C35.943 107.82 36.123 108.26 36.363 108.26C36.603 108.26 36.903 107.98 37.223 107.52H37.523C37.063 108.54 36.463 109.56 35.803 109.56C35.243 109.56 34.903 108.96 35.003 107.88L35.043 107.5L34.9341 107.652C34.2176 108.654 33.5693 109.56 32.9029 109.56C32.3229 109.56 32.0229 109.2 32.0229 108.66C32.0229 106.34 34.563 103.38 36.943 103.38H37.043L37.603 102.82ZM33.0217 104.56C33.2417 103.8 33.1217 103.12 32.5417 103.12C31.8183 103.12 31.5918 103.597 30.8909 105.076L30.8417 105.18V104.3C30.8417 103.68 30.6417 103.12 30.0816 103.12C29.4216 103.12 28.8216 104.14 28.3616 105.16H28.6616C28.9816 104.7 29.2816 104.42 29.5016 104.42C29.7816 104.42 29.9416 104.86 29.5016 105.82L28.2216 108.679C27.9816 109.219 28.2416 109.559 28.7616 109.559C29.0816 109.559 29.2216 109.479 29.3616 109.139L30.6217 105.82C30.9817 105.38 31.3017 105 31.7017 104.58H33.0217V104.56ZM24.7801 108.958L24.6601 109.318H20L20.12 108.938C21.56 108.678 21.8 108.558 22.4 106.938L23.7001 103.458C24.2801 101.839 24.1601 101.719 22.9 101.459L23.02 101.099H29.0801L28.7201 103.038H28.2801C28.2801 101.879 28.1601 101.579 27.0601 101.579H26.7801C25.7001 101.579 25.5601 101.739 25.2601 102.578L24.4001 104.918H25.6601C26.5001 104.918 26.8201 104.398 27.2001 103.718H27.6401L26.6001 106.558H26.1601C26.2601 105.698 26.2601 105.358 25.4801 105.358H24.2201L23.6401 106.958C23.0131 108.623 23.1923 108.657 24.6852 108.94C24.7163 108.946 24.7479 108.952 24.7801 108.958Z" fill="black"/>
<path fill-rule="evenodd" clip-rule="evenodd" d="M28.7397 85.4004L26.8797 86.7404V86.7604H26.3997L27.4997 85.1604H28.7397V85.4004ZM41.7415 94.7802L44.7214 86.8602L44.6214 86.7402L42.5615 86.9802V87.2202L42.9615 87.5202C43.3029 87.7858 43.2125 88.0334 42.9292 88.8093L42.8815 88.9402L40.6015 95.0202C40.4215 95.3802 40.6615 95.8202 41.0815 95.8202C42.0215 95.8202 43.0215 94.9602 43.4815 93.7802H43.1815C42.8615 94.2202 42.2215 94.7002 41.7415 94.7802ZM55.4 88.6802L57.26 86.9802V86.7402H56.02L54.92 88.6802H55.4ZM55.5187 93.5402H55.9187C55.1787 94.9602 54.2587 95.8202 53.3787 95.8202C52.6187 95.8202 52.1387 95.2602 52.1387 94.2402C52.1387 92.0802 53.8987 89.3802 55.4387 89.3802C56.3187 89.3802 57.0987 90.0402 56.4587 91.5602L53.1787 92.6402C53.1187 92.9202 53.0787 93.2402 53.0787 93.5402C53.0787 94.2802 53.3587 94.6202 53.9187 94.6202C54.4587 94.6202 55.0187 94.1402 55.5187 93.5402ZM55.4177 91.3803C55.6177 90.6203 55.2377 90.2803 54.7977 90.2803C54.3377 90.2803 53.7377 90.9803 53.3977 91.9203L55.4177 91.3803ZM49.5377 90.3198H48.4577V89.8198L49.7977 89.6398L50.9177 87.9398H51.5377L50.9377 89.6398H52.5177L52.3177 90.3198H50.6977L49.1177 94.7397C49.8377 94.6197 50.7977 93.9397 51.2377 93.3197H51.5377C50.9777 94.7997 49.5177 95.8397 48.2977 95.8397C47.8777 95.8397 47.6577 95.4397 47.8177 95.0397L49.5377 90.3198ZM47.3376 90.0797C47.4576 89.6397 47.1776 89.3997 46.9376 89.3997C45.9976 89.3997 44.8776 90.2597 44.4176 91.4397H44.7176C45.0176 90.9997 45.5376 90.5197 46.0376 90.4397L44.2376 95.1397C44.0776 95.5797 44.3976 95.8197 44.6176 95.8197C45.5176 95.8197 46.5576 94.9597 47.0176 93.7797H46.7176C46.4176 94.2197 45.8976 94.6997 45.3976 94.7797L47.3376 90.0797ZM48.2591 87.4802C48.2591 87.8802 47.9191 88.2202 47.5191 88.2202C47.1191 88.2202 46.7791 87.8802 46.7791 87.4802C46.7791 87.0802 47.0991 86.7402 47.5191 86.7402C47.9191 86.7402 48.2591 87.0802 48.2591 87.4802ZM38.1612 90.5602C37.2612 90.5602 35.6412 92.5202 35.6412 93.9802C35.6412 94.4202 35.7812 94.6202 36.0212 94.6202C36.4012 94.6202 37.2412 93.8202 37.7812 93.1602L38.7212 90.6402C38.5412 90.5802 38.3612 90.5602 38.1612 90.5602ZM40.6017 89.1403L40.1017 89.1003L39.5417 89.6603H39.4417C37.0617 89.6603 34.5217 92.6202 34.5217 94.9402C34.5217 95.4802 34.8217 95.8402 35.4017 95.8402C36.0681 95.8402 36.7164 94.9339 37.4328 93.9324L37.5417 93.7802L37.5017 94.1602C37.4017 95.2402 37.7417 95.8402 38.3017 95.8402C38.9617 95.8402 39.5617 94.8202 40.0217 93.8002H39.7217C39.4017 94.2602 39.1017 94.5402 38.8617 94.5402C38.6217 94.5402 38.4417 94.1002 38.8617 93.1402L40.6017 89.1403ZM30.5206 95.6204C29.6606 95.9604 29.0606 96.3604 29.0606 96.9804C29.0606 97.5604 29.6006 97.8004 30.7206 97.8004C32.2206 97.8004 33.0406 97.3604 33.0406 96.7804C33.0406 96.5204 32.7006 96.4004 31.8006 96.1004C31.2206 95.9204 30.8006 95.7604 30.5206 95.6204ZM31.5193 93.1603C31.1193 93.1603 30.9793 92.8203 30.9793 92.4603C30.9793 91.3003 31.5393 89.8603 32.4393 89.8603C32.8393 89.8603 32.9793 90.2003 32.9793 90.5603C32.9593 91.7403 32.3993 93.1603 31.5193 93.1603ZM32.2813 95.0402C33.3813 95.3802 34.0613 95.6402 34.0613 96.4002C34.0613 97.3802 32.2613 98.5401 30.0813 98.5201C28.8213 98.5201 27.7413 98.1801 27.7413 97.3602C27.7413 96.5802 28.4613 95.9402 30.2213 95.4202C29.9813 95.2602 29.8813 95.0602 29.8813 94.7802C29.8813 94.3002 30.3213 93.9202 31.0813 93.5602C30.3413 93.4602 29.8613 92.9002 29.8613 92.0802C29.8613 90.8202 30.9013 89.3802 32.5413 89.3802C32.8813 89.3802 33.1813 89.4602 33.4213 89.6202H35.2213L35.0213 90.3002H33.9613C34.0213 90.4802 34.0613 90.6802 34.0613 90.9002C34.0613 92.1202 33.0813 93.5202 31.5213 93.6002C31.1213 93.8202 30.9213 94.1202 30.9213 94.3602C30.9213 94.6426 31.2485 94.7381 31.9715 94.9491C32.0677 94.9772 32.1709 95.0073 32.2813 95.0402ZM25.94 91.6203C26.72 91.6203 26.74 91.9603 26.62 92.8203H27.06L28.1 89.9803H27.66C27.28 90.6603 26.96 91.1803 26.12 91.1803H24.4L25.24 88.8403C25.54 88.0004 25.68 87.8404 26.76 87.8404H27.52C28.62 87.8404 28.74 88.1404 28.74 89.3003H29.18L29.54 87.3604H23.02L22.9 87.7204C24.16 87.9804 24.28 88.1004 23.7 89.7203L22.4 93.2203C21.8 94.8403 21.56 94.9603 20.1 95.2203L20 95.6003H27.24L28.54 93.5403H28.04C27.2 94.3603 26.36 95.1203 24.72 95.1203C22.9161 95.1203 22.9482 95.032 23.4895 93.5452C23.5243 93.4495 23.5613 93.348 23.6 93.2403L24.2 91.6403H25.94V91.6203Z" fill="black"/>
<path fill-rule="evenodd" clip-rule="evenodd" d="M31.9182 74.4804C32.3182 74.4804 32.6582 74.1404 32.6582 73.7404C32.6582 73.3405 32.3182 73.0005 31.9182 73.0005C31.4982 73.0005 31.1782 73.3405 31.1782 73.7404C31.1782 74.1604 31.4982 74.4804 31.9182 74.4804ZM37.8403 76.9997C37.8403 76.0397 37.6003 75.6798 36.9203 75.6798C36.0803 75.6798 35.3003 76.5797 34.5203 77.6596L36.2003 73.16L36.1003 73.02L34.0403 73.2599V73.4999L34.4403 73.7999C34.7886 74.0708 34.6876 74.3416 34.391 75.1375L34.3603 75.2198L32.5403 79.9794C32.3803 80.3794 32.2003 80.8594 32.2003 80.9793C32.2003 81.5393 32.9603 82.0793 33.6603 82.0793C35.2203 82.0993 37.8403 79.2195 37.8403 76.9997ZM55.18 74.9598L57.04 73.2599V73.02H55.8L54.7 74.9598H55.18ZM55.3005 79.8195H55.7005C54.9405 81.2394 54.0205 82.0993 53.1405 82.0793C52.3805 82.0793 51.9005 81.5393 51.9005 80.5194C51.9005 78.3596 53.6605 75.6598 55.2005 75.6598C56.0805 75.6598 56.8605 76.3197 56.2205 77.8396L52.9605 78.9195C52.9005 79.1995 52.8605 79.5195 52.8605 79.8195C52.8605 80.5594 53.1405 80.8994 53.7005 80.8994C54.2405 80.8994 54.8005 80.4194 55.3005 79.8195ZM55.1986 77.6597C55.3985 76.8998 55.0186 76.5598 54.5786 76.5598C54.0986 76.5598 53.4986 77.2597 53.1786 78.1997L55.1986 77.6597ZM49.2964 76.6009H48.2164V76.101L49.5564 75.921L50.6764 74.2211H51.2964L50.6964 75.921H52.2764L52.0764 76.6009H50.4564L48.8764 81.0206C49.5964 80.9006 50.5564 80.2206 50.9964 79.6007H51.2964C50.7364 81.0806 49.2764 82.1205 48.0564 82.1205C47.6364 82.1205 47.4164 81.7205 47.5764 81.3205L49.2964 76.6009ZM47.6602 77.1208C47.8802 76.3609 47.7602 75.6809 47.1802 75.6809C46.4569 75.6809 46.2304 76.1586 45.5295 77.637L45.4802 77.7408V76.8609C45.4802 76.2409 45.2802 75.6809 44.7202 75.6809C44.0603 75.6809 43.4603 76.7009 43.0003 77.7208H43.3003C43.6203 77.2608 43.9203 76.9808 44.1403 76.9808C44.4203 76.9808 44.5803 77.4208 44.1403 78.3807L42.8603 81.2205C42.6203 81.7605 42.8803 82.1004 43.4003 82.1004C43.7203 82.1004 43.8603 82.0205 44.0003 81.6805L45.2602 78.3607C45.6202 77.9208 45.9402 77.5408 46.3402 77.1208H47.6602ZM41.3208 77.6597C41.5208 76.8998 41.1408 76.5598 40.7008 76.5598C40.2208 76.5598 39.6408 77.2597 39.3008 78.1997L41.3208 77.6597ZM41.8195 79.8195H41.4195C40.9195 80.4194 40.3595 80.8994 39.8195 80.8994C39.2595 80.8994 38.9796 80.5594 38.9796 79.8195C38.9796 79.5195 39.0196 79.1995 39.0795 78.9195L42.3395 77.8396C42.9795 76.3197 42.2195 75.6598 41.3195 75.6598C39.7795 75.6598 38.0196 78.3596 38.0196 80.5194C38.0196 81.5393 38.4996 82.0793 39.2595 82.0793C40.1395 82.0993 41.0595 81.2394 41.8195 79.8195ZM33.4211 80.5801C33.4211 80.8401 33.8811 81.1401 34.2011 81.1401C35.5011 81.1401 36.7211 78.8002 36.7011 77.5003C36.7011 77.0604 36.4811 76.8804 36.1811 76.8804C35.7011 76.8804 34.8211 77.6003 34.2611 78.2803L33.7411 79.6802C33.5611 80.1401 33.4211 80.5001 33.4211 80.5801ZM31.3215 75.6809C31.5615 75.6809 31.8415 75.9209 31.7215 76.3609L29.8015 81.0605C30.3015 80.9805 30.8215 80.5006 31.1215 80.0606H31.4215C30.9615 81.2405 29.9215 82.1004 29.0215 82.1004C28.7815 82.1004 28.4615 81.8605 28.6215 81.4205L30.4215 76.7209C29.9215 76.8009 29.4015 77.2808 29.1015 77.7208H28.8015C29.2615 76.5409 30.3815 75.6809 31.3215 75.6809ZM23.02 73.601H27.3199L27.1999 73.981C25.7399 74.241 25.4999 74.361 24.8999 75.9808L23.6199 79.5006C23 81.1804 23.16 81.3804 24.2599 81.3804C25.619 81.3804 26.5101 80.3927 27.2882 79.5303C27.346 79.4662 27.4032 79.4028 27.4599 79.3406H27.9599L26.5399 81.8604H20L20.12 81.5004C21.56 81.2404 21.8 81.1204 22.4 79.5006L23.6999 75.9608C24.2799 74.341 24.1599 74.221 22.9 73.961L23.02 73.601Z" fill="black"/>
</svg>
