<svg width="907" height="328" viewBox="0 0 907 328" fill="none" xmlns="http://www.w3.org/2000/svg">
<path d="M357.301 186.5L357.776 148.497C358.067 125.218 377.02 106.5 400.301 106.5" stroke="#6A6AF4" stroke-width="16" stroke-linecap="round"/>
<path d="M357.301 186.5V109.5M454.301 187V109M301.301 148.5C301.301 170.039 283.84 187.5 262.301 187.5C240.762 187.5 223.301 170.039 223.301 148.5C223.301 126.961 240.762 109.5 262.301 109.5C283.84 109.5 301.301 126.961 301.301 148.5ZM589.301 146.5C589.301 168.039 571.84 185.5 550.301 185.5C528.762 185.5 511.301 168.039 511.301 146.5C511.301 124.961 528.762 107.5 550.301 107.5C571.84 107.5 589.301 124.961 589.301 146.5Z" stroke="#000091" stroke-width="16" stroke-linecap="round"/>
<path d="M645.301 187.5V144.5C645.301 125.17 660.971 109.5 680.301 109.5C699.631 109.5 715.301 125.17 715.301 144.5V187.5" stroke="#6A6AF4" stroke-width="16" stroke-linecap="round"/>
<path d="M270.5 261V233H275.3L283.86 247.12L292.42 233H297.22V261H293.46V238.04L285.3 251.4H282.42L274.26 238.04V261H270.5Z" fill="#000091"/>
<path d="M306.927 235.6C305.607 235.6 304.527 234.52 304.527 233.2C304.527 231.92 305.607 230.84 306.927 230.84C308.247 230.84 309.287 231.92 309.287 233.2C309.287 234.52 308.247 235.6 306.927 235.6ZM305.207 261V240.84H308.607V261H305.207Z" fill="#000091"/>
<path d="M313.477 258.24L315.877 256.2C317.277 257.96 318.957 258.96 320.997 258.96C323.237 258.96 324.517 257.6 324.517 255.84C324.517 251.32 314.437 252.92 314.437 245.8C314.437 242.64 317.117 240.04 320.997 240.04C323.877 240.04 326.357 241.4 327.757 243.36L325.397 245.36C324.317 243.84 322.797 242.88 321.037 242.88C318.877 242.88 317.717 244.16 317.717 245.72C317.717 250.24 327.837 248.8 327.837 255.68C327.797 259.44 324.797 261.8 321.037 261.8C317.837 261.8 315.317 260.52 313.477 258.24Z" fill="#000091"/>
<path d="M331.055 258.24L333.455 256.2C334.855 257.96 336.535 258.96 338.575 258.96C340.815 258.96 342.095 257.6 342.095 255.84C342.095 251.32 332.015 252.92 332.015 245.8C332.015 242.64 334.695 240.04 338.575 240.04C341.455 240.04 343.935 241.4 345.335 243.36L342.975 245.36C341.895 243.84 340.375 242.88 338.615 242.88C336.455 242.88 335.295 244.16 335.295 245.72C335.295 250.24 345.415 248.8 345.415 255.68C345.375 259.44 342.375 261.8 338.615 261.8C335.415 261.8 332.895 260.52 331.055 258.24Z" fill="#000091"/>
<path d="M352.669 235.6C351.349 235.6 350.269 234.52 350.269 233.2C350.269 231.92 351.349 230.84 352.669 230.84C353.989 230.84 355.029 231.92 355.029 233.2C355.029 234.52 353.989 235.6 352.669 235.6ZM350.949 261V240.84H354.349V261H350.949Z" fill="#000091"/>
<path d="M370.735 240.04C377.215 240.04 381.655 245.04 381.655 250.92C381.655 256.8 377.215 261.8 370.735 261.8C364.215 261.8 359.815 256.8 359.815 250.92C359.815 245.04 364.215 240.04 370.735 240.04ZM370.775 258.6C374.975 258.6 378.055 255.08 378.055 250.92C378.055 246.72 374.975 243.24 370.775 243.24C366.455 243.24 363.375 246.72 363.375 250.92C363.375 255.12 366.455 258.6 370.775 258.6Z" fill="#000091"/>
<path d="M387.121 261V240.84H390.521V243.12C392.161 241.32 394.241 240.04 397.241 240.04C401.761 240.04 405.121 243.08 405.121 248.8V261H401.721V248.92C401.721 245.32 399.681 243.24 396.561 243.24C393.641 243.24 391.801 244.92 390.521 247.04V261H387.121Z" fill="#000091"/>
<path d="M423.586 261V233H427.346V261H423.586Z" fill="#000091"/>
<path d="M435.402 261V240.84H438.802V243.12C440.442 241.32 442.522 240.04 445.522 240.04C450.042 240.04 453.402 243.08 453.402 248.8V261H450.002V248.92C450.002 245.32 447.962 243.24 444.842 243.24C441.922 243.24 440.082 244.92 438.802 247.04V261H435.402Z" fill="#000091"/>
<path d="M458.086 258.24L460.486 256.2C461.886 257.96 463.566 258.96 465.606 258.96C467.846 258.96 469.126 257.6 469.126 255.84C469.126 251.32 459.046 252.92 459.046 245.8C459.046 242.64 461.726 240.04 465.606 240.04C468.486 240.04 470.966 241.4 472.366 243.36L470.006 245.36C468.926 243.84 467.406 242.88 465.646 242.88C463.486 242.88 462.326 244.16 462.326 245.72C462.326 250.24 472.446 248.8 472.446 255.68C472.406 259.44 469.406 261.8 465.646 261.8C462.446 261.8 459.926 260.52 458.086 258.24Z" fill="#000091"/>
<path d="M495.666 257.68C493.786 260.2 490.786 261.8 487.026 261.8C480.226 261.8 476.026 256.8 476.026 250.92C476.026 244.8 479.946 240.04 486.186 240.04C491.666 240.04 495.226 243.88 495.226 248.84C495.226 249.64 495.106 250.4 494.986 250.96H479.506C479.626 255.8 482.706 258.72 487.026 258.72C489.626 258.72 491.826 257.52 493.146 255.72L495.666 257.68ZM486.106 242.92C482.786 242.92 480.466 244.88 479.746 248.36H491.826C491.706 245.4 489.666 242.92 486.106 242.92Z" fill="#000091"/>
<path d="M500.988 261V240.84H504.388V243.36C505.868 241.6 507.708 240.44 510.268 240.44C510.908 240.44 511.508 240.52 511.988 240.68V244C511.388 243.84 510.788 243.76 509.988 243.76C507.348 243.76 505.628 245.12 504.388 247.16V261H500.988Z" fill="#000091"/>
<path d="M521.85 259C521.85 265.04 518.85 267.52 513.93 267.52C513.17 267.52 512.49 267.48 511.97 267.36V264C512.45 264.12 512.93 264.2 513.49 264.2C516.17 264.2 518.09 263.08 518.09 259.16V233H521.85V259Z" fill="#000091"/>
<path d="M547.619 257.68C545.739 260.2 542.739 261.8 538.979 261.8C532.179 261.8 527.979 256.8 527.979 250.92C527.979 244.8 531.899 240.04 538.139 240.04C543.619 240.04 547.179 243.88 547.179 248.84C547.179 249.64 547.059 250.4 546.939 250.96H531.459C531.579 255.8 534.659 258.72 538.979 258.72C541.579 258.72 543.779 257.52 545.099 255.72L547.619 257.68ZM538.059 242.92C534.739 242.92 532.419 244.88 531.699 248.36H543.779C543.659 245.4 541.619 242.92 538.059 242.92Z" fill="#000091"/>
<path d="M566.669 252.36V240.84H570.069V252.24C570.069 258.28 566.589 261.8 561.109 261.8C555.669 261.8 552.189 258.28 552.189 252.24V240.84H555.589V252.36C555.589 256.32 557.709 258.6 561.149 258.6C564.509 258.6 566.669 256.32 566.669 252.36Z" fill="#000091"/>
<path d="M576.769 261V240.84H580.169V243.12C581.809 241.32 583.889 240.04 586.889 240.04C591.409 240.04 594.769 243.08 594.769 248.8V261H591.369V248.92C591.369 245.32 589.329 243.24 586.209 243.24C583.289 243.24 581.449 244.92 580.169 247.04V261H576.769Z" fill="#000091"/>
<path d="M619.533 257.68C617.653 260.2 614.653 261.8 610.893 261.8C604.093 261.8 599.893 256.8 599.893 250.92C599.893 244.8 603.813 240.04 610.053 240.04C615.533 240.04 619.093 243.88 619.093 248.84C619.093 249.64 618.973 250.4 618.853 250.96H603.373C603.493 255.8 606.573 258.72 610.893 258.72C613.493 258.72 615.693 257.52 617.013 255.72L619.533 257.68ZM609.973 242.92C606.653 242.92 604.333 244.88 603.613 248.36H615.693C615.573 245.4 613.533 242.92 609.973 242.92Z" fill="#000091"/>
<path d="M622.539 258.24L624.939 256.2C626.339 257.96 628.019 258.96 630.059 258.96C632.299 258.96 633.579 257.6 633.579 255.84C633.579 251.32 623.499 252.92 623.499 245.8C623.499 242.64 626.179 240.04 630.059 240.04C632.939 240.04 635.419 241.4 636.819 243.36L634.459 245.36C633.379 243.84 631.859 242.88 630.099 242.88C627.939 242.88 626.779 244.16 626.779 245.72C626.779 250.24 636.899 248.8 636.899 255.68C636.859 259.44 633.859 261.8 630.099 261.8C626.899 261.8 624.379 260.52 622.539 258.24Z" fill="#000091"/>
<path d="M466.301 76.0002C466.301 82.6277 460.928 88.0002 454.301 88.0002C447.673 88.0002 442.301 82.6277 442.301 76.0002C442.301 69.3728 447.673 64.0002 454.301 64.0002C460.928 64.0002 466.301 69.3728 466.301 76.0002Z" fill="#000091"/>
<path d="M123.2 121.2C123.2 105.957 110.843 93.6001 95.6 93.6001C80.3569 93.6001 68 105.957 68 121.2C68 136.443 80.3569 148.8 95.6 148.8C110.843 148.8 123.2 136.443 123.2 121.2Z" fill="#CCCCE9"/>
<path d="M195.601 78.4C195.601 70.4471 189.154 64 181.201 64C173.248 64 166.801 70.4471 166.801 78.4C166.801 86.3529 173.248 92.8 181.201 92.8C189.154 92.8 195.601 86.3529 195.601 78.4Z" fill="#6A6AF4"/>
<path d="M134.001 175.6C134.001 167.647 127.554 161.2 119.601 161.2C111.648 161.2 105.201 167.647 105.201 175.6C105.201 183.553 111.648 190 119.601 190C127.554 190 134.001 183.553 134.001 175.6Z" fill="#000091"/>
</svg>
