<svg
  width="308"
  height="134"
  viewBox="0 0 308 134"
  fill="none"
  xmlns="http://www.w3.org/2000/svg"
>
  <path
    d="M307 94.6562C307 97.6593 304.587 100.094 301.609 100.094C298.632 100.094 296.219 97.6593 296.219 94.6562M307 15.5312C303.272 15.5312 300.25 12.4882 300.25 8.73438C300.25 4.98056 303.272 1.9375 307 1.9375M209.688 7.45995C209.688 10.5714 212.206 13.0938 215.312 13.0938C218.419 13.0938 220.938 10.5714 220.938 7.45995V1.09375M169.866 133.375C162.864 133.375 157.188 127.73 157.188 120.766C157.188 113.801 162.864 108.156 169.866 108.156H181.469M169.092 124.75C166.763 124.75 164.875 122.924 164.875 120.672C164.875 118.419 166.763 116.594 169.092 116.594H173.594M181.938 1.09379L163.528 1.09375C159.922 1.09375 157 3.94794 157 7.46875M261.812 1.28131L285.413 1.28125C290.035 1.28125 293.781 5.01688 293.781 9.625M307 44.3125V28.5326C307 25.4425 304.481 22.9375 301.375 22.9375C298.269 22.9375 295.75 25.4425 295.75 28.5326V30.9751M220.094 91.519H203.272C199.031 91.519 195.594 94.9382 195.594 99.1559C195.594 103.374 199.031 106.793 203.272 106.793H210.215M191.391 133.375H190.388C187.43 133.375 185.031 130.973 185.031 128.012C185.031 125.05 187.43 122.648 190.388 122.648H202.349C206.721 122.648 210.265 119.1 210.265 114.723M193.54 56.125V62.1518C193.54 69.4928 199.484 75.4437 206.817 75.4437H212.105C216.517 75.4437 220.094 79.0245 220.094 83.4415M174.297 37.9375C181.571 37.9375 187.469 32.1242 187.469 24.9531C187.469 17.782 181.571 11.9688 174.297 11.9688C167.022 11.9688 161.125 17.782 161.125 24.9531M279.926 115.793C277.925 123.275 282.254 130.939 289.595 132.91C296.936 134.88 304.51 130.412 306.512 122.929C308.513 115.446 304.184 107.783 296.843 105.812M202.172 114.719C194.207 114.719 187.75 107.647 187.75 98.923C187.75 95.8938 188.529 93.0637 189.878 90.6597M212.031 83.0312H202.206C199.063 83.0312 196.154 84.1189 193.784 85.9653M187.797 39.8125C184.82 39.8125 182.406 42.2259 182.406 45.2031C182.406 48.1803 184.82 50.5938 187.797 50.5938C190.774 50.5938 193.188 48.1803 193.188 45.2031V39.8125M189.438 8.26562C189.438 12.2265 192.627 15.4375 196.562 15.4375C200.498 15.4375 203.688 12.2265 203.688 8.26562C203.688 4.30471 200.498 1.09375 196.562 1.09375H189.438M163.703 82.2421C160.26 82.2421 157.469 79.4807 157.469 76.0742C157.469 72.6677 160.26 69.9062 163.703 69.9062C167.146 69.9062 169.938 72.6677 169.938 76.0742V94.9375M294.061 82.5625C294.061 85.7208 296.581 88.2812 299.688 88.2812C302.794 88.2812 305.312 85.7208 305.312 82.5625C305.312 79.4042 302.794 76.8438 299.688 76.8438H280.844M247.562 14.1054C244.249 14.1054 241.562 16.7541 241.562 20.0214C241.562 23.2888 244.249 25.9375 247.562 25.9375C250.876 25.9375 253.562 23.2888 253.562 20.0214V1M242.774 127.938C242.774 124.934 245.189 122.5 248.168 122.5C251.147 122.5 253.562 124.934 253.562 127.938C253.562 130.941 251.147 133.375 248.168 133.375H239.594M259.141 53.7417C262.118 53.7417 264.531 56.143 264.531 59.1052C264.531 62.0675 262.118 64.4688 259.141 64.4688C256.163 64.4688 253.75 62.0675 253.75 59.1052V39.0625M162.859 54.3164C159.882 54.3164 157.469 56.6939 157.469 59.6269C157.469 62.5599 159.882 64.9375 162.859 64.9375C165.837 64.9375 168.25 62.5599 168.25 59.6269V37.9375M221.566 37.9375C221.566 32.6045 217.312 28.2812 212.064 28.2812C206.817 28.2812 202.562 32.6045 202.562 37.9375C202.562 43.2705 206.817 47.5938 212.064 47.5938H236.969M297.498 69.1562C302.746 69.1562 307 64.833 307 59.5C307 54.167 302.746 49.8438 297.498 49.8438H272.594M234.625 75.5781V67.2031C234.625 64.8127 236.577 62.875 238.984 62.875C241.392 62.875 243.344 64.8127 243.344 67.2031V83.9532C243.344 86.3435 241.392 88.2812 238.984 88.2812C236.577 88.2812 234.625 86.3435 234.625 83.9532V81.9297M242.688 30.806V31.5361C242.688 35.6928 239.309 39.0625 235.141 39.0625C230.973 39.0625 227.594 35.6928 227.594 31.5361V8.6201C227.594 4.46341 230.973 1.09375 235.141 1.09375C239.309 1.09375 242.688 4.46341 242.688 8.6201V8.84477M163.727 90.25H163.276C160.069 90.25 157.469 92.8523 157.469 96.0625C157.469 99.2727 160.069 101.875 163.276 101.875H176.693C179.9 101.875 182.5 99.2727 182.5 96.0625C182.5 92.8523 179.9 90.25 176.693 90.25H176.242M227.406 62.875V84.5909C227.406 91.0819 232.716 96.3438 239.266 96.3438C245.815 96.3438 251.125 91.0819 251.125 84.5909V79.4602M203.594 99.625H223.075C230.489 99.625 236.5 105.669 236.5 113.125C236.5 120.58 230.489 126.625 223.075 126.625H217.214M211.938 66.7188H207.326C204.229 66.7188 201.719 64.2003 201.719 61.0938C201.719 57.9872 204.229 55.4688 207.326 55.4688H216.549C219.646 55.4688 222.156 57.9872 222.156 61.0938V61.5935C222.156 64.4241 219.869 66.7188 217.047 66.7188M259.141 45.25H264.408C267.945 45.25 270.812 42.5427 270.812 39.2031C270.812 35.8636 267.945 33.1562 264.408 33.1562H253.874C250.336 33.1562 247.469 35.8636 247.469 39.2031M220.281 20.0312H207.655C199.665 20.0312 193.188 26.5371 193.188 34.5625M292.891 114.141C295.868 114.141 298.281 116.538 298.281 119.493C298.281 122.448 295.868 124.844 292.891 124.844C289.913 124.844 287.5 122.448 287.5 119.493V84.625M252.531 117.625C252.531 112.137 256.923 107.688 262.341 107.688H279.625M227.031 55.4688H236.254C242.448 55.4688 247.469 50.4319 247.469 44.2188M280.844 84.8125V89.852C280.844 94.9388 276.719 99.0625 271.629 99.0625H264.438M298.281 59.6875H290.406C284.71 59.6875 280.094 64.3466 280.094 70.0938M177.438 133.375V124.833C177.438 119.914 181.279 115.794 186.438 114.719M161.172 31.5625C161.172 32.4356 161.172 43.4263 161.172 48.8125M197.875 133.328C199.845 133.328 221.255 133.328 233.406 133.328M259.047 71.2188C259.047 71.94 259.047 81.0192 259.047 85.4688M244.609 109.938C244.609 110.232 244.609 113.935 244.609 115.75M272.594 56.0312V69.3747C272.594 71.4743 270.879 73.175 268.763 73.175C266.647 73.175 264.932 74.877 264.932 76.9766V77.7651C264.932 79.8647 266.647 81.5668 268.763 81.5668C270.879 81.5668 272.594 83.2688 272.594 85.3685V86.2415C272.594 88.8232 270.485 90.9161 267.883 90.9161H261.867M246.438 103.375H248.948C254.135 103.375 258.34 99.1751 258.34 93.9942M295.844 37.5551V39.4565C295.844 42.1384 293.663 44.3125 290.974 44.3125C288.284 44.3125 286.103 42.1384 286.103 39.4565V37.8815C286.103 35.22 283.939 33.0625 281.271 33.0625C278.602 33.0625 276.438 35.22 276.438 37.8815V39.8199M151 94.6562C151 97.6593 148.587 100.094 145.609 100.094C142.632 100.094 140.219 97.6593 140.219 94.6562M151 15.5312C147.272 15.5312 144.25 12.4882 144.25 8.73438C144.25 4.98056 147.272 1.9375 151 1.9375M53.6875 7.45995C53.6875 10.5714 56.2059 13.0938 59.3125 13.0938C62.4191 13.0938 64.9375 10.5714 64.9375 7.45995V1.09375M13.8658 133.375C6.86378 133.375 1.1875 127.73 1.1875 120.766C1.1875 113.801 6.86378 108.156 13.8658 108.156H25.4688M13.0919 124.75C10.7629 124.75 8.875 122.924 8.875 120.672C8.875 118.419 10.7629 116.594 13.0919 116.594H17.5938M25.9375 1.09379L7.52754 1.09375C3.92248 1.09375 1 3.94794 1 7.46875M105.812 1.28131L129.413 1.28125C134.035 1.28125 137.781 5.01688 137.781 9.625M151 44.3125V28.5326C151 25.4425 148.481 22.9375 145.375 22.9375C142.269 22.9375 139.75 25.4425 139.75 28.5326V30.9751M64.0938 91.519H47.2715C43.0314 91.519 39.594 94.9382 39.594 99.1559C39.594 103.374 43.0314 106.793 47.2715 106.793H54.2146M35.3913 133.375H34.3884C31.4298 133.375 29.0312 130.973 29.0312 128.012C29.0312 125.05 31.4298 122.648 34.3884 122.648H46.349C50.7206 122.648 54.2645 119.1 54.2645 114.723M37.5401 56.125V62.1518C37.5401 69.4928 43.4843 75.4437 50.8169 75.4437H56.105C60.517 75.4437 64.0938 79.0245 64.0938 83.4415M18.2969 37.9375C25.5714 37.9375 31.4688 32.1242 31.4688 24.9531C31.4688 17.782 25.5714 11.9688 18.2969 11.9688C11.0223 11.9688 5.125 17.782 5.125 24.9531M123.926 115.793C121.925 123.275 126.254 130.939 133.595 132.91C140.936 134.88 148.51 130.412 150.512 122.929C152.513 115.446 148.184 107.783 140.843 105.812M46.1716 114.719C38.2068 114.719 31.75 107.647 31.75 98.923C31.75 95.8938 32.5285 93.0637 33.8784 90.6597M56.0312 83.0312H46.2065C43.0628 83.0312 40.1537 84.1189 37.7835 85.9653M31.7969 39.8125C28.8197 39.8125 26.4062 42.2259 26.4062 45.2031C26.4062 48.1803 28.8197 50.5938 31.7969 50.5938C34.7741 50.5938 37.1875 48.1803 37.1875 45.2031V39.8125M33.4375 8.26562C33.4375 12.2265 36.6275 15.4375 40.5625 15.4375C44.4975 15.4375 47.6875 12.2265 47.6875 8.26562C47.6875 4.30471 44.4975 1.09375 40.5625 1.09375H33.4375M7.70312 82.2421C4.25998 82.2421 1.46875 79.4807 1.46875 76.0742C1.46875 72.6677 4.25998 69.9062 7.70312 69.9062C11.1463 69.9062 13.9375 72.6677 13.9375 76.0742V94.9375M138.061 82.5625C138.061 85.7208 140.581 88.2812 143.688 88.2812C146.794 88.2812 149.312 85.7208 149.312 82.5625C149.312 79.4042 146.794 76.8438 143.688 76.8438H124.844M91.5625 14.1054C88.2488 14.1054 85.5625 16.7541 85.5625 20.0214C85.5625 23.2888 88.2488 25.9375 91.5625 25.9375C94.8762 25.9375 97.5625 23.2888 97.5625 20.0214V1M86.7736 127.938C86.7736 124.934 89.1889 122.5 92.1681 122.5C95.1474 122.5 97.5625 124.934 97.5625 127.938C97.5625 130.941 95.1474 133.375 92.1681 133.375H83.5938M103.141 53.7417C106.118 53.7417 108.531 56.143 108.531 59.1052C108.531 62.0675 106.118 64.4688 103.141 64.4688C100.163 64.4688 97.75 62.0675 97.75 59.1052V39.0625M6.85938 54.3164C3.88221 54.3164 1.46875 56.6939 1.46875 59.6269C1.46875 62.5599 3.88221 64.9375 6.85938 64.9375C9.83654 64.9375 12.25 62.5599 12.25 59.6269V37.9375M65.566 37.9375C65.566 32.6045 61.3119 28.2812 56.0642 28.2812C50.8166 28.2812 46.5625 32.6045 46.5625 37.9375C46.5625 43.2705 50.8166 47.5938 56.0642 47.5938H80.9688M141.498 69.1562C146.746 69.1562 151 64.833 151 59.5C151 54.167 146.746 49.8438 141.498 49.8438H116.594M78.625 75.5781V67.2031C78.625 64.8127 80.5768 62.875 82.9844 62.875C85.392 62.875 87.3438 64.8127 87.3438 67.2031V83.9532C87.3438 86.3435 85.392 88.2812 82.9844 88.2812C80.5768 88.2812 78.625 86.3435 78.625 83.9532V81.9297M86.6875 30.806V31.5361C86.6875 35.6928 83.3086 39.0625 79.1406 39.0625C74.9726 39.0625 71.5938 35.6928 71.5938 31.5361V8.6201C71.5938 4.46341 74.9726 1.09375 79.1406 1.09375C83.3086 1.09375 86.6875 4.46341 86.6875 8.6201V8.84477M7.72656 90.25H7.27555C4.06855 90.25 1.46875 92.8523 1.46875 96.0625C1.46875 99.2727 4.06854 101.875 7.27555 101.875H20.6932C23.9002 101.875 26.5 99.2727 26.5 96.0625C26.5 92.8523 23.9002 90.25 20.6932 90.25H20.2422M71.4062 62.875V84.5909C71.4062 91.0819 76.7159 96.3438 83.2656 96.3438C89.8154 96.3438 95.125 91.0819 95.125 84.5909V79.4602M47.5938 99.625H67.0751C74.4895 99.625 80.5 105.669 80.5 113.125C80.5 120.58 74.4895 126.625 67.0751 126.625H61.2145M55.9375 66.7188H51.3263C48.2293 66.7188 45.7188 64.2003 45.7188 61.0938C45.7188 57.9872 48.2293 55.4688 51.3263 55.4688H60.5487C63.6457 55.4688 66.1562 57.9872 66.1562 61.0938V61.5935C66.1562 64.4241 63.8687 66.7188 61.0469 66.7188M103.141 45.25H108.408C111.945 45.25 114.812 42.5427 114.812 39.2031C114.812 35.8636 111.945 33.1562 108.408 33.1562H97.8736C94.3363 33.1562 91.4688 35.8636 91.4688 39.2031M64.2812 20.0312H51.6549C43.6648 20.0312 37.1875 26.5371 37.1875 34.5625M136.891 114.141C139.868 114.141 142.281 116.538 142.281 119.493C142.281 122.448 139.868 124.844 136.891 124.844C133.913 124.844 131.5 122.448 131.5 119.493V84.625M96.5312 117.625C96.5312 112.137 100.923 107.688 106.341 107.688H123.625M71.0312 55.4688H80.2537C86.4476 55.4688 91.4688 50.4319 91.4688 44.2188M124.844 84.8125V89.852C124.844 94.9388 120.719 99.0625 115.629 99.0625H108.438M142.281 59.6875H134.406C128.71 59.6875 124.094 64.3466 124.094 70.0938M21.4375 133.375V124.833C21.4375 119.914 25.2789 115.794 30.4375 114.719M5.17188 31.5625C5.17188 32.4356 5.17188 43.4263 5.17188 48.8125M41.875 133.328C43.8446 133.328 65.2552 133.328 77.4062 133.328M103.047 71.2188C103.047 71.94 103.047 81.0192 103.047 85.4688M88.6094 109.938C88.6094 110.232 88.6094 113.935 88.6094 115.75M116.594 56.0312V69.3747C116.594 71.4743 114.879 73.175 112.763 73.175C110.647 73.175 108.932 74.877 108.932 76.9766V77.7651C108.932 79.8647 110.647 81.5668 112.763 81.5668C114.879 81.5668 116.594 83.2688 116.594 85.3685V86.2415C116.594 88.8232 114.485 90.9161 111.883 90.9161H105.867M90.4375 103.375H92.9478C98.135 103.375 102.34 99.1751 102.34 93.9942M139.844 37.5551V39.4565C139.844 42.1384 137.663 44.3125 134.974 44.3125C132.284 44.3125 130.103 42.1384 130.103 39.4565V37.8815C130.103 35.22 127.939 33.0625 125.271 33.0625C122.602 33.0625 120.438 35.22 120.438 37.8815V39.8199M212.125 41.5938C214.196 41.5938 215.875 39.9148 215.875 37.8438C215.875 35.7727 214.196 34.0938 212.125 34.0938C210.054 34.0938 208.375 35.7727 208.375 37.8438C208.375 39.9148 210.054 41.5938 212.125 41.5938ZM222.438 118.469C225.441 118.469 227.875 116.055 227.875 113.078C227.875 110.101 225.441 107.688 222.438 107.688C219.434 107.688 217 110.101 217 113.078C217 116.055 219.434 118.469 222.438 118.469ZM174.25 31C177.512 31 180.156 28.3557 180.156 25.0938C180.156 21.8318 177.512 19.1875 174.25 19.1875C170.988 19.1875 168.344 21.8318 168.344 25.0938C168.344 28.3557 170.988 31 174.25 31ZM260.781 17.4531C260.781 12.4566 264.788 8.40625 269.731 8.40625H278.925C283.869 8.40625 287.875 12.4566 287.875 17.4531C287.875 22.4496 283.869 26.5 278.925 26.5H269.731C264.788 26.5 260.781 22.4496 260.781 17.4531ZM181.984 82.6562C178.904 82.6562 176.406 80.163 176.406 77.0875V61.225C176.406 58.1495 178.904 55.6562 181.984 55.6562C185.065 55.6562 187.562 58.1495 187.562 61.225V77.0875C187.562 80.163 185.065 82.6562 181.984 82.6562ZM259.094 121.559C259.094 117.782 262.158 114.719 265.938 114.719C269.717 114.719 272.781 117.782 272.781 121.559V126.534C272.781 130.312 269.717 133.375 265.938 133.375C262.158 133.375 259.094 130.312 259.094 126.534V121.559ZM56.125 41.5938C58.1961 41.5938 59.875 39.9148 59.875 37.8438C59.875 35.7727 58.1961 34.0938 56.125 34.0938C54.0539 34.0938 52.375 35.7727 52.375 37.8438C52.375 39.9148 54.0539 41.5938 56.125 41.5938ZM66.4375 118.469C69.4405 118.469 71.875 116.055 71.875 113.078C71.875 110.101 69.4405 107.688 66.4375 107.688C63.4345 107.688 61 110.101 61 113.078C61 116.055 63.4345 118.469 66.4375 118.469ZM18.25 31C21.5119 31 24.1562 28.3557 24.1562 25.0938C24.1562 21.8318 21.5119 19.1875 18.25 19.1875C14.9881 19.1875 12.3438 21.8318 12.3438 25.0938C12.3438 28.3557 14.9881 31 18.25 31ZM104.781 17.4531C104.781 12.4566 108.788 8.40625 113.731 8.40625H122.925C127.869 8.40625 131.875 12.4566 131.875 17.4531C131.875 22.4496 127.869 26.5 122.925 26.5H113.731C108.788 26.5 104.781 22.4496 104.781 17.4531ZM25.9844 82.6562C22.9037 82.6562 20.4062 80.163 20.4062 77.0875V61.225C20.4062 58.1495 22.9037 55.6562 25.9844 55.6562C29.0651 55.6562 31.5625 58.1495 31.5625 61.225V77.0875C31.5625 80.163 29.0651 82.6562 25.9844 82.6562ZM103.094 121.559C103.094 117.782 106.158 114.719 109.938 114.719C113.717 114.719 116.781 117.782 116.781 121.559V126.534C116.781 130.312 113.717 133.375 109.938 133.375C106.158 133.375 103.094 130.312 103.094 126.534V121.559Z"
    stroke="#4484AB"
    strokeWidth="1.21875"
    strokeLinecap="round"
    strokeLinejoin="round"
  />
</svg>
