<svg width="160" height="160" viewBox="0 0 160 160" fill="none" xmlns="http://www.w3.org/2000/svg">
<path fill-rule="evenodd" clip-rule="evenodd" d="M146 36C144.897 36 144 35.1028 144 34C144 32.8971 144.897 32 146 32C147.103 32 148 32.8971 148 34C148 35.1028 147.103 36 146 36Z" fill="#CACAFB"/>
<path fill-rule="evenodd" clip-rule="evenodd" d="M14 36C12.8972 36 12 35.1028 12 34C12 32.8971 12.8972 32 14 32C15.1028 32 16 32.8971 16 34C16 35.1028 15.1028 36 14 36Z" fill="#CACAFB"/>
<path fill-rule="evenodd" clip-rule="evenodd" d="M22 136C20.8972 136 20 135.103 20 134C20 132.897 20.8972 132 22 132C23.1028 132 24 132.897 24 134C24 135.103 23.1028 136 22 136Z" fill="#CACAFB"/>
<path fill-rule="evenodd" clip-rule="evenodd" d="M38 12C36.8972 12 36 11.1028 36 10C36 8.89711 36.8972 8 38 8C39.1028 8 40 8.89711 40 10C40 11.1028 39.1028 12 38 12Z" fill="#CACAFB"/>
<path fill-rule="evenodd" clip-rule="evenodd" d="M110 156C108.897 156 108 155.103 108 154C108 152.897 108.897 152 110 152C111.103 152 112 152.897 112 154C112 155.103 111.103 156 110 156Z" fill="#CACAFB"/>
<path d="M108.073 81.4635C108.37 80.3994 109.472 79.777 110.536 80.0733C115.216 81.3762 118.803 85.0461 119.752 89.5965C119.978 90.6778 119.284 91.7372 118.203 91.9629C117.122 92.1886 116.062 91.4949 115.837 90.4137C115.2 87.3608 112.733 84.837 109.464 83.9267C108.399 83.6304 107.777 82.5276 108.073 81.4635Z" fill="#7B7B7B"/>
<path fill-rule="evenodd" clip-rule="evenodd" d="M88 92C88 80.9697 96.97 72 108 72C119.03 72 128 80.9697 128 92C128 97.1323 126.058 101.819 122.87 105.363L134.66 125.785C136.317 128.654 135.334 132.324 132.464 133.981C129.697 135.578 126.186 134.721 124.453 132.085L124.268 131.785L112.545 111.479C111.084 111.82 109.563 112 108 112C96.9702 112 88 103.03 88 92ZM116.397 110.151L127.732 129.785C128.284 130.741 129.508 131.069 130.464 130.517C131.352 130.004 131.698 128.913 131.301 127.993L131.196 127.785L119.838 108.112C118.767 108.901 117.615 109.586 116.397 110.151ZM124 92C124 83.1788 116.821 76 108 76C99.1791 76 92 83.1788 92 92C92 100.821 99.1794 108 108 108C116.821 108 124 100.821 124 92Z" fill="#7B7B7B"/>
<path d="M137.987 35.7668C137.871 34.7721 137.026 34 136 34H28L27.7668 34.0135C26.7721 34.129 26 34.9743 26 36V128L26.0135 128.233C26.129 129.228 26.9743 130 28 130H112L112.233 129.987C113.228 129.871 114 129.026 114 128L113.987 127.767C113.871 126.772 113.026 126 112 126H30V54H104L104.233 53.9865C105.228 53.871 106 53.0257 106 52C106 50.8954 105.105 50 104 50H30V38H134V50H116L115.767 50.0135C114.772 50.129 114 50.9743 114 52C114 53.1046 114.895 54 116 54H134V112L134.013 112.233C134.129 113.228 134.974 114 136 114C137.105 114 138 113.105 138 112V36L137.987 35.7668Z" fill="#BBBBBB"/>
<path d="M36 46C34.8972 46 34 45.1028 34 44C34 42.8971 34.8972 42 36 42C37.1028 42 38 42.8971 38 44C38 45.1028 37.1028 46 36 46Z" fill="#BBBBBB"/>
<path d="M42 44C42 45.1028 42.8972 46 44 46C45.1028 46 46 45.1028 46 44C46 42.8971 45.1028 42 44 42C42.8972 42 42 42.8971 42 44Z" fill="#BBBBBB"/>
<path d="M52 46C50.8972 46 50 45.1028 50 44C50 42.8971 50.8972 42 52 42C53.1028 42 54 42.8971 54 44C54 45.1028 53.1028 46 52 46Z" fill="#BBBBBB"/>
<path d="M128 42C129.105 42 130 42.8954 130 44C130 45.0257 129.228 45.871 128.233 45.9865L128 46H68C66.8954 46 66 45.1046 66 44C66 42.9743 66.7721 42.129 67.7668 42.0135L68 42H128Z" fill="#BBBBBB"/>
<path d="M82 68C82 66.8954 81.1046 66 80 66H44L43.7668 66.0135C42.7721 66.129 42 66.9743 42 68C42 69.1046 42.8954 70 44 70H80L80.2332 69.9865C81.2279 69.871 82 69.0257 82 68Z" fill="#BBBBBB"/>
<path d="M72 78C73.1046 78 74 78.8954 74 80C74 81.0257 73.2279 81.871 72.2332 81.9865L72 82H44C42.8954 82 42 81.1046 42 80C42 78.9743 42.7721 78.129 43.7668 78.0135L44 78H72Z" fill="#BBBBBB"/>
<path d="M70 92C70 90.8954 69.1046 90 68 90H44L43.7668 90.0135C42.7721 90.129 42 90.9743 42 92C42 93.1046 42.8954 94 44 94H68L68.2332 93.9865C69.2279 93.871 70 93.0257 70 92Z" fill="#BBBBBB"/>
</svg>
