<svg width="120" height="120" viewBox="0 0 120 120" fill="none" xmlns="http://www.w3.org/2000/svg">
<path fill-rule="evenodd" clip-rule="evenodd" d="M108 18C107.173 18 106.5 17.3271 106.5 16.5C106.5 15.6728 107.173 15 108 15C108.827 15 109.5 15.6728 109.5 16.5C109.5 17.3271 108.827 18 108 18Z" fill="#CACAFB"/>
<path fill-rule="evenodd" clip-rule="evenodd" d="M97.5 36C96.6729 36 96 35.3271 96 34.5C96 33.6728 96.6729 33 97.5 33C98.3271 33 99 33.6728 99 34.5C99 35.3271 98.3271 36 97.5 36Z" fill="#CACAFB"/>
<path fill-rule="evenodd" clip-rule="evenodd" d="M19.5 106.5C18.6729 106.5 18 105.827 18 105C18 104.173 18.6729 103.5 19.5 103.5C20.3271 103.5 21 104.173 21 105C21 105.827 20.3271 106.5 19.5 106.5Z" fill="#CACAFB"/>
<path fill-rule="evenodd" clip-rule="evenodd" d="M100.5 112.5C99.6729 112.5 99 111.827 99 111C99 110.173 99.6729 109.5 100.5 109.5C101.327 109.5 102 110.173 102 111C102 111.827 101.327 112.5 100.5 112.5Z" fill="#CACAFB"/>
<path fill-rule="evenodd" clip-rule="evenodd" d="M85.5 12C84.6729 12 84 11.3271 84 10.5C84 9.67283 84.6729 9 85.5 9C86.3271 9 87 9.67283 87 10.5C87 11.3271 86.3271 12 85.5 12Z" fill="#CACAFB"/>
<path fill-rule="evenodd" clip-rule="evenodd" d="M10.5 21C9.6729 21 9 20.3271 9 19.5C9 18.6728 9.6729 18 10.5 18C11.3271 18 12 18.6728 12 19.5C12 20.3271 11.3271 21 10.5 21Z" fill="#CACAFB"/>
<path fill-rule="evenodd" clip-rule="evenodd" d="M75.5575 76.6073C76.3267 76.915 76.7008 77.7879 76.3931 78.5571L70.3931 93.5571C70.0854 94.3263 69.2125 94.7004 68.4433 94.3927C67.6741 94.0851 67.3 93.2121 67.6077 92.4429L73.6077 77.4429C73.9154 76.6738 74.7883 76.2996 75.5575 76.6073ZM87.5575 84.1073C88.3267 84.415 88.7008 85.2879 88.3931 86.0571L85.3931 93.5571C85.0854 94.3263 84.2125 94.7004 83.4433 94.3927C82.6741 94.0851 82.3 93.2121 82.6077 92.4429L85.6077 84.9429C85.9154 84.1738 86.7883 83.7996 87.5575 84.1073Z" fill="#E4794A"/>
<path fill-rule="evenodd" clip-rule="evenodd" d="M53.0575 76.6073C53.8267 76.915 54.2008 77.7879 53.8931 78.5571L47.8931 93.5571C47.5854 94.3263 46.7125 94.7004 45.9433 94.3927C45.1741 94.0851 44.8 93.2121 45.1077 92.4429L51.1077 77.4429C51.4154 76.6738 52.2883 76.2996 53.0575 76.6073Z" fill="#E4794A"/>
<path fill-rule="evenodd" clip-rule="evenodd" d="M30.5575 76.6073C31.3267 76.915 31.7008 77.7879 31.3931 78.5571L25.3931 93.5571C25.0854 94.3263 24.2125 94.7004 23.4433 94.3927C22.6741 94.0851 22.3 93.2121 22.6077 92.4429L28.6077 77.4429C28.9154 76.6738 29.7883 76.2996 30.5575 76.6073Z" fill="#E4794A"/>
<path fill-rule="evenodd" clip-rule="evenodd" d="M48.0004 57C50.4856 57 52.5004 54.9853 52.5004 52.5C52.5004 50.0147 50.4856 48 48.0004 48C45.5151 48 43.5004 50.0147 43.5004 52.5C43.5004 54.9853 45.5151 57 48.0004 57ZM48.0004 60C52.1425 60 55.5004 56.6421 55.5004 52.5C55.5004 48.3579 52.1425 45 48.0004 45C43.8582 45 40.5004 48.3579 40.5004 52.5C40.5004 56.6421 43.8582 60 48.0004 60Z" fill="#E4794A"/>
<path fill-rule="evenodd" clip-rule="evenodd" d="M28.5004 46.5C28.5004 45.6716 29.1719 45 30.0004 45H36.0004C36.8288 45 37.5004 45.6716 37.5004 46.5C37.5004 47.3284 36.8288 48 36.0004 48H30.0004C29.1719 48 28.5004 47.3284 28.5004 46.5ZM28.5004 52.5C28.5004 51.6716 29.1719 51 30.0004 51H36.0004C36.8288 51 37.5004 51.6716 37.5004 52.5C37.5004 53.3284 36.8288 54 36.0004 54H30.0004C29.1719 54 28.5004 53.3284 28.5004 52.5ZM28.5004 58.5C28.5004 57.6716 29.1719 57 30.0004 57H36.0004C36.8288 57 37.5004 57.6716 37.5004 58.5C37.5004 59.3284 36.8288 60 36.0004 60H30.0004C29.1719 60 28.5004 59.3284 28.5004 58.5Z" fill="#E4794A"/>
<path fill-rule="evenodd" clip-rule="evenodd" d="M73.3428 29.0077C73.9396 26.9308 75.8395 25.5 78.0005 25.5C80.1614 25.5 82.0613 26.9308 82.6581 29.0077L90.579 56.5711L96.6092 76.0565L96.6179 76.0857L98.0301 81H103.5C104.329 81 105 81.6716 105 82.5V90C105 90.8284 104.329 91.5 103.5 91.5H93.0004C92.172 91.5 91.5004 90.8284 91.5004 90C91.5004 89.1716 92.172 88.5 93.0004 88.5H102V84H96.9005C96.2316 84 95.6436 83.5571 95.4588 82.9143L93.7388 76.9288L90.3946 66.1227H76.5005C75.672 66.1227 75.0005 65.4511 75.0005 64.6227C75.0005 63.7942 75.672 63.1227 76.5005 63.1227H89.4661L87.7086 57.4435L87.6999 57.4143L86.2877 52.5H69.7133L68.3011 57.4143L68.2924 57.4435L64.1145 70.9435C63.8696 71.7349 63.0295 72.1779 62.2381 71.9329C61.4467 71.688 61.0037 70.8479 61.2486 70.0565L63.0675 64.1792L65.422 56.5711L73.3428 29.0077ZM70.5754 49.5H85.4256L82.4082 39H73.5928L70.5754 49.5ZM74.4549 36H81.5461L79.7748 29.8363C79.5474 29.0451 78.8237 28.5 78.0005 28.5C77.1772 28.5 76.4535 29.0451 76.2261 29.8363L74.4549 36Z" fill="#000091"/>
<path fill-rule="evenodd" clip-rule="evenodd" d="M68.0575 76.6073C68.8267 76.915 69.2008 77.7879 68.8931 78.5571L62.8931 93.5571C62.5854 94.3263 61.7125 94.7004 60.9433 94.3927C60.1741 94.085 59.8 93.2121 60.1077 92.4429L66.1077 77.4429C66.4154 76.6737 67.2883 76.2996 68.0575 76.6073ZM83.0575 76.6073C83.8267 76.915 84.2008 77.7879 83.8931 78.5571L77.8931 93.5571C77.5854 94.3263 76.7125 94.7004 75.9433 94.3927C75.1741 94.085 74.8 93.2121 75.1077 92.4429L81.1077 77.4429C81.4154 76.6737 82.2883 76.2996 83.0575 76.6073Z" fill="#000091"/>
<path fill-rule="evenodd" clip-rule="evenodd" d="M45.5575 76.6073C46.3267 76.915 46.7008 77.7879 46.3931 78.5571L40.3931 93.5571C40.0854 94.3263 39.2125 94.7004 38.4433 94.3927C37.6741 94.085 37.3 93.2121 37.6077 92.4429L43.6077 77.4429C43.9154 76.6737 44.7883 76.2996 45.5575 76.6073ZM60.5575 76.6073C61.3267 76.915 61.7008 77.7879 61.3931 78.5571L55.3931 93.5571C55.0854 94.3263 54.2125 94.7004 53.4433 94.3927C52.6741 94.085 52.3 93.2121 52.6077 92.4429L58.6077 77.4429C58.9154 76.6737 59.7883 76.2996 60.5575 76.6073Z" fill="#000091"/>
<path fill-rule="evenodd" clip-rule="evenodd" d="M38.0575 76.6073C38.8267 76.915 39.2008 77.7879 38.8931 78.5571L32.8931 93.5571C32.5854 94.3263 31.7125 94.7004 30.9433 94.3927C30.1741 94.085 29.8 93.2121 30.1077 92.4429L36.1077 77.4429C36.4154 76.6737 37.2883 76.2996 38.0575 76.6073ZM21.5575 80.3573C22.3267 80.665 22.7008 81.5379 22.3931 82.3071L17.8931 93.5571C17.5854 94.3263 16.7125 94.7004 15.9433 94.3927C15.1741 94.085 14.8 93.2121 15.1077 92.4429L19.6077 81.1929C19.9154 80.4237 20.7883 80.0496 21.5575 80.3573Z" fill="#000091"/>
<path fill-rule="evenodd" clip-rule="evenodd" d="M22.5004 27C22.5004 26.1716 23.172 25.5 24.0004 25.5H66.0004C66.8288 25.5 67.5004 26.1716 67.5004 27V30C67.5004 30.8284 66.8288 31.5 66.0004 31.5C65.172 31.5 64.5004 30.8284 64.5004 30V28.5H25.5004V37.5H61.5004C62.3288 37.5 63.0004 38.1716 63.0004 39C63.0004 39.8284 62.3288 40.5 61.5004 40.5H25.5004V72C25.5004 72.8284 24.8288 73.5 24.0004 73.5C23.172 73.5 22.5004 72.8284 22.5004 72V27Z" fill="#000091"/>
<path d="M31.5004 33C31.5004 33.8284 30.8288 34.5 30.0004 34.5C29.172 34.5 28.5004 33.8284 28.5004 33C28.5004 32.1716 29.172 31.5 30.0004 31.5C30.8288 31.5 31.5004 32.1716 31.5004 33Z" fill="#000091"/>
<path d="M37.5004 33C37.5004 33.8284 36.8288 34.5 36.0004 34.5C35.172 34.5 34.5004 33.8284 34.5004 33C34.5004 32.1716 35.172 31.5 36.0004 31.5C36.8288 31.5 37.5004 32.1716 37.5004 33Z" fill="#000091"/>
<path d="M43.5004 33C43.5004 33.8284 42.8288 34.5 42.0004 34.5C41.172 34.5 40.5004 33.8284 40.5004 33C40.5004 32.1716 41.172 31.5 42.0004 31.5C42.8288 31.5 43.5004 32.1716 43.5004 33Z" fill="#000091"/>
<path d="M72.0004 64.5C72.0004 65.3284 71.3288 66 70.5004 66C69.672 66 69.0004 65.3284 69.0004 64.5C69.0004 63.6716 69.672 63 70.5004 63C71.3288 63 72.0004 63.6716 72.0004 64.5Z" fill="#000091"/>
</svg>
